<svg id="Boton_Small_-_Expediente" data-name="Boton Small - Expediente" xmlns="http://www.w3.org/2000/svg" width="30" height="30" viewBox="0 0 30 30">
  <rect id="Rectángulo_1458" data-name="Rectángulo 1458" width="30" height="30" fill="none"/>
  <path id="Trazado_3387" data-name="Trazado 3387" d="M10.005-6.247,6.63.5a1.133,1.133,0,0,1-1.037.622H-7.875a2.25,2.25,0,0,1-2.25-2.25v-11.25a2.25,2.25,0,0,1,2.25-2.25h4.131a2.25,2.25,0,0,1,1.591.659l1.728,1.591H4.5a2.25,2.25,0,0,1,2.25,2.25V-9H5.063v-1.125a.563.563,0,0,0-.562-.562H-1.125l-2.222-2.085a.554.554,0,0,0-.4-.165H-7.875a.563.563,0,0,0-.563.563V-2.25l2.5-5a1.124,1.124,0,0,1,1.007-.622H9A1.126,1.126,0,0,1,10.005-6.247Z" transform="translate(15 22)" fill="#488b8f"/>
</svg>
