<svg id="Boton_Small_-_Editar_Cliente" data-name="Boton Small - Editar Cliente" xmlns="http://www.w3.org/2000/svg" width="30" height="30" viewBox="0 0 30 30">
  <rect id="Rectángulo_1458" data-name="Rectángulo 1458" width="30" height="30" fill="none"/>
  <path id="Trazado_3393" data-name="Trazado 3393" d="M13.117-14.872a2.53,2.53,0,0,1,3.579,0l.425.426a2.532,2.532,0,0,1,0,3.579L10.188-3.93a2.573,2.573,0,0,1-1.1.643L5.576-2.282a.8.8,0,0,1-.83-.246.777.777,0,0,1-.214-.8L5.537-6.841a2.573,2.573,0,0,1,.643-1.1Zm2.355,1.193a.808.808,0,0,0-1.164,0l-1.023,1.023,1.621,1.621,1.023-1.055a.805.805,0,0,0,0-1.163Zm-8.311,7.3L6.571-4.321l2.057-.591a.822.822,0,0,0,.366-.214l4.721-4.718-1.621-1.621L7.376-6.743A.822.822,0,0,0,7.161-6.377ZM7.031-13.5a.843.843,0,0,1,.844.844.842.842,0,0,1-.844.844H3.094a1.406,1.406,0,0,0-1.406,1.406V-.844A1.406,1.406,0,0,0,3.094.563h9.563A1.406,1.406,0,0,0,14.063-.844V-4.781a.842.842,0,0,1,.844-.844.842.842,0,0,1,.844.844V-.844A3.094,3.094,0,0,1,12.656,2.25H3.094A3.094,3.094,0,0,1,0-.844v-9.562A3.094,3.094,0,0,1,3.094-13.5Z" transform="translate(6 22)" fill="#999"/>
</svg>
