<svg id="Boton_Small_-_Eliminar" data-name="Boton Small - Eliminar" xmlns="http://www.w3.org/2000/svg" width="28" height="28" viewBox="0 0 28 28">
  <rect id="Rectángulo_1458" data-name="Rectángulo 1458" width="28" height="28" fill="none"/>
  <path id="Trazado_3412" data-name="Trazado 3412" d="M-2-1.5a.5.5,0,0,1-.5.5A.5.5,0,0,1-3-1.5V-8a.5.5,0,0,1,.5-.5A.5.5,0,0,1-2-8Zm2.5,0A.5.5,0,0,1,0-1a.5.5,0,0,1-.5-.5V-8A.5.5,0,0,1,0-8.5.5.5,0,0,1,.5-8ZM3-1.5a.5.5,0,0,1-.5.5A.5.5,0,0,1,2-1.5V-8a.5.5,0,0,1,.5-.5A.5.5,0,0,1,3-8ZM2.922-13.221,4.069-11.5H6.25a.749.749,0,0,1,.75.75.748.748,0,0,1-.75.75H6V-.5A2.5,2.5,0,0,1,3.5,2h-7A2.5,2.5,0,0,1-6-.5V-10h-.25A.749.749,0,0,1-7-10.75a.75.75,0,0,1,.75-.75h2.182l1.146-1.721A1.752,1.752,0,0,1-1.466-14H1.466A1.752,1.752,0,0,1,2.922-13.221ZM-2.266-11.5H2.266l-.594-.889a.251.251,0,0,0-.206-.111H-1.466c-.081,0-.187.042-.206.111ZM-4.5-.5a1,1,0,0,0,1,1h7a1,1,0,0,0,1-1V-10h-9Z" transform="translate(14 20)" fill="#999"/>
</svg>
