<svg id="Boton_Small_-_Perfil_de_Riesgo_Cliente" data-name="Boton Small - Perfil de Riesgo Cliente" xmlns="http://www.w3.org/2000/svg" width="30" height="30" viewBox="0 0 30 30">
  <rect id="Rectángulo_1458" data-name="Rectángulo 1458" width="30" height="30" fill="none"/>
  <path id="Trazado_3392" data-name="Trazado 3392" d="M6.789-2.812a.843.843,0,0,1-.732.422A.838.838,0,0,1,5.636-2.5L.844-5.287V.281a.838.838,0,0,1-.812.844A.892.892,0,0,1-.844.281V-5.287L-5.667-2.5a1.389,1.389,0,0,1-.422.112.843.843,0,0,1-.732-.422.844.844,0,0,1,.309-1.152L-1.687-6.75-6.511-9.535a.883.883,0,0,1-.341-1.152A.889.889,0,0,1-5.668-11L-.844-8.213v-5.569A.845.845,0,0,1,0-14.625a.845.845,0,0,1,.844.844v5.569L5.667-11a.8.8,0,0,1,1.121.31A.844.844,0,0,1,6.48-9.535L1.656-6.75,6.479-3.965A.794.794,0,0,1,6.789-2.812Z" transform="translate(15 22)" fill="#488b8f"/>
</svg>
