<svg id="Boton_Small_-_Resumen_Financiero" data-name="Boton Small - Resumen Financiero" xmlns="http://www.w3.org/2000/svg" width="30" height="30" viewBox="0 0 30 30">
  <rect id="Rectángulo_1458" data-name="Rectángulo 1458" width="30" height="30" fill="none"/>
  <path id="Trazado_3383" data-name="Trazado 3383" d="M6.093-12.467,3.469-15.091a2.26,2.26,0,0,0-1.592-.659H-4.5A2.25,2.25,0,0,0-6.75-13.5V0A2.25,2.25,0,0,0-4.5,2.25h9A2.257,2.257,0,0,0,6.75,0V-10.877A2.252,2.252,0,0,0,6.093-12.467ZM5.063,0A.563.563,0,0,1,4.5.563H4.444A3.37,3.37,0,0,0,1.125-2.25h-2.25A3.369,3.369,0,0,0-4.443.563H-4.5A.562.562,0,0,1-5.062,0V-13.5a.563.563,0,0,1,.563-.562H1.125v2.808A1.125,1.125,0,0,0,2.25-10.125H5.031V0ZM0-7.875a2.252,2.252,0,0,0-2.25,2.25A2.25,2.25,0,0,0,0-3.375a2.25,2.25,0,0,0,2.25-2.25A2.252,2.252,0,0,0,0-7.875Z" transform="translate(15 22)" fill="#488b8f"/>
</svg>
