<svg id="Boton_Small_-_Perfil_Financiero_Cliente" data-name="Boton Small - Perfil Financiero Cliente" xmlns="http://www.w3.org/2000/svg" width="30" height="30" viewBox="0 0 30 30">
  <rect id="Rectángulo_1458" data-name="Rectángulo 1458" width="30" height="30" fill="none"/>
  <path id="Trazado_3388" data-name="Trazado 3388" d="M-7.312-1.406a.843.843,0,0,0,.844.844H8.156A.842.842,0,0,1,9,.281a.842.842,0,0,1-.844.844H-6.469A2.531,2.531,0,0,1-9-1.406V-13.781a.844.844,0,0,1,.844-.844.844.844,0,0,1,.844.844ZM2.816-5.059a.764.764,0,0,1-1.164,0L-1.157-7.808-3.934-5.059a.764.764,0,0,1-1.164,0,.813.813,0,0,1,0-1.164L-1.723-9.6a.827.827,0,0,1,.566-.246.745.745,0,0,1,.6.246L2.25-6.817,6.434-11A.813.813,0,0,1,7.6-11a.764.764,0,0,1,0,1.164L2.816-5.059Z" transform="translate(15 22)" fill="#488b8f"/>
</svg>
