<svg xmlns="http://www.w3.org/2000/svg" width="26" height="26" viewBox="0 0 26 26">
  <g id="Grupo_1549" data-name="Grupo 1549" transform="translate(-129)">
    <rect id="Rectángulo_1458" data-name="Rectángulo 1458" width="26" height="26" transform="translate(129)" fill="none"/>
    <path id="Trazado_3382" data-name="Trazado 3382" d="M6.75-5.062H2.25v1.688h4.5a.563.563,0,0,1,.563.563V0A.563.563,0,0,1,6.75.563H-6.75A.563.563,0,0,1-7.313,0V-2.812a.564.564,0,0,1,.563-.562h4.5V-5.062h-4.5A2.25,2.25,0,0,0-9-2.812V0A2.25,2.25,0,0,0-6.75,2.25H6.75A2.25,2.25,0,0,0,9,0V-2.812A2.252,2.252,0,0,0,6.75-5.062Zm-10.965-4.5,3.371-3.31v9.494A.844.844,0,0,0,0-2.531a.844.844,0,0,0,.844-.844v-9.494L4.185-9.528a.83.83,0,0,0,.6.247.838.838,0,0,0,.6-.247.844.844,0,0,0,0-1.193L.6-15.5A.844.844,0,0,0-.6-15.5l-4.781,4.781a.844.844,0,0,0,0,1.193.784.784,0,0,0,1.163-.031Zm10.4,8.153a.844.844,0,0,0-.844-.844.843.843,0,0,0-.844.844.844.844,0,0,0,.844.844A.843.843,0,0,0,6.188-1.406Z" transform="translate(142 20)" fill="#e66431"/>
  </g>
</svg>
