<svg id="Icon_Home" data-name="Icon Home" xmlns="http://www.w3.org/2000/svg" width="20" height="20" viewBox="0 0 20 20">
  <rect id="Rectángulo_1" data-name="Rectángulo 1" width="20" height="20" fill="none"/>
  <path id="Trazado_3407" data-name="Trazado 3407" d="M8.734-6.822a.749.749,0,0,1,.087,1.056.749.749,0,0,1-1.056.087L7-6.328V-.5A2.5,2.5,0,0,1,4.5,2h-9A2.5,2.5,0,0,1-7-.5V-6.328l-.765.65a.75.75,0,0,1-1.057-.087.749.749,0,0,1,.087-1.056l8.251-7a.748.748,0,0,1,.969,0ZM-4.5.5H-3V-4.25A1.25,1.25,0,0,1-1.75-5.5h3.5A1.25,1.25,0,0,1,3-4.25V.5H4.5a1,1,0,0,0,1-1V-7.6L0-12.267-5.5-7.6V-.5A1,1,0,0,0-4.5.5Zm3,0h3V-4h-3Z" transform="translate(10 16)" fill="#488b8f"/>
</svg>
