<svg xmlns="http://www.w3.org/2000/svg" width="12" height="12" viewBox="0 0 12 12">
  <g id="Icon_-_Chrevron_Down_Small_" data-name="Icon - Chrevron Down (Small)" opacity="0.4">
    <rect id="Rectángulo_1456" data-name="Rectángulo 1456" width="12" height="12" fill="none"/>
    <path id="Trazado_3413" data-name="Trazado 3413" d="M4.055-6.055l-1.7-1.877a.644.644,0,0,0-.922,0l-1.7,1.877a.6.6,0,0,0,0,.885.625.625,0,0,0,.883-.039L1.25-5.9V0a.625.625,0,0,0,.625.627A.625.625,0,0,0,2.5,0V-5.9l.633.691a.625.625,0,0,0,.883.039A.626.626,0,0,0,4.055-6.055ZM-.617-2.291-1.25-1.6V-7.5a.625.625,0,0,0-.625-.626A.625.625,0,0,0-2.5-7.5v5.9l-.633-.69a.625.625,0,0,0-.883-.038.627.627,0,0,0-.038.884l1.7,1.877a.644.644,0,0,0,.922,0L.27-1.445a.626.626,0,0,0-.038-.884.586.586,0,0,0-.848.038Z" transform="translate(6 10)" fill="#8c7e82"/>
  </g>
</svg>
