<svg id="Icon_-_Volver_a_cargar" data-name="Icon - Volver a cargar" xmlns="http://www.w3.org/2000/svg" width="30" height="30" viewBox="0 0 30 30">
  <rect id="Rectángulo_1" data-name="Rectángulo 1" width="30" height="30" fill="none"/>
  <g id="Icon_One_More_Trip" data-name="Icon One More Trip" transform="translate(7 7)">
    <path id="Trazado_3379" data-name="Trazado 3379" d="M7.5-11.75v4A.748.748,0,0,1,6.75-7h-4A.749.749,0,0,1,2-7.749a.75.75,0,0,1,.22-.531L3.85-9.909A5.513,5.513,0,0,0,0-11.5,5.472,5.472,0,0,0-5.5-6,5.49,5.49,0,0,0,0-.5c2.538,0,3.347-1.448,3.972-1.448a.754.754,0,0,1,.751.75C4.722-.413,2.376,1-.031,1a7,7,0,0,1-7-7,6.982,6.982,0,0,1,7-6.972,7.019,7.019,0,0,1,4.909,2.03l1.284-1.284a.75.75,0,0,1,.531-.219A.693.693,0,0,1,7.5-11.75Z" transform="translate(8 14)" fill="#fff"/>
  </g>
</svg>
