<svg id="Icon_-_Seleccion_Go" data-name="Icon - Seleccion_Go" xmlns="http://www.w3.org/2000/svg" width="20" height="20" viewBox="0 0 20 20">
  <rect id="Rectángulo_1" data-name="Rectángulo 1" width="20" height="20" fill="none"/>
  <path id="Trazado_3408" data-name="Trazado 3408" d="M6.706-5.294l-5,5A.986.986,0,0,1,1,0,1,1,0,0,1,.293-.293a1,1,0,0,1,0-1.414L3.587-5H-6A1,1,0,0,1-7-6,1,1,0,0,1-6-7H3.587L.294-10.294a1,1,0,0,1,0-1.414,1,1,0,0,1,1.414,0l5,5A1,1,0,0,1,6.706-5.294Z" transform="translate(10 16)" fill="#63595c"/>
</svg>
