<svg xmlns="http://www.w3.org/2000/svg" width="26" height="26" viewBox="0 0 26 26">
  <g id="Icon_-_Iniciar_Sesi칩n" data-name="Icon - Iniciar Sesi칩n" transform="translate(3 3)">
    <rect id="Rect치ngulo_1" data-name="Rect치ngulo 1" width="26" height="26" transform="translate(-3 -3)" fill="none"/>
    <path id="Trazado_3405" data-name="Trazado 3405" d="M5-13H3a1,1,0,0,0-1,1,1,1,0,0,0,1,1H5a1,1,0,0,1,1,1v8A1,1,0,0,1,5-1H3A1,1,0,0,0,2,0,1,1,0,0,0,3,1H5A3,3,0,0,0,8-2v-8A3,3,0,0,0,5-13ZM2.706-6.706l-4-4a1,1,0,0,0-1.414,0,1,1,0,0,0,0,1.414L-.412-7H-7A1,1,0,0,0-8-6,1,1,0,0,0-7-5H-.412L-2.706-2.707a1,1,0,0,0,0,1.414,1,1,0,0,0,1.414,0l4-4A1,1,0,0,0,2.706-6.706Z" transform="translate(10 16)" fill="#fff"/>
  </g>
</svg>
