<svg xmlns="http://www.w3.org/2000/svg" width="33.205" height="16" viewBox="0 0 33.205 16">
  <g id="Icon_-_Perfil_de_riesgo_-_Desconocido" data-name="Icon - Perfil de riesgo - Desconocido" transform="translate(-804.795 -1609)">
    <path id="Trazado_3370" data-name="Trazado 3370" d="M8,0A8,8,0,1,1,0,8,8,8,0,0,1,8,0Z" transform="translate(822 1609)" fill="#fff" opacity="0.4"/>
    <path id="Trazado_3372" data-name="Trazado 3372" d="M6.034-2.5a1,1,0,0,1-.867.5,1,1,0,0,1-.5-.134L1-4.269V0A1,1,0,0,1,.028,1,1.043,1.043,0,0,1-1,0V-4.269L-4.7-2.135A.994.994,0,0,1-5.2-2a1,1,0,0,1-.867-.5A1,1,0,0,1-5.7-3.866L-2.028-6-5.7-8.134A1.034,1.034,0,0,1-6.091-9.5a1.067,1.067,0,0,1,1.017-.494,1,1,0,0,1,.377.128L-1-7.731V-12a1,1,0,0,1,1-1,1,1,0,0,1,1,1v4.269L4.7-9.865a1,1,0,0,1,.377-.127.934.934,0,0,1,.96.492,1,1,0,0,1-.366,1.366L2-6,5.7-3.866A.969.969,0,0,1,6.034-2.5Z" transform="translate(811 1623)" fill="#fff"/>
  </g>
</svg>
