<svg id="Icon_-_Document_-_Word" data-name="Icon - Document - Word" xmlns="http://www.w3.org/2000/svg" width="30" height="30" viewBox="0 0 30 30">
  <rect id="Rectángulo_1" data-name="Rectángulo 1" width="30" height="30" fill="none"/>
  <g id="Icon_One_More_Trip" data-name="Icon One More Trip" transform="translate(9 7)">
    <path id="Trazado_3376" data-name="Trazado 3376" d="M5.416-11.082,3.083-13.414A2.009,2.009,0,0,0,1.669-14H-4a2,2,0,0,0-2,2V0A2,2,0,0,0-4,2H4A2.006,2.006,0,0,0,6,0V-9.669A2,2,0,0,0,5.416-11.082ZM4.5,0A.5.5,0,0,1,4,.5H-4A.5.5,0,0,1-4.5,0V-12a.5.5,0,0,1,.5-.5H1V-10A1,1,0,0,0,2-9H4.472V0ZM.706-6.25A.745.745,0,0,0,0-6.75a.748.748,0,0,0-.707.5l-.771,2.191-.809-2.427a.756.756,0,0,0-.95-.476.751.751,0,0,0-.474.95l1.5,4.5A.751.751,0,0,0-1.506-1a.758.758,0,0,0,.713-.5L0-3.747.794-1.5A.748.748,0,0,0,1.5-1a.758.758,0,0,0,.712-.513l1.5-4.5a.751.751,0,0,0-.474-.949.751.751,0,0,0-.949.475L1.48-4.061Z" transform="translate(6 14)" fill="#fff"/>
  </g>
</svg>
