<svg id="Icon_-_Document_-_Excel" data-name="Icon - Document - Excel" xmlns="http://www.w3.org/2000/svg" width="30" height="30" viewBox="0 0 30 30">
  <rect id="Rectángulo_1" data-name="Rectángulo 1" width="30" height="30" fill="none"/>
  <g id="Icon_One_More_Trip" data-name="Icon One More Trip" transform="translate(9 7)">
    <path id="Trazado_3377" data-name="Trazado 3377" d="M5.416-11.082,3.083-13.414A2.009,2.009,0,0,0,1.669-14H-4a2,2,0,0,0-2,2V0A2,2,0,0,0-4,2H4A2.006,2.006,0,0,0,6,0V-9.669A2,2,0,0,0,5.416-11.082ZM4.5,0A.5.5,0,0,1,4,.5H-4A.5.5,0,0,1-4.5,0V-12a.5.5,0,0,1,.5-.5H1V-10A1,1,0,0,0,2-9H4.472V0ZM1.159-6.709,0-5.222-1.159-6.709a.744.744,0,0,0-1.05-.131.748.748,0,0,0-.131,1.053L-.95-4-2.342-2.211a.75.75,0,0,0,.131,1.053A.743.743,0,0,0-1.778-1a.75.75,0,0,0,.593-.289L0-2.778,1.158-1.289A.753.753,0,0,0,1.75-1a.751.751,0,0,0,.46-.158.75.75,0,0,0,.131-1.053L.95-4,2.342-5.789a.75.75,0,0,0-.131-1.053A.747.747,0,0,0,1.159-6.709Z" transform="translate(6 14)" fill="#fff"/>
  </g>
</svg>
