<svg xmlns="http://www.w3.org/2000/svg" width="26" height="26" viewBox="0 0 26 26">
  <g id="Icon_-_Visualizar_" data-name="Icon - Visualizar " transform="translate(-2 -2)">
    <rect id="Rectángulo_1" data-name="Rectángulo 1" width="26" height="26" transform="translate(2 2)" fill="none"/>
    <g id="Icon_One_More_Trip" data-name="Icon One More Trip" transform="translate(7 7)">
      <path id="Trazado_3406" data-name="Trazado 3406" d="M-4-6a4,4,0,0,1,4-4A4,4,0,0,1,4-6,4,4,0,0,1,0-2,4,4,0,0,1-4-6ZM0-3.5A2.5,2.5,0,0,0,2.5-6,2.5,2.5,0,0,0,0-8.5H-.091A1.245,1.245,0,0,1,0-8,2,2,0,0,1-2-6a1.245,1.245,0,0,1-.5-.091v.063A2.505,2.505,0,0,0,0-3.5Zm-6.018-6.981A8.8,8.8,0,0,1,0-13a8.8,8.8,0,0,1,6.019,2.519,12.107,12.107,0,0,1,2.9,4.1.994.994,0,0,1,0,.769,12.67,12.67,0,0,1-2.9,4.1A8.793,8.793,0,0,1,0,1,8.791,8.791,0,0,1-6.018-1.519a12.719,12.719,0,0,1-2.9-4.1,1,1,0,0,1,0-.769A12.151,12.151,0,0,1-6.018-10.481ZM0-11.5A7.315,7.315,0,0,0-5-9.384,10.784,10.784,0,0,0-7.455-6,11.109,11.109,0,0,0-5-2.616,7.315,7.315,0,0,0,0-.5,7.315,7.315,0,0,0,5-2.616,11.631,11.631,0,0,0,7.456-6,11.274,11.274,0,0,0,5-9.384,7.315,7.315,0,0,0,0-11.5Z" transform="translate(8 14)" fill="#488b8f"/>
    </g>
  </g>
</svg>
