<svg xmlns="http://www.w3.org/2000/svg" width="33.205" height="16" viewBox="0 0 33.205 16">
  <g id="Icon_-_Perfil_de_riesgo_-_Bajo" data-name="Icon - Perfil de riesgo - Bajo" transform="translate(-804.795 -1492)">
    <circle id="Elipse_36" data-name="Elipse 36" cx="8" cy="8" r="8" transform="translate(822 1492)" fill="#fff" opacity="0.4"/>
    <path id="Trazado_3365" data-name="Trazado 3365" d="M-7.028-6.056a.9.9,0,0,1-.91-1A8,8,0,0,1-1-13.993a.889.889,0,0,1,.969.938v6a.981.981,0,0,1-1,1Z" transform="translate(830 1506)" fill="#fff"/>
    <path id="Trazado_3366" data-name="Trazado 3366" d="M6.034-2.5a1,1,0,0,1-.867.5,1,1,0,0,1-.5-.134L1-4.269V0A1,1,0,0,1,.028,1,1.043,1.043,0,0,1-1,0V-4.269L-4.7-2.135A.994.994,0,0,1-5.2-2a1,1,0,0,1-.867-.5A1,1,0,0,1-5.7-3.866L-2.028-6-5.7-8.134A1.034,1.034,0,0,1-6.091-9.5a1.067,1.067,0,0,1,1.017-.494,1,1,0,0,1,.377.128L-1-7.731V-12a1,1,0,0,1,1-1,1,1,0,0,1,1,1v4.269L4.7-9.865a1,1,0,0,1,.377-.127.934.934,0,0,1,.96.492,1,1,0,0,1-.366,1.366L2-6,5.7-3.866A.969.969,0,0,1,6.034-2.5Z" transform="translate(811 1506)" fill="#fff"/>
  </g>
</svg>
