<svg xmlns="http://www.w3.org/2000/svg" xmlns:xlink="http://www.w3.org/1999/xlink" width="332.443" height="97.707" viewBox="0 0 332.443 97.707">
  <defs>
    <linearGradient id="linear-gradient" y1="0.5" x2="1" y2="0.5" gradientUnits="objectBoundingBox">
      <stop offset="0" stop-color="#7dc9c9"/>
      <stop offset="1" stop-color="#378ccd"/>
    </linearGradient>
    <linearGradient id="linear-gradient-3" x1="0" y1="0.5" x2="1" y2="0.5" xlink:href="#linear-gradient"/>
    <linearGradient id="linear-gradient-4" y1="0.5" x2="1" y2="0.5" gradientUnits="objectBoundingBox">
      <stop offset="0" stop-color="#296897"/>
      <stop offset="1" stop-color="#378ccd"/>
    </linearGradient>
  </defs>
  <g id="Icono_Smart_Texto" data-name="Icono Smart + Texto" transform="translate(-0.001 4.101)">
    <path id="Trazado_3229" data-name="Trazado 3229" d="M15.892,8.605c10.057,0,14.824-5.029,14.824-10.9,0-13.462-21.739-8.381-21.739-16.186,0-2.776,2.3-4.976,7.962-4.976a20.376,20.376,0,0,1,10.11,2.881L29.2-25.862a23.182,23.182,0,0,0-12.2-3.248c-10.057,0-14.772,5.029-14.772,10.948,0,13.619,21.791,8.433,21.791,16.343,0,2.724-2.41,4.767-8.119,4.767a20.317,20.317,0,0,1-12.1-4.033L1.435,4.2C4.473,6.824,10.183,8.605,15.892,8.605Zm56.258-28.81a13.056,13.056,0,0,0-10.476,4.662c-1.938-3.143-5.343-4.662-9.429-4.662a11.586,11.586,0,0,0-9.167,3.876v-3.562H36.845V8.081h6.548v-14.2c0-5.552,2.933-8.381,7.281-8.381,3.981,0,6.286,2.41,6.286,7.386V8.081h6.548v-14.2c0-5.552,2.986-8.381,7.281-8.381,3.981,0,6.286,2.41,6.286,7.386V8.081h6.548V-7.948C83.622-16.381,78.908-20.205,72.151-20.205Zm30.539,0c-4.5,0-8.853,1.152-11.838,3.457l2.567,4.767a13.848,13.848,0,0,1,8.486-2.776c4.662,0,6.967,2.252,6.967,6.076v.419h-7.229C93.156-8.262,90.013-4.6,90.013.067c0,4.872,4.033,8.381,10.424,8.381,4.191,0,7.229-1.362,8.8-3.772v3.4h6.181v-16.4C115.418-16.381,110.756-20.205,102.689-20.205ZM101.8,3.681c-3.352,0-5.343-1.519-5.343-3.876,0-2.043,1.2-3.719,5.657-3.719h6.757V-.667C107.77,2.214,104.994,3.681,101.8,3.681ZM130.033-15.8v-4.086H123.8V8.081h6.548V-5.486c0-5.71,3.143-8.643,8.119-8.643a8.312,8.312,0,0,1,1.519.157v-6.233C135.323-20.205,131.918-18.738,130.033-15.8ZM161.567,1.9A5.888,5.888,0,0,1,157.9,3.053c-2.514,0-3.876-1.467-3.876-4.191V-14.443h7.491v-5.238h-7.491v-6.391h-6.548v6.391h-4.61v5.238h4.61V-.981c0,6.181,3.51,9.429,9.638,9.429A10.289,10.289,0,0,0,163.4,6.562Z" transform="translate(169.044 33.391)" fill="#232b59"/>
    <path id="Trazado_3228" data-name="Trazado 3228" d="M4.19,1.537v-5.2h8.072V-5.615H4.19v-4.944H13.25v-2H1.89v16.1H13.572v-2ZM28.75-12.56,22.909.663l-5.8-13.223H14.63l7.083,16.1H23.99l7.06-16.1ZM39.743,3.722a8.156,8.156,0,0,0,8.532-8.233,8.156,8.156,0,0,0-8.532-8.233c-4.944,0-8.578,3.519-8.578,8.233S34.8,3.722,39.743,3.722Zm0-2.047a6.055,6.055,0,0,1-6.278-6.186A6.055,6.055,0,0,1,39.743-10.7a6.044,6.044,0,0,1,6.232,6.186A6.044,6.044,0,0,1,39.743,1.675Zm12.05,1.863H62.809v-2H54.093v-14.1h-2.3Zm19.823.184c4.254,0,6.807-2.461,6.807-7.129V-12.56H76.193V-3.5c0,3.565-1.656,5.174-4.553,5.174S67.109.065,67.109-3.5V-12.56h-2.3v9.153C64.81,1.261,67.385,3.722,71.617,3.722Zm14.189-.184h2.277v-14.1H93.6v-2H80.287v2h5.519Zm10.3,0h2.3v-16.1h-2.3Zm14.4.184a8.156,8.156,0,0,0,8.532-8.233,8.156,8.156,0,0,0-8.532-8.233c-4.944,0-8.578,3.519-8.578,8.233S105.56,3.722,110.5,3.722Zm0-2.047a6.055,6.055,0,0,1-6.278-6.186A6.055,6.055,0,0,1,110.5-10.7a6.044,6.044,0,0,1,6.232,6.186A6.044,6.044,0,0,1,110.5,1.675ZM134.1-12.56v12l-9.659-12h-1.886v16.1h2.3v-12l9.659,12H136.4v-16.1Z" transform="translate(181.947 65.063)" fill="#5ea3a3"/>
    <path id="Trazado_3227" data-name="Trazado 3227" d="M3.888,1.4c2.373,0,3.476-1.18,3.476-2.552,0-3.3-5.438-1.924-5.438-4.117,0-.782.654-1.424,2.18-1.424a4.637,4.637,0,0,1,2.463.731l.423-1.026a5.282,5.282,0,0,0-2.886-.8c-2.36,0-3.437,1.18-3.437,2.565,0,3.335,5.438,1.95,5.438,4.143C6.107-.3,5.44.305,3.888.305A4.621,4.621,0,0,1,.926-.734l-.475,1A5.329,5.329,0,0,0,3.888,1.4Zm9.068,0c2.373,0,3.8-1.372,3.8-3.976v-5.1H15.509v5.054c0,1.988-.923,2.886-2.54,2.886s-2.527-.9-2.527-2.886V-7.685H9.16v5.1C9.16.023,10.6,1.4,12.957,1.4Zm9.928-9.081h-3.5V1.293h1.283V-1.426h2.219c2.334,0,3.745-1.18,3.745-3.13S25.218-7.685,22.884-7.685Zm-.038,5.143h-2.18V-6.57h2.18c1.642,0,2.5.731,2.5,2.014S24.487-2.542,22.846-2.542Zm9.171-5.143h-3.5V1.293H29.8V-1.426h2.219c2.334,0,3.745-1.18,3.745-3.13S34.351-7.685,32.016-7.685Zm-.038,5.143H29.8V-6.57h2.18c1.642,0,2.5.731,2.5,2.014S33.62-2.542,31.978-2.542Zm5.669,3.835h6.144V.177H38.93V-7.685H37.647ZM50.435-7.685h-1.27L46.279-2.953,43.406-7.685H42.034L45.6-1.837v3.13h1.27v-3.1ZM59.2,1.4A4.455,4.455,0,0,0,62.62-.015l-.834-.808A3.339,3.339,0,0,1,59.259.254,3.391,3.391,0,0,1,55.732-3.2a3.391,3.391,0,0,1,3.527-3.45,3.327,3.327,0,0,1,2.527,1.065l.834-.808a4.437,4.437,0,0,0-3.412-1.4A4.542,4.542,0,0,0,54.449-3.2,4.538,4.538,0,0,0,59.2,1.4Zm11.7-9.081v3.861H65.737V-7.685H64.454V1.293h1.283v-4h5.156v4h1.283V-7.685ZM81.577,1.293h1.347L78.845-7.685h-1.27L73.509,1.293H74.83l.988-2.245h4.771Zm-5.31-3.271,1.937-4.4,1.937,4.4Zm7.991,3.271H85.54V-7.685H84.258ZM94.673-7.685v6.7l-5.387-6.7H88.234V1.293h1.283V-5.4l5.387,6.7h1.052V-7.685ZM108.435-6.57V-7.685H102.1V1.293h1.283v-3.63h4.5v-1.1h-4.5V-6.57Zm1.808,7.862h1.283V-7.685h-1.283Zm10.415-8.978v6.7l-5.387-6.7H114.22V1.293H115.5V-5.4l5.387,6.7h1.052V-7.685Zm10.684,8.978h1.347l-4.079-8.978h-1.27l-4.066,8.978H124.6l.988-2.245h4.771Zm-5.31-3.271,1.937-4.4,1.937,4.4Zm14.43-5.708v6.7l-5.387-6.7h-1.052V1.293h1.283V-5.4l5.387,6.7h1.052V-7.685ZM148.453,1.4a4.455,4.455,0,0,0,3.425-1.411l-.834-.808A3.339,3.339,0,0,1,148.517.254,3.391,3.391,0,0,1,144.99-3.2a3.391,3.391,0,0,1,3.527-3.45,3.327,3.327,0,0,1,2.527,1.065l.834-.808a4.437,4.437,0,0,0-3.412-1.4A4.542,4.542,0,0,0,143.707-3.2,4.538,4.538,0,0,0,148.453,1.4ZM154.994.177v-2.9h4.5v-1.09h-4.5V-6.57h5.054V-7.685h-6.336V1.293h6.516V.177Z" transform="translate(170.028 88.984)" fill="#232b59"/>
    <g id="Grupo_1505" data-name="Grupo 1505" transform="translate(0.001 -4.101)">
      <path id="Trazado_3221" data-name="Trazado 3221" d="M172.08,16.943V97.1h40V1.93Z" transform="translate(-59.121 -0.661)" fill="url(#linear-gradient)"/>
      <path id="Trazado_3222" data-name="Trazado 3222" d="M87.01,108.85h36.032V36.13L87.01,49.646Z" transform="translate(-29.894 -12.41)" fill="url(#linear-gradient)"/>
      <path id="Trazado_3223" data-name="Trazado 3223" d="M1.93,120.013H36.971V68.62L1.93,81.768Z" transform="translate(-0.664 -23.573)" fill="url(#linear-gradient-3)"/>
      <path id="Trazado_3224" data-name="Trazado 3224" d="M76.119,119.835,55.31,101.77V68.62L76.119,90.243Z" transform="translate(-19.003 -23.573)" fill="url(#linear-gradient-4)"/>
      <path id="Trazado_3225" data-name="Trazado 3225" d="M161.711,108.673,141.9,84.5V36.13l19.811,22.647Z" transform="translate(-48.752 -12.41)" fill="url(#linear-gradient-4)"/>
      <path id="Trazado_3226" data-name="Trazado 3226" d="M1.274,97.7a1.268,1.268,0,0,1-.545-2.416L50.454,71.7A1.3,1.3,0,0,1,51,71.57H92.559L151.993.452a1.267,1.267,0,0,1,1.943,1.628L94.121,73.651a1.267,1.267,0,0,1-.972.453H51.288L1.812,97.578a1.246,1.246,0,0,1-.545.125Z" transform="translate(-0.001 0.004)" fill="#fff"/>
    </g>
  </g>
</svg>
