<svg id="Icono_-_Guardar_Borrador" data-name="Icono - Guardar Borrador" xmlns="http://www.w3.org/2000/svg" width="20" height="20" viewBox="0 0 20 20">
  <rect id="Rectángulo_1" data-name="Rectángulo 1" width="20" height="20" fill="none"/>
  <path id="Trazado_3401" data-name="Trazado 3401" d="M5-14H-4a2,2,0,0,0-2,2v1H-7.25a.751.751,0,0,0-.75.75.751.751,0,0,0,.75.75H-6v2.75H-7.25A.751.751,0,0,0-8-6a.751.751,0,0,0,.75.75H-6V-2.5H-7.25A.751.751,0,0,0-8-1.75.751.751,0,0,0-7.25-1H-6V0A2,2,0,0,0-4,2H5A2,2,0,0,0,7,0V-12A2,2,0,0,0,5-14ZM-4.5,0V-1h.75A.748.748,0,0,0-3-1.75a.748.748,0,0,0-.75-.75H-4.5V-5.25h.75A.748.748,0,0,0-3-6a.748.748,0,0,0-.75-.75H-4.5V-9.5h.75A.748.748,0,0,0-3-10.25.748.748,0,0,0-3.75-11H-4.5v-1a.5.5,0,0,1,.5-.5h2V.5H-4A.5.5,0,0,1-4.5,0Zm10,0A.5.5,0,0,1,5,.5H-.5v-13H5a.5.5,0,0,1,.5.5Z" transform="translate(10 16)" fill="#fff"/>
</svg>
