<svg id="Icono_-_Cantidad_de_Dias" data-name="Icono - Cantidad de Dias" xmlns="http://www.w3.org/2000/svg" width="30" height="30" viewBox="0 0 30 30">
  <rect id="Rectángulo_1" data-name="Rectángulo 1" width="30" height="30" fill="none"/>
  <g id="Icon_One_More_Trip" data-name="Icon One More Trip" transform="translate(7 7)">
    <path id="Trazado_3402" data-name="Trazado 3402" d="M-4-5A1,1,0,0,1-3-6,1,1,0,0,1-2-5,1,1,0,0,1-3-4,1,1,0,0,1-4-5ZM3-3A1,1,0,0,1,4-2,1,1,0,0,1,3-1,1,1,0,0,1,2-2,1,1,0,0,1,3-3ZM-1-5a.748.748,0,0,1,.75-.75h3.5A.748.748,0,0,1,4-5a.748.748,0,0,1-.75.75H-.25A.748.748,0,0,1-1-5ZM.25-2.75A.748.748,0,0,1,1-2a.748.748,0,0,1-.75.75h-3.5A.748.748,0,0,1-4-2a.748.748,0,0,1,.75-.75ZM-2.25-12h4.5v-1.25A.749.749,0,0,1,3-14a.749.749,0,0,1,.75.75V-12H5a2,2,0,0,1,2,2V0A2,2,0,0,1,5,2H-5A2,2,0,0,1-7,0V-10a2,2,0,0,1,2-2h1.25v-1.25A.749.749,0,0,1-3-14a.749.749,0,0,1,.75.75ZM-5.5,0A.5.5,0,0,0-5,.5H5A.5.5,0,0,0,5.5,0V-8h-11Z" transform="translate(8 14)" fill="#5ea3a3"/>
  </g>
</svg>
