<svg xmlns="http://www.w3.org/2000/svg" xmlns:xlink="http://www.w3.org/1999/xlink" width="154.232" height="97.707" viewBox="0 0 154.232 97.707">
  <defs>
    <linearGradient id="linear-gradient" y1="0.5" x2="1" y2="0.5" gradientUnits="objectBoundingBox">
      <stop offset="0" stop-color="#7dc9c9"/>
      <stop offset="1" stop-color="#378ccd"/>
    </linearGradient>
    <linearGradient id="linear-gradient-3" x1="0" y1="0.5" x2="1" y2="0.5" xlink:href="#linear-gradient"/>
    <linearGradient id="linear-gradient-4" y1="0.5" x2="1" y2="0.5" gradientUnits="objectBoundingBox">
      <stop offset="0" stop-color="#296897"/>
      <stop offset="1" stop-color="#378ccd"/>
    </linearGradient>
  </defs>
  <g id="Icono_Smart" data-name="Icono Smart" transform="translate(-133.999 -608.147)">
    <path id="Trazado_3221" data-name="Trazado 3221" d="M172.08,16.943V97.1h40V1.93Z" transform="translate(74.879 607.486)" fill="url(#linear-gradient)"/>
    <path id="Trazado_3222" data-name="Trazado 3222" d="M87.01,108.85h36.032V36.13L87.01,49.646Z" transform="translate(104.105 595.736)" fill="url(#linear-gradient)"/>
    <path id="Trazado_3223" data-name="Trazado 3223" d="M1.93,120.013H36.971V68.62L1.93,81.768Z" transform="translate(133.336 584.574)" fill="url(#linear-gradient-3)"/>
    <path id="Trazado_3224" data-name="Trazado 3224" d="M76.119,119.835,55.31,101.77V68.62L76.119,90.243Z" transform="translate(114.996 584.574)" fill="url(#linear-gradient-4)"/>
    <path id="Trazado_3225" data-name="Trazado 3225" d="M161.711,108.673,141.9,84.5V36.13l19.811,22.647Z" transform="translate(85.248 595.736)" fill="url(#linear-gradient-4)"/>
    <path id="Trazado_3226" data-name="Trazado 3226" d="M1.274,97.7a1.268,1.268,0,0,1-.545-2.416L50.454,71.7A1.3,1.3,0,0,1,51,71.57H92.559L151.993.452a1.267,1.267,0,0,1,1.943,1.628L94.121,73.651a1.267,1.267,0,0,1-.972.453H51.288L1.812,97.578a1.246,1.246,0,0,1-.545.125Z" transform="translate(133.998 608.15)" fill="#fff"/>
  </g>
</svg>
