<svg xmlns="http://www.w3.org/2000/svg" width="26" height="26" viewBox="0 0 26 26">
  <g id="Icon_-_Info" data-name="Icon - Info" transform="translate(-692 -1431)">
    <g id="Icon_One_More_Trip" data-name="Icon One More Trip" transform="translate(697 1436)">
      <path id="Trazado_3400" data-name="Trazado 3400" d="M0-14A8,8,0,0,0-8-6,8,8,0,0,0,0,2,8,8,0,0,0,8-6,8,8,0,0,0,0-14ZM0,.5A6.507,6.507,0,0,1-6.5-6,6.507,6.507,0,0,1,0-12.5,6.507,6.507,0,0,1,6.5-6,6.507,6.507,0,0,1,0,.5Zm1.25-4H.75V-6.25A.75.75,0,0,0,0-7H-1a.752.752,0,0,0-.75.75A.752.752,0,0,0-1-5.5h.25v2h-.5A.752.752,0,0,0-2-2.75.752.752,0,0,0-1.25-2h2.5A.75.75,0,0,0,2-2.75.749.749,0,0,0,1.25-3.5ZM0-8A1,1,0,0,0,1-9a1,1,0,0,0-1-1A1,1,0,0,0-1-9,1,1,0,0,0,0-8Z" transform="translate(8 14)" fill="#488b8f"/>
    </g>
    <rect id="Rectángulo_4538" data-name="Rectángulo 4538" width="26" height="26" transform="translate(692 1431)" fill="none"/>
  </g>
</svg>
