<svg id="Icono_-_Guardar_Datos" data-name="Icono - Guardar Datos" xmlns="http://www.w3.org/2000/svg" width="20" height="20" viewBox="0 0 20 20">
  <rect id="Rectángulo_1" data-name="Rectángulo 1" width="20" height="20" fill="none"/>
  <path id="Trazado_3380" data-name="Trazado 3380" d="M0-6A2.006,2.006,0,0,0-2-4,2.006,2.006,0,0,0,0-2,2.006,2.006,0,0,0,2-4,2.006,2.006,0,0,0,0-6ZM6.534-9.966,3.913-12.587A1.481,1.481,0,0,0,2.878-13H-5a2,2,0,0,0-2,2V-1A2,2,0,0,0-5,1H5A2,2,0,0,0,7-1V-8.878A1.529,1.529,0,0,0,6.534-9.966ZM-3-11.5H1.5V-9H-3ZM5.5-1A.5.5,0,0,1,5-.5H-5A.5.5,0,0,1-5.5-1V-11a.5.5,0,0,1,.5-.5h.5v3.25a.75.75,0,0,0,.75.75h6A.748.748,0,0,0,3-8.25v-3.129L5.445-8.933A.181.181,0,0,1,5.5-8.8Z" transform="translate(10 16)" fill="#fff"/>
</svg>
