<svg id="Icono_-_Tasa_de_descuento" data-name="Icono - Tasa de descuento" xmlns="http://www.w3.org/2000/svg" width="30" height="30" viewBox="0 0 30 30">
  <rect id="Rectángulo_1" data-name="Rectángulo 1" width="30" height="30" fill="none"/>
  <g id="Icon_One_More_Trip" data-name="Icon One More Trip" transform="translate(7 7)">
    <path id="Trazado_3404" data-name="Trazado 3404" d="M7-13H-7a2,2,0,0,0-2,2V-1A2,2,0,0,0-7,1H7A2,2,0,0,0,9-1V-11A2,2,0,0,0,7-13ZM7.5-1A.5.5,0,0,1,7-.5H-7A.5.5,0,0,1-7.5-1V-5h3.575l1.281,2.136A.753.753,0,0,0-2-2.5h.028a.747.747,0,0,0,.642-.414L.56-6.693l.8,1.328A.751.751,0,0,0,2-5H4.25A.748.748,0,0,0,5-5.75a.748.748,0,0,0-.75-.75H2.425L1.143-8.636A.764.764,0,0,0,.472-9a.747.747,0,0,0-.642.414L-2.059-4.806l-.8-1.328A.747.747,0,0,0-3.5-6.5h-4V-11a.5.5,0,0,1,.5-.5H7a.5.5,0,0,1,.5.5Z" transform="translate(8 14)" fill="#5ea3a3"/>
  </g>
</svg>
