<svg id="Icon_-_Notificaci칩n" data-name="Icon - Notificaci칩n" xmlns="http://www.w3.org/2000/svg" width="24" height="24" viewBox="0 0 24 24">
  <rect id="Rect치ngulo_1456" data-name="Rect치ngulo 1456" width="24" height="24" fill="none"/>
  <path id="Trazado_3409" data-name="Trazado 3409" d="M9-14.625V-14a5.346,5.346,0,0,1,4.5,5.278v1.174A7.055,7.055,0,0,0,15.04-3.15l.524.654a.842.842,0,0,1,.1.893.844.844,0,0,1-.759.478H.844A.844.844,0,0,1,.083-1.6a.844.844,0,0,1,.1-.893L.709-3.15A7.041,7.041,0,0,0,2.25-7.545V-8.719A5.346,5.346,0,0,1,6.75-14v-.629A1.124,1.124,0,0,1,7.875-15.75,1.124,1.124,0,0,1,9-14.625Zm-1.406,2.25A3.658,3.658,0,0,0,3.938-8.719v1.174a8.728,8.728,0,0,1-1.4,4.732H13.208a8.731,8.731,0,0,1-1.4-4.732V-8.719a3.658,3.658,0,0,0-3.656-3.656H7.594ZM10.125,0a2.307,2.307,0,0,1-.657,1.593,2.307,2.307,0,0,1-1.593.657,2.251,2.251,0,0,1-1.593-.657A2.307,2.307,0,0,1,5.625,0Z" transform="translate(4 19)" fill="#488b8f"/>
</svg>
