<svg id="Icon_Animado_Listas_-_Editar" data-name="Icon Animado Listas - Editar" xmlns="http://www.w3.org/2000/svg" width="28" height="28" viewBox="0 0 28 28">
  <rect id="Rectángulo_1458" data-name="Rectángulo 1458" width="28" height="28" fill="none"/>
  <path id="Trazado_3411" data-name="Trazado 3411" d="M3.659-13.22a2.249,2.249,0,0,1,3.181,0l.378.379a2.251,2.251,0,0,1,0,3.182L1.056-3.494a2.287,2.287,0,0,1-.975.572l-3.125.894a.711.711,0,0,1-.738-.219.691.691,0,0,1-.191-.709l.894-3.125a2.287,2.287,0,0,1,.572-.975Zm2.094,1.061a.719.719,0,0,0-1.034,0l-.909.909L5.25-9.809l.909-.938a.716.716,0,0,0,0-1.033Zm-7.388,6.49-.525,1.828,1.828-.525a.73.73,0,0,0,.325-.191l4.2-4.194L2.75-10.191l-4.194,4.2A.73.73,0,0,0-1.634-5.669ZM-1.75-12a.749.749,0,0,1,.75.75.748.748,0,0,1-.75.75h-3.5A1.25,1.25,0,0,0-6.5-9.25v8.5A1.25,1.25,0,0,0-5.25.5h8.5A1.25,1.25,0,0,0,4.5-.75v-3.5A.748.748,0,0,1,5.25-5,.748.748,0,0,1,6-4.25v3.5A2.75,2.75,0,0,1,3.25,2h-8.5A2.75,2.75,0,0,1-8-.75v-8.5A2.75,2.75,0,0,1-5.25-12Z" transform="translate(14 20)" fill="#999"/>
</svg>
