<svg id="Icon_-_Document_-_PDF" data-name="Icon - Document - PDF" xmlns="http://www.w3.org/2000/svg" width="30" height="30" viewBox="0 0 30 30">
  <rect id="Rectángulo_1" data-name="Rectángulo 1" width="30" height="30" fill="none"/>
  <g id="Icon_One_More_Trip" data-name="Icon One More Trip" transform="translate(9 7)">
    <path id="Trazado_3375" data-name="Trazado 3375" d="M5.416-11.082,3.083-13.414A2.009,2.009,0,0,0,1.669-14H-4a2,2,0,0,0-2,2V0A2,2,0,0,0-4,2H4A2.006,2.006,0,0,0,6,0V-9.669A2,2,0,0,0,5.416-11.082ZM4.5,0A.5.5,0,0,1,4,.5H-4A.5.5,0,0,1-4.5,0V-12a.5.5,0,0,1,.5-.5H1V-10A1,1,0,0,0,2-9H4.472V0ZM.312-5.059q.041-.126.081-.255a7.876,7.876,0,0,0,.234-1.64A1.045,1.045,0,0,0-.419-8,1.047,1.047,0,0,0-1.466-6.953a5.752,5.752,0,0,0,.433,1.947A15.677,15.677,0,0,1-1.827-3.2a5.668,5.668,0,0,0-1.65,1.127A1.068,1.068,0,0,0-3.77-1.3,1.047,1.047,0,0,0-2.724-.251a1.046,1.046,0,0,0,.851-.437,15.535,15.535,0,0,0,.952-1.53,10.339,10.339,0,0,1,1.684-.5A5.517,5.517,0,0,0,2.191-2a1.391,1.391,0,0,0,.451.073A1.128,1.128,0,0,0,3.771-3.079,1.154,1.154,0,0,0,2.619-4.231H2.5a12.769,12.769,0,0,0-1.418.168,3.829,3.829,0,0,1-.773-1ZM-2.556-1.175a.214.214,0,0,1-.376-.166.2.2,0,0,1,.054-.142,4.378,4.378,0,0,1,1-.741c-.3.509-.545.871-.673,1.05ZM-.419-7.162a.21.21,0,0,1,.209.209,6.862,6.862,0,0,1-.18,1.316A4.551,4.551,0,0,1-.628-6.953.209.209,0,0,1-.419-7.162ZM-.928-3.116c.207-.421.413-.889.606-1.4a4.7,4.7,0,0,0,.78,1A12.364,12.364,0,0,0-.928-3.116Zm3.441-.275h.1a.32.32,0,0,1,.314.337.292.292,0,0,1-.291.291.563.563,0,0,1-.183-.029A4.812,4.812,0,0,1,1.44-3.266C2.072-3.366,2.5-3.391,2.512-3.391Z" transform="translate(6 14)" fill="#fff"/>
  </g>
</svg>
