<svg id="Icono_-_Tasa_Pactada" data-name="Icono - Tasa Pactada" xmlns="http://www.w3.org/2000/svg" width="30" height="30" viewBox="0 0 30 30">
  <rect id="Rectángulo_1" data-name="Rectángulo 1" width="30" height="30" fill="none"/>
  <g id="Icon_One_More_Trip" data-name="Icon One More Trip" transform="translate(7 7)">
    <path id="Trazado_3403" data-name="Trazado 3403" d="M10-6.028a.755.755,0,0,1-.75.778H5.475l-1.8,3.819a.735.735,0,0,1-.75.426.745.745,0,0,1-.656-.558L.084-9.957-2.266,1.4a.749.749,0,0,1-.709.6H-3a.752.752,0,0,1-.722-.551l-1.846-6.7H-9.278A.744.744,0,0,1-10-6a.744.744,0,0,1,.722-.75H-5a.75.75,0,0,1,.722.55l1.172,4.25L-.734-13.4A.756.756,0,0,1-.016-14H0a.752.752,0,0,1,.727.563L3.2-3.941,4.32-6.319A.756.756,0,0,1,5-6.75H9.25A.743.743,0,0,1,10-6.028Z" transform="translate(8 14)" fill="#5ea3a3"/>
  </g>
</svg>
