<svg id="Icon_-_Info" data-name="Icon - Info" xmlns="http://www.w3.org/2000/svg" width="30" height="30" viewBox="0 0 30 30">
  <rect id="Rectángulo_1" data-name="Rectángulo 1" width="30" height="30" fill="none"/>
  <g id="Icon_One_More_Trip" data-name="Icon One More Trip" transform="translate(5 5)">
    <path id="Trazado_3414" data-name="Trazado 3414" d="M7.753.719,3.566-3.469A6.306,6.306,0,0,0,4.972-7.5a6.5,6.5,0,0,0-6.5-6.5A6.476,6.476,0,0,0-8-7.5,6.494,6.494,0,0,0-1.528-1,6.462,6.462,0,0,0,2.5-2.408L6.691,1.78A.864.864,0,0,0,7.25,2a.75.75,0,0,0,.53-.22A.73.73,0,0,0,7.753.719ZM-6.5-7.5a5.006,5.006,0,0,1,5-5,5.006,5.006,0,0,1,5,5,5.006,5.006,0,0,1-5,5A5.006,5.006,0,0,1-6.5-7.5Z" transform="translate(10 16)" fill="#488b8f"/>
  </g>
</svg>
