<svg id="Icon_-_Dropdown" data-name="Icon - Dropdown" xmlns="http://www.w3.org/2000/svg" width="30" height="30" viewBox="0 0 30 30">
  <rect id="Rectángulo_1" data-name="Rectángulo 1" width="30" height="30" fill="none"/>
  <g id="Icon_One_More_Trip" data-name="Icon One More Trip" transform="translate(7 7)">
    <path id="Trazado_3399" data-name="Trazado 3399" d="M6.519-7.459.547-1.737A.867.867,0,0,1,0-1.5a.794.794,0,0,1-.518-.209l-6-5.75a.748.748,0,0,1-.022-1.059.746.746,0,0,1,1.06-.022L0-3.288l5.481-5.25a.746.746,0,0,1,1.06.022.743.743,0,0,1-.022,1.056Z" transform="translate(8 14)" fill="#488b8f"/>
  </g>
</svg>
