<svg id="Icon_One_More_Trip" data-name="Icon One More Trip" xmlns="http://www.w3.org/2000/svg" width="20" height="20" viewBox="0 0 20 20">
  <rect id="Rectángulo_1" data-name="Rectángulo 1" width="20" height="20" fill="none"/>
  <path id="Trazado_3415" data-name="Trazado 3415" d="M5.516-12.336A7.746,7.746,0,0,0,0-14.625a7.814,7.814,0,0,0-7.8,7.8,7.813,7.813,0,0,0,1.041,3.9L-7.875,1.125-3.737.039A7.781,7.781,0,0,0-.007.988H0a7.88,7.88,0,0,0,7.879-7.8,7.835,7.835,0,0,0-2.359-5.52ZM0-.327a6.475,6.475,0,0,1-3.3-.9l-.236-.141L-6-.728l.654-2.394L-5.5-3.368A6.466,6.466,0,0,1-6.49-6.82,6.5,6.5,0,0,1,0-13.307a6.429,6.429,0,0,1,4.584,1.9A6.512,6.512,0,0,1,6.557-6.817,6.559,6.559,0,0,1,0-.327ZM3.554-5.186c-.193-.1-1.153-.57-1.332-.633s-.309-.1-.439.1-.5.633-.619.766S.935-4.806.742-4.9a5.308,5.308,0,0,1-2.654-2.32c-.2-.345.2-.32.573-1.065a.361.361,0,0,0-.018-.341c-.049-.1-.439-1.058-.6-1.448s-.32-.327-.439-.334-.243-.007-.373-.007a.722.722,0,0,0-.52.243A2.191,2.191,0,0,0-3.973-8.55a3.82,3.82,0,0,0,.795,2.018A8.714,8.714,0,0,0,.155-3.586,3.816,3.816,0,0,0,2.5-3.1a2,2,0,0,0,1.315-.928,1.631,1.631,0,0,0,.113-.928C3.878-5.041,3.748-5.091,3.554-5.186Z" transform="translate(10 17)" fill="#fff"/>
</svg>
