<svg xmlns="http://www.w3.org/2000/svg" width="600" height="600" viewBox="0 0 600 600">
  <g id="Ilustraci贸n_-_Inicio_de_sesi贸n" data-name="Ilustraci贸n - Inicio de sesi贸n" transform="translate(-1140 -277)">
    <g id="_117-Business-Meeting" data-name="117-Business-Meeting" transform="translate(1142.328 279.115)">
      <path id="Trazado_3017" data-name="Trazado 3017" d="M208.2,302.3h0a9.017,9.017,0,0,1,.9-1C208.8,301.6,208.5,302,208.2,302.3Z" fill="#f4f4f4"/>
      <path id="Trazado_3018" data-name="Trazado 3018" d="M220.5,250.2v-.4l-.3.6C220.3,250.3,220.4,250.2,220.5,250.2Z" fill="#f4f4f4"/>
      <path id="Trazado_3019" data-name="Trazado 3019" d="M207.8,276.1a1.421,1.421,0,0,1,.6-.2c1.4-.2,3-.4,4.7-.8a3.513,3.513,0,0,1,2-.5,24.638,24.638,0,0,0,3.8-1.4h0c.1-.1.3-.2.4-.4.4-.2.9-.5,1.3-.7h.3a9.224,9.224,0,0,0,2.6-2.2c.1-.1.2-.2.2-.3a6.071,6.071,0,0,0,1.3-3.2h0c0-.1,0-.1.1-.2h0v-1.4c-.1-.4-.2-.9-.3-1.4a1.756,1.756,0,0,0-.5.4c-1.2.9-2.4,1.7-3.7,2.6-.5.4-3.5.7-2.2-.1a57.5,57.5,0,0,0,5.6-4.1v-.4a5.273,5.273,0,0,0,1.1-1.5h.1a1.91,1.91,0,0,0,.8-.3,2.652,2.652,0,0,0-.5.6,12.094,12.094,0,0,1-1.6,1.6h0c.5-.5,1.1-1,1.6-1.6.2-.2.3-.4.5-.6a3.581,3.581,0,0,0,1.1-2.5v-.2a2.254,2.254,0,0,0-1.5-1.5c-.2-.1-.4-.1-.6-.2h0c.2.1.4.1.6.2-.1,0-.1.1-.2.1a1.1,1.1,0,0,0-.8,0h0c-1.5,1.3-3.3,2.5-4.9,3.7-1,.8-3.4.1-1.9-1.2,2.4-1.9,5.9-3.6,6.8-6.6,0-.1.1-.2.1-.3,0,.1-.1.2-.1.3a.1.1,0,0,1-.1-.1c.1-.1.1-.2.2-.3a4.868,4.868,0,0,0,.1-1.2h0a39.347,39.347,0,0,0-9.4,5.7.764.764,0,0,1-.5.2h-.1c-.6.4-3.5.6-2.3-.3.1-.1.3-.2.4-.3a1.039,1.039,0,0,1,.5-.8c.5-.4,1-.8,1.6-1.2,2.7-3,5.9-7.5,1.7-7.8-2.9-.2-5.5,3.1-7.2,5.2a10.593,10.593,0,0,1-1,1.2h0v.3a14.372,14.372,0,0,1-1.8,2.5l-.1.1h0a15.384,15.384,0,0,0-.8,1.9,1.205,1.205,0,0,1-.5.5A32.479,32.479,0,0,1,207.8,276.1Zm16.4-12.3a1.756,1.756,0,0,0,.5-.4c.1.5.2.9.3,1.4a2.01,2.01,0,0,0-.8-.4Zm-.6,5.9c-.1.1-.2.2-.2.3v-.1C223.5,269.9,223.5,269.8,223.6,269.7Zm3.4-12.3Z" fill="#f4f4f4"/>
      <path id="Trazado_3020" data-name="Trazado 3020" d="M220.9,249h0v0Z" fill="#f4f4f4"/>
      <path id="Trazado_3021" data-name="Trazado 3021" d="M206.7,280.3h0a19.165,19.165,0,0,0,.9-3.2,28.283,28.283,0,0,0,3.7-.6,4.013,4.013,0,0,0,1.5-.3h0l-1.5.3a34.883,34.883,0,0,1-3.7.6,19.162,19.162,0,0,1-.9,3.2h0c0,.1,0,.1-.1.2a.1.1,0,0,1-.1.1l.1-.1C206.7,280.4,206.7,280.4,206.7,280.3Z" fill="#f4f4f4"/>
      <path id="Trazado_3022" data-name="Trazado 3022" d="M211.7,298.8c1.5-1.5,2.8-3.2,2.6-5.6-.3-3.9-.5-7.9-.8-11.8.3,3.9.6,7.9.8,11.8C214.5,295.6,213.3,297.3,211.7,298.8Z" fill="#f4f4f4"/>
      <path id="Trazado_3023" data-name="Trazado 3023" d="M202.9,282.3h0c1-.4,1.9-.8,2.9-1.2a2.01,2.01,0,0,0,.8-.4,2.01,2.01,0,0,1-.8.4A25.16,25.16,0,0,0,202.9,282.3Z" fill="#f4f4f4"/>
      <path id="Trazado_3024" data-name="Trazado 3024" d="M160.4,313.8a.367.367,0,0,1,.3.1c4.6-4.6,11.3-12.9,7.3-18.6h-.1a2.134,2.134,0,0,1-.8,0c-.4,1.4-.9,2.8-1.4,4.1-.3.9-3.2,1.2-2.9.4.7-2,4.9-14.6-.2-12.5a55.424,55.424,0,0,1-1.8,6.7c-.3,1.2-3.3,1.6-2.9.3.9-3.2,3.1-7.4,1.3-10.5a38.064,38.064,0,0,0-3.5,8,20.57,20.57,0,0,1-.7,2.9c-.4,1.2-3.3,1.5-2.9.3.1-.2.1-.4.2-.6a.3.3,0,0,1,0-.4c.2-.7.4-1.3.6-1.9a7.568,7.568,0,0,0,.1-1.5,5.932,5.932,0,0,0-.5-2.3,3.574,3.574,0,0,0-3.7,1.7,19.729,19.729,0,0,0-1.5,6.7c-.3,3.9-.6,8.4.5,12.3a12.875,12.875,0,0,0,3,2.2,20.4,20.4,0,0,0,5.4,1.9A40.77,40.77,0,0,0,160.4,313.8Zm-4.5-.7a20.4,20.4,0,0,1-5.4-1.9Z" fill="#f4f4f4"/>
      <path id="Trazado_3025" data-name="Trazado 3025" d="M199.8,283.7c-3.3,1.4-6.5,2.9-9.8,4.3,0,8.1-.5,16.1-.5,24.2h29.9v-38a25.332,25.332,0,0,1-3.6,1.2,11.559,11.559,0,0,1,.6,4.2h0c0,.1,0,.1.1.2,0,1,0,2.1.1,3.1h0a71.18,71.18,0,0,1,.6,10.3c-.1,2.1-1.8,4.2-3,5.7-1,1.3-3.5,3-4.1,4.5,0,.1-.1.1-.2.2a.1.1,0,0,1,.1.1.367.367,0,0,1,.1.3h0c-.4.7-3.1.9-2.9.5-.3.5-6.2-5.6-6.7-6.5-2.1-3.8-1.2-9.6-.7-14.3Z" fill="#f4f4f4"/>
      <path id="Trazado_3026" data-name="Trazado 3026" d="M187.1,289.5h0v-.3a27.726,27.726,0,0,1-2.6,1c-.6.2-1.1.4-1.7.6.6-.2,1.1-.4,1.7-.6Z" fill="#f4f4f4"/>
      <path id="Trazado_3027" data-name="Trazado 3027" d="M256.5,200.7c-.5,7.8,7.4,13.8,7.3,21.5a25.538,25.538,0,0,1,9.4,3.8,65.562,65.562,0,0,0,12.3-11.2c2.2-2.6,4.8-5.7,5.9-9,1.1-3.4.8-4.9-2.4-4.1-2,3.3-5.7,6.2-7.6,8.7-.7.9-3.5.7-2.4-.7,2.3-2.9,5.4-5.2,7.3-8.4,0-.1.1-.1.1-.2a2.093,2.093,0,0,1,.4-.6c.4-.9,1-2.1.7-3.1-.2-.7-.6-2.8-1.5-1.9a9.687,9.687,0,0,0-2.9,4.3c-.1.4-.5.6-.9.8-1,2.2-2.3,4.3-3.5,6.4-.4.8-3.2,1-2.9.5,2.5-4.4,5.3-8.9,5.8-14-.5,0-.9,0-.9-.2v-1.1a9.994,9.994,0,0,0-2.3,2.7,25.447,25.447,0,0,1-5,9.3c-.5.6-3.4,1-2.7.1a27.192,27.192,0,0,0,3.8-6.1c-.2-.1-.3-.1-.2-.3a10.075,10.075,0,0,1,1.2-2.3,12.336,12.336,0,0,0-.1-7.6c-5.4,3.2-6.9,11.1-10,16.2a1.381,1.381,0,0,1-.4.3c1.6,3.3,2.8,6.7,3.5,8.3.4,1.1-2.4,1.9-2.9.8a75.608,75.608,0,0,0-4.3-9.1C260.5,203.3,256.7,196.4,256.5,200.7Z" fill="#f4f4f4"/>
      <path id="Trazado_3028" data-name="Trazado 3028" d="M246.6,361.1H164.9c-.1,1.4-.3,2.8-.4,4.2a.738.738,0,0,1-.5.6h83.1C247.1,364.3,246.7,362.7,246.6,361.1Z" fill="#f4f4f4"/>
      <path id="Trazado_3029" data-name="Trazado 3029" d="M261.5,182.7c-.2,4.3-.4,8.7-.5,13C261.1,191.4,261.4,187.1,261.5,182.7Z" fill="#f4f4f4"/>
      <path id="Trazado_3030" data-name="Trazado 3030" d="M280.4,190.7c-.6.3-1.1.6-1.6.9a11.521,11.521,0,0,0-1-5.4c-.3-.6-1.5-.2-2-.1l-1.5.6a.914.914,0,0,0-.5.3c-5.6,3.1-7.4,9.6-10.2,15.2a13.028,13.028,0,0,0-1-1.5c.3.5.7,1,1,1.5,2.8-5.6,4.6-12.1,10.2-15.2.2-.1.3-.2.5-.3a9.386,9.386,0,0,1,1.5-.6c.4-.2,1.7-.6,2,.1a11.521,11.521,0,0,1,1,5.4c.5-.3,1.1-.6,1.6-.9.1,0,.1-.1.2-.1v-.4c.1-4.8.1-9.5.2-14.3h0c-.1,4.8-.1,9.5-.2,14.2Z" fill="#f4f4f4"/>
      <path id="Trazado_3031" data-name="Trazado 3031" d="M171.5,302.5c.2-.1.3-.7.4-1.5a8.071,8.071,0,0,0-.6-6.1.367.367,0,0,0-.1-.3h-.1c.1.1.1.2.2.3a7.976,7.976,0,0,1,.6,6.1,9.83,9.83,0,0,1-.5,1.6c-.2.5-.4.9-.6,1.3.2-.4.4-.9.6-1.4C171.4,302.6,171.4,302.5,171.5,302.5Z" fill="#f4f4f4"/>
      <path id="Trazado_3032" data-name="Trazado 3032" d="M163.1,314.6Z" fill="#f4f4f4"/>
      <path id="Trazado_3033" data-name="Trazado 3033" d="M151.6,345.9a1.421,1.421,0,0,0,.2.6A7.258,7.258,0,0,0,155,351a12.206,12.206,0,0,0,3.5,1.4,28.377,28.377,0,0,0,4.2.5,19.31,19.31,0,0,1-4.2-.5L155,351a7.159,7.159,0,0,1-3.2-4.5l-.3-3.1c.1-5.5,3.1-11.2,3.4-16.7a.6.6,0,0,0-.3-.6h0a.6.6,0,0,1,.3.6c-.2,5.4-3.3,11.1-3.4,16.7A7.1,7.1,0,0,0,151.6,345.9Z" fill="#f4f4f4"/>
      <path id="Trazado_3034" data-name="Trazado 3034" d="M164.5,312.5a19.2,19.2,0,0,0-1.4,1.5c.1.1.1.1.1.2v0Z" fill="#f4f4f4"/>
      <path id="Trazado_3035" data-name="Trazado 3035" d="M244.1,359.2c3.1-7.2,5.3-15.1,7.9-22.5,1.8-5.1,3.5-10.1,5.2-15.2.7-2.1,2.4-5.2,2.4-7.4,0,0-.1-.1,0-.1H185.4c-.3,2.1-1.5,4.4-2.1,6.3-1.7,5-3.4,10-5,15.1-1.8,5.4-3.6,10.8-5.4,16.1-.4,1.3-2.7,6.2-2.3,7.2q.15.3-.3.6,36.9,0,73.8-.1Z" fill="#f4f4f4"/>
      <path id="Trazado_3036" data-name="Trazado 3036" d="M362.6,228.7h0q.6-54.3,1.2-108.6c-6.5-.1-12.9-.1-19.4-.2h0c6.5.1,12.9.1,19.4.2Q363.2,174.4,362.6,228.7Z" fill="#f4f4f4"/>
      <path id="Trazado_3037" data-name="Trazado 3037" d="M466.5,214.4a11.49,11.49,0,0,0-1,.8l.2.2A3.915,3.915,0,0,1,466.5,214.4Z" fill="#f4f4f4"/>
      <path id="Trazado_3038" data-name="Trazado 3038" d="M493.9,254a48.671,48.671,0,0,0,4.2-3.5l-4.2,3.5Z" fill="#f4f4f4"/>
      <path id="Trazado_3039" data-name="Trazado 3039" d="M487,288.4c-2.2-3-3.4-6.8-5.8-9.7-2.2,3.4-3.9,7-6.1,10.4-.4.6-2.5,1.4-2.8.3-1-4.1-2.3-8.1-3.5-12.1-3.6,13.5-6.1,26.9-6.1,41,0,6.5,0,13,.2,19.5.1,3.8,0,7.9.9,11.7a.51.51,0,0,1-.4.5c5.7-.2,11.4,1,15.5,3.8a2.235,2.235,0,0,1,1-.3,59.666,59.666,0,0,0,8.5-.7h0l3.4-.8h0c-1.8-16.2-2.5-33,.6-49.1,1.9-10,5.1-20.2,12-27.8-1.8-1.2-3.5-2.4-5.3-3.7-4.4,4.6-6.6,10.6-9.4,16.3C489.5,288.2,487.5,289.1,487,288.4Z" fill="#f4f4f4"/>
      <path id="Trazado_3040" data-name="Trazado 3040" d="M455.8,219.6v.3c0,2.1-.1,4.3-.2,6.5,1.3.1,2.6.5,4,.6.4,0,1.2.1.7.7a2.28,2.28,0,0,1-1.9.7,23.581,23.581,0,0,1-2.8-.4c-.2,5.7-.3,11.5,1,17,2.2,9.2,8.5,12.6,17.8,11.6a1.023,1.023,0,0,1,1,.2,1.38,1.38,0,0,1,.3.4,53.6,53.6,0,0,1,1.1,7.9c.3,0,.6.1.6.2,1.4,3.2,2.9,6.3,4.3,9.5,2.8-3.6,6.1-6.8,8.1-10.9a1.769,1.769,0,0,1,1.1-.7V250.7c0-.4.4-.7.9-.9l-.1-.4a1.268,1.268,0,0,0-.6.1c-1.9.1.3-1.3,1.2-1.4a6.452,6.452,0,0,0,6-8.4,6.915,6.915,0,0,0-2.4-4c-1.5-1.1-2.4-.5-3.5.8a2.7,2.7,0,0,1-1.2.5,2.134,2.134,0,0,1-.8.5c-7.9,3.1-12.3-2.5-15.6-9.1a21.4,21.4,0,0,1-1-2.2l-.4.2a2.491,2.491,0,0,1-1.9.2c-.5-.2-1.7-.8-2.3-.5a3.815,3.815,0,0,0-1.4,1.1,4.383,4.383,0,0,1-1.9.7c-.2,0-1.1.1-.7-.4a8.812,8.812,0,0,1,8.3-2.1c-.7-2-1.3-4-2.1-6-.6-1.5-1.3-3.5-2.5-4.6a.616.616,0,0,1-.1-.7h-.1c-.1.2-.2.5-.5,1.1a8.818,8.818,0,0,0-.9,2c-.3.7-3.1,1-2.9.5h0a1.232,1.232,0,0,1-1.1-.2C460.6,214,457.1,216.4,455.8,219.6Zm17.7,28.3a3.942,3.942,0,0,0,1.7-1.9c.3-.5,1.2-.7,1.7-.8.1,0,1.4-.2,1.1.2a6.544,6.544,0,0,1-2.9,2.8,3.606,3.606,0,0,1-2,.4C472.4,248.5,473.3,248,473.5,247.9Zm-1.9-15.2a3.98,3.98,0,0,0,1.1,3.1c.9.9-1.9,2-2.7,1.2a5.034,5.034,0,0,1-1.3-3.9C468.7,231.9,471.6,231.4,471.6,232.7Zm-9.3,8.5c.3-1.1,3.2-1.5,2.9-.3-.4,1.7-.2,3.4,1.8,4,.6.2.8.7.3,1.2a2.145,2.145,0,0,1-2,.5,3.8,3.8,0,0,1-2.8-2.1A4.2,4.2,0,0,1,462.3,241.2Zm-1.8-3.8c0,.7-1.1,1-1.6,1.1-.6.1-1.3-.1-1.3-.8v-2.9c0-.7,1.1-1,1.6-1.1.6-.1,1.3.1,1.3.8Z" fill="#f4f4f4"/>
      <path id="Trazado_3041" data-name="Trazado 3041" d="M483.1,276.8c2.3,2.3,3.6,5.4,5.2,8.3,2.5-5.3,4.9-10.7,9.2-14.8l.1-.1c-2-1.5-4-3-5.9-4.7C489.4,269.7,485.8,272.9,483.1,276.8Z" fill="#f4f4f4"/>
      <path id="Trazado_3042" data-name="Trazado 3042" d="M343,228.5h0c3.3.1,6.7.1,10,.2Z" fill="#f4f4f4"/>
      <path id="Trazado_3043" data-name="Trazado 3043" d="M201.9,122.3h0c.7-.4,1.4-.7,2.1-1.1,3.2-1.6,11.8-4.5,13.9.6,1.5,3.6-3.7,6.5-7.4,8.2a57.765,57.765,0,0,1,11.1,2.5c2.2.7,8,2.4,7.9,5.6-.2,4-6.7,5.9-9.8,6.5a19.923,19.923,0,0,1-4.2.4c.2,6,1.2,12,1.4,18,.1,4.8.3,10.4-2.9,14.4-2.2,2.8-9.8,3.6-9.3,7.7a31.761,31.761,0,0,0,2.8,8.9c10.5,8.5,27.3,7,34.9,19.3,3.3,5.4,4.2,12.5,5.1,18.6.5,3.4.9,6.8,1.3,10.2,3.5-6.2,6.5-12.9,9.4-19.4.3-.8,1.6-.9,2.4-.9h.2c-1-6.1-12.7-21.1-4.8-24.6a3.861,3.861,0,0,1,2.1-.3c.2-7,.6-14,.7-21.1v-.2c-1.4-.2.6-1.4,1.5-1.4,7,.1,14,.2,21.1.2.8-.4,2.3-.5,2.3-.2-.1,5.1-.1,10.2-.2,15.3.4,0,.9,0,.9.3a19.722,19.722,0,0,1-.2,4.2c.2-.1.3-.2.5-.3,1.9-1,4.3-.9,5.2,1.3a6.34,6.34,0,0,1-.1,4.7,26.145,26.145,0,0,1,4-.2c.3,0,.8.1.9.5,1.1,5.3-2.8,10.5-6,14.3A72.9,72.9,0,0,1,274.8,227c.1.1.3.2.4.3.9-.1,1.8.4,1.1,1.3-3.2,4.2-4.4,11.2-6.2,16.1-3.2,8.5-6.4,17.2-10.9,25.2a59.265,59.265,0,0,1-4.1,6.6c66.3,0,132.7.3,199,.3h.4c1.8-1.1,3.7-2.1,5.6-3.2a.6.6,0,0,1-.3-.6V255.4a13.472,13.472,0,0,1-5.3-7.4,22.507,22.507,0,0,1-.9-3.5,1.412,1.412,0,0,1-.9.1c-10.4-1.9-8.1-14.7-8-22.5.2-10.7,5.6-18.2,15-21.8V72.1a2.355,2.355,0,0,1-1.3.5H201.8v.1C201.9,89.4,201.9,105.8,201.9,122.3Zm177.7-18c0-.8,1.7-1.3,2.5-1.2,7.3.1,14.6.2,21.9.2,1,0,.9.4.5.8.4,0,.8.1.8.4-.5,41.6-1.2,83.2-1.7,124.8,0,.8-1.7,1.3-2.5,1.2-7.3-.1-14.6-.2-21.9-.2-.7,0-.9-.2-.7-.5-.1-.1-.1-.1-.1-.2C378.8,187.8,379.1,146,379.6,104.3Zm-39,85.2c.3-23.1.7-46.2,1-69.2a.52.52,0,0,1,.2-.4c-1.4-.2.6-1.4,1.5-1.4l22.4.3a.956.956,0,0,1,.7.2c.2.1.4.2.4.4q-.6,54.75-1.2,109.5a.723.723,0,0,1-.4.6,3.258,3.258,0,0,1-1.8.8L341,230c-.8,0-.9-.3-.6-.6-.1-.1-.2-.2-.2-.3v-.6h-.3l.7-39ZM300.3,144c0-.8,1.5-1.3,2.4-1.2a1.268,1.268,0,0,1,.6-.1c5,.1,10,.1,15,.2h0l6.8-.1v.2h.6c.9,0,.9.3.5.7v.1c-.3,28.2-.2,56.3-.5,84.5a.52.52,0,0,1-.2.4c.4.4-1.1,1.3-1.9,1.3l-22.4-.3c-.8,0-.9-.2-.7-.5a.458.458,0,0,1-.5-.4C300.4,200.5,300,172.3,300.3,144Z" fill="#f4f4f4"/>
      <path id="Trazado_3044" data-name="Trazado 3044" d="M260.9,198.6a5.716,5.716,0,0,1,.7.8,2.7,2.7,0,0,0-.7-.8Z" fill="#f4f4f4"/>
      <path id="Trazado_3045" data-name="Trazado 3045" d="M382.5,105.2l20-.4a.758.758,0,0,0-.2.4.52.52,0,0,1,.2-.4.1.1,0,0,1,.1-.1c-6.7-.1-13.4-.2-20.1-.2v.7c-.5,41.2-.8,82.4-1.2,123.5v0C381.7,187.6,382,146.4,382.5,105.2Z" fill="#f4f4f4"/>
      <path id="Trazado_3046" data-name="Trazado 3046" d="M493.6,376.9c.3,0,.5,0,.6.1a71.256,71.256,0,0,1-1.1-9v-.1H481.9a4.083,4.083,0,0,1-1.6.4,37.117,37.117,0,0,1-7.8-2c0,.2-.2.4-.5.5v10C479.2,376.9,486.4,376.9,493.6,376.9Z" fill="#f4f4f4"/>
      <path id="Trazado_3047" data-name="Trazado 3047" d="M467.6,271.5h0c-6.1,3.8-12.8,6.7-18.3,11.1C454.9,278.2,461.6,275.3,467.6,271.5Z" fill="#f4f4f4"/>
      <path id="Trazado_3048" data-name="Trazado 3048" d="M458.9,350.4c.6-.1,1.3-.2,1.9-.3a.367.367,0,0,0-.1-.3h0C460.4,349.9,459.7,350.1,458.9,350.4Z" fill="#f4f4f4"/>
      <path id="Trazado_3049" data-name="Trazado 3049" d="M462.7,257.2v15.2a51.867,51.867,0,0,0,10.4-7.7,2.01,2.01,0,0,1,.8-.4,56.23,56.23,0,0,0-.9-5.7A26.543,26.543,0,0,1,462.7,257.2Z" fill="#f4f4f4"/>
      <path id="Trazado_3050" data-name="Trazado 3050" d="M491.8,352.1Z" fill="#f4f4f4"/>
      <path id="Trazado_3051" data-name="Trazado 3051" d="M369.6,359.4h74.8c-9.3-14.6-17-30.1-25.1-45.4h0a.1.1,0,0,0-.1-.1.367.367,0,0,1,.1-.3H345.6c8.1,15.2,15.7,30.6,25,45.1C370.7,358.9,370.2,359.2,369.6,359.4Z" fill="#f4f4f4"/>
      <path id="Trazado_3052" data-name="Trazado 3052" d="M470.8,365.7a31.334,31.334,0,0,1-8.9-5.9c-2.5-2.2-5.6-.9-8.6,0a2.654,2.654,0,0,1-1.9,1.1H368v4.6a.6.6,0,0,1-.1.4H469.8A3.552,3.552,0,0,1,470.8,365.7Z" fill="#f4f4f4"/>
      <path id="Trazado_3053" data-name="Trazado 3053" d="M470.5,271.7c1,4.7,2.6,9.3,3.9,13.9a75.609,75.609,0,0,1,5.2-8.6c-1.4-3.3-3-6.5-4.4-9.8a1.16,1.16,0,0,1-1-.4,39.183,39.183,0,0,1-3.2,2.5v.1l-.6,2.1A.349.349,0,0,1,470.5,271.7Z" fill="#f4f4f4"/>
      <path id="Trazado_3054" data-name="Trazado 3054" d="M512.7,335.9a39.342,39.342,0,0,0-.2,4.8c0,1.2-.4,4.8.2,6.1,1.2-.3,2.4-.7,3.5-1C514.9,342.5,513.7,339.2,512.7,335.9Z" fill="#f4f4f4"/>
      <path id="Trazado_3055" data-name="Trazado 3055" d="M479,356.6a1.077,1.077,0,0,1-.8-.2c-5.5-5.6-17.7-6.6-24.9-3.1.1.1,0,.3-.8.5-.2.1-.3.1-.5.2-.4.2-.7.5-1.1.7a2.191,2.191,0,0,1-.8.3,5.46,5.46,0,0,0-1.8,2.4c1.7.5,3.3,1.1,5,1.6.7-.3,1.5-.5,2.2-.8,1-.3,2-.7,3-.9,1.4-.3,3.8-.6,5,.4,4.9,4.4,9.4,7.3,15.5,8.8C479,363.3,479,359.9,479,356.6Z" fill="#f4f4f4"/>
      <path id="Trazado_3056" data-name="Trazado 3056" d="M233.9,237.7c.5,8.7,1.3,17.3,1.9,25.9.2,2.6.4,5.1.5,7.7-.2-2.6-.4-5.1-.5-7.7C235.2,255,234.4,246.3,233.9,237.7Z" fill="#f4f4f4"/>
      <path id="Trazado_3057" data-name="Trazado 3057" d="M494.7,351.3v.3h0c.1-.1,0-.2,0-.3-1.7-15.8-2.2-31.8.3-47.5,1.6-9.7,4.6-20,11-27.6h0c-6.4,7.6-9.5,17.9-11,27.6C492.5,319.5,493,335.5,494.7,351.3Z" fill="#f4f4f4"/>
      <path id="Trazado_3058" data-name="Trazado 3058" d="M537.3,357.2c-.2,2.9-.4,7.4-2.9,9.3l-8.2.1h8.1l.1-.1h.1c2.4-1.9,2.7-6.4,2.8-9.3a106.505,106.505,0,0,0-.1-11.3A71.164,71.164,0,0,1,537.3,357.2Z" fill="#f4f4f4"/>
      <path id="Trazado_3059" data-name="Trazado 3059" d="M196.9,202.2c.9-.2,1.8-.8,1.5-1.3.3.5-.6,1.1-1.5,1.3a8.647,8.647,0,0,0,.6,3.9A6.473,6.473,0,0,1,196.9,202.2Z" fill="#f4f4f4"/>
      <path id="Trazado_3060" data-name="Trazado 3060" d="M514.4,366.5a1.483,1.483,0,0,1,.7.1h0C514.9,366.6,514.7,366.5,514.4,366.5Z" fill="#f4f4f4"/>
      <path id="Trazado_3061" data-name="Trazado 3061" d="M203.5,192.4a16.091,16.091,0,0,1-2.8,1.7c.5.8.9,1.5,1.3,2.3h.4a.367.367,0,0,0,.1.3c-.1.1-.1.2-.1.4h0c.3.7.6,1.3.9,2a.9.9,0,0,0,.5-.1c.1,0,.2.1.3.1a10.1,10.1,0,0,0,1.3-1.6l.3-.3c-.3-.7-.7-1.5-1.1-2.4-.2-.1-.3-.3-.5-.4-.2-.2-.2-.4,0-.7C204,193.4,203.7,192.9,203.5,192.4Z" fill="#f4f4f4"/>
      <path id="Trazado_3062" data-name="Trazado 3062" d="M207.6,230.8c.1.6.2,1.4.3,2.3C207.8,232.2,207.7,231.4,207.6,230.8Z" fill="#f4f4f4"/>
      <path id="Trazado_3063" data-name="Trazado 3063" d="M203.6,199.9l.1-.1a.1.1,0,0,0-.1.1Z" fill="#f4f4f4"/>
      <path id="Trazado_3064" data-name="Trazado 3064" d="M67.9,357.3A168.5,168.5,0,0,0,63.5,340a.215.215,0,0,1-.2-.2v-.5c-.1-.2-.1-.4-.2-.5a.367.367,0,0,1,.1-.3,152.408,152.408,0,0,0-1.4-17.9c-.7-4.4-2.7-17-9.5-16.2-9.5,1.1-3.2,24.7-.7,34.7a.215.215,0,0,1,.2.2l.3,2.1a5.019,5.019,0,0,1,.2,1.2.367.367,0,0,1-.1.3c.6,5,1,10.1,1.8,15.1.9,5.1,2.1,14.6,7.6,17.2C70.5,379.2,68.6,361.2,67.9,357.3Z" fill="#f4f4f4"/>
      <path id="Trazado_3065" data-name="Trazado 3065" d="M128.2,111.6c1.1.7,2.3,1.2,3.5,1.9a.755.755,0,0,1,.1,1.3c-.3,1.1-.7,2.2-.9,3.3a2.239,2.239,0,0,0,1,2.2c.6.7,2.2,2.7,3.4,2.6a24.181,24.181,0,0,0,3.6-1c1-.2,1.6.3,1.7.9a19.235,19.235,0,0,0,1.8,3.1c.8.9,2.1.9,3.2.9s2,.3,2.6-.7,1.1-2,1.8-3a1.234,1.234,0,0,1,.8-.5,2.292,2.292,0,0,1,1.8-.2,20.245,20.245,0,0,0,3.3.9c.1,0,.2-.1.3-.2.2-.2.4-.3.6-.5.6-.6,1.3-1.2,1.9-1.9,1.5-1.8.2-3.7-.2-5.8a.187.187,0,0,1,0-.3,1.526,1.526,0,0,1,1.1-.7,7.957,7.957,0,0,0,2.8-1.8c.8-1.3.7-3.3.6-4.7-.1-2.8-1.9-3.3-3.9-4.5-.5,0-.8-.1-.8-.5a26.192,26.192,0,0,0,1.1-4c.1-1.3-1.1-2.4-1.9-3.2-.6-.6-1.9-2.4-2.9-2.2l-2.4.6a2.535,2.535,0,0,1-2.2.3c-.2-.1-.4-.2-.3-.4h0c-1.1-1.8-1.6-3.6-4-3.7-.8,0-3.1-.4-3.6.4l-1.8,3a2.458,2.458,0,0,1-2.7.5c-1.1-.2-2.2-.6-3.3-.8l-.1.1c-.2.2-.4.3-.6.5l-1.8,1.8c-.7.9-1.2,1.7-.8,2.8a33.822,33.822,0,0,1,1.1,3.4.536.536,0,0,1-.3.4,1.058,1.058,0,0,1-.5.9c-1.1.7-2.2,1.3-3.3,2-.9.5-.8,1.9-.8,2.8C127.2,108.8,127,110.8,128.2,111.6Zm11.7-10.5c4-1.9,9.9-2,12.5,2.2,2.2,3.7,1.8,8.3-1.6,11-3.8,3.1-10.2,2.8-13.6-.6C133.7,109.4,134.8,103.6,139.9,101.1Z" fill="#f4f4f4"/>
      <path id="Trazado_3066" data-name="Trazado 3066" d="M495,366.6h0Z" fill="#f4f4f4"/>
      <path id="Trazado_3067" data-name="Trazado 3067" d="M94.6,168.9c1.5.9,3.1,1.7,4.6,2.6.7.4.5,1,0,1.4-.4,1.5-.9,3-1.2,4.6a3.7,3.7,0,0,0,1.4,3.2c1,1.1,3.2,3.8,4.9,3.6a46.7,46.7,0,0,0,5-1.4c1.1-.3,1.7.4,1.7,1a28.632,28.632,0,0,0,2.4,4.2c1.1,1.3,3,1.3,4.6,1.3s3.3.4,4.2-1.2c.8-1.4,1.5-2.7,2.4-4a2.738,2.738,0,0,1,1.9-.7,2.252,2.252,0,0,1,.7-.1,26.17,26.17,0,0,0,4.8,1.3c.4,0,1.4-.9,1.7-1.2a21.281,21.281,0,0,0,2.6-2.6c2.1-2.5.4-5-.2-7.8-.1-.1-.2-.2,0-.4.1-.3.6-.5,1.1-.7,1.4-.7,3.3-1.4,4-2.6,1.2-1.7,1-4.4.9-6.4-.2-3.8-2.6-4.5-5.4-6.2-.6,0-1-.1-.9-.5.4-1.7,1.4-3.6,1.5-5.3.1-1.8-1.4-3.2-2.5-4.4-.9-.9-2.7-3.3-4.3-3-1.2.3-2.5.6-3.7.9a2.516,2.516,0,0,1-1.9.3c-.4,0-.5-.2-.4-.4-1.7-2.6-2.3-5.3-5.8-5.3-1.4,0-4.6-.5-5.5.9-.9,1.3-1.5,2.7-2.4,4a2.747,2.747,0,0,1-2.6.6c-1.6-.3-3.1-.9-4.6-1.1-1.1-.2-3.2,2.6-3.9,3.5-1,1.2-1.7,2.3-1.2,3.8s1.1,3,1.5,4.5c0,.2-.1.3-.4.5a.824.824,0,0,1-.5.8c-1.4.9-2.9,1.7-4.3,2.6s-1.3,2.6-1.3,4.1C93.3,165,93,167.8,94.6,168.9ZM111,154.8c5.2-2.5,12.7-2.5,16,3,2.9,4.8,2.4,10.9-2.1,14.5-4.9,3.9-13.1,3.5-17.4-1C103.1,165.7,104.3,158.1,111,154.8Z" fill="#f4f4f4"/>
      <path id="Trazado_3068" data-name="Trazado 3068" d="M512.9,348a.1.1,0,0,1,.1-.1c2.4-.7,4.7-1.3,7.1-1.9,1.5-.4,1.4-1.4.3-1.3,1.2-.1,1.3.9-.3,1.3-2.4.6-4.7,1.3-7.1,1.9l-.1.1a1.809,1.809,0,0,1-1.7.7A1.692,1.692,0,0,0,512.9,348Z" fill="#f4f4f4"/>
      <path id="Trazado_3069" data-name="Trazado 3069" d="M481.9,355.7c0-.6-.4-.8-.9-.9,10.2-.5,19.9-3.4,29.7-6.2h0c-9.8,2.8-19.5,5.7-29.7,6.2.5.1.9.3.9.9v11h0Z" fill="#f4f4f4"/>
      <path id="Trazado_3070" data-name="Trazado 3070" d="M509.4,303.8c.5,0,1,.2,1,.7,1.3,13.5,3.4,27.9,8.7,40.5h0c-5.4-12.6-7.5-27-8.7-40.5A.9.9,0,0,0,509.4,303.8Z" fill="#f4f4f4"/>
      <path id="Trazado_3071" data-name="Trazado 3071" d="M208.3,236.6a52.252,52.252,0,0,0,1.2,6.4C209.1,241.1,208.7,238.8,208.3,236.6Z" fill="#f4f4f4"/>
      <path id="Trazado_3072" data-name="Trazado 3072" d="M208.3,197.5c0,.1,0,.1-.1.2a13.034,13.034,0,0,1-1.9,2.2l-.1.1a.918.918,0,0,1,.6.4c1,2.2,1.8,5.3.1,7.4l-.3.3c.7,1.6.8,4,1.1,5.5.8,4.2,1.5,8.4,2.2,12.7s1.5,8.6,2.3,12.8c.1.5.6,2.7.9,4.4.2.6.3,1.2.5,1.8a9.147,9.147,0,0,1,4.4-.9,4.021,4.021,0,0,1,3,1.1h0a148.637,148.637,0,0,0-2.1-24c-1-5.9-2-18.1-7.9-21.6-.5-.3-.5-.7-.1-1.1A21.016,21.016,0,0,1,208.3,197.5Z" fill="#f4f4f4"/>
      <path id="Trazado_3073" data-name="Trazado 3073" d="M223.9,245c0,1.2,0,2.4-.1,3.7h0C223.9,247.4,223.9,246.2,223.9,245Z" fill="#f4f4f4"/>
      <path id="Trazado_3074" data-name="Trazado 3074" d="M218.2,204.8l-.6-1.2A3.379,3.379,0,0,1,218.2,204.8Z" fill="#f4f4f4"/>
      <path id="Trazado_3075" data-name="Trazado 3075" d="M219.1,207.3a9.83,9.83,0,0,1-.5-1.6A14.244,14.244,0,0,1,219.1,207.3Z" fill="#f4f4f4"/>
      <path id="Trazado_3076" data-name="Trazado 3076" d="M220.7,213.8c-.1-.7-.3-1.5-.4-2.3A18.456,18.456,0,0,0,220.7,213.8Z" fill="#f4f4f4"/>
      <path id="Trazado_3077" data-name="Trazado 3077" d="M219.9,210.2c-.2-.7-.4-1.4-.6-2.2A10.406,10.406,0,0,1,219.9,210.2Z" fill="#f4f4f4"/>
      <path id="Trazado_3078" data-name="Trazado 3078" d="M207.6,121.2c-.4.1-.7.2-1,.3-.9.4-1.8.8-2.7,1.3C205.3,122.2,206.5,121.7,207.6,121.2Z" fill="#f4f4f4"/>
      <path id="Trazado_3079" data-name="Trazado 3079" d="M232.6,221.8h0Z" fill="#f4f4f4"/>
      <path id="Trazado_3080" data-name="Trazado 3080" d="M209.9,244.2a17.076,17.076,0,0,0,.7,1.8A7.511,7.511,0,0,1,209.9,244.2Z" fill="#f4f4f4"/>
      <path id="Trazado_3081" data-name="Trazado 3081" d="M233.2,221.9c.1,0,.1.1.1.2C233.3,222,233.2,222,233.2,221.9Z" fill="#f4f4f4"/>
      <path id="Trazado_3082" data-name="Trazado 3082" d="M236.4,271.3c.3.1.5.2.6.5A1.333,1.333,0,0,0,236.4,271.3Z" fill="#f4f4f4"/>
      <path id="Trazado_3083" data-name="Trazado 3083" d="M201.2,237.4c-.1-5.8-.2-11.5-.2-17.3,0-1.6-.3-3.9-.3-6,0,2.1.3,4.4.3,6,0,5.7.1,11.5.2,17.3,0,2.5.1,4.9.1,7.4C201.2,242.3,201.2,239.8,201.2,237.4Z" fill="#f4f4f4"/>
      <path id="Trazado_3084" data-name="Trazado 3084" d="M213.4,245.4a.1.1,0,0,0,.1-.1c-.1-.3-.2-.7-.3-1A6.529,6.529,0,0,1,213.4,245.4Z" fill="#f4f4f4"/>
      <path id="Trazado_3085" data-name="Trazado 3085" d="M201.2,252.2a11.108,11.108,0,0,1-.1,2.6C201.2,253.9,201.1,253,201.2,252.2Z" fill="#f4f4f4"/>
      <path id="Trazado_3086" data-name="Trazado 3086" d="M207.5,230.3a12.293,12.293,0,0,0-.2-1.3l-1.2-6.9,1.2,6.9A3.918,3.918,0,0,1,207.5,230.3Z" fill="#f4f4f4"/>
      <path id="Trazado_3087" data-name="Trazado 3087" d="M227.7,205.2a34.479,34.479,0,0,1,5.4,2.8A23.112,23.112,0,0,0,227.7,205.2Z" fill="#f4f4f4"/>
      <path id="Trazado_3088" data-name="Trazado 3088" d="M233.1,207.9A23.093,23.093,0,0,1,237,211,23.094,23.094,0,0,0,233.1,207.9Z" fill="#f4f4f4"/>
      <path id="Trazado_3089" data-name="Trazado 3089" d="M250.8,252.8a60.947,60.947,0,0,1-1.4-7.2c4.4-7,7.8-14.7,11.3-22.2h0c-3.4,7.5-6.9,15.2-11.3,22.2.4,2.4.8,4.8,1.4,7.2.3,1.1-2.6,1.9-2.9.8-.4-1.7-.8-3.4-1.1-5.2.3,1.7.7,3.5,1.1,5.2C248.2,254.6,251.1,253.9,250.8,252.8Z" fill="#f4f4f4"/>
      <path id="Trazado_3090" data-name="Trazado 3090" d="M224.6,203.9c.8.3,1.5.6,2.3.9C226.1,204.5,225.4,204.2,224.6,203.9Z" fill="#f4f4f4"/>
      <path id="Trazado_3091" data-name="Trazado 3091" d="M216.2,201h0c2.5.9,5.1,1.7,7.6,2.6C221.3,202.7,218.7,201.9,216.2,201Z" fill="#f4f4f4"/>
      <path id="Trazado_3092" data-name="Trazado 3092" d="M207.9,233.7c.1.9.2,1.9.4,2.9A25.347,25.347,0,0,0,207.9,233.7Z" fill="#f4f4f4"/>
      <path id="Trazado_3093" data-name="Trazado 3093" d="M122.1,377.9h6.2c-.1-.1-.1-.2-.1-.4V352.3c-.1.1-.1.2-.2.2,0-.1-.1-.1-.1-.2a60.288,60.288,0,0,1-6.7,4.5c.3.1.5.2.5.4.1,6.7,1.1,13.9.2,20.7Z" fill="#f4f4f4"/>
      <path id="Trazado_3094" data-name="Trazado 3094" d="M533.3,304.2h-.1a101.405,101.405,0,0,1,2.6,11.2,237.222,237.222,0,0,1,4.4,32.5c.3,5.8,1.3,15.8-4,19.8a2.052,2.052,0,0,1-2,.1,1.7,1.7,0,0,1-.7.1H515.4c.3,2.3.4,4.6.5,6.9,3.5-.1,6.7.9,10.2,1.4,7.2,1.1,11.8-4,13.7-10.3,2.3-7.4,1.9-15.1,2.6-22.6a.44.44,0,0,1-.1-.5c.1-.3.2-.7.3-1,.1-.7.2-1.3.3-2,0-.2.2-.3.4-.5,2.4-8.6,5.2-17.7,3.9-26.5C546.1,304.5,540.8,303.8,533.3,304.2Z" fill="#f4f4f4"/>
      <path id="Trazado_3095" data-name="Trazado 3095" d="M77,404.7c-.2,0-.3-.1-.5-.1A4.331,4.331,0,0,0,77,404.7Z" fill="#f4f4f4"/>
      <path id="Trazado_3096" data-name="Trazado 3096" d="M102.9,301.8Z" fill="#f4f4f4"/>
      <path id="Trazado_3097" data-name="Trazado 3097" d="M106,357.7c4,1.8,8.3.9,12.5-1.1-4.2,2-8.5,2.8-12.5,1.1-9.9-4.4-17.9-15.8-23.8-24.4-4-5.8-12.8-18.6-10.5-27.2-2.3,8.6,6.5,21.4,10.5,27.2C88.1,341.8,96.1,353.3,106,357.7Z" fill="#f4f4f4"/>
      <path id="Trazado_3098" data-name="Trazado 3098" d="M112.5,513.4c-2.4,2.4-2.2,5.5-.1,8.1,2.4,2.4,7.5,2.8,8.8-1a6.565,6.565,0,0,0-.9-6.2C118.4,512,114.9,511.2,112.5,513.4Z" fill="#f4f4f4"/>
      <path id="Trazado_3099" data-name="Trazado 3099" d="M82,338h0c-.1,7.4,1.1,14.9,1.1,22.3C83.2,352.9,81.9,345.4,82,338Z" fill="#f4f4f4"/>
      <path id="Trazado_3100" data-name="Trazado 3100" d="M141.8,514.3c-2.3,2.2-2,5.1-.1,7.5,2.2,2.2,6.9,2.6,8-.9a6.3,6.3,0,0,0-.8-5.8C147.1,513,143.9,512.2,141.8,514.3Z" fill="#f4f4f4"/>
      <path id="Trazado_3101" data-name="Trazado 3101" d="M111.4,331.8h0c-.5.5-1,1-1.5,1.6C110.4,332.8,110.9,332.3,111.4,331.8Z" fill="#f4f4f4"/>
      <path id="Trazado_3102" data-name="Trazado 3102" d="M72.2,402.9a14.769,14.769,0,0,1-.1-2.1,14.083,14.083,0,0,0,.1,2.1h.1a23.876,23.876,0,0,0,3.7,1.5,16.894,16.894,0,0,1-3.7-1.5C72.2,403,72.2,403,72.2,402.9Z" fill="#f4f4f4"/>
      <path id="Trazado_3103" data-name="Trazado 3103" d="M83.8,514.3c-2.3,2.2-2,5.1-.1,7.5,2.2,2.2,6.9,2.6,8-.9a6.3,6.3,0,0,0-.8-5.8C89.2,513,85.9,512.2,83.8,514.3Z" fill="#f4f4f4"/>
      <path id="Trazado_3104" data-name="Trazado 3104" d="M114.8,331.6h0a62.79,62.79,0,0,1,7-5.5,51.212,51.212,0,0,0-7,5.5h0a.31.31,0,0,1,.1.2C114.9,331.7,114.9,331.6,114.8,331.6Z" fill="#f4f4f4"/>
      <path id="Trazado_3105" data-name="Trazado 3105" d="M93.6,303.7a1.949,1.949,0,0,1,.8.1,19.224,19.224,0,0,1,1.7,1.3c-.5-.4-1.1-.9-1.7-1.3A1.949,1.949,0,0,0,93.6,303.7Z" fill="#f4f4f4"/>
      <path id="Trazado_3106" data-name="Trazado 3106" d="M158.8,315.2a4.331,4.331,0,0,1,.5-.1A1.087,1.087,0,0,1,158.8,315.2Z" fill="#f4f4f4"/>
      <path id="Trazado_3107" data-name="Trazado 3107" d="M108.5,335a16.654,16.654,0,0,0-1.8,2.8A26.751,26.751,0,0,1,108.5,335Z" fill="#f4f4f4"/>
      <path id="Trazado_3108" data-name="Trazado 3108" d="M129.8,348.6h0a2.663,2.663,0,0,0-1.2.3Z" fill="#f4f4f4"/>
      <path id="Trazado_3109" data-name="Trazado 3109" d="M107.7,339.5Z" fill="#f4f4f4"/>
      <path id="Trazado_3110" data-name="Trazado 3110" d="M119.4,499.5V436.2h-2.9l-4.8.3v62.7c0,.9-2.6,1.5-2.9.5-9.3-.1-26.1-2.1-23.1,11.9v.1a9.857,9.857,0,0,1,3.8-.2c2.8-7.3,14-7.6,20.8-7.6.8-.2,1.8,0,1.8.7v7a9.293,9.293,0,0,1,7.4-1.2v-4.7a.938.938,0,0,1,.6-.8c-1.5-.1.6-1.3,1.4-1.3,6.7,0,19.5,0,21.8,8.1a13.168,13.168,0,0,1,3.4-.4c2.2-13.7-16.6-11.4-25.5-11.3C120.3,500.3,119.4,500.2,119.4,499.5Z" fill="#f4f4f4"/>
      <path id="Trazado_3111" data-name="Trazado 3111" d="M128,321.8a14.629,14.629,0,0,1-1.3.9c-1.3.9-2.6,1.8-4,2.7,1.4-.9,2.7-1.8,4-2.7A14.622,14.622,0,0,0,128,321.8Z" fill="#f4f4f4"/>
      <path id="Trazado_3112" data-name="Trazado 3112" d="M131.8,319.3c2.2-1.4,4.4-2.9,6.6-4.3-2.2,1.4-4.4,2.9-6.6,4.3a21.411,21.411,0,0,0-1.9,1.3l.9-.4Z" fill="#f4f4f4"/>
      <path id="Trazado_3113" data-name="Trazado 3113" d="M159.6,315.1Z" fill="#f4f4f4"/>
      <path id="Trazado_3114" data-name="Trazado 3114" d="M159.6,315.2Z" fill="#f4f4f4"/>
      <path id="Trazado_3115" data-name="Trazado 3115" d="M96.1,305.1a25.723,25.723,0,0,1,2.9,2.8A25.425,25.425,0,0,0,96.1,305.1Z" fill="#f4f4f4"/>
      <path id="Trazado_3116" data-name="Trazado 3116" d="M222.7,487.6h14.6c-2.9-36.2,3.2-72.3,3.4-108.6H216.1C216.2,415.4,222.5,451.3,222.7,487.6Z" fill="#f4f4f4"/>
      <path id="Trazado_3117" data-name="Trazado 3117" d="M383.2,505.9c4.3,2,12-4.5,15-7.3a.908.908,0,0,1,.7-.3c1.5-2.1,3.2-4,4.5-6.2a.1.1,0,0,1,.1-.1c-.1-.1-.1-.1-.1-.2-3.7-24.7-13.5-48.3-15.3-73.4-.7-9.9-.6-21.6,5.5-30a24.775,24.775,0,0,1,13.7-9.1h-3a2.654,2.654,0,0,1-1.9,1.1c-11.1.1-21.1,4.5-24.8,15.7-3.3,9.8-2.6,20.6-1.1,30.7,3.2,22.1,11.2,43.2,14.4,65.3v.2a.367.367,0,0,1-.1.3c-.4,1-2.5,3.1-4.5,5.5.2.3.1.8-.7,1.1-.2.1-.3.2-.5.2C382.9,502.1,381.2,504.9,383.2,505.9Z" fill="#f4f4f4"/>
      <path id="Trazado_3118" data-name="Trazado 3118" d="M446.5,514.3c-2.3,2.2-2,5.1-.1,7.5,2.2,2.2,6.9,2.6,8-.9a6.3,6.3,0,0,0-.8-5.8C451.9,513,448.7,512.2,446.5,514.3Z" fill="#f4f4f4"/>
      <path id="Trazado_3119" data-name="Trazado 3119" d="M504.5,514.3c-2.3,2.2-2,5.1-.1,7.5,2.2,2.2,6.9,2.6,8-.9a6.3,6.3,0,0,0-.8-5.8C509.9,513,506.6,512.2,504.5,514.3Z" fill="#f4f4f4"/>
      <path id="Trazado_3120" data-name="Trazado 3120" d="M475.3,513.4c-2.4,2.4-2.2,5.5-.1,8.1,2.4,2.4,7.5,2.8,8.8-1a6.565,6.565,0,0,0-.9-6.2C481.2,512,477.6,511.2,475.3,513.4Z" fill="#f4f4f4"/>
      <path id="Trazado_3121" data-name="Trazado 3121" d="M469.1,367.6h-311v9.9h17a1.268,1.268,0,0,1,.6-.1c1,0,2,.1,3,.1H469.2C469.1,374.2,469.1,370.9,469.1,367.6Z" fill="#f4f4f4"/>
      <path id="Trazado_3122" data-name="Trazado 3122" d="M235.1,489.6a.52.52,0,0,1,.2-.4H223.8v.2c-.1,9.8-1,19.6-1.1,29.5a4.283,4.283,0,0,1,1.3-.5h32c1.4-9.5-4.9-11.8-12.6-15.2C237.4,500.5,234.1,496.5,235.1,489.6Z" fill="#f4f4f4"/>
      <path id="Trazado_3123" data-name="Trazado 3123" d="M428.9,379.1H417.5c-11.1.2-20.9,4.6-24.6,15.7-3.3,9.8-2.6,20.6-1.1,30.7,3.2,22.1,11.2,43.2,14.4,65.3a.551.551,0,0,1-.2.5.215.215,0,0,1,.2.2c-2.9,4.8-8,8.6-7.2,14.8,6.9-1.3,13.5-7.3,16.9-13.2h0a.52.52,0,0,1-.2-.4c-5.2-27.6,7.5-56.8-4.9-83.3-.5-1,2.4-1.9,2.9-.8.2.5.5,1.1.7,1.6a.756.756,0,0,1,.4.1c4.8,1.9,9.8,1.6,14.9,1.6-.2-10.6-1.5-21.2-1.6-31.8C428,379.6,428.4,379.3,428.9,379.1Z" fill="#f4f4f4"/>
      <path id="Trazado_3124" data-name="Trazado 3124" d="M505.9,416.1c5-7,3.5-17,2.1-24.9V391c-3.5.1-7-.8-9.4-3.7a22.187,22.187,0,0,1-4.3-9.8,2.558,2.558,0,0,1-1.9,1H471.3a2.654,2.654,0,0,1-1.4.5H430.4a.67.67,0,0,1,.4.7c.1,10.5,1.4,20.9,1.6,31.4,18.3,3.6,37,10.4,55.7,10.8C494.4,422.1,502,421.6,505.9,416.1Z" fill="#f4f4f4"/>
      <path id="Trazado_3125" data-name="Trazado 3125" d="M397.4,507.7c-.2,0-1.1.2-1.2-.2a9.517,9.517,0,0,1-.1-2.9c-3.3,4-6.4,9.6-4.3,13.9s7.9,1.1,10.9-.6c4.1-2.3,7.5-5.2,9.4-9.5h0c.1-.8,2.7-1.4,2.9-.6v.2c-.4,2.9,1.1,6.4,2,9.1.1.3,1.6-3,1.7-3.4a21.835,21.835,0,0,0,.4-4.4,51.648,51.648,0,0,0-2-14.1C412.6,501.5,405.1,506.8,397.4,507.7Z" fill="#f4f4f4"/>
      <path id="Trazado_3126" data-name="Trazado 3126" d="M381.7,507.7c-2.8-.8-2.8-2.8-1.6-5-1.5,1.2-2.8,2.4-4.1,3.6-2.7,2.5-7.1,6.1-7.9,9.9-1.5,7.8,16.2,1.3,20.2-.2.2-3.7,3-8.3,5.6-11.5C389.9,507,385.4,508.8,381.7,507.7Z" fill="#f4f4f4"/>
      <path id="Trazado_3127" data-name="Trazado 3127" d="M517.4,422.6c-6.5-3.2-13.8.8-20.5,1.5a24.616,24.616,0,0,1-4.7.1,76.392,76.392,0,0,1-13.5-.7h-.3c-.4,0-.6,0-.7-.1-2.5-.4-4.9-.8-7.4-1.3-6.7-1-13.4-2.1-20.2-2.2-3.9,0-11.2-.4-13.2,3.8a5.575,5.575,0,0,0,1.6,7c5.9,4.4,15.2,4.4,22.2,4.5,5.2.1,10.5-.1,15.7-.1a2.607,2.607,0,0,1,1.1-.3c2.6.1,5.2.3,7.8.5a1.729,1.729,0,0,1,1.6.1c3.5.3,7,.6,10.5.8,6.3.3,17.7,1.8,22.8-2.9C524,430,521.3,424.5,517.4,422.6Z" fill="#f4f4f4"/>
      <path id="Trazado_3128" data-name="Trazado 3128" d="M184.7,506.3c-.1.7-1.8,1-2.4.9-6.9-.9-13.4-6.1-17.3-12-1.4,6.3-3.3,18.8.4,21.1.9-2.7,2-5.7,1.6-8.3a.367.367,0,0,1,.1-.3c.4-.8,2.7-1.3,2.8-.5a20.93,20.93,0,0,0,8.9,9.7c2,1.1,8.7,5.5,9.8,1.4,1.3-4.5-.9-9.5-3.8-13.4A3.437,3.437,0,0,1,184.7,506.3Z" fill="#f4f4f4"/>
      <path id="Trazado_3129" data-name="Trazado 3129" d="M166.3,491.8h0c3.1,5.8,9.1,11.8,15.7,13.6.2-5.5-4.2-9.2-6.8-13.8-.2-.3.6-.7,1.3-1,3.5-22,13.1-42.6,16.2-64.7,1.4-9.9,2.1-21.4-3-30.5-5.9-10.6-17.6-13.7-29-14.1-.8,10.4-4.8,20.3-6.8,30.5,4.5.1,9.1.3,13.4-1.5.1,0,.2-.1.3-.1.2-.5.4-.9.6-1.4.5-1,3.4-1.2,2.7.2C158.8,435.3,171.4,464.4,166.3,491.8Z" fill="#f4f4f4"/>
      <path id="Trazado_3130" data-name="Trazado 3130" d="M138.6,419.5c-6.1,1.1-12.5,1.5-18.7,2.4-7.3,1.1-13.9,2.8-21.4,2.4-4.5-.3-10.1-1.1-14.6-3.1-4.8-.5-11.8,2-11.3,7.8a6.412,6.412,0,0,0,3.6,5.1c6.9,3.3,15.8,2.6,23.2,2.2,3.2-.2,6.4-.5,9.7-.7a2.4,2.4,0,0,1,2.3-.2c1-.1,2-.2,3-.2h1c1-.1,2-.1,2.9-.2.6,0,.8.1.7.3a6.6,6.6,0,0,1,1.4.1,1.558,1.558,0,0,1,1.5.1c13.5.5,38.3,1,36.3-9C156.9,418.9,144.7,419.3,138.6,419.5Z" fill="#f4f4f4"/>
      <path id="Trazado_3131" data-name="Trazado 3131" d="M121.5,379.7c-.2,1-.4,2.1-.7,3.1-2.1,7-6.5,12.2-12.8,16-7.9,4.7-18.7,8.9-28.6,8.2-2.3,6.9,1.6,10.8,7.2,13,3.6.6,7,2,10.7,2.3a40.089,40.089,0,0,0,9.8-.2c2.9-.5,5.8-1.3,8.8-1.3.9-.1,2.1-.3,3.5-.5.8-.1,1.6-.2,2.5-.4a1.087,1.087,0,0,0,.5-.1c3-.4,6.5-.8,10.2-1.1,6.3-.8,12.6-1.9,18.4-5h.1v-.1c-.3-.2-.2-.6.2-1,2.1-11,6.5-21.6,6.9-32.8C145.9,379.7,133.7,379.7,121.5,379.7Z" fill="#f4f4f4"/>
      <path id="Trazado_3132" data-name="Trazado 3132" d="M205.6,504.6c.2-4.4.7-8.8.9-13.2H192.4c.7,1.6,3.4,4.4,5.5,7.2A37.117,37.117,0,0,1,205.6,504.6Z" fill="#f4f4f4"/>
      <path id="Trazado_3133" data-name="Trazado 3133" d="M177.5,379.1H160.9v.6c10.9.2,23.5,2.5,30.1,12.2,5.7,8.4,6.2,19.1,5.2,28.9-2.5,24.3-13.4,46.6-17,70.7a.664.664,0,0,1-.4.5c1.2,1.9,2.6,3.6,3.7,5.5a.55.55,0,0,1,.5.3,33.076,33.076,0,0,0,5.4,4.5c1.8,1.2,5.8,4.3,8.2,3.4,1.6-.5.3-3.1-1.6-5.8-.2-.1-.5-.3-.7-.4-.5-.2-.4-.5-.1-.8-1.6-2.1-3.3-4.3-4.2-5.5-.6,0-1-.2-.9-.6s.1-.8.2-1.2c-.2-.1-.1-.4.1-.6,3.7-22.3,13.7-43.2,17.3-65.6,1.6-10.2,2.7-22-2.2-31.5C199.2,383.2,188.4,379.7,177.5,379.1Z" fill="#f4f4f4"/>
      <path id="Trazado_3134" data-name="Trazado 3134" d="M484.7,500.1h-1c-1.7,0-.5-1.2.6-1.6V436.8c-2.6-.2-5.2-.4-7.8-.5v62.8c0,.9-2.3,1.5-2.8.7h-.3c-9,0-28.2-2.7-25.1,11.7v.1a9.857,9.857,0,0,1,3.8-.2c2.8-7.3,14-7.6,20.8-7.6.8-.2,1.8,0,1.8.7v7c2.8-1.7,6.5-2.2,9.1-.5v-5.5a1.012,1.012,0,0,1,.4-.7c-.1-.4,1.3-1.1,2-1.1,6.6,0,17.6-.1,19.6,7.8a13.168,13.168,0,0,1,3.4-.4c2-12.5-13.6-11.6-23.1-11.4A1.054,1.054,0,0,1,484.7,500.1Z" fill="#f4f4f4"/>
      <path id="Trazado_3135" data-name="Trazado 3135" d="M192.4,489.8h14.2v-1.3c0-.2.1-.3.1-.5-1.4-17.2-.8-34.5.3-51.7C202.5,454.3,195.5,471.6,192.4,489.8Z" fill="#f4f4f4"/>
      <path id="Trazado_3136" data-name="Trazado 3136" d="M205.8,390a30.492,30.492,0,0,1,3.7,8.5q.45-9.75.6-19.5H189.4C196,380.8,202.1,384,205.8,390Z" fill="#f4f4f4"/>
      <path id="Trazado_3137" data-name="Trazado 3137" d="M200.4,503.3c.3,1.6-.4,3-2.7,3.8-2.9,1-6.1,0-9.1-1.7,2,3.1,3.7,6.7,3.7,9.8a74.951,74.951,0,0,0,10.1,3.4c3.2.8,10.7,2,8-3.6C208.4,510.8,204.5,506.5,200.4,503.3Z" fill="#f4f4f4"/>
      <path id="Trazado_3138" data-name="Trazado 3138" d="M84.2,405.4a36.064,36.064,0,0,0,9.1-1.5,47.379,47.379,0,0,0,16.6-8.5,21.54,21.54,0,0,0,4.6-5,22.681,22.681,0,0,0,1.9-3.4c3.8-8.6,2.4-19.1,2.3-28.8h0c.1,9.7,1.5,20.2-2.3,28.8-.6,1.1-1.2,2.3-1.9,3.4a21.54,21.54,0,0,1-4.6,5,47.379,47.379,0,0,1-16.6,8.5l-9.1,1.5a25.56,25.56,0,0,1-6.2-.5A25.56,25.56,0,0,0,84.2,405.4Z" fill="#f4f4f4"/>
      <path id="Trazado_3139" data-name="Trazado 3139" d="M157.8,271.1a2.384,2.384,0,0,1,1.1-.6c.9-.1,1.7-.3,2.6-.4a23.354,23.354,0,0,1-2.6.4A2.384,2.384,0,0,0,157.8,271.1Z" fill="#f4f4f4"/>
      <path id="Trazado_3140" data-name="Trazado 3140" d="M102.7,312.7a34.322,34.322,0,0,0-2.4-3.3C101.2,310.5,101.9,311.6,102.7,312.7Z" fill="#f4f4f4"/>
      <path id="Trazado_3141" data-name="Trazado 3141" d="M104.8,316.1c-.7-1.2-1.4-2.3-2.1-3.5C103.4,313.8,104.1,315,104.8,316.1Z" fill="#f4f4f4"/>
      <path id="Trazado_3142" data-name="Trazado 3142" d="M93.6,303.7a3.091,3.091,0,0,0-.8.2A3.09,3.09,0,0,1,93.6,303.7Z" fill="#f4f4f4"/>
      <path id="Trazado_3143" data-name="Trazado 3143" d="M107.8,321.5c-.7-1.2-1.3-2.4-2-3.6C106.5,319.1,107.1,320.3,107.8,321.5Z" fill="#f4f4f4"/>
      <path id="Trazado_3144" data-name="Trazado 3144" d="M101,261.7c.5.1.8.3.8.8-.3,6.6,2.6,13.5,4.3,19.7.4,1.7,1.1,3.6,1.6,5.7h.1c1.4.4,2.8-.7,3.8-1.6.9-5.2,1.1-10.5,5.7-14,3.1-2.4,6.4-2.1,8.4-6.2,2.6-5.4,2.1-9.9-.8-15.1-.4-.8.3-1.5,1.1-1.7a7.676,7.676,0,0,0,1.2-4.8c-.4-2.1-2.4-2.4-4.2-2.5-.3,0-.5-.1-.5-.3a1.612,1.612,0,0,1-.7-.4c-2.2-3.7-4.7-7.3-6.4-11.3a19.2,19.2,0,0,1-1.4,1.5,42.906,42.906,0,0,1-8.4,6.9,24.617,24.617,0,0,1,.6,5.3,12.178,12.178,0,0,1,0,2.7A35.741,35.741,0,0,1,101,261.7Zm12.3-19.1a2.407,2.407,0,0,1,2-.3,8.961,8.961,0,0,1,1.9,1.5c.4.5.8,1.1,1.2,1.5.7.7-2.1,1.8-2.7,1.1-.9-.9-1.5-2.2-2.7-2.8C112.5,243.3,112.9,242.8,113.3,242.6Zm-1.2,12.7c.5-.2,1.6-.4,2,.2a9.908,9.908,0,0,0,1.1,1.7,4.569,4.569,0,0,0,1.6,1.1c.7.3.2,1.1-.2,1.4a2.232,2.232,0,0,1-2.1.2,6.657,6.657,0,0,1-3.1-3.1C111.1,256.1,111.5,255.6,112.1,255.3Z" fill="#f4f4f4"/>
      <path id="Trazado_3145" data-name="Trazado 3145" d="M117.1,327h0c-1.2.9-2.5,1.9-3.7,2.9C114.6,328.9,115.8,327.9,117.1,327Z" fill="#f4f4f4"/>
      <path id="Trazado_3146" data-name="Trazado 3146" d="M83.6,225a59.333,59.333,0,0,1,8.4-2.4A30.03,30.03,0,0,0,83.6,225Z" fill="#f4f4f4"/>
      <path id="Trazado_3147" data-name="Trazado 3147" d="M195.6,198.9a27.608,27.608,0,0,1,.6-4,.1.1,0,0,1,.1-.1c-3.5-1.6-6.4-4.2-9.7-6-.2,1.3-.4,2.7-.6,3.9a9.309,9.309,0,0,0,2.6,3.3h1.7v.1a2.663,2.663,0,0,0-1.2.3,28.094,28.094,0,0,0,6.5,3.2C195.6,199.4,195.6,199.2,195.6,198.9Z" fill="#f4f4f4"/>
      <path id="Trazado_3148" data-name="Trazado 3148" d="M108.2,290.2a16.95,16.95,0,0,1,.2,7.4.864.864,0,0,1,.6.3c5.4,8,8.8,17.7,10.8,27.2,1-.7,2-1.4,2.9-2.1l4.8-3.3c-.4,0-.8-.1-.8-.5-1.7-11.6-9-20.6-15.1-30.3A6.528,6.528,0,0,1,108.2,290.2Z" fill="#f4f4f4"/>
      <path id="Trazado_3149" data-name="Trazado 3149" d="M145.2,291.2c.1-.3.3-.7.4-1a10.375,10.375,0,0,0-.4,1Z" fill="#f4f4f4"/>
      <path id="Trazado_3150" data-name="Trazado 3150" d="M187.6,261.3c-3.8,1.7-7.7,3.4-11.7,4.8Q181.75,263.85,187.6,261.3Z" fill="#f4f4f4"/>
      <path id="Trazado_3151" data-name="Trazado 3151" d="M178.9,200.5c8.8,4.8,10.2,18.5,11,27.3a209.8,209.8,0,0,1,.3,31.7,1.421,1.421,0,0,0,.6.2,4.872,4.872,0,0,1-.7.3h0a4.872,4.872,0,0,1,.7-.3c2.4-1.2,4.9-2.3,7.3-3.5.1-.2.5-.4,1.1-.6-1.6.4-1.1,1-1-.4,0-.6.1-1.2.1-1.8.1-1.8.1-3.6.1-5.4,0-5.3-.1-10.6-.1-16-.1-5.1-.1-10.2-.1-15.3,0-1.7-.4-4.3.2-6,0-.1.1-.3.1-.4a.215.215,0,0,1,.2-.2h0c-.1.1-.2.1-.2.2a.6.6,0,0,0-.1.4,4.672,4.672,0,0,1-.5-1c-2.8-1.3-4.3-4.4-3.6-7.9a.758.758,0,0,1,.2-.4,39.774,39.774,0,0,1-7.2-3.4,10.476,10.476,0,0,1-1.1-.8,10.72,10.72,0,0,1-2-2.2,21.774,21.774,0,0,1-6.2,5.2A4.706,4.706,0,0,1,178.9,200.5Zm8.2-2.3c-.1.1-.1.2-.2.2-.2-.2-.4-.2-.6-.3a2.994,2.994,0,0,0-.4-.8Z" fill="#f4f4f4"/>
      <path id="Trazado_3152" data-name="Trazado 3152" d="M157.8,271.1a1.381,1.381,0,0,0-.3.4A1.38,1.38,0,0,1,157.8,271.1Z" fill="#f4f4f4"/>
      <path id="Trazado_3153" data-name="Trazado 3153" d="M186.9,186.8a1.7,1.7,0,0,1,1,0c3.8,1.7,7,4.7,10.8,6.5.3-.1.5-.1.8-.2,1.3-.7,2.8-1.6,2.9-3.2,0-.1.1-.2.2-.4a11.1,11.1,0,0,1-.6-4.7c.4-2.8,3-3.5,5.3-4.6,10.2-4.4,7.1-19.4,5.9-30a2.622,2.622,0,0,1-1.5.2c-.9-.3-1.1-.1-1.8.5a2.145,2.145,0,0,1-2,.5c-.6-.2-.8-.7-.3-1.1a5.811,5.811,0,0,1,5.4-1.7c-.1-1.3-.2-2.5-.2-3.6a.367.367,0,0,1,.1-.3c-3.1-.2-6.3-.7-9.4-1.2,1.1.8,1.9,1.7,1.7,2.7-.3,1.6-2.7,2.1-4,2.4a9.885,9.885,0,0,1-2.6.7l-10.5-.2c1.2,4.5,2.5,9.5.4,13.8-.1.3-.5.5-.8.6v.2l-.1-.1c-.6.6-2,.9-2.5.1a9.151,9.151,0,0,0-2.6-2.6,7.744,7.744,0,0,0-3,.2c-.2.1-.3.2-.5.3a5.423,5.423,0,0,0-.6,1.1,7.465,7.465,0,0,0-.9,4.1c.5,1.6,1.7,2.1,3.1,2.9,2.4,1.3,3.9,3.4,5.3,5.8C187.5,179.1,187.4,183,186.9,186.8ZM211.7,156c0,1.1.5,2.2.5,3.3s-2.9,1.6-2.9.8c0-1.1-.5-2.2-.5-3.3S211.7,155.1,211.7,156Zm-5.9,10.4c2.7-1.4,1.6-3.8-.1-5.6-1-1.1,1.7-2.3,2.7-1.3,1.2,1.2,2.6,3.2,2.1,5a6.036,6.036,0,0,1-3.3,3.7C205.6,169,204.1,167.4,205.8,166.4Zm-3.4,4.9c.2.6-.8,1.1-1.2,1.2a9.23,9.23,0,0,1-7.4-1.2c-1.2-.8,1.4-2,2.3-1.5a6.02,6.02,0,0,0,4.7,1C201.2,170.8,202.3,170.7,202.4,171.3Zm-3.8-13.1a7.386,7.386,0,0,1,.5,3.3c0,1.1-2.9,1.6-2.9.8a9.462,9.462,0,0,0-.5-3.3C195.3,158.1,198.1,157.2,198.6,158.2Zm-7.3-3.9a21.225,21.225,0,0,1,6.7-3c.4-.1,1.5-.3,1.6.4.2.6-.8,1-1.2,1.1a19.587,19.587,0,0,0-5.3,2.4,2.213,2.213,0,0,1-2.1.3C190.4,155.1,190.9,154.5,191.3,154.3Z" fill="#f4f4f4"/>
      <path id="Trazado_3154" data-name="Trazado 3154" d="M204.3,279.5h0a30.447,30.447,0,0,0-2.8-22.9h0A31.525,31.525,0,0,1,204.3,279.5Z" fill="#f4f4f4"/>
      <path id="Trazado_3155" data-name="Trazado 3155" d="M158.3,272.4a.749.749,0,0,1-.5-.1A.749.749,0,0,0,158.3,272.4Z" fill="#f4f4f4"/>
      <path id="Trazado_3156" data-name="Trazado 3156" d="M157.8,272.3c-.3-.1-.4-.3-.3-.5C157.4,272,157.5,272.2,157.8,272.3Z" fill="#f4f4f4"/>
      <path id="Trazado_3157" data-name="Trazado 3157" d="M224.7,250.3Z" fill="#5ea3a3"/>
      <path id="Trazado_3158" data-name="Trazado 3158" d="M513,375.6a64.837,64.837,0,0,0-.6-7.6H496c.9,10.3,3.4,24.1,16.9,20.3,0-4.1.2-8.1.1-12.2C512.3,376.2,512.5,375.9,513,375.6Z" fill="#5ea3a3"/>
      <path id="Trazado_3159" data-name="Trazado 3159" d="M213.2,244.3c.1.3.2.7.3,1h0a12.092,12.092,0,0,0-.5-1.8A1.345,1.345,0,0,1,213.2,244.3Z" fill="#5ea3a3"/>
      <path id="Trazado_3160" data-name="Trazado 3160" d="M202.6,254.6c.5-.1,1-.1,1.1.2,0,.1.1.1.1.2a26.872,26.872,0,0,1,5.4-6.6c.6-.6,1.3-1.1,2-1.7a2.169,2.169,0,0,1-.6-.7,7.51,7.51,0,0,1-.7-1.8l-.3-1.2a56.114,56.114,0,0,1-1.2-6.4c-.1-1-.3-2-.4-2.9,0-.2-.1-.4-.1-.7-.1-.9-.2-1.6-.3-2.3a.9.9,0,0,0-.1-.5,12.293,12.293,0,0,0-.2-1.3l-1.2-6.9-1.2-6.9c-.3-1.4-.4-3.6-.9-5.3a7.6,7.6,0,0,1-2.6.6H201a12.478,12.478,0,0,0-.4,3.5c0,2.1.3,4.4.3,6,0,5.8.1,11.5.2,17.3,0,2.5.1,4.9.1,7.4s0,4.9-.1,7.4h0a11.108,11.108,0,0,1-.1,2.6h.1A1.933,1.933,0,0,1,202.6,254.6Z" fill="#5ea3a3"/>
      <path id="Trazado_3161" data-name="Trazado 3161" d="M203.3,199.2h0c.1.2.2.5.3.7l.1-.1.5-.5c-.1,0-.2-.1-.3-.1Z" fill="#5ea3a3"/>
      <path id="Trazado_3162" data-name="Trazado 3162" d="M491.8,352.1h0v-.2l-3.4.8A34.3,34.3,0,0,0,491.8,352.1Z" fill="#5ea3a3"/>
      <path id="Trazado_3163" data-name="Trazado 3163" d="M494.7,351.3v.3c3-.6,5.9-1.4,8.9-2.2,2.1-.6,4.1-1.2,6.1-1.8a10.558,10.558,0,0,1-.2-3c-.2-4-.4-8.8,1.2-12.5a1.576,1.576,0,0,1,.7-.7,197.94,197.94,0,0,1-4.1-26.2c-.1-.9,1-1.5,1.9-1.5.5,0,1,.2,1,.7,1.3,13.5,3.4,27.9,8.7,40.5.2-.1.4-.1.6-.2a1.268,1.268,0,0,1,.6-.1c1.2-.1,1.3.9-.3,1.3-2.4.6-4.7,1.3-7.1,1.9a.1.1,0,0,1-.1.1,1.809,1.809,0,0,1-1.7.7,1.421,1.421,0,0,1-.6-.2c-9.8,2.8-19.5,5.7-29.7,6.2.5.1.9.3.9.9v11h31.7a2.768,2.768,0,0,1,.9-.1,1.483,1.483,0,0,1,.7.1h11.1l8.2-.1c2.5-1.9,2.8-6.4,2.9-9.3a106.266,106.266,0,0,0-.1-11.3c-.1-1.3-.2-2.5-.3-3.8a289.889,289.889,0,0,0-4.6-29.4c-2.1-10.3-5.5-19.7-13.6-27a119.492,119.492,0,0,0-12.6-9.6c-6.4,7.6-9.5,17.9-11,27.6C492.5,319.5,493,335.5,494.7,351.3Z" fill="#5ea3a3"/>
      <path id="Trazado_3164" data-name="Trazado 3164" d="M82.2,333.2c5.9,8.6,13.9,20.1,23.8,24.4,4,1.8,8.3.9,12.5-1.1a49.474,49.474,0,0,0,9.5-6.4v-.4a.938.938,0,0,1,.6-.8,2.375,2.375,0,0,1,1.2-.3c2.9-2.6,5.5-5.2,7.5-7.1a180.974,180.974,0,0,0,22.5-26.2c-.1,0-.2,0-.2-.1h0v-.1c-.1,0-.2.1-.3.1a1.087,1.087,0,0,1-.5.1h-.2a35.641,35.641,0,0,1-6.5-1.3,17.835,17.835,0,0,1-5.9-2.8,2.016,2.016,0,0,1-1.1-.3c-.1-.1-.1-.2-.2-.3h0c-2.1,1.5-4.3,3-6.5,4.5s-4.4,2.9-6.6,4.3l-1,.9-.9.4h0c-.6.4-1.2.8-1.9,1.3a14.629,14.629,0,0,1-1.3.9c-1.3.9-2.6,1.8-4,2.7a5.5,5.5,0,0,0-.9.7,73.558,73.558,0,0,0-7,5.5v.1a.31.31,0,0,1,.1.2c-.1.3-.6.6-1.2.8a25.384,25.384,0,0,0-4.7,6.2,1.64,1.64,0,0,1-1.2.7h-.1c-.9.2-1.9-.1-1.4-1,.1-.3.3-.5.4-.8a16.654,16.654,0,0,1,1.8-2.8,10.7,10.7,0,0,1,1.4-1.6c.5-.5,1-1.1,1.5-1.6-6.1-6.9-9-16-15-22.7a21.629,21.629,0,0,0-4.8-4.2c-.3-.2.4-.6,1.2-.9a2.353,2.353,0,0,1,.8-.2,1.949,1.949,0,0,1,.8.1,19.224,19.224,0,0,1,1.7,1.3,25.723,25.723,0,0,1,2.9,2.8,17.383,17.383,0,0,1,1.3,1.5q1.2,1.5,2.4,3.3c.7,1.1,1.4,2.3,2.1,3.5.3.6.7,1.2,1,1.8.7,1.2,1.3,2.4,2,3.6a54.286,54.286,0,0,0,5.6,8.5c1.2-1,2.4-2,3.7-2.9-1.8-9.2-4.9-18.7-10-26.7a5.35,5.35,0,0,1-4.2,1.5h0a25.54,25.54,0,0,1-5.5-1.1c-.2-.1-.4-.1-.6-.2-1.2-.3-2.4-.6-3.7-.9-1.2-.3-2.5-.6-3.8-.8-.6-.1-1.3-.2-1.9-.3a16.168,16.168,0,0,0-3.8-.2c-.6,0-1.3.1-1.9.1a12.387,12.387,0,0,0-4.8,1.6,14.807,14.807,0,0,0-5.3,6v.1C69.4,314.6,78.2,327.4,82.2,333.2Z" fill="#5ea3a3"/>
      <path id="Trazado_3165" data-name="Trazado 3165" d="M84.2,405.4l9.1-1.5a47.379,47.379,0,0,0,16.6-8.5,21.54,21.54,0,0,0,4.6-5c.6-1.1,1.3-2.3,1.9-3.4,3.8-8.6,2.4-19.1,2.3-28.8-4.4,2-9,3-13.3,1.5-4.9-1.6-9.1-5.7-12.6-9.2a113.732,113.732,0,0,1-10.6-12.4c-.1,7.4,1.1,14.9,1.1,22.3a40.2,40.2,0,0,1-1.9,13.2c-3.2,9.6-9.5,17.2-9.3,27.4,0,.7.1,1.4.1,2.1h.1a23.876,23.876,0,0,0,3.7,1.5c.2,0,.3.1.5.1s.3.1.5.1a3.553,3.553,0,0,0,1,.2A31.8,31.8,0,0,0,84.2,405.4Z" fill="#5ea3a3"/>
      <path id="Trazado_3166" data-name="Trazado 3166" d="M224.5,251.8c0-.1.1-.2.1-.3-.1.1-.1.2-.2.3Z" fill="#5ea3a3"/>
      <path id="Trazado_3167" data-name="Trazado 3167" d="M190.3,196.1h-1.7c.2.1.3.3.5.4h0a5.637,5.637,0,0,1,1.2-.4C190.2,196.2,190.2,196.1,190.3,196.1Z" fill="#5ea3a3"/>
      <path id="Trazado_3168" data-name="Trazado 3168" d="M198.4,210.5a.215.215,0,0,1,.2-.2l-.9-.3h0a3.128,3.128,0,0,1,.5,1C198.3,210.8,198.3,210.6,198.4,210.5Z" fill="#5ea3a3"/>
      <path id="Trazado_3169" data-name="Trazado 3169" d="M223.6,269.7c-.1.1-.2.1-.3.2v.1Q223.6,269.85,223.6,269.7Z" fill="#5ea3a3"/>
      <path id="Trazado_3170" data-name="Trazado 3170" d="M227,257.4Z" fill="#5ea3a3"/>
      <path id="Trazado_3171" data-name="Trazado 3171" d="M205.7,281c-1,.4-1.9.8-2.9,1.2-.2,2.2-.3,4.5-.3,6.7-.1,2.3-.8,5.2.4,7.4a19.925,19.925,0,0,0,5.3,5.9,9.017,9.017,0,0,1,.9-1c.8-.8,1.8-1.6,2.6-2.5,1.5-1.5,2.8-3.2,2.6-5.6-.3-3.9-.5-7.9-.8-11.8-.1-1.6,0-3.7-.6-5.2a4.012,4.012,0,0,1-1.5.3,34.883,34.883,0,0,1-3.7.6,16.812,16.812,0,0,1-.9,3.2h0c0,.1,0,.1-.1.2a.1.1,0,0,1-.1.1v.1A1.885,1.885,0,0,1,205.7,281Z" fill="#5ea3a3"/>
      <path id="Trazado_3172" data-name="Trazado 3172" d="M202.5,196.5h-.4a2.507,2.507,0,0,0,.4.7c0-.1.1-.2.1-.4A.367.367,0,0,1,202.5,196.5Z" fill="#5ea3a3"/>
      <path id="Trazado_3173" data-name="Trazado 3173" d="M224.7,263.5a1.756,1.756,0,0,0-.5.4v.6a.91.91,0,0,1,.8.4C224.9,264.4,224.8,263.9,224.7,263.5Z" fill="#5ea3a3"/>
      <path id="Trazado_3174" data-name="Trazado 3174" d="M203.5,208.5c0-.1-.1-.1-.1-.2-.1-.2.4-.5,1-.8.8-1.5.4-4-.2-5.6a2.24,2.24,0,0,1-1.8,0c-.7.1-1.3.1-1.5-.4-.6-1.7-1.4-3.4-2.2-5.1-.1.7-.2,1.3-.3,2a6.473,6.473,0,0,0-.1,2.4h0c.3.4-.6,1.1-1.5,1.3a8.647,8.647,0,0,0,.6,3.9,4.844,4.844,0,0,0,3.2,2.7,5.283,5.283,0,0,0,1.3.1A2.559,2.559,0,0,0,203.5,208.5Z" fill="#5ea3a3"/>
      <path id="Trazado_3175" data-name="Trazado 3175" d="M128.1,352.3v-.2c-.1.1-.2.2-.3.2.1.1.1.1.1.2Z" fill="#5ea3a3"/>
      <path id="Trazado_3176" data-name="Trazado 3176" d="M208.4,252.5v-.3a17.26,17.26,0,0,0-1.9,2.8l.1-.1A15.028,15.028,0,0,0,208.4,252.5Z" fill="#5ea3a3"/>
      <path id="Trazado_3177" data-name="Trazado 3177" d="M480.3,354.8Z" fill="#5ea3a3"/>
      <path id="Trazado_3178" data-name="Trazado 3178" d="M444.3,287.5c-10.4,12.7-5.1,29.6-11.2,43.8a1.533,1.533,0,0,1-1,.7c4.5,8.4,9.1,16.8,14.1,24.8a9.265,9.265,0,0,1,2.7-2.5,14.916,14.916,0,0,1,3-1.8c-.2-.1-.4-.2-.3-.4,2.9-15.9-5.5-34.5,3.3-49.3.5-.8,3.2-1,2.9-.5-8.8,14.8-.4,33.2-3.3,49.1a21.806,21.806,0,0,1,4.4-1.1,12.981,12.981,0,0,1,1.9-.6h0c-1-4.5-.8-9.4-.9-14-.1-6.5-.1-12.9-.1-19.4,0-15.4,3.6-30.2,7.8-44.9-6.1,3.8-12.8,6.7-18.3,11.1A33.762,33.762,0,0,0,444.3,287.5Z" fill="#5ea3a3"/>
      <path id="Trazado_3179" data-name="Trazado 3179" d="M190.2,259.5h0v.5a4.872,4.872,0,0,1,.7-.3A2.544,2.544,0,0,1,190.2,259.5Z" fill="#5ea3a3"/>
      <path id="Trazado_3180" data-name="Trazado 3180" d="M150.6,311.1A20.4,20.4,0,0,0,156,313Z" fill="#5ea3a3"/>
      <path id="Trazado_3181" data-name="Trazado 3181" d="M436.2,296.8a31.139,31.139,0,0,1,2.8-6.2,10.565,10.565,0,0,0-2.5,4.6A15.688,15.688,0,0,0,436.2,296.8Z" fill="#5ea3a3"/>
      <path id="Trazado_3182" data-name="Trazado 3182" d="M151.4,343.3l.3,3.1a7.258,7.258,0,0,0,3.2,4.5l3.5,1.4a28.377,28.377,0,0,0,4.2.5,35.52,35.52,0,0,0,6.8-.7h.4c1.6-4.8,3.2-9.7,4.8-14.5l5.4-16.2c.7-2.1,2.3-5.2,2.4-7.3-.1-.1-.1-.1,0-.2a1.724,1.724,0,0,1,.6-.6h0a2.354,2.354,0,0,1,1.8-1h1.6c0-7.5.4-15.1.5-22.6l-2.6.7c-.6.2-1.1.4-1.7.6-3.2,1.2-6.5,2.4-9.9,3.3-.6.2-1.2.3-1.8.5a.367.367,0,0,0,.1.3,7.976,7.976,0,0,1,.6,6.1c0,.8-.1,1.4-.4,1.5l-.1.1c-.2.5-.4.9-.6,1.4a38.52,38.52,0,0,1-6.2,8.6h0l-1.3,1.7v.2c0,.1,0,.1-.1.2h0c-2.6,3.9-5.5,7.7-8.5,11.4a.713.713,0,0,1,.3.6C154.5,332.1,151.5,337.8,151.4,343.3Z" fill="#5ea3a3"/>
      <path id="Trazado_3183" data-name="Trazado 3183" d="M260.9,198.6a5.716,5.716,0,0,1,.7.8,9.732,9.732,0,0,1,1.1,1.5c.3.5.7,1,1,1.5,2.8-5.6,4.6-12.1,10.2-15.2.2-.1.3-.2.5-.3a9.386,9.386,0,0,1,1.5-.6c.4-.2,1.7-.6,2,.1a11.521,11.521,0,0,1,1,5.4,5.071,5.071,0,0,1,1.6-.9l.2-.5c.1-4.7.1-9.5.2-14.2-6.4-.1-12.7-.1-19.1-.2,0,2.3-.1,4.7-.2,7-.2,4.3-.4,8.7-.5,13C261,196.7,261,197.6,260.9,198.6Z" fill="#5ea3a3"/>
      <path id="Trazado_3184" data-name="Trazado 3184" d="M225,266.5h0v0Z" fill="#5ea3a3"/>
      <path id="Trazado_3185" data-name="Trazado 3185" d="M323.3,144.5v-.1c-6.7-.1-13.4-.2-20.1-.2-.3,27.9.1,55.9-.2,83.8a.367.367,0,0,1-.1.3c6.6.1,13.3.2,19.9.2C323.2,200.5,323,172.5,323.3,144.5Z" fill="#5ea3a3"/>
      <path id="Trazado_3186" data-name="Trazado 3186" d="M218.2,204.8a3.552,3.552,0,0,0,.4.9,9.83,9.83,0,0,1,.5,1.6,1.854,1.854,0,0,1,.2.7c.2.7.4,1.4.6,2.2.1.4.2.8.3,1.3a18.456,18.456,0,0,1,.4,2.3c.1.5.2,1,.3,1.4s.1.8.2,1.2c.2,1.1.3,2.2.5,3.1l.6,3.6c.5,3.6,1,7.3,1.3,10.9.3,3.7.5,7.3.5,11,0,1.2,0,2.4-.1,3.7a14.58,14.58,0,0,1,1.9-.7c.1,0,.3-.1.4-.1a1.366,1.366,0,0,1,1.1.4c0,.1.1.1.1.2a6.175,6.175,0,0,1-1.3,5.7c2.8.6,4.9,2.3,2.7,5.2a21.8,21.8,0,0,1-2.5,2.8c.5-.1,1-.1,1.1.2,1.6,4.9-1,8.2-5.1,10.5v39.4h14.6c-1.8-16.3-2.9-32.6-4.1-49-.1-1.7-.2-3.3-.4-5-.9-11.7-2-23.5-2-35.3,0-.6,1.4-1,2.2-1h.2a.367.367,0,0,1,.3.1c.1,0,.1.1.1.2q0,7.8.6,15.6c.5,8.7,1.3,17.3,1.9,25.9.2,2.6.4,5.1.5,7.7.3.1.5.2.6.5,2.3,5.1,6.9,13.1,12.8,7.3a15.379,15.379,0,0,0,1.2-1.3,2.311,2.311,0,0,1,.7-.7c3.9-4.5,6.5-10.3,8.9-15.6,1.6-3.6,3.1-7.2,4.5-10.9s2.8-7.4,4.1-11c.7-2.1,1.4-4.5,2.2-6.7a19.1,19.1,0,0,1,1.8-3.8,1.007,1.007,0,0,1-.3-.1,23.107,23.107,0,0,0-12.2-5.5c-3.4,7.5-6.9,15.2-11.3,22.2.4,2.4.8,4.8,1.4,7.2.3,1.1-2.6,1.9-2.9.8-.4-1.7-.8-3.4-1.1-5.2s-.6-3.5-.8-5.2c-.5-3.5-.9-7-1.4-10.5-.4-2.7-.7-5.7-1.3-8.6-.2-.8-.4-1.7-.6-2.5s-.5-1.7-.7-2.5c-.1-.4-.3-.8-.4-1.2a14.723,14.723,0,0,0-1-2.2,13.735,13.735,0,0,0-1.3-2,27.463,27.463,0,0,0-2.2-2.6,23.094,23.094,0,0,0-3.9-3.1,34.479,34.479,0,0,0-5.4-2.8,3.552,3.552,0,0,1-.9-.4c-.7-.3-1.5-.6-2.3-.9a6.89,6.89,0,0,1-.8-.3c-2.5-.9-5.1-1.7-7.6-2.6a20.675,20.675,0,0,1,1.5,2.5A1.445,1.445,0,0,1,218.2,204.8Z" fill="#5ea3a3"/>
      <path id="Trazado_3187" data-name="Trazado 3187" d="M186.9,198.4c.1-.1.1-.2.2-.2a10.476,10.476,0,0,1-1.1-.8c.1.3.3.5.4.8A.646.646,0,0,1,186.9,198.4Z" fill="#5ea3a3"/>
      <path id="Trazado_3188" data-name="Trazado 3188" d="M220.9,249.9V249a2.507,2.507,0,0,1-.4.7h0v.4A.758.758,0,0,0,220.9,249.9Z" fill="#5ea3a3"/>
      <path id="Trazado_3189" data-name="Trazado 3189" d="M220.6,272.2c-.4.2-.8.4-1.3.7-.1.1-.3.2-.4.4h0c.2-.1.5-.2.7-.3a2.033,2.033,0,0,1,1.2-.7h-.1A.1.1,0,0,0,220.6,272.2Z" fill="#5ea3a3"/>
      <path id="Trazado_3190" data-name="Trazado 3190" d="M216.4,279.6a16.948,16.948,0,0,0,.1,2.3c0,.3.1.7.1,1-.1-1-.1-2.1-.1-3.1A.31.31,0,0,0,216.4,279.6Z" fill="#5ea3a3"/>
      <path id="Trazado_3191" data-name="Trazado 3191" d="M167.7,203.5l-.5.2c.2-.1.4-.1.6-.2C167.8,203.6,167.8,203.6,167.7,203.5Z" fill="#5ea3a3"/>
      <path id="Trazado_3192" data-name="Trazado 3192" d="M199.9,283.6h0c-.1.1,0,.1,0,.1Z" fill="#5ea3a3"/>
      <path id="Trazado_3193" data-name="Trazado 3193" d="M225.3,255.9c.1-.1.1-.1.2-.1-.2-.1-.4-.1-.6-.2a1.381,1.381,0,0,1-.4.3A1.1,1.1,0,0,1,225.3,255.9Z" fill="#5ea3a3"/>
      <path id="Trazado_3194" data-name="Trazado 3194" d="M221,245.6Z" fill="#5ea3a3"/>
      <path id="Trazado_3195" data-name="Trazado 3195" d="M225.9,259.9a1.135,1.135,0,0,1-.8.3H225a7.165,7.165,0,0,1-1.1,1.5v.4h0c.5-.5,1.1-1,1.6-1.6A3.109,3.109,0,0,0,225.9,259.9Z" fill="#5ea3a3"/>
      <path id="Trazado_3196" data-name="Trazado 3196" d="M353.2,228.6c3.2,0,6.3.1,9.5.1q.6-54.3,1.2-108.6c-6.5-.1-12.9-.1-19.4-.2-.4,36.1-1.1,72.2-1.5,108.4v.2h0l10,.2C353.1,228.6,353.1,228.6,353.2,228.6Z" fill="#5ea3a3"/>
      <path id="Trazado_3197" data-name="Trazado 3197" d="M325.1,142.8l-6.8.1c2.3,0,4.5.1,6.8.1Z" fill="#5ea3a3"/>
      <path id="Trazado_3198" data-name="Trazado 3198" d="M402.3,105.3a.52.52,0,0,1,.2-.4l-20,.4c-.5,41.2-.8,82.4-1.2,123.5v.1c6.5.1,13,.1,19.5.2C401.2,187.8,401.9,146.5,402.3,105.3Z" fill="#5ea3a3"/>
      <path id="Trazado_3199" data-name="Trazado 3199" d="M175.2,200.4h0c0,.1.1,0,0,0Z" fill="#5ea3a3"/>
      <path id="Trazado_3200" data-name="Trazado 3200" d="M340.1,228.4c.2-13,.3-25.9.5-38.9l-.8,38.9Z" fill="#5ea3a3"/>
      <path id="Trazado_3201" data-name="Trazado 3201" d="M145.6,290.2a9.291,9.291,0,0,0,.5-1c1.2-1.9,5.5-4.6,7.8-3.1a5.716,5.716,0,0,1,.8.7,31.182,31.182,0,0,1,3-5.3c.4-.7,1.8-1.3,2.5-.7a6.52,6.52,0,0,1,2.4,5.2c2.4-.7,5.1-.9,5.4,2.2a19.1,19.1,0,0,1-.2,4.1c.4-.1.7-.1.9.1a2.7,2.7,0,0,1,.8.7c10.7-2.6,20.7-7.3,30.8-11.8a1.909,1.909,0,0,1,.8-.3,28.8,28.8,0,0,1,3.1-1.3,30.447,30.447,0,0,0-2.8-22.9c-2.6,1.3-5.1,2.5-7.7,3.8-5.2,2.5-10.4,4.8-15.8,6.8a105.651,105.651,0,0,1-10.9,3.4,50.539,50.539,0,0,1-5.6,1.2c-.9.2-1.9.3-2.8.5h-.3a.749.749,0,0,1-.5-.1c-.3-.1-.4-.3-.3-.5a.756.756,0,0,1,.1-.4c.1-.1.1-.2.3-.4a2.384,2.384,0,0,1,1.1-.6c.9-.1,1.7-.3,2.6-.4,2.6-.5,5.1-1.1,7.6-1.8,0-.1-.1-.2-.1-.3.1-15.6,5.9-38.5-7.9-50-.8-.7,1.9-1.8,2.7-1.2,14,11.6,8.3,34.8,8.1,50.6,1.3-.4,2.7-.9,4-1.3,3.9-1.4,7.8-3.1,11.7-4.8a.908.908,0,0,1-.3-.7,202.385,202.385,0,0,0-.3-32.1c-.9-8.4-2-21.8-10.4-26.4-.5-.3-.5-.7-.2-1a86.391,86.391,0,0,1-9.3,3.9c-5.1,1.9-10.6,4.5-14.8,8.4a21.9,21.9,0,0,0-6.9,11.1c-1.2,5.3-.9,11.3-1,16.9a19.267,19.267,0,0,1-.1,2.4c-.3,5.6-.6,11.1-.8,16.7s-.3,11.3,0,16.9c.2,4.1-.2,9.8,1.6,13.8A10.356,10.356,0,0,1,145.6,290.2Z" fill="#5ea3a3"/>
      <path id="Trazado_3202" data-name="Trazado 3202" d="M300.6,229.2c-.2.3-.1.5.7.5l22.4.3c.8,0,2.3-.9,1.9-1.3a.758.758,0,0,0,.2-.4c.3-28.2.2-56.3.5-84.5v-.1c.4-.3.4-.7-.5-.7h-.6c-2.3,0-4.5-.1-6.8-.1h0c-5-.1-10-.1-15-.2a1.268,1.268,0,0,0-.6.1c-.8-.1-2.4.4-2.4,1.2-.3,28.2.1,56.5-.2,84.8C300.1,229,300.3,229.1,300.6,229.2ZM303,228c.3-27.9,0-55.9.2-83.8,6.7.1,13.4.2,20.1.2v.1c-.3,28-.2,56-.5,84-6.6-.1-13.3-.2-19.9-.2A.367.367,0,0,0,303,228Z" fill="#3d3d3d"/>
      <path id="Trazado_3203" data-name="Trazado 3203" d="M207.1,168.2a5.79,5.79,0,0,0,3.3-3.7c.5-1.8-.9-3.8-2.1-5-.9-1-3.7.2-2.7,1.3,1.7,1.8,2.8,4.2.1,5.6C204.1,167.4,205.6,169,207.1,168.2Z" fill="#3d3d3d"/>
      <path id="Trazado_3204" data-name="Trazado 3204" d="M196.1,169.9c-.9-.6-3.5.7-2.3,1.5a10.022,10.022,0,0,0,7.4,1.2c.5-.1,1.4-.6,1.2-1.2s-1.2-.5-1.7-.4A6.371,6.371,0,0,1,196.1,169.9Z" fill="#3d3d3d"/>
      <path id="Trazado_3205" data-name="Trazado 3205" d="M212.3,159.3c0-1.1-.5-2.2-.5-3.3,0-.9-2.9-.3-2.9.8s.5,2.2.5,3.3C209.4,160.9,212.3,160.3,212.3,159.3Z" fill="#3d3d3d"/>
      <path id="Trazado_3206" data-name="Trazado 3206" d="M340.1,229c0,.1.1.3.2.3-.3.3-.2.6.6.6l22.4.3a3.258,3.258,0,0,0,1.8-.8,2.092,2.092,0,0,0,.4-.6q.6-54.75,1.2-109.5c0-.2-.1-.3-.4-.4a.956.956,0,0,0-.7-.2l-22.4-.3c-.9,0-2.9,1.2-1.5,1.4a.758.758,0,0,0-.2.4q-.45,34.65-1,69.2h0c-.2,13-.4,25.9-.5,38.9A1.952,1.952,0,0,1,340.1,229Zm2.9-.5h0v-.2c.4-36.1,1.1-72.2,1.5-108.4h0c6.5.1,12.9.1,19.4.2q-.6,54.3-1.2,108.6h0c-3.2,0-6.3-.1-9.5-.1h-.1c-3.5,0-6.8,0-10.1-.1Z" fill="#3d3d3d"/>
      <path id="Trazado_3207" data-name="Trazado 3207" d="M533.7,302.4a1.222,1.222,0,0,0-.9.3,42.958,42.958,0,0,0-7.9-14.7c-4.8-5.6-10.8-9.8-16.9-13.9.1-.4-.3-.6-.8-.6a139.925,139.925,0,0,1-13.2-9.7v-8.4a2.192,2.192,0,0,0,.8-.3c8.9-6,15.8-14.3,17.1-25.2,1-8.4-2.1-16.7-7-23.4,12.3-2.4,16.9-16.7,8.7-26.6a14.074,14.074,0,0,0-11-5,2.757,2.757,0,0,0-1.8,0c-.1,0-.2.1-.4.1a19.845,19.845,0,0,0-5.9,1.6c-6.5,3-9.8,10.1-9,16.9a25.029,25.029,0,0,0-22.5,6.1h-.2V70.6c0-1.3-2.9-.6-2.9.3H201.1c-1,0-2.3,1.1-1.9,1.6a.764.764,0,0,0-.2.5v49.3a.987.987,0,0,0,.9,1c-6.3,3.7-12.8,8.2-19.7,10.2-.8.2-1.6.4-2.5.6-.2,0-.4.1-.6.1-5.4.9-8.6,2.3-8.3,8.1-8.6,3.9-5.7,15.7-3,22.7,2.9,7.3,9.4,18.5,18.4,18.8a75.811,75.811,0,0,1-1.1,8.5.663.663,0,0,0-.2.7c0,.1,0,.1.1.1a.6.6,0,0,1-.1.4,2.146,2.146,0,0,0-.7.4,20.244,20.244,0,0,1-6.9,6.2.1.1,0,0,0-.1.1,47.057,47.057,0,0,1-7.3,3.1c-.2.1-.4.1-.6.2a54.37,54.37,0,0,0-9.6,4.1c-7.7,4.6-14.2,10.9-15.7,20-.8,4.7-.2,10-.4,14.8-.3,6.2-.7,12.3-.9,18.5-.2,6.3-.2,12.6.1,18.8.3,4.9-.2,11.3,3.5,14.8h0a43.212,43.212,0,0,0-.3,5,40.058,40.058,0,0,0,.2,7.7c-.5.3-.9.6-.7,1,.1.1.2.2.2.3-4.6,3.4-9.4,6.5-14.2,9.6-1.8-11.7-9.3-20.9-15.4-30.7,0-.1.1-.2.1-.3.7-3.5.8-7.1,2.2-10.4,1.8-4.1,6.6-4.4,9.7-7,5.8-4.9,4.6-13.6,1.6-19.5l.3-.3c1.1-2,2.4-4.4,1.9-6.7-.5-2.2-3.3-2.6-5.2-2.6h-.3a.8.8,0,0,0-.1-.8,85.824,85.824,0,0,1-6.5-11.4,1.445,1.445,0,0,0-1-.7c3.4-5.1,5.1-11.7.9-16.8-2.8-3.3-8.5-.4-11.3,1.3-3.8,2.3-6.9,5.5-10,8.6l-.1.1c-9.5.4-19.3,3.4-24.7,11.8-6.7,10.4.7,21.3-.3,32.3-1,11.1-6.2,21.4-9.1,32-1.7,6.2-1.4,11.8,5.3,11.9.3.1.7.2,1,.3,0,8.3,6.8,18.3,10.5,23.9.2.3.5.7.7,1a.52.52,0,0,0-.2.4c-1.3,13.8,3.1,27.1-1.4,40.6-3.4,10.3-10.2,17.6-8.6,29.1,0,.3.7.3,1.4.2a25.374,25.374,0,0,0,5.9,1.9c-2.3,6.5.3,10.7,4.8,13.4-4.6.7-10,3.1-11.6,6.8-7.6-4.9-8.9-14.9-9.2-23.4-.2-8.9,1.2-17.7,1.4-26.6h1.4c15.5-1.8,5.4-29.2,2.6-38.3-.3-9.1.3-38.5-14.2-35.2-6.8,1.5-7.5,8.3-7.3,14.2.3,8.2,2.8,16,4.4,24,1.1,7.4,1.4,14.9,3.1,22.3,1,4.5,2.9,10.3,7.1,12.3v.2c-.1,15.6-7.9,43.9,9.9,53,.1,0,.2.1.3.1a7.576,7.576,0,0,0,1.1,3.3c3.3,5.6,14.5,5.2,20,5.2,6.1,0,12.1-.6,18.2-1v61.8c-10.5-.2-29.2-1-26,13.9,0,.1.2.2.4.2a6.54,6.54,0,0,0-2.1,10.3c2.9,2.9,8.3,3,11.5.5a6.819,6.819,0,0,0,1.3-9.1,6.558,6.558,0,0,0-1.8-1.9c1.6-7.2,11-7.1,17.1-7.1v8.4a.764.764,0,0,0,.2.5c-1.7,2.3-2,5.4.4,8.4,3,3.1,8.8,3.2,12.1.5a7.273,7.273,0,0,0,1.4-9.7,7.943,7.943,0,0,0-1.4-1.7c.3-.2.5-.4.5-.7v-5.6a.764.764,0,0,0-.2-.5c6.7,0,16.6.8,18.2,8a6.54,6.54,0,0,0-1.4,9.9c2.9,2.9,8.3,3,11.5.5a6.819,6.819,0,0,0,1.3-9.1,5.3,5.3,0,0,0-2.5-2.2.31.31,0,0,0,.1-.2c3.2-15.6-17.3-13.4-27.1-13.4V436.1c6.5.1,13.1.2,19.6-.3,5.7-.5,17.5-1.4,19.3-8.5,1.7-7-6.8-9.1-17-9.2a47.913,47.913,0,0,0,7.9-3.1c.3-.1.4-.3.6-.4.5-.1,1-.4,1-.7v-.2c4.5.1,8.8.1,13.1-1.2-9.7,25.5,1.4,53.1-3.4,79.4a.664.664,0,0,0-.4.5c-1.6,4.6-6.5,26.4,2.9,25.8.6,0,1.8-.2,2-1,.5-1.6,1.1-3.4,1.6-5.1a24.216,24.216,0,0,0,8.8,7c3.2,1.6,7.2,3.5,10.7,1.6a6.14,6.14,0,0,0,2.9-3.3c6.2,2.6,18.6,7.4,21.7.7,1.7-3.8-3.2-8.7-5.5-11.1l-.3-.3a1.088,1.088,0,0,0,.7-1c.1-5.8,1-11.6,1.1-17.4a.661.661,0,0,0,.1-.6c-3.1-36.3,3.1-72.5,3.3-108.8h.1c.2,36.6,6.6,72.9,6.7,109.5a.367.367,0,0,0,.1.3c0,.1.1.1.2.2.2.2.5.2.9.2,0,.1-.1.2-.1.3-.1,9.9-1,19.7-1.1,29.6,0,1.2,1.8,1.2,2.6.5h33.7c.5.8,2.6.4,2.8-.8,1.3-7.2-1.1-12.1-7.6-15.2-6.9-3.4-14.7-4.8-13.3-14.3.9.1,2.3-.5,2.2-1.5-3.1-36.4,3.1-72.6,3.3-109h57.4V509c0,1.2,2.9.6,2.9-.4v-130H314V508.9c0,1.2,2.9.6,2.9-.4v-130h80.2c-7.4,1-14.3,4-18.9,10.2-6.2,8.3-6.2,20.1-5.5,30,1.8,25,11.6,48.5,15.3,73.2-.7,1.2-2.9,3.5-5,6-3.8,2.1-7.1,5.2-10.2,8-2.7,2.5-8.2,7.3-7.8,11.5.9,8.2,17.3,2.3,23.3,0a5.2,5.2,0,0,0,3.2,3.8c3.4,1.6,8.1-.9,11-2.2a26.634,26.634,0,0,0,9.9-7.3,51.767,51.767,0,0,0,2,6.3c.1.3.6.4.9.4,11.2.7,6.3-20.7,4.2-26.4-.1-.3-.4-.4-.8-.4v-.1c-5-26.1,6.1-53.7-3.2-79,4.6,1.2,9.4.9,14.2.9a.749.749,0,0,0,.5-.1,2.059,2.059,0,0,0,1.7-.2c7.9,1.6,15.8,3.5,23.7,5.3-2-.1-4-.2-6-.1-5.6.2-15.5.9-16.1,8.3-.6,7.6,13,8.6,17.8,9.1,7.4.7,14.9.4,22.3.3v62.4c-10.4-.2-31.5-1.6-28.2,13.7,0,.1.2.2.4.2a6.54,6.54,0,0,0-2.1,10.3c2.9,2.9,8.3,3,11.5.5a6.819,6.819,0,0,0,1.3-9.1,6.559,6.559,0,0,0-1.8-1.9c1.6-7.2,11-7.1,17.1-7.1v8.4a.764.764,0,0,0,.2.5c-1.7,2.3-2,5.4.4,8.4,3,3.1,8.8,3.2,12.1.5a7.273,7.273,0,0,0,1.4-9.7,6.419,6.419,0,0,0-1-1.3c.8,0,1.8-.4,1.8-1.1v-5.8c6.3,0,14.8.7,16.3,7.7a6.54,6.54,0,0,0-1.4,9.9c2.9,2.9,8.3,3,11.5.5a6.819,6.819,0,0,0,1.3-9.1,5.3,5.3,0,0,0-2.5-2.2.31.31,0,0,0,.1-.2c3-14.5-14.5-13.7-24.9-13.4V436.8c4.9.4,9.8.8,14.7.9,6.7.1,15.9.2,21.2-4.6,4.6-4.1,1.4-8.9-3.1-11.6.1,0,.1-.1.1-.2,8.2-12.1,8.9-29.6,8.3-43.7v-.1a12.253,12.253,0,0,0,1.9-.2c4.2-.8,7-3,9.5-6.3,6.2-8.1,4.7-19.6,5.7-29.4,2.8-10.6,7.1-22.6,3.9-33.5C547.3,301.5,539.4,302.1,533.7,302.4ZM54.1,357.8c-.9-5-1.2-10.1-1.8-15.1a.367.367,0,0,0,.1-.3c-.1-.3-.1-.7-.2-1.2l-.3-2.1a.215.215,0,0,0-.2-.2c-2.5-10-8.8-33.6.7-34.7,6.8-.8,8.8,11.8,9.5,16.2a133.577,133.577,0,0,1,1.4,17.9c-.1.1-.2.2-.1.3.1.2.1.4.2.5v.5a.215.215,0,0,0,.2.2A168.506,168.506,0,0,1,68,357.1c.7,3.9,2.7,22-6.2,17.7C56.2,372.4,55,362.9,54.1,357.8Zm452-81.6a127.025,127.025,0,0,1,12.6,9.6c8.1,7.3,11.4,16.6,13.6,27a294.35,294.35,0,0,1,4.6,29.4c.1,1.3.2,2.5.3,3.8a71.055,71.055,0,0,1,.1,11.3c-.2,2.9-.4,7.4-2.9,9.3h-.1l-.1.1H515a1.483,1.483,0,0,0-.7-.1c-.3,0-.6.1-.9.1H481.7v-11c0-.6-.4-.8-.9-.9,10.2-.5,19.9-3.4,29.7-6.2h0c.2.1.4.1.6.2a1.9,1.9,0,0,0,1.7-.7.1.1,0,0,1,.1-.1c2.4-.7,4.7-1.3,7.1-1.9,1.5-.4,1.4-1.4.3-1.3a1.268,1.268,0,0,0-.6.1c-.2.1-.4.1-.6.2h0c-5.4-12.6-7.5-27-8.7-40.5,0-.5-.5-.7-1-.7-.9,0-2,.6-1.9,1.5a182.748,182.748,0,0,0,4.1,26.2,1.208,1.208,0,0,0-.7.7c-1.7,3.7-1.4,8.5-1.2,12.5a10.77,10.77,0,0,0,.2,3c-2,.6-4.1,1.2-6.1,1.8-3,.8-5.9,1.6-8.9,2.2h0v-.3c-1.7-15.8-2.2-31.8.3-47.5,1.5-9.9,4.5-20.2,10.9-27.8Zm6.9,99.9c.1,4-.1,8.1-.1,12.2-13.5,3.7-16-10-16.9-20.3h16.4a64.824,64.824,0,0,1,.6,7.6C512.5,375.9,512.3,376.2,513,376.1ZM365,366H249.6c.3-.2.5-.4.5-.6,0-1.9-.5-3.7-.5-5.6,0-.2-.3-.3-.7-.3a1.292,1.292,0,0,0-.8-.2h-1.9a1.234,1.234,0,0,0,.8-.5c3.1-7.2,5.3-15.1,7.9-22.5,1.8-5.3,3.7-10.6,5.5-15.9.7-2,2.2-4.8,2.2-7,0-.1,0-.2-.1-.2.4-.5.3-.9-.6-.9H240c-1.3-11.4-2.2-22.9-3-34.3,2.3,3.5,5.4,6.4,9.8,5.3a14.353,14.353,0,0,0,6.9-4.5c66,0,131.9.3,197.9.3a42.018,42.018,0,0,0-10.2,8.6,27.3,27.3,0,0,0-2.1,3h0a28.773,28.773,0,0,0-2.8,6.2h0c-3.3,10.5-1.5,22.5-5.4,32.9-2.9-5.4-5.7-10.8-8.6-16.2.9-.3,2-.9,1-.9H344.6c-.6,0-3.3,1.1-1.9,1.1h.1c-.1.1-.2.2-.1.3a.1.1,0,0,0,.1.1h0c7.9,14.8,15.4,29.8,24.3,44-.8,0-1.8.4-1.8,1.1V366C365,365.9,365,365.9,365,366Zm-202.9-4.9c-.1,1.6-.4,3.3-.4,4.9h-3.9c-.7-.6-2.6-.1-2.6.9V378H130.7a1.012,1.012,0,0,0,.4-.7V349.8c1.5-1.3,2.9-2.5,4.2-3.7a181.479,181.479,0,0,0,16.3-16.5c-1.3,6.9-5.5,15.1-1.1,21.2,3.7,5.2,13,4.5,18.7,3.5-.7,1.7-1.7,4-1.5,5.1h-4C162.6,359.3,161,360.7,162.1,361.1Zm35.4-155a8.439,8.439,0,0,1-.6-3.9c.9-.2,1.8-.8,1.5-1.3h0a6.473,6.473,0,0,1,.1-2.4c.1-.7.2-1.3.3-2a23.115,23.115,0,0,1,2.2,5.1c.2.4.8.5,1.5.4a2.7,2.7,0,0,0,1.8,0c.6,1.7,1,4.1.2,5.6-.6.2-1.2.6-1,.8,0,.1.1.1.1.2a3.313,3.313,0,0,1-1.5.4,5.283,5.283,0,0,1-1.3-.1A4.959,4.959,0,0,1,197.5,206.1Zm6.7-11.5c.2.1.3.3.5.4a25.575,25.575,0,0,1,1.1,2.4l-.3.3c-.4.6-.9,1.1-1.3,1.6l-.5.5-.1.1h0c-.1-.2-.2-.5-.3-.7h0c-.3-.7-.6-1.4-.9-2h0a2.507,2.507,0,0,0-.4-.7h0a17.1,17.1,0,0,0-1.3-2.3c.9-.5,1.9-1.1,2.8-1.7.2.5.5,1,.7,1.5C204,194.1,204,194.4,204.2,194.6Zm-3,60.1h0a20.832,20.832,0,0,0,0-2.5h0c.1-2.5.1-4.9.1-7.4s-.1-4.9-.1-7.4c-.1-5.8-.2-11.5-.2-17.3,0-1.6-.3-3.9-.3-6a12.479,12.479,0,0,1,.4-3.5h.4a10.957,10.957,0,0,0,2.6-.6c.5,1.7.6,3.8.9,5.3l1.2,6.9,1.2,6.9c0,.2.1.7.2,1.3a1.087,1.087,0,0,0,.1.5c.1.6.2,1.4.3,2.3,0,.2.1.4.1.7.1.9.2,1.9.4,2.9a52.252,52.252,0,0,0,1.2,6.4l.3,1.2a17.076,17.076,0,0,0,.7,1.8,2.168,2.168,0,0,0,.6.7c-.7.5-1.3,1.1-2,1.7a29.341,29.341,0,0,0-5.4,6.6c0-.1-.1-.1-.1-.2-.2-.3-.6-.3-1.1-.2A1.209,1.209,0,0,0,201.2,254.7Zm9.8-54.8c5.9,3.4,6.9,15.6,7.9,21.6a148.637,148.637,0,0,1,2.1,24h0v.1h0a4.21,4.21,0,0,0-3-1.1,9.4,9.4,0,0,0-4.4.9h0a.1.1,0,0,0-.1.1,8.917,8.917,0,0,0-.2-1.1c0-.2-.1-.5-.1-.8-.3-1.7-.8-3.9-.9-4.4-.8-4.3-1.5-8.5-2.3-12.8-.7-4.2-1.4-8.4-2.2-12.7-.3-1.5-.4-3.9-1.1-5.5l.3-.3c1.7-2.2.9-5.2-.1-7.4a.675.675,0,0,0-.6-.4l.1-.1a20,20,0,0,0,1.9-2.2c0-.1.1-.1.1-.2A21.48,21.48,0,0,0,211,199C210.5,199.2,210.5,199.6,211,199.9Zm5.2,1.1c2.5.9,5.1,1.7,7.6,2.6a6.89,6.89,0,0,1,.8.3c.8.3,1.5.6,2.3.9a3.552,3.552,0,0,1,.9.4,34.479,34.479,0,0,1,5.4,2.8,23.093,23.093,0,0,1,3.9,3.1,18.845,18.845,0,0,1,2.2,2.6,13.736,13.736,0,0,1,1.3,2,21.4,21.4,0,0,1,1,2.2,5.637,5.637,0,0,1,.4,1.2,18.242,18.242,0,0,1,.7,2.5c.2.8.4,1.7.6,2.5.6,3,.9,6,1.3,8.6.5,3.5.9,7,1.4,10.5.2,1.8.5,3.5.8,5.2s.7,3.5,1.1,5.2c.3,1.1,3.2.3,2.9-.8a60.947,60.947,0,0,1-1.4-7.2c4.4-7,7.8-14.7,11.3-22.2h0a23.9,23.9,0,0,1,12.2,5.5.367.367,0,0,0,.3.1,26.4,26.4,0,0,0-1.8,3.8c-.8,2.3-1.5,4.7-2.2,6.7-1.3,3.7-2.7,7.4-4.1,11-1.4,3.7-2.9,7.3-4.5,10.9-2.4,5.4-5.1,11.1-8.9,15.6a4.62,4.62,0,0,0-.7.7c-.4.4-.8.9-1.2,1.3-6,5.8-10.6-2.2-12.8-7.3-.1-.3-.3-.4-.6-.5-.2-2.6-.4-5.1-.5-7.7-.6-8.6-1.4-17.3-1.9-25.9q-.45-7.8-.6-15.6c0-.1,0-.1-.1-.2a.367.367,0,0,0-.3-.1h-.2c-.9,0-2.2.4-2.2,1,.1,11.7,1.1,23.6,2,35.3.1,1.7.3,3.4.4,5,1.2,16.3,2.2,32.7,4.1,49H222.5V272.6c4.1-2.3,6.8-5.6,5.1-10.5-.1-.3-.6-.3-1.1-.2a16.684,16.684,0,0,0,2.5-2.8c2.2-2.9.1-4.6-2.7-5.2a6.615,6.615,0,0,0,1.3-5.7.349.349,0,0,0-.1-.2,1.366,1.366,0,0,0-1.1-.4c-.2,0-.3,0-.4.1-.7.2-1.3.5-1.9.7h0c0-1.2.1-2.4.1-3.7,0-3.7-.2-7.3-.5-11s-.7-7.3-1.3-10.9l-.6-3.6c-.2-.9-.3-2-.5-3.1-.1-.4-.1-.8-.2-1.2-.1-.5-.2-.9-.3-1.4-.1-.7-.3-1.5-.4-2.3-.1-.4-.2-.8-.3-1.3-.2-.7-.4-1.4-.6-2.2-.1-.2-.1-.5-.2-.7a9.83,9.83,0,0,1-.5-1.6,3.552,3.552,0,0,0-.4-.9l-.6-1.2a13.36,13.36,0,0,1-1.6-2.3Zm45.5-25.3c6.4.1,12.7.1,19.1.2h0c-.1,4.8-.1,9.5-.2,14.3v.4a.349.349,0,0,0-.2.1c-.6.3-1.1.6-1.6.9a11.521,11.521,0,0,0-1-5.4c-.3-.6-1.5-.2-2-.1l-1.5.6c-.2.1-.3.2-.5.3-5.6,3.1-7.4,9.6-10.2,15.2a13.028,13.028,0,0,0-1-1.5c-.4-.5-.7-1-1.1-1.5-.2-.3-.5-.5-.7-.8h0c0-.9.1-1.9.1-2.8.1-4.3.3-8.7.5-13Q261.7,179.3,261.7,175.7Zm-.5,28.8a75.6,75.6,0,0,1,4.3,9.1c.5,1.1,3.3.3,2.9-.8a83.553,83.553,0,0,0-3.5-8.3c.2-.1.4-.2.4-.3,3-5.1,4.5-13.1,10-16.2a12.351,12.351,0,0,1,.1,7.6c-.4.7-.8,1.5-1.2,2.3-.1.1,0,.2.2.3a27.193,27.193,0,0,1-3.8,6.1c-.7.9,2.2.6,2.7-.1a25.447,25.447,0,0,0,5-9.3,7.542,7.542,0,0,1,2.3-2.7v1.1c0,.2.4.2.9.2-.5,5.1-3.3,9.6-5.8,14-.3.5,2.4.3,2.9-.5,1.2-2.1,2.5-4.2,3.5-6.4a1.8,1.8,0,0,0,.9-.8,8.933,8.933,0,0,1,2.9-4.3c1-.8,1.4,1.2,1.5,1.9a4.768,4.768,0,0,1-.7,3.1,2.093,2.093,0,0,1-.4.6c0,.1-.1.1-.1.2-1.9,3.2-5,5.6-7.3,8.4-1.1,1.4,1.7,1.6,2.4.7,2-2.5,5.7-5.4,7.6-8.7,3.2-.8,3.5.7,2.4,4.1s-3.6,6.4-5.9,9A68.817,68.817,0,0,1,273.1,226a24.228,24.228,0,0,0-9.4-3.8c.1-7.7-7.7-13.7-7.3-21.5C256.7,196.4,260.5,203.3,261.2,204.5ZM154.5,326h0a136.434,136.434,0,0,0,8.5-11.5h0c0-.1.1-.1.1-.2v-.2c0-.1-.1-.1-.1-.2.5-.5.9-.9,1.4-1.5h0a33.752,33.752,0,0,0,6.2-8.6c.2-.4.4-.9.6-1.3a9.83,9.83,0,0,0,.5-1.6,8.071,8.071,0,0,0-.6-6.1c-.1-.1-.1-.2-.2-.3h.1a12.09,12.09,0,0,0,1.8-.5,88.378,88.378,0,0,0,9.9-3.3c.6-.2,1.1-.4,1.7-.6.9-.3,1.7-.7,2.6-1v.3h0c-.1,7.5-.4,15.1-.5,22.6h-1.6a2.354,2.354,0,0,0-1.8,1h0c-.3.2-.5.3-.6.6a.139.139,0,0,0,0,.2c-.1,2.1-1.7,5.3-2.4,7.3l-5.4,16.2c-1.6,4.8-3.2,9.7-4.8,14.5h-.4a35.522,35.522,0,0,1-6.8.7,19.31,19.31,0,0,1-4.2-.5,9.9,9.9,0,0,1-3.5-1.4,7.159,7.159,0,0,1-3.2-4.5,1.421,1.421,0,0,0-.2-.6,11.4,11.4,0,0,1-.2-2.6c.1-5.5,3.1-11.2,3.4-16.7C154.8,326.4,154.7,326.2,154.5,326Zm16.1,32.7c-.5-1.1,1.8-6,2.3-7.2,1.8-5.4,3.6-10.8,5.4-16.1,1.7-5,3.4-10,5-15.1.6-1.9,1.8-4.2,2.1-6.3h74.2v.1c0,2.2-1.7,5.3-2.4,7.4-1.7,5.1-3.5,10.1-5.2,15.2-2.6,7.5-4.8,15.3-7.9,22.5H170.4A.365.365,0,0,0,170.6,358.7ZM200.5,298c.5.9,6.4,7,6.7,6.5-.3.4,2.4.3,2.9-.5h0a.367.367,0,0,0-.1-.3.1.1,0,0,1-.1-.1l.2-.2c.6-1.5,3.1-3.3,4.1-4.5,1.2-1.5,2.9-3.7,3-5.7a88.931,88.931,0,0,0-.6-10.3h0c0-.3-.1-.7-.1-1a16.949,16.949,0,0,1-.1-2.3h0a17.706,17.706,0,0,0-.6-4.2c1.2-.4,2.5-.8,3.6-1.2v38H189.5c0-8.1.5-16.1.5-24.2,3.3-1.4,6.5-2.9,9.8-4.3h.1v.1C199.3,288.4,198.4,294.2,200.5,298Zm20-48.3a4.349,4.349,0,0,1,.4-.7h0v.9c-.1.1-.3.1-.4.2s-.2.1-.3.2l.3-.6Zm-14.8,7.2a10.836,10.836,0,0,1,.8-1.9h0a17.261,17.261,0,0,1,1.9-2.8h0a10.593,10.593,0,0,1,1-1.2c1.7-2.1,4.3-5.4,7.2-5.2,4.3.3,1,4.8-1.7,7.8-.5.4-1,.8-1.6,1.2a1.039,1.039,0,0,0-.5.8c-.2.1-.3.3-.4.3-1.3.9,1.7.7,2.3.3h.1c.2-.1.3-.1.5-.2a39.347,39.347,0,0,1,9.4-5.7h0a4.483,4.483,0,0,1-.1,1.2c0,.1-.1.2-.1.3-.8,2.9-4.3,4.7-6.8,6.6-1.6,1.2.8,2,1.9,1.2,1.5-1.2,3.4-2.4,4.9-3.7h0c.1-.1.3-.2.4-.3h0c.2.1.4.1.6.2a2.254,2.254,0,0,1,1.5,1.5v.2a3.979,3.979,0,0,1-1.1,2.5,2.652,2.652,0,0,0-.5.6,12.094,12.094,0,0,1-1.6,1.6h0a36.5,36.5,0,0,1-5.6,4.1c-1.2.8,1.7.5,2.2.1,1.2-.8,2.5-1.7,3.7-2.6a1.756,1.756,0,0,0,.5-.4c.1.5.2.9.3,1.4a3.3,3.3,0,0,1,0,1.4h0v.2h0a6.071,6.071,0,0,1-1.3,3.2c-.1.1-.2.2-.2.3a14.348,14.348,0,0,1-2.6,2.2h0a2.033,2.033,0,0,0-1.2.7c-.2.1-.5.2-.7.3h0a24.638,24.638,0,0,1-3.8,1.4,3.513,3.513,0,0,0-2,.5,33.018,33.018,0,0,1-4.7.8,2.073,2.073,0,0,0-.6.2,31.72,31.72,0,0,0-2.6-18.7A.458.458,0,0,0,205.7,256.9Zm.9,23.7.1-.1c0-.1,0-.1.1-.2h0a16.812,16.812,0,0,0,.9-3.2,28.283,28.283,0,0,0,3.7-.6l1.5-.3h0a18.9,18.9,0,0,1,.6,5.2c.3,3.9.6,7.9.8,11.8.2,2.4-1.1,4.1-2.6,5.6-.9.9-1.8,1.7-2.6,2.5-.3.3-.6.7-.9,1h0a21.4,21.4,0,0,1-5.3-5.9c-1.2-2.1-.5-5.1-.4-7.4.1-2.2.2-4.5.3-6.7h0c1-.4,1.9-.8,2.9-1.2a3.6,3.6,0,0,0,.9-.5Zm-59,28.4c-1.1-3.8-.7-8.4-.5-12.3a18.725,18.725,0,0,1,1.5-6.7,3.574,3.574,0,0,1,3.7-1.7,4.558,4.558,0,0,1,.5,2.3,7.568,7.568,0,0,1-.1,1.5c-.2.6-.4,1.3-.6,1.9v.4c-.1.2-.1.4-.2.6-.4,1.3,2.5.9,2.9-.3a12.32,12.32,0,0,0,.7-2.9,38.064,38.064,0,0,1,3.5-8c1.7,3.1-.4,7.2-1.3,10.5-.4,1.3,2.6.9,2.9-.3a55.424,55.424,0,0,0,1.8-6.7c5.1-2.2.9,10.5.2,12.5-.3.8,2.6.4,2.9-.4.5-1.3,1-2.7,1.4-4.1a1.1,1.1,0,0,0,.8,0h.1c3.9,5.7-2.8,14-7.3,18.6-.1,0-.2-.1-.3-.1a35.4,35.4,0,0,1-4.5-.8,20.4,20.4,0,0,1-5.4-1.9C149.5,310.5,148.5,309.8,147.6,309Zm17,56.4a29.839,29.839,0,0,1,.4-4.2h81.7c.1,1.6.5,3.2.5,4.9H164.1C164.4,365.8,164.6,365.6,164.6,365.4ZM471,269.3c1.1-.8,2.1-1.6,3.2-2.5a1.053,1.053,0,0,0,1,.4c1.5,3.3,3,6.5,4.4,9.8a93.538,93.538,0,0,0-5.2,8.6c-1.3-4.6-2.9-9.2-3.9-13.9,0-.1,0-.1-.1-.2l.6-2.1Zm2.1-4.7a51.868,51.868,0,0,1-10.4,7.7V257.1a24.79,24.79,0,0,0,10.3,1.3,56.219,56.219,0,0,1,.9,5.7A5.579,5.579,0,0,0,473.1,264.6Zm-5.5,6.9h0c-4.2,14.7-7.9,29.5-7.8,44.9,0,6.5,0,12.9.1,19.4.1,4.5-.1,9.5.9,14h0a.367.367,0,0,0,.1.3c-.7.1-1.3.2-1.9.3-1.5.3-3,.7-4.4,1.1,2.8-15.9-5.5-34.3,3.3-49.1.3-.5-2.4-.3-2.9.5-8.8,14.9-.4,33.4-3.3,49.3,0,.2.1.3.3.4a14.918,14.918,0,0,0-3,1.8,7.186,7.186,0,0,0-2.7,2.5c-5.1-8.1-9.7-16.4-14.1-24.8a1.834,1.834,0,0,0,1-.7c6.2-14.2.8-31.1,11.2-43.8a33.879,33.879,0,0,1,5.1-4.9C454.9,278.2,461.6,275.3,467.6,271.5ZM345.7,313.6h73.7c-.1.1-.2.2-.1.3a.1.1,0,0,0,.1.1h0c8.1,15.3,15.8,30.8,25.1,45.4H369.7a2.191,2.191,0,0,0,1.1-.7C361.4,344.2,353.7,328.8,345.7,313.6Zm22.2,52V361h83.4a2.579,2.579,0,0,0,1.9-1.1c3-1,6.1-2.3,8.6,0a35.287,35.287,0,0,0,8.9,5.9,2.016,2.016,0,0,0-1.1.3H367.7A.646.646,0,0,0,367.9,365.6Zm95.6-7.8c-1.1-1-3.6-.7-5-.4a17.1,17.1,0,0,0-3,.9,19.451,19.451,0,0,1-2.2.8c-1.7-.5-3.3-1.1-5-1.6a5.46,5.46,0,0,1,1.8-2.4,6.9,6.9,0,0,0,.8-.3,4.13,4.13,0,0,1,1.1-.7c.2-.1.3-.1.5-.2.8-.2,1-.4.8-.5,7.2-3.6,19.4-2.5,24.9,3.1a1.292,1.292,0,0,0,.8.2v10C472.9,365.1,468.3,362.2,463.5,357.8Zm9,8.6a37.117,37.117,0,0,0,7.8,2,7.323,7.323,0,0,0,1.6-.4h11.2v.1a71.256,71.256,0,0,0,1.1,9c-.1-.1-.3-.1-.6-.1H472V367A1.333,1.333,0,0,0,472.5,366.4Zm7.8-11.6Zm32.2-14.1a39.342,39.342,0,0,1,.2-4.8,82.894,82.894,0,0,0,3.5,9.9c-1.2.3-2.4.7-3.5,1C512.1,345.4,512.5,341.9,512.5,340.7ZM504.4,275c-6.9,7.7-10.1,17.8-12,27.8-3.1,16.1-2.4,32.9-.6,49.1h0v.2h0c-1.1.2-2.3.4-3.4.6h0a59.67,59.67,0,0,1-8.5.7,1.93,1.93,0,0,0-1,.3c-4.1-2.9-9.8-4.1-15.5-3.8.3-.2.4-.3.4-.5-.9-3.7-.8-7.9-.9-11.7-.2-6.5-.2-13-.2-19.5,0-14.1,2.5-27.5,6.1-41,1.1,4.1,2.5,8,3.5,12.1.3,1.1,2.4.3,2.8-.3,2.2-3.4,3.9-7,6.1-10.4,2.4,2.9,3.6,6.7,5.8,9.7.5.7,2.5-.1,2.8-.7,2.8-5.7,5-11.7,9.4-16.3C500.9,272.6,502.7,273.8,504.4,275Zm-6.8-4.8-.1.1c-4.4,4.1-6.8,9.5-9.2,14.8-1.6-2.8-2.9-6-5.2-8.3,2.7-3.9,6.3-7.1,8.7-11.3A62.809,62.809,0,0,0,497.6,270.2ZM493.9,254h0l4.2-3.5A48.671,48.671,0,0,1,493.9,254Zm-27.4-39.6a8.745,8.745,0,0,0-.8,1l-.2-.2A4.872,4.872,0,0,1,466.5,214.4Zm-2.9,2.6a1.311,1.311,0,0,0,1.1.2h0c-.2.5,2.6.2,2.9-.5a12.149,12.149,0,0,1,.9-2c.3-.6.4-.9.5-1.1h.1c0,.2-.1.6.1.7,1.3,1.1,1.9,3.1,2.5,4.6.8,2,1.4,4,2.1,6a8.452,8.452,0,0,0-8.3,2.1c-.5.4.4.4.7.4a3.157,3.157,0,0,0,1.9-.7,7.551,7.551,0,0,1,1.4-1.1c.6-.3,1.8.3,2.3.5a3.132,3.132,0,0,0,1.9-.2l.4-.2a14.721,14.721,0,0,0,1,2.2c3.3,6.6,7.7,12.2,15.6,9.1.5-.2.7-.3.8-.5a2.7,2.7,0,0,0,1.2-.5c1.2-1.3,2-1.9,3.5-.8a6.915,6.915,0,0,1,2.4,4c1.1,4.4-1.5,8.2-6,8.4-.9.1-3.1,1.5-1.2,1.4a1.268,1.268,0,0,0,.6-.1l.1.4c-.5.2-.9.5-.9.9v12.5a1.769,1.769,0,0,0-1.1.7c-2,4.2-5.3,7.4-8.1,10.9-1.4-3.2-2.9-6.3-4.3-9.5a.445.445,0,0,0-.6-.2,51.8,51.8,0,0,0-1.1-7.9c0-.2-.1-.3-.3-.4-.2-.2-.5-.2-1-.2-9.3,1-15.6-2.4-17.8-11.6-1.3-5.5-1.2-11.2-1-17a13.505,13.505,0,0,0,2.8.4,2.64,2.64,0,0,0,1.9-.7c.4-.5-.4-.7-.7-.7-1.3,0-2.6-.5-4-.6.1-2.2.2-4.3.2-6.5v-.3C457.1,216.4,460.6,214,463.6,217ZM458.5,72.9a2.355,2.355,0,0,0,1.3-.5V200.6c-9.5,3.6-14.8,11.1-15,21.8-.2,7.8-2.4,20.6,8,22.5a1.412,1.412,0,0,0,.9-.1,22.511,22.511,0,0,0,.9,3.5,13.843,13.843,0,0,0,5.3,7.4v17.6a.6.6,0,0,0,.3.6c-1.9,1.1-3.7,2.1-5.6,3.2h-.4c-66.3,0-132.7-.3-199-.3a54.111,54.111,0,0,0,4.1-6.6c4.5-8,7.7-16.6,10.9-25.2,1.8-4.9,3-11.9,6.2-16.1.7-.9-.2-1.4-1.1-1.3-.1-.1-.3-.2-.4-.3a72.894,72.894,0,0,0,13.9-12.7c3.2-3.8,7.1-9,6-14.3-.1-.4-.6-.5-.9-.5a26.8,26.8,0,0,0-4,.2,6.354,6.354,0,0,0,.1-4.7c-.9-2.3-3.3-2.4-5.2-1.3-.2.1-.3.2-.5.3a19.1,19.1,0,0,0,.2-4.2c0-.3-.5-.3-.9-.3.1-5.1.1-10.2.2-15.3,0-.3-1.5-.2-2.3.2-7-.1-14-.2-21.1-.2-.9,0-2.9,1.2-1.5,1.4v.2c-.1,7-.6,14-.7,21.1a3.121,3.121,0,0,0-2.1.3c-8,3.6,3.8,18.5,4.8,24.6h-.2c-.7,0-2,.1-2.4.9-2.9,6.5-5.9,13.1-9.4,19.4-.5-3.4-.8-6.8-1.3-10.2-.9-6.1-1.7-13.2-5.1-18.6-7.6-12.3-24.4-10.8-34.9-19.3a35.405,35.405,0,0,1-2.8-8.9c-.5-4,7-4.9,9.3-7.7,3.2-3.9,3-9.6,2.9-14.4-.2-6-1.2-12-1.4-18a19.924,19.924,0,0,0,4.2-.4c3.1-.6,9.6-2.5,9.8-6.5.1-3.3-5.7-4.9-7.9-5.6a61.354,61.354,0,0,0-11.1-2.5c3.7-1.7,8.9-4.6,7.4-8.2-2.2-5.1-10.7-2.2-13.9-.6a21.162,21.162,0,0,0-2.1,1.1h0V73.2Q330.1,72.75,458.5,72.9ZM207.6,121.2c-1.1.5-2.3,1-3.7,1.6.9-.5,1.8-.9,2.7-1.3C206.9,121.4,207.2,121.3,207.6,121.2Zm-27.2,48.9c-1.3-.8-2.5-1.3-3.1-2.9a7.28,7.28,0,0,1,.9-4.1,5.422,5.422,0,0,1,.6-1.1c.2-.1.3-.2.5-.3a15.645,15.645,0,0,1,3-.2,10.623,10.623,0,0,1,2.6,2.6c.5.7,1.9.5,2.5-.1l.1.1v-.2a1.037,1.037,0,0,0,.8-.6c2.1-4.3.8-9.3-.4-13.8l10.5.2a17.469,17.469,0,0,0,2.6-.7c1.3-.3,3.7-.8,4-2.4.2-1-.6-1.9-1.7-2.7,3.1.5,6.3,1,9.4,1.2a.367.367,0,0,0-.1.3c0,1.1.1,2.3.2,3.6a5.987,5.987,0,0,0-5.4,1.7.594.594,0,0,0,.3,1.1,2.364,2.364,0,0,0,2-.5c.7-.7.9-.8,1.8-.5a2.622,2.622,0,0,0,1.5-.2c1.3,10.6,4.3,25.5-5.9,30-2.3,1-4.9,1.7-5.3,4.6a11.288,11.288,0,0,0,.6,4.7.52.52,0,0,0-.2.4c-.1,1.6-1.5,2.4-2.9,3.2a2.354,2.354,0,0,0-.8.2c-3.8-1.8-6.9-4.7-10.8-6.5a1.7,1.7,0,0,0-1,0c.5-3.8.6-7.7-1.3-11A11.374,11.374,0,0,0,180.4,170.1Zm8.6,26.4c-.2-.1-.3-.3-.5-.4h0a10.881,10.881,0,0,1-2.6-3.3l.6-3.9c3.4,1.8,6.3,4.3,9.7,6a.1.1,0,0,1-.1.1,25.684,25.684,0,0,0-.6,4c0,.2-.1.5-.1.8a35.148,35.148,0,0,1-6.4-3.3Zm-5-1.3a13.726,13.726,0,0,0,2,2.2,7.631,7.631,0,0,0,1.1.8,34.036,34.036,0,0,0,7.2,3.4.758.758,0,0,0-.2.4c-.6,3.5.9,6.6,3.6,7.9h0l.9.3h0c-.1.1-.2.1-.2.2a.6.6,0,0,0-.1.4c-.5,1.7-.2,4.3-.2,6,0,5.1.1,10.2.1,15.3.1,5.3.1,10.6.1,16,0,1.8,0,3.6-.1,5.4,0,.6-.1,1.2-.1,1.8-.1,1.4-.6.8,1,.4a2.651,2.651,0,0,0-1.1.6c-2.4,1.2-4.8,2.4-7.3,3.5a4.872,4.872,0,0,1-.7.3h0v-.5h0a239.39,239.39,0,0,0-.3-31.7c-.8-8.8-2.2-22.5-11-27.3a1.574,1.574,0,0,0-1.2-.1A22.561,22.561,0,0,0,184,195.2Zm-40.4,65.2c.2-5.6.5-11.1.8-16.7,0-.8.1-1.6.1-2.4.1-5.6-.3-11.6,1-16.9a21.493,21.493,0,0,1,6.9-11.1c4.2-3.8,9.7-6.5,14.8-8.4a70,70,0,0,0,9.3-3.9c-.3.3-.3.7.2,1,8.4,4.6,9.5,18,10.4,26.4,1.1,10.6.8,21.4.3,32.1a.908.908,0,0,0,.3.7c-3.8,1.7-7.7,3.4-11.7,4.8-1.3.5-2.6.9-4,1.3.2-15.8,5.9-39-8.1-50.6-.8-.7-3.5.5-2.7,1.2,13.9,11.5,8,34.4,7.9,50a.367.367,0,0,0,.1.3c-2.5.7-5,1.3-7.6,1.8a23.354,23.354,0,0,1-2.6.4,1.684,1.684,0,0,0-1.1.6,1.381,1.381,0,0,0-.3.4c-.1.1-.1.2-.1.4a.55.55,0,0,0,.3.5.749.749,0,0,0,.5.1h.3a23.253,23.253,0,0,0,2.8-.5c1.9-.4,3.8-.8,5.6-1.2a105.649,105.649,0,0,0,10.9-3.4c5.4-2,10.6-4.3,15.8-6.8,2.6-1.2,5.2-2.5,7.7-3.8h0a30.56,30.56,0,0,1,2.8,22.9h0c-1,.4-2.1.9-3.1,1.3a6.9,6.9,0,0,0-.8.3c-10.1,4.5-20.1,9.2-30.8,11.8-.3-.2-.5-.5-.8-.7a2.219,2.219,0,0,0-.9-.1,14.133,14.133,0,0,0,.2-4.1c-.3-3-3.1-2.9-5.4-2.2a6.52,6.52,0,0,0-2.4-5.2c-.7-.6-2.1,0-2.5.7a39.9,39.9,0,0,0-3,5.3,2.7,2.7,0,0,0-.8-.7c-2.4-1.5-6.6,1.2-7.8,3.1a3.128,3.128,0,0,0-.5,1,4.179,4.179,0,0,0-.4,1h0c-1.8-4-1.4-9.8-1.6-13.8C143.3,271.7,143.4,266.1,143.6,260.4Zm-16.9,58.9c0,.3.4.5.8.5-1.6,1.1-3.2,2.1-4.8,3.3-1,.7-1.9,1.3-2.9,2.1-2-9.5-5.4-19.2-10.8-27.2a.6.6,0,0,0-.6-.3,18.625,18.625,0,0,0-.2-7.4,8.5,8.5,0,0,0,3.4-1.1C117.6,298.7,124.9,307.8,126.7,319.3Zm-20.6-75.5a23.933,23.933,0,0,0-.6-5.3,46.8,46.8,0,0,0,8.4-6.9c.5-.5.9-1,1.4-1.5a113.454,113.454,0,0,0,6.4,11.3.842.842,0,0,0,.7.4c0,.2.2.3.5.3,1.8,0,3.8.4,4.2,2.5a7.677,7.677,0,0,1-1.2,4.8c-.8.2-1.5.9-1.1,1.7,2.9,5.2,3.5,9.7.8,15.1-2,4.1-5.3,3.8-8.4,6.2-4.5,3.5-4.7,8.9-5.7,14-1,.9-2.3,2-3.8,1.6h-.1c-.5-2.1-1.2-4.1-1.6-5.7-1.7-6.3-4.5-13.1-4.3-19.7a.736.736,0,0,0-.8-.8,32.754,32.754,0,0,0,5.1-15.1A5.77,5.77,0,0,0,106.1,243.8ZM92,222.6a42.721,42.721,0,0,0-8.4,2.4A30.03,30.03,0,0,1,92,222.6ZM71.7,306h0a14.187,14.187,0,0,1,5.3-6,11.849,11.849,0,0,1,4.8-1.6,11.482,11.482,0,0,1,1.9-.1c1.3,0,2.5.1,3.8.2.6.1,1.3.2,1.9.3,1.3.2,2.5.5,3.8.8,1.2.3,2.5.6,3.7.9a1.421,1.421,0,0,1,.6.2,33.479,33.479,0,0,0,5.5,1.1h0a5.022,5.022,0,0,0,4.2-1.5c5,8,8.2,17.5,10,26.7h0c-1.2.9-2.5,1.9-3.7,2.9a54.286,54.286,0,0,1-5.6-8.5c-.7-1.2-1.3-2.4-2-3.6-.3-.6-.7-1.2-1-1.8-.7-1.2-1.4-2.3-2.1-3.5a34.322,34.322,0,0,0-2.4-3.3c-.4-.5-.9-1-1.3-1.5a38.333,38.333,0,0,0-2.9-2.8c-.5-.4-1.1-.9-1.7-1.3a1.949,1.949,0,0,0-.8-.1,3.091,3.091,0,0,0-.8.2c-.8.3-1.4.7-1.2.9a27.808,27.808,0,0,1,4.8,4.2c6,6.7,8.9,15.9,15,22.7h0c-.5.5-1,1-1.5,1.6-.5.5-.9,1.1-1.4,1.6a16.654,16.654,0,0,0-1.8,2.8c-.1.3-.3.5-.4.8-.4.9.5,1.2,1.4,1h.1a2.033,2.033,0,0,0,1.2-.7,25.386,25.386,0,0,1,4.7-6.2c.6-.2,1.1-.5,1.2-.8,0-.1,0-.2-.1-.2v-.1a73.558,73.558,0,0,1,7-5.5,5.5,5.5,0,0,0,.9-.7c1.4-.9,2.7-1.8,4-2.7a14.63,14.63,0,0,1,1.3-.9c.6-.4,1.2-.8,1.9-1.3h0a21.411,21.411,0,0,0,1.9-1.3c2.2-1.4,4.4-2.9,6.6-4.3,2.2-1.5,4.4-2.9,6.5-4.5h0c0,.1.1.2.2.3.2.3.7.3,1.1.3a17.834,17.834,0,0,0,5.9,2.8,49.839,49.839,0,0,0,6.5,1.3h.2a4.331,4.331,0,0,1,.5-.1c.1,0,.2-.1.3-.1v.1h0a.349.349,0,0,0,.2.1A175.8,175.8,0,0,1,137.4,341c-2,2-4.6,4.6-7.5,7.1h0a2.663,2.663,0,0,0-1.2.3c-.3.2-.6.5-.6.8v.4a48.008,48.008,0,0,1-9.5,6.4c-4.2,2.1-8.6,2.9-12.5,1.1-9.9-4.4-17.9-15.8-23.8-24.4C78.2,327.4,69.4,314.6,71.7,306Zm49.8,51.3c0-.2-.2-.3-.5-.4a52.23,52.23,0,0,0,6.7-4.5c.1-.1.2-.2.3-.2v25.4c0,.2,0,.3.1.4h-6.5C122.6,371.2,121.6,363.9,121.5,357.3ZM77,404.7c-.2,0-.3-.1-.5-.1s-.3-.1-.5-.1a16.894,16.894,0,0,1-3.7-1.5h-.1a14.769,14.769,0,0,1-.1-2.1c-.2-10.2,6.1-17.8,9.3-27.4a42.185,42.185,0,0,0,1.9-13.2c0-7.4-1.3-14.9-1.1-22.3h0a113.733,113.733,0,0,0,10.6,12.4c3.5,3.6,7.8,7.6,12.6,9.2,4.4,1.4,8.9.5,13.3-1.5h0c.1,9.7,1.5,20.2-2.3,28.8a16.333,16.333,0,0,1-1.9,3.4,21.54,21.54,0,0,1-4.6,5,47.379,47.379,0,0,1-16.6,8.5,41.178,41.178,0,0,1-9.1,1.5,25.56,25.56,0,0,1-6.2-.5A1.645,1.645,0,0,1,77,404.7ZM91.7,520.9c-1.2,3.5-5.8,3.1-8,.9-1.9-2.3-2.1-5.3.1-7.5,2.1-2.1,5.4-1.3,7.1.8A6.3,6.3,0,0,1,91.7,520.9Zm29.5-.4c-1.3,3.8-6.4,3.5-8.8,1-2-2.5-2.3-5.7.1-8.1,2.3-2.3,5.9-1.5,7.8.8A6.8,6.8,0,0,1,121.2,520.5Zm27.7-5.4a6.03,6.03,0,0,1,.8,5.8c-1.2,3.5-5.8,3.1-8,.9-1.9-2.3-2.1-5.3.1-7.5C143.9,512.2,147.1,513,148.9,515.1Zm-2.3-3.6a9.908,9.908,0,0,0-3.4.4c-2.2-8.1-15.1-8.1-21.8-8.1-.8,0-2.9,1.2-1.4,1.3-.3.2-.6.5-.6.8v4.7a9.712,9.712,0,0,0-7.4,1.2v-7c0-.8-.9-1-1.8-.7-6.7,0-18,.3-20.8,7.6a9.658,9.658,0,0,0-3.8.2v-.1c-3-14,13.8-12,23.1-11.9.3,1,2.9.4,2.9-.5V436.7l4.8-.3h2.9v63.3c0,.7.9.8,1.7.6C130,500.1,148.8,497.8,146.6,511.5Zm11.7-85.2c2,10.1-22.8,9.5-36.3,9a2.45,2.45,0,0,0-1.5-.1,6.149,6.149,0,0,1-1.4-.1c.1-.2-.1-.3-.7-.3a26.415,26.415,0,0,0-2.9.2h-1c-1,.1-2,.1-3,.2a2.41,2.41,0,0,0-2.3.2c-3.2.3-6.4.6-9.7.7-7.4.4-16.4,1.1-23.2-2.2a5.947,5.947,0,0,1-3.6-5.1c-.5-5.8,6.5-8.3,11.3-7.8,4.5,2,10.1,2.8,14.6,3.1,7.5.5,14.1-1.2,21.4-2.4,6.2-1,12.6-1.3,18.7-2.4C144.7,419.3,156.9,418.9,158.3,426.3Zm-7.1-13.7c-.3.4-.5.8-.2,1v.1h-.1c-5.8,3-12,4.2-18.4,5-3.7.3-7.2.7-10.2,1.1a1.087,1.087,0,0,0-.5.1,21.662,21.662,0,0,0-2.5.4c-1.4.2-2.6.4-3.5.5a64.36,64.36,0,0,0-8.8,1.3,40.192,40.192,0,0,1-9.8.2c-3.7-.3-7.1-1.7-10.7-2.3-5.6-2.2-9.5-6.2-7.2-13,9.9.8,20.6-3.5,28.6-8.2a26.912,26.912,0,0,0,12.8-16,28.168,28.168,0,0,0,.7-3.1H158C157.7,391,153.2,401.6,151.2,412.6Zm19.9-3.6c.6-1.4-2.3-1.1-2.7-.2-.2.5-.4.9-.6,1.4a.367.367,0,0,0-.3.1c-4.3,1.7-8.9,1.5-13.4,1.5,1.9-10.2,5.9-20.1,6.8-30.5,11.3.4,23.1,3.5,29,14.1,5.1,9.1,4.4,20.6,3,30.5-3.1,22.1-12.7,42.7-16.2,64.7-.8.2-1.5.7-1.3,1,2.6,4.6,7,8.3,6.8,13.8-6.5-1.8-12.5-7.9-15.6-13.5l-.1-.1C171.4,464.4,158.8,435.3,171.1,409Zm17.6,109.3c-1.1,4.1-7.9-.3-9.8-1.4a20.929,20.929,0,0,1-8.9-9.7c-.1-.8-2.5-.3-2.8.5a.367.367,0,0,0-.1.3c.4,2.6-.7,5.7-1.6,8.3-3.7-2.3-1.9-14.8-.4-21.1,4,5.8,10.4,11.1,17.3,12,.5.1,2.2-.2,2.4-.9.1-.5.1-.9.2-1.4C187.8,508.8,190,513.8,188.7,518.3Zm21.7-3.3c2.7,5.7-4.9,4.4-8,3.6a70.5,70.5,0,0,1-10.1-3.4c0-3.1-1.7-6.7-3.7-9.8,3,1.7,6.2,2.7,9.1,1.7,2.4-.8,3-2.2,2.7-3.8C204.5,506.5,208.4,510.8,210.4,515Zm-3.6-26.9a.749.749,0,0,0-.1.5v1.3H192.5c3.1-18.2,10.2-35.5,14.7-53.4C206,453.6,205.3,470.8,206.8,488.1Zm-.4,3.3h0c-.1,4.4-.7,8.8-.9,13.2a43.614,43.614,0,0,0-7.6-6c-2.1-2.8-4.9-5.6-5.5-7.2Zm.3-66.4c-3.6,22.4-13.6,43.3-17.3,65.6-.2.2-.3.5-.1.6-.1.4-.1.8-.2,1.2s.4.6.9.6c.9,1.3,2.7,3.4,4.2,5.5-.3.3-.3.6.1.8.2.1.5.3.7.4,1.9,2.7,3.2,5.3,1.6,5.8-2.4.8-6.3-2.2-8.2-3.4a33.075,33.075,0,0,1-5.4-4.5,2.185,2.185,0,0,0-.5-.3c-1.1-1.8-2.5-3.6-3.7-5.5a.664.664,0,0,0,.4-.5c3.6-24,14.5-46.4,17-70.7,1-9.8.5-20.5-5.2-28.9-6.6-9.6-19.2-12-30.1-12.2v-.6h16.6c10.9.7,21.6,4.1,27,14.5C209.4,403,208.3,414.9,206.7,425Zm2.8-26.4a29.272,29.272,0,0,0-3.7-8.5c-3.8-6-9.9-9.3-16.5-11H210C210,385.6,209.8,392.1,209.5,398.6Zm34,104.6c7.6,3.4,14,5.7,12.6,15.2h-32a2.665,2.665,0,0,0-1.3.5c.1-9.8,1-19.6,1.1-29.5v-.2h11.5c-.1.1-.1.3-.2.4C234.1,496.5,237.4,500.5,243.5,503.2Zm-6.2-15.6H222.7c-.2-36.3-6.5-72.3-6.7-108.6h24.6C240.5,415.3,234.3,451.4,237.3,487.6Zm147.9,11.6c.2-.1.3-.2.5-.2.8-.4.9-.8.7-1.1,2-2.3,4.1-4.5,4.5-5.5,0-.1.1-.2.1-.3v-.2c-3.3-22.1-11.3-43.2-14.4-65.3-1.4-10.1-2.1-20.9,1.1-30.7,3.7-11.1,13.6-15.6,24.8-15.7a2.654,2.654,0,0,0,1.9-1.1h3a24.954,24.954,0,0,0-13.7,9.1c-6.2,8.3-6.2,20.1-5.5,30,1.8,25.1,11.7,48.6,15.3,73.4a.349.349,0,0,0,.1.2.1.1,0,0,0-.1.1c-1.3,2.2-3.1,4.2-4.5,6.2a4.88,4.88,0,0,0-.7.3c-2.9,2.8-10.7,9.4-15,7.3C381.2,504.9,382.9,502.1,385.2,499.2Zm3,16.9c-4,1.5-21.7,7.9-20.2.2.8-3.9,5.1-7.4,7.9-9.9,1.3-1.2,2.7-2.5,4.1-3.6-1.1,2.3-1.1,4.2,1.6,5,3.8,1.1,8.2-.7,12.1-3.1C391.1,507.8,388.4,512.4,388.2,516.1Zm30.9-6.8a21.835,21.835,0,0,1-.4,4.4c-.1.4-1.6,3.7-1.7,3.4-.9-2.7-2.4-6.2-2-9.1v-.2c-.2-.8-2.8-.3-2.9.6h0c-2,4.3-5.4,7.2-9.4,9.5-3,1.7-8.8,4.9-10.9.6s1-9.9,4.3-13.9a9.517,9.517,0,0,0,.1,2.9c.1.4,1,.3,1.2.2,7.7-.9,15.1-6.2,19.7-12.5A44.96,44.96,0,0,1,419.1,509.3Zm-4.3-99.1c-.1,0-.2-.1-.4-.1a11.11,11.11,0,0,0-.7-1.6c-.5-1.1-3.4-.2-2.9.8,12.4,26.4-.3,55.7,4.9,83.3a.52.52,0,0,0,.2.4h0c-3.4,5.9-10,11.8-16.9,13.2-.9-6.1,4.3-9.9,7.2-14.8.1-.1,0-.2-.2-.2a.764.764,0,0,0,.2-.5c-3.3-22.1-11.3-43.2-14.4-65.3-1.4-10.1-2.1-20.9,1.1-30.7,3.7-11.1,13.5-15.5,24.6-15.7h11.4c-.5.2-.9.5-.9,1,.1,10.6,1.5,21.2,1.6,31.8C424.6,411.9,419.6,412.2,414.8,410.2ZM178.6,377.5c-1-.1-2-.1-3-.1a1.268,1.268,0,0,0-.6.1H158v-9.9H469v9.9Zm253.9,33.7c-.2-10.5-1.5-20.9-1.6-31.4a.72.72,0,0,0-.4-.7H470a2.654,2.654,0,0,0,1.4-.5h21.1a2.748,2.748,0,0,0,1.9-1,22.839,22.839,0,0,0,4.3,9.8c2.4,3,5.8,3.9,9.4,3.7v.2c1.4,7.9,2.9,17.8-2.1,24.9-3.9,5.5-11.5,6-17.7,5.9C469.5,421.6,450.8,414.9,432.5,411.2Zm21.9,109.7c-1.2,3.5-5.8,3.1-8,.9-1.9-2.3-2.1-5.3.1-7.5,2.1-2.1,5.4-1.3,7.1.8A6.03,6.03,0,0,1,454.4,520.9Zm29.5-.4c-1.3,3.8-6.4,3.5-8.8,1-2-2.5-2.3-5.7.1-8.1,2.3-2.3,5.9-1.5,7.8.8A6.532,6.532,0,0,1,483.9,520.5Zm27.7-5.4a6.03,6.03,0,0,1,.8,5.8c-1.2,3.5-5.8,3.1-8,.9-1.9-2.3-2.1-5.3.1-7.5C506.6,512.2,509.9,513,511.6,515.1Zm-2.3-3.6a9.908,9.908,0,0,0-3.4.4c-2-7.8-13.1-7.8-19.6-7.8-.6,0-2.1.7-2,1.1a1.012,1.012,0,0,0-.4.7v5.5c-2.7-1.7-6.3-1.3-9.1.5v-7c0-.8-.9-1-1.8-.7-6.7,0-18,.3-20.8,7.6a9.659,9.659,0,0,0-3.8.2v-.1c-3.1-14.4,16-11.8,25.1-11.7h.3c.5.8,2.8.2,2.8-.7V436.7c2.6.1,5.2.3,7.8.5v61.7c-1.1.4-2.3,1.6-.6,1.6h1a2.228,2.228,0,0,0,1.4,0C495.7,499.8,511.3,498.9,509.3,511.5Zm11.1-78.2c-5.1,4.6-16.5,3.2-22.8,2.9-3.5-.2-7-.5-10.5-.8a1.729,1.729,0,0,0-1.6-.1c-2.6-.2-5.2-.4-7.8-.5a2.608,2.608,0,0,0-1.1.3c-5.2,0-10.5.2-15.7.1-7.1-.2-16.3-.1-22.2-4.5a5.576,5.576,0,0,1-1.6-7c2-4.3,9.3-3.9,13.2-3.8a137.138,137.138,0,0,1,20.2,2.2c2.4.5,4.9.9,7.4,1.3.1.1.3.2.7.1h.3a67.941,67.941,0,0,0,13.5.7c1.5,0,3.1,0,4.7-.1,6.8-.7,14-4.7,20.5-1.5C521.3,424.5,524,430,520.4,433.3Zm5.2-54.6c.5,13.4-.1,30.3-7.6,42a12.978,12.978,0,0,0-6.1-1.2,65.272,65.272,0,0,0-7.7,1.4,16.192,16.192,0,0,0,5.1-5c4.6-7.2,3.2-17.2,1.8-25.1.9-.2,1.8-.4,2.6-.6.9-.3,1.2-.9,1-1.4.7-.2,1.3-.6,1.3-1,0-3.9.2-7.8.1-11.7,3.4.2,6.8,1.4,10.3,1.7C525.8,378,525.5,378.3,525.6,378.7Zm17.8-39.2a.664.664,0,0,0-.4.5c-.1.7-.2,1.3-.3,2-.1.3-.2.7-.3,1a.44.44,0,0,0,.1.5c-.8,7.6-.3,15.3-2.6,22.6-2,6.3-6.5,11.4-13.7,10.3-3.5-.5-6.7-1.5-10.2-1.4-.1-2.3-.2-4.6-.5-6.9h18.1c.2,0,.4-.1.7-.1a2.043,2.043,0,0,0,2-.1c5.4-4,4.3-14,4-19.8a237.2,237.2,0,0,0-4.4-32.5,101.42,101.42,0,0,0-2.6-11.2h.1c7.5-.4,12.8.3,14,8.8C548.6,321.8,545.8,330.9,543.4,339.5Z" fill="#3d3d3d"/>
      <path id="Trazado_3208" data-name="Trazado 3208" d="M379.2,230.2c7.3.1,14.6.2,21.9.2.8.2,2.5-.3,2.5-1.2.5-41.6,1.2-83.2,1.7-124.8,0-.3-.3-.4-.8-.4.5-.4.6-.7-.5-.8-7.3-.1-14.6-.2-21.9-.2-.8-.2-2.5.3-2.5,1.2-.5,41.8-.8,83.5-1.3,125.3,0,.1,0,.2.1.2C378.3,230,378.4,230.2,379.2,230.2Zm2-1.4c.5-41.2.8-82.4,1.2-123.5v-.7c6.7.1,13.4.2,20.1.2l-.1.1a.758.758,0,0,0-.2.4c-.5,41.3-1.2,82.5-1.7,123.8-6.3-.1-12.8-.2-19.3-.3Z" fill="#3d3d3d"/>
      <path id="Trazado_3209" data-name="Trazado 3209" d="M113.1,243.6c1.2.6,1.8,1.9,2.7,2.8.7.7,3.4-.4,2.7-1.1a15.756,15.756,0,0,1-1.2-1.5,5.754,5.754,0,0,0-1.9-1.5,2.356,2.356,0,0,0-2,.3C112.9,242.8,112.5,243.3,113.1,243.6Z" fill="#3d3d3d"/>
      <path id="Trazado_3210" data-name="Trazado 3210" d="M96.4,172.8c-.4,1.8-1.3,3.7-1.3,5.6s1.6,3.4,2.8,4.6c1.5,1.5,3.3,3.3,5.6,3.4,1.7.1,3.4-.6,5.1-1.1.8,1.6,1.6,3.6,3.1,4.6,1.9,1.2,4.9,1,7,.9,1.6,0,3.8-.2,5.1-1.4a16.805,16.805,0,0,0,2.9-4.4,12.038,12.038,0,0,0,4.5.9c2.1-.1,3.8-1.4,5.3-2.8,1.4-1.3,3.6-3,3.9-5.1.2-1.8-.9-3.9-1.3-5.7,3.4-2,5.8-3,6-7.5.1-1.8.5-4.6-.8-6.1-1.3-1.6-3.7-2.4-5.4-3.5.5-1.7,1.4-3.6,1.4-5.3-.1-2.2-2.3-4.1-3.8-5.5-1.2-1.1-2.5-2.3-4.2-2.3a23.866,23.866,0,0,0-5.2,1c-1-1.5-1.8-3.6-3.2-4.8-1.5-1.3-4.1-1-5.9-1a12.273,12.273,0,0,0-6.3,1.2c-1.5.9-2.3,2.9-3.2,4.4-3-.7-5.6-1.3-8.4,1-1.7,1.4-4.3,3.6-4.8,5.8-.4,1.6.8,3.8,1.4,5.4-1.6,1-3.7,1.8-5,3.1-1.3,1.4-1.3,3.3-1.4,5,0,2.1-.1,4.6,1.3,6.3C92.6,171.2,94.8,172,96.4,172.8Zm-1.8-13.6c1.5-.9,2.9-1.6,4.3-2.6.4-.3.6-.6.5-.8.3-.2.4-.3.4-.5a39.561,39.561,0,0,0-1.5-4.5c-.5-1.5.2-2.6,1.2-3.8.7-.8,2.9-3.7,3.9-3.5,1.6.3,3.1.8,4.6,1.1a2.519,2.519,0,0,0,2.6-.6c.8-1.3,1.5-2.7,2.4-4,.9-1.4,4.1-.9,5.5-.9,3.6,0,4.1,2.7,5.8,5.3-.1.2.1.3.4.4a2.657,2.657,0,0,0,1.9-.3c1.2-.3,2.5-.7,3.7-.9,1.6-.3,3.3,2,4.3,3,1.1,1.2,2.6,2.6,2.5,4.4s-1.1,3.6-1.5,5.3c-.1.4.3.5.9.5,2.8,1.7,5.2,2.4,5.4,6.2.1,2,.3,4.7-.9,6.4-.8,1.1-2.7,1.9-4,2.6a2.326,2.326,0,0,0-1.1.7c-.2.2-.1.3,0,.4.6,2.8,2.3,5.4.2,7.8a31.894,31.894,0,0,1-2.6,2.6c-.3.3-1.2,1.3-1.7,1.2a26.169,26.169,0,0,1-4.8-1.3,1.952,1.952,0,0,0-.7.1,2.738,2.738,0,0,0-1.9.7c-.9,1.3-1.6,2.6-2.4,4-.9,1.6-2.5,1.2-4.2,1.2-1.6,0-3.4,0-4.6-1.3a28.632,28.632,0,0,1-2.4-4.2c0-.6-.6-1.3-1.7-1a40.971,40.971,0,0,1-5,1.4c-1.8.2-3.9-2.6-4.9-3.6-.9-1-1.6-1.9-1.4-3.2.3-1.5.8-3,1.2-4.6.5-.4.7-1,0-1.4-1.5-.9-3.2-1.6-4.6-2.6-1.6-1.1-1.4-3.8-1.4-5.5C93.2,161.9,93.1,160.1,94.6,159.2Z" fill="#3d3d3d"/>
      <path id="Trazado_3211" data-name="Trazado 3211" d="M459.2,233.7c-.5,0-1.6.4-1.6,1.1v2.9c0,.7.7.8,1.3.8.5,0,1.6-.4,1.6-1.1v-2.9C460.5,233.8,459.8,233.6,459.2,233.7Z" fill="#3d3d3d"/>
      <path id="Trazado_3212" data-name="Trazado 3212" d="M472.7,235.8a4.382,4.382,0,0,1-1.1-3.1c0-1.3-2.9-.8-2.9.3a5.034,5.034,0,0,0,1.3,3.9C470.8,237.8,473.6,236.7,472.7,235.8Z" fill="#3d3d3d"/>
      <path id="Trazado_3213" data-name="Trazado 3213" d="M465.2,246.6a2.281,2.281,0,0,0,2-.5c.5-.5.3-1-.3-1.2-1.9-.5-2.2-2.2-1.8-4,.3-1.2-2.7-.8-2.9.3a4.676,4.676,0,0,0,.1,3.3A4.37,4.37,0,0,0,465.2,246.6Z" fill="#3d3d3d"/>
      <path id="Trazado_3214" data-name="Trazado 3214" d="M125,172.3c4.5-3.7,5-9.7,2.1-14.5-3.3-5.5-10.9-5.5-16-3-6.7,3.3-8,10.9-3.4,16.5C111.9,175.7,120.1,176.2,125,172.3Zm-14.4-15.1c3.9-3.8,10.1-2.9,13.4,1.1a10.723,10.723,0,0,1,1.5,9.8c-2.2,6.4-11,6.2-15.1,2C107,166,106.7,161,110.6,157.2Z" fill="#3d3d3d"/>
      <path id="Trazado_3215" data-name="Trazado 3215" d="M114.6,259.8a2.232,2.232,0,0,0,2.1-.2c.4-.3.8-1.1.2-1.4a5.715,5.715,0,0,1-1.6-1.1,6.191,6.191,0,0,1-1.1-1.7c-.3-.6-1.5-.4-2-.2-.6.3-1,.8-.7,1.4A6.061,6.061,0,0,0,114.6,259.8Z" fill="#3d3d3d"/>
      <path id="Trazado_3216" data-name="Trazado 3216" d="M150.8,114.4a8.342,8.342,0,0,0,1.6-11c-2.6-4.2-8.5-4.2-12.5-2.2a7.9,7.9,0,0,0-2.7,12.6C140.6,117.2,147,117.5,150.8,114.4Zm-10.7-11.2a6.3,6.3,0,0,1,9.3.9,8.06,8.06,0,0,1,1.1,7.2c-1.5,4.5-7.7,4.2-10.6,1.3C137.5,109.6,137.2,105.9,140.1,103.2Z" fill="#3d3d3d"/>
      <path id="Trazado_3217" data-name="Trazado 3217" d="M191.1,155.4a2.292,2.292,0,0,0,2.1-.3,18.053,18.053,0,0,1,5.3-2.4c.4-.1,1.4-.5,1.2-1.1s-1.2-.5-1.6-.4a22.538,22.538,0,0,0-6.7,3C190.9,154.5,190.4,155.1,191.1,155.4Z" fill="#3d3d3d"/>
      <path id="Trazado_3218" data-name="Trazado 3218" d="M473.1,248.6a3.444,3.444,0,0,0,2-.4,6.072,6.072,0,0,0,2.9-2.8c.2-.5-1-.3-1.1-.2-.5.1-1.5.3-1.7.8a3.942,3.942,0,0,1-1.7,1.9C473.3,248,472.4,248.5,473.1,248.6Z" fill="#3d3d3d"/>
      <path id="Trazado_3219" data-name="Trazado 3219" d="M128.8,114.9c-.3,1.3-1,2.7-1,4,0,1.5,1.2,2.7,2.2,3.6,1.2,1.2,2.5,2.5,4.3,2.6a12.1,12.1,0,0,0,3.7-.7,9.138,9.138,0,0,0,2.2,3.2c1.5,1,3.8.8,5.4.8,1.4,0,3.2-.2,4.2-1.2a10.491,10.491,0,0,0,2-3,10.659,10.659,0,0,0,3,.6,6.907,6.907,0,0,0,4.4-2.2c1.1-1,2.8-2.3,3-3.9.2-1.3-.6-2.9-.9-4.2,2.5-1.5,4.3-2.3,4.4-5.7.1-1.4.3-3.4-.6-4.6s-2.7-1.8-4-2.6a14.013,14.013,0,0,0,1-3.9c-.1-1.7-1.7-3.1-2.8-4.2a4.981,4.981,0,0,0-3.3-1.8,15.142,15.142,0,0,0-3.7.7,16.284,16.284,0,0,0-2.3-3.5c-1.2-1-3.2-.8-4.6-.8a10.145,10.145,0,0,0-5.1,1c-1.1.6-1.7,1.9-2.3,3.1a10.039,10.039,0,0,0-2.4-.4,6.371,6.371,0,0,0-4,1.5c-1.3,1-3.2,2.7-3.6,4.4-.3,1.2.5,2.7,1,3.9a14.756,14.756,0,0,0-3.6,2.3c-1,1-1.1,2.5-1.1,3.9,0,1.6,0,3.5,1,4.8C126,113.7,127.6,114.3,128.8,114.9Zm-.8-10c1.1-.7,2.2-1.2,3.3-2,.4-.3.6-.6.5-.9a.536.536,0,0,0,.3-.4c-.3-1.2-.7-2.2-1.1-3.4-.4-1.1.1-1.9.8-2.8a15.3,15.3,0,0,1,1.8-1.8c.2-.2.4-.3.6-.5l.1-.1c1.1.2,2.2.6,3.3.8a2.7,2.7,0,0,0,2.7-.5c.6-1,1.1-2,1.8-3,.5-.8,2.8-.4,3.6-.4,2.4,0,2.9,1.9,4,3.7h0c-.1.3.1.4.3.4a2.027,2.027,0,0,0,2.2-.3l2.4-.6c1-.2,2.3,1.6,2.9,2.2.8.8,1.9,1.9,1.9,3.2a29.782,29.782,0,0,1-1.1,4c-.1.3.3.5.8.5,2,1.2,3.8,1.8,3.9,4.5.1,1.4.2,3.4-.6,4.7-.5.8-1.8,1.3-2.8,1.8-.5.2-1,.4-1.1.7a.187.187,0,0,0,0,.3c.4,2,1.7,4,.2,5.8a17.045,17.045,0,0,1-1.9,1.9,2.651,2.651,0,0,1-.6.5c-.1.1-.2.2-.3.2-1.1-.1-2.2-.7-3.3-.9a3.591,3.591,0,0,0-1.8.2,1.234,1.234,0,0,0-.8.5l-1.8,3c-.6,1-1.5.7-2.6.7s-2.4,0-3.2-.9a31.361,31.361,0,0,1-1.8-3.1c-.1-.6-.7-1.1-1.7-.9-1.2.3-2.4.8-3.6,1-1.1.1-2.7-1.9-3.4-2.6a2.836,2.836,0,0,1-1-2.2c.2-1.1.6-2.2.9-3.3.4-.4.6-.9-.1-1.3-1.1-.7-2.3-1.2-3.5-1.9-1.1-.7-.9-2.8-.9-3.9C127.2,106.7,127.1,105.4,128,104.9Z" fill="#3d3d3d"/>
      <path id="Trazado_3220" data-name="Trazado 3220" d="M199.1,161.5a9.462,9.462,0,0,0-.5-3.3c-.5-1-3.3-.1-2.9.8a7.386,7.386,0,0,1,.5,3.3C196.2,163.1,199.1,162.6,199.1,161.5Z" fill="#3d3d3d"/>
    </g>
    <rect id="Rect谩ngulo_4516" data-name="Rect谩ngulo 4516" width="600" height="600" transform="translate(1140 277)" fill="none"/>
  </g>
</svg>
