<svg xmlns="http://www.w3.org/2000/svg" width="600" height="600" viewBox="0 0 600 600">
  <g id="Ilustración_-_Creación_de_Usuario_3" data-name="Ilustración - Creación de Usuario 3" transform="translate(-1284 -2899)">
    <g id="Ilustración_-_Creación_de_Usuario_3-2" data-name="Ilustración - Creación de Usuario 3" transform="translate(43.426 4)">
      <g id="Grupo_1615" data-name="Grupo 1615" transform="translate(-756.945 2755.008)">
        <path id="Trazado_3416" data-name="Trazado 3416" d="M2201.885,400.669c-2.125-3.216-4.25-6.439-6.275-9.72-.079,4.894-3,9.836-8.03,11.26a12.588,12.588,0,0,1-4.582.3c-3.977-.28-5.773,1.778-8.483,3.786a83.908,83.908,0,0,1-11.035,6.937c-15,7.831-29.638,7.548-45.039,1.7,2.718,27.4,18.737,52.332,20.561,79.916a30.749,30.749,0,0,1-.171,7.4c-.547,3.054-2.188,5.639-3,8.617-2.682,9.909,2.053,17.658,6.515,26.188a167.416,167.416,0,0,0,9.8,16.409l6.145.646h9.255a1.767,1.767,0,0,1,1.426-.82q2.691-.164,5.388-.362c-.57-.991-1.1-2.007-1.612-3.04-.758.479-2.071.518-2.4-.336-3.683-9.449-9.346-18.591-11.018-28.713-.15-.914-.252-1.8-.322-2.664-.678-.023-2.561-.379-5.646-3.055-7.7-5.349-12.257-16.843-11.682-25.593.551-8.394,5.19-9.192,12.407-7.776,2.2.432,5.235,1,7.478.043.077-.047.156-.082.232-.131a11.5,11.5,0,0,0,1.447-1.093,4.718,4.718,0,0,0,.578-.837c1.291-2.446,1.17-5.079,1.2-7.766.033-3.635.6-7.154,3.041-9.611a4.125,4.125,0,0,1,3.74-2.693c.314,0,.606.033.91.049,6.183-1.834,12.3,1.686,15.666,7.105-.339-10.351-4.847-20.091-6.524-30.266-.232-1.4,2.672-2.139,2.9-.777,1.777,10.775,7.27,21.459,6.629,32.556a26.807,26.807,0,0,1-2.149,9.039c.6-.145,1.2-.11,1.416.228,1.864,2.957,5.233,3.7,8.452,4.416,3.314-2.433,6.671-4.8,10.1-7.072l.01-.006c.147-.113.291-.235.434-.345h0a.5.5,0,0,0,.013.052l.012-.008c0-.018-.009-.036-.013-.056-.009-.036-.02-.079-.029-.119a.663.663,0,0,1-.6-.241c-2.347-4.164-5.847-11.463.576-13.1a2.05,2.05,0,0,1,.7-.455,5.657,5.657,0,0,1,3.409.162c4.15.316,8.335,2.269,11.924,4.293l.006,0q.912-.373,1.792-.7.861-.316,1.693-.589l.07-.031a50.12,50.12,0,0,1,12.79-3.495,2.014,2.014,0,0,1,.688.028l0,0q-9.522-13.748-19-27.521C2216.355,422.142,2209.028,411.467,2201.885,400.669Z" fill="#fff"/>
        <path id="Trazado_3417" data-name="Trazado 3417" d="M2240.363,411.566c-3.119-7.632-13.926-3.444-17.16-10.711-2.829-6.355-1.506-15.165,2.175-20.938a1.683,1.683,0,0,1,.956-.529l.136-.238c-8.628.076-17.268-.027-25.858.82a1.512,1.512,0,0,1-.946-.123,6.715,6.715,0,0,1-1.584,4.07h0c.445.141.7.4.6.822-.1.4,2.255,3.933,2.857,4.894,2.41,3.851,4.916,7.641,7.435,11.419,7.359,11.039,14.862,21.982,22.385,32.91q4.659,6.771,9.348,13.522c-.777-10.95.606-22.056,2.216-33.1a28.087,28.087,0,0,0-1.464-2.564C2240.938,411.9,2240.474,411.85,2240.363,411.566Z" fill="#fff"/>
        <path id="Trazado_3418" data-name="Trazado 3418" d="M2209.226,474.928c.146-.094.293-.188.439-.287l-.013-.052C2209.506,474.7,2209.367,474.816,2209.226,474.928Z" fill="#fff"/>
        <path id="Trazado_3419" data-name="Trazado 3419" d="M2373.331,523.637a11.949,11.949,0,0,0,1.779-1.569,12.089,12.089,0,0,0-1.644,1.439C2373.418,523.554,2373.376,523.591,2373.331,523.637Z" fill="#fff"/>
        <path id="Trazado_3420" data-name="Trazado 3420" d="M2197.052,483.532c-3.244-.727-6.668-1.551-8.713-4.252-2.737,5.373-6.986,10-11.485,14.3-2.264,2.168-5.02,4.244-7.521,6.483q-2.666,2.925-5.03,6.106c-.325.441-.612.854-.9,1.265-2.013,4.341-2.021,9.245-.9,13.968a92.477,92.477,0,0,0,5.862,16.061,53.374,53.374,0,0,1-.973-5.813v0l-1.09-2.48s.293-1.934.819-4.7h0c.391-11.294,4.823-22.121,14.646-29.422,5.117-3.8,10.164-7.707,15.283-11.513Z" fill="#fff"/>
        <path id="Trazado_3421" data-name="Trazado 3421" d="M2185.418,494.646a39.279,39.279,0,0,0-4.812,4.254c2.428-1.994,5.539-4.493,9.634-7.886Q2187.83,492.833,2185.418,494.646Z" fill="#fff"/>
        <path id="Trazado_3422" data-name="Trazado 3422" d="M2430.032,534.607c-6.48.754-10.817,6.43-13.308,12.293a12.527,12.527,0,0,1,2.355-1.065c.5-.167,1.813-.147,1.683.69a21.1,21.1,0,0,0-.2,2.287,12.652,12.652,0,0,1,4.646-2.844c.371-.133,1.636-.439,1.969.088a20.4,20.4,0,0,1,6.763-7.1l.006,0c-.2-.221-.4-.428-.6-.664C2432.253,537,2431.157,535.771,2430.032,534.607Z" fill="#fff"/>
        <path id="Trazado_3423" data-name="Trazado 3423" d="M2448.848,520.08a20.487,20.487,0,0,0-5.487,1.908,8.576,8.576,0,0,1,4.807,2.68c.518.5-2.146,1.574-2.722,1.016a10.647,10.647,0,0,0-2.571-2.012c-1.717-.844-2.688.09-3.75,1.421a1.945,1.945,0,0,1-.926.446,10.517,10.517,0,0,0-1.937,8.453c1.215,4.57,5.159,6.891,9.406,8.3a1.133,1.133,0,0,1,.458.256h.015c10.038-1.282,21.934-10.061,15.373-20.3-.687.341-1.692.657-2.077.4a22.212,22.212,0,0,1-2.673-2.111,1.361,1.361,0,0,1-1.3-.271C2454.238,518.721,2450.442,519.7,2448.848,520.08Zm-8.4,11.62c-.415-.453-.59-1.051-1-1.5-.622-.678,2.119-1.71,2.709-1.064v.005c.415.453.59,1.051,1,1.495C2443.774,531.314,2441.033,532.346,2440.444,531.7Z" fill="#fff"/>
        <path id="Trazado_3424" data-name="Trazado 3424" d="M2459.279,487.816a1.668,1.668,0,0,1,.2-.021c6.1-.226,11.647-3.021,17.417-4.8-4.854-3.8-9.754-10.2-15.961-10.888l0,0a31.561,31.561,0,0,1-1.644,15.666Z" fill="#fff"/>
        <path id="Trazado_3425" data-name="Trazado 3425" d="M2457.209,456.4c.709,2.286,1.409,4.638,2.024,7.023A66.915,66.915,0,0,0,2472,447.254c3.413-5.887,7.113-13.23,5.833-20.229-7.624,8.224-15.658,15.265-26.781,18.353l0,0A26.693,26.693,0,0,1,2457.209,456.4Z" fill="#fff"/>
        <path id="Trazado_3426" data-name="Trazado 3426" d="M2379.452,515.213c.008-.02.019-.04.027-.058l-.011.018Z" fill="#fff"/>
        <path id="Trazado_3427" data-name="Trazado 3427" d="M2415.91,524.291c-4.517-2.408-9.186-4.785-13.007-8.156a29.88,29.88,0,0,1-7.623-11.079,1.051,1.051,0,0,1-.108.024c.025.07.054.135.077.207.264.8-2.614,1.637-2.9.777-.088-.263-.183-.511-.286-.746-8.224,1.7-11.959,13.186-12.972,20.611-.977,7.15,5.529,8.57,11.333,10.006,9.8,2.42,30.076,4.076,25.486-11.646Z" fill="#fff"/>
        <path id="Trazado_3428" data-name="Trazado 3428" d="M2384.266,501.413l3.016.2A14.044,14.044,0,0,0,2384.266,501.413Z" fill="#fff"/>
        <path id="Trazado_3429" data-name="Trazado 3429" d="M2250.479,481.767a13.28,13.28,0,0,1,3.99-4.446l0-.005A13.268,13.268,0,0,0,2250.479,481.767Z" fill="#fff"/>
        <path id="Trazado_3430" data-name="Trazado 3430" d="M2170.381,531.992a52.85,52.85,0,0,0,7.22,20.7,176.733,176.733,0,0,0,33.409-5.547l0-.007a176.8,176.8,0,0,1-33.406,5.546A52.85,52.85,0,0,1,2170.381,531.992Z" fill="#fff"/>
        <path id="Trazado_3431" data-name="Trazado 3431" d="M2243.1,460.948a1.4,1.4,0,0,1-.562.715c.386.012.756.028,1.093.051C2243.457,461.457,2243.281,461.2,2243.1,460.948Z" fill="#fff"/>
        <path id="Trazado_3432" data-name="Trazado 3432" d="M2201.228,482.8a.363.363,0,0,1-.028.145.359.359,0,0,0,.03-.147Z" fill="#fff"/>
        <path id="Trazado_3433" data-name="Trazado 3433" d="M2267.76,266.756c9.673,1.936,19.917,2.093,29.574,3.931a3.975,3.975,0,0,1,2.156-.579c6.477,2.1,15.529,5.038,20.072,10.893,2.474,2.455,4.455,5.176,6.947,8.092,5.3,6.2,14.862,8.647,18.293-.818,4.633-12.778-3.1-24.715-15.492-28.973-.6-.207-1.208-.39-1.813-.564a1,1,0,0,1-.563-.075.759.759,0,0,1-.157-.125C2307.177,253.269,2287.45,264.387,2267.76,266.756Z" fill="#fff"/>
        <path id="Trazado_3434" data-name="Trazado 3434" d="M2266.273,264.91c19.911-1.812,39.346-13.239,59.5-8.943.185.039.375.092.561.135.091-1.178.351-2.418.372-2.971.118-3.076.041-7.139-2.462-9.387-3.31-2.971-8.244-2.656-12.41-3.418-5.021-.919-10-2.037-15.007-3.038-4.61-.922-9.421-2.072-14.146-2.06-4.779.012-7.31,7.345-9.051,11.181-2.649,5.838-5.974,12.159-7.358,18.5Z" fill="#fff"/>
        <path id="Trazado_3435" data-name="Trazado 3435" d="M2268.274,251.6c-5.03-5.112-14.942-8.918-22.063-7.139-10.779,2.694,4.107,15.889,8.316,17.979h0a46.038,46.038,0,0,0,6.847,2.709q1.048,0,2.1-.049A67.891,67.891,0,0,1,2268.274,251.6Z" fill="#fff"/>
        <path id="Trazado_3436" data-name="Trazado 3436" d="M2167.107,555.042l1.058.112c.075-.038.15-.076.232-.112a1.25,1.25,0,0,1-.761-.2C2167.46,554.918,2167.279,554.985,2167.107,555.042Z" fill="#fff"/>
        <path id="Trazado_3437" data-name="Trazado 3437" d="M2176.139,567.36l.059.092.212.009-.246-.341A.3.3,0,0,1,2176.139,567.36Z" fill="#fff"/>
        <path id="Trazado_3438" data-name="Trazado 3438" d="M2435.813,440.461a65.732,65.732,0,0,0-10.625-.786l.005.005A103.651,103.651,0,0,1,2435.813,440.461Z" fill="#fff"/>
        <path id="Trazado_3439" data-name="Trazado 3439" d="M2175.159,560.974c3.877,5.272,7.68,10.6,11.472,15.932,8.246,11.6,16.42,23.248,24.625,34.875a.286.286,0,0,1-.144.254c-13.445,10.814-31.155,14.445-46.811,21.109h81.368c-5.983-12.468-7.818-26.1-11.1-39.443-3.95-16.078-11.292-31.312-16.218-47.139h0v-.01c-13.025,4.48-26.592,6.613-40.27,7.8-.537.68-2.211,1.053-2.623.4-.035-.057-.068-.117-.1-.174q-2.381.184-4.76.338C2172.347,556.025,2174.128,559.573,2175.159,560.974Z" fill="#fff"/>
        <path id="Trazado_3440" data-name="Trazado 3440" d="M2175.861,566.935a.446.446,0,0,1,.27.145v-.005c-.531-.734-1.062-1.471-1.594-2.2Z" fill="#fff"/>
        <path id="Trazado_3441" data-name="Trazado 3441" d="M2117.816,412.085l.066-1.826c-.09.609-.184,1.209-.266,1.809A1.208,1.208,0,0,1,2117.816,412.085Z" fill="#fff"/>
        <path id="Trazado_3442" data-name="Trazado 3442" d="M2167.29,530.553a49.949,49.949,0,0,1-.171-6.078A49.753,49.753,0,0,0,2167.29,530.553Z" fill="#fff"/>
        <path id="Trazado_3443" data-name="Trazado 3443" d="M2391.207,436.7c5.573,8.421,14.266,10.672,21.924,3.185a.957.957,0,0,1,.088-.068c-11.529-2.272-14.295-18.211-22.827-25C2385.814,421.116,2387.036,430.391,2391.207,436.7Z" fill="#fff"/>
        <path id="Trazado_3444" data-name="Trazado 3444" d="M2399.714,560.489a80.676,80.676,0,0,1-10.912-7.414v0A80.662,80.662,0,0,0,2399.714,560.489Z" fill="#fff"/>
        <path id="Trazado_3445" data-name="Trazado 3445" d="M2388.728,553.014c-.261-.211-.515-.431-.775-.645.118.107.24.213.349.3C2388.436,552.784,2388.582,552.9,2388.728,553.014Z" fill="#fff"/>
        <path id="Trazado_3446" data-name="Trazado 3446" d="M2400.335,560.847c.148.083.3.158.449.239C2400.635,561.005,2400.483,560.93,2400.335,560.847Z" fill="#fff"/>
        <path id="Trazado_3447" data-name="Trazado 3447" d="M2414.6,557.688c-1.053,2.1-2.181,4.157-3.361,6.184-.045.078-.094.156-.139.235-6.864,11.726-15.479,22.412-21.927,34.406,21.454,1.53,42.938,6.313,63.963,10.538l1.1.222a4.106,4.106,0,0,1,1.372.04c3.116.625,1,6.434.451,7.98-2.1,5.918-4.73,12.591-8.929,17.365a24.9,24.9,0,0,1-10.582,6.893c8.485.566,16.991,1.748,25.438,2.627,8.907-15.21,17.705-30.51,27.073-45.436l0-.005C2463.4,586.953,2437.321,574.629,2414.6,557.688Z" fill="#fff"/>
        <path id="Trazado_3448" data-name="Trazado 3448" d="M2336.556,488.511l15.053,20.071h0c.011-.027.02-.056.029-.084-4.823-6.859-9.732-13.648-15.087-19.994a131.41,131.41,0,0,0-10.1-10.769l0,.005A131.293,131.293,0,0,1,2336.556,488.511Z" fill="#fff"/>
        <path id="Trazado_3449" data-name="Trazado 3449" d="M2391.241,589.842h0a202.574,202.574,0,0,1-32.274-17.323,202.264,202.264,0,0,0,32.278,17.329Z" fill="#fff"/>
        <path id="Trazado_3450" data-name="Trazado 3450" d="M2282.17,498.693h0c.044.029-.271.237-.713.457l.02,0C2281.916,498.923,2282.232,498.714,2282.17,498.693Z" fill="#fff"/>
        <path id="Trazado_3451" data-name="Trazado 3451" d="M2352.537,509.82l.427.571-.4-.578h-.029c-.511.065-.977.019-1.133-.177C2351.548,509.838,2352.019,509.886,2352.537,509.82Z" fill="#fff"/>
        <path id="Trazado_3452" data-name="Trazado 3452" d="M2323.486,347.115a1.66,1.66,0,0,0-1.158.361c-4.133,3.473-6.234,9.531-8.1,14.4a142.017,142.017,0,0,0-7.049,26.149c-1.518,8.619-5.355,31.587,6.894,34.9a32.671,32.671,0,0,0-4.789,3.213c-2.863,2.34-5.807,5.232-6.707,8.914-.78,3.191.054,6.6,1.49,9.859a2.256,2.256,0,0,0-1.433.508c-8.524,9.549-13.749,20.68-25.83,25.968-6.192-2.01-14.431-3.045-20.731-1.745a.258.258,0,0,1-.038.01l-2.725-3.938q-4.539-6.573-9.086-13.141v0q4.547,6.568,9.086,13.142l2.725,3.938a.218.218,0,0,0,.037-.01c6.3-1.3,14.54-.265,20.732,1.745,12.083-5.29,17.31-16.42,25.831-25.97a2.264,2.264,0,0,1,1.434-.508c-1.436-3.258-2.27-6.668-1.49-9.859.9-3.682,3.844-6.574,6.707-8.914a32.654,32.654,0,0,1,4.789-3.213c-12.249-3.313-8.412-26.281-6.894-34.9a142.111,142.111,0,0,1,7.048-26.149c1.867-4.869,3.968-10.927,8.1-14.4a1.659,1.659,0,0,1,1.158-.361h.038l-.033-.012c-2.375-.866-4.776-1.671-7.184-2.463h0c2.407.791,4.807,1.6,7.182,2.462Z" fill="#fff"/>
        <path id="Trazado_3453" data-name="Trazado 3453" d="M2365.455,435.775c-4.975,9.109-13,16.3-21.507,22.264a.568.568,0,0,1,.3.256c4.406,8.594-4.568,19.477-13.726,19.67,8.4,8.226,15.537,17.749,22.418,27.5,3.12-6.216,9.524-13.395,15.9-8a13.346,13.346,0,0,0,3.857,2.335l3.6.781c3.282.226,6.654-.608,10.639-.574,3.284.028,5.8.8,7.355,3.236h.259c-2.624-6.914-3.961-14.572-6.659-21.36a17.93,17.93,0,0,1-10.641-2.845c-6.446-4.124-10.981-10.365-16.56-15.485-.977-.9.261-1.918,1.221-1.989,11.617-.866,35.081-12.021,38.837,6.232.3,1.443-2.6,2.2-2.9.777-3.1-15.08-21.959-7.2-33.269-5.16,7.075,6.957,13.761,15.957,23.271,16.107a2.132,2.132,0,0,1,2.063-.114,19.4,19.4,0,0,0,5.727-1.636c1.523-.686,3.119,1.018,1.316,1.828a26.981,26.981,0,0,1-6,1.928c.469,1.191.9,2.393,1.3,3.6a1.427,1.427,0,0,1,.9.043c6.3,3.495,19.219,6.041,22.091,13.626,2.554,6.75-2.669,18.758,4.409,23.374.25.163-.2.515-.806.786a72.968,72.968,0,0,1,8.772,5.444,38.227,38.227,0,0,1,5.648,5.963c-.011-.083-.032-.161-.042-.245a13.188,13.188,0,0,1,3.382-10.265,2.267,2.267,0,0,1,1.845-.505,8.168,8.168,0,0,1,.86-.552,1.009,1.009,0,0,1,.3-.409c2.645-2.391,6.486-3.509,9.916-4.148a24.872,24.872,0,0,1,4.7-.569c-4.508-6.468-3.3-14.59-.3-22.854,1.788-4.929,4.76-10.119,4.63-15.5-.039-1.564-.172-3.149-.368-4.74-2.257,6.215-.379,15.9-7.664,18-7.937,2.283-9.569-8.475-11.638-13.7-1.469-3.711-4.675-6.873-7.228-9.865-3.24-3.8-6.548-7.554-9.6-11.51-2.793-3.627-8.762-10.4-7.865-15.863-7.376,6.246-17.429,6.92-24-1.4-6.007-7.611-8.234-19.17-1.434-26.932a.514.514,0,0,1-.432-.223c-3.132-6.074-6.007-12.254-8.838-18.461l.008.005c-.476-1.044-.934-2.111-1.4-3.186-3.585,4.959-8.334,8.438-14.561,8.623a127.147,127.147,0,0,1,4.125,18.1C2368.524,424.424,2368.569,430.072,2365.455,435.775Zm62.229,56.64a1.73,1.73,0,0,1,1.949.143c.46.565-.28,1.136-.719,1.365.2-.105-.236.149-.218.137-.089.06-.175.125-.259.191a3.632,3.632,0,0,0-.321.334,1.516,1.516,0,0,0-.356.945v.005c-.051,1.173-2.984,1.675-2.923.273C2424.908,494.237,2426.414,493.079,2427.684,492.415Z" fill="#fff"/>
        <path id="Trazado_3454" data-name="Trazado 3454" d="M2393.01,487.446c.077.257.157.515.235.772-.06-.273-.112-.515-.161-.738Z" fill="#fff"/>
        <path id="Trazado_3455" data-name="Trazado 3455" d="M2256.444,381.7h0a.362.362,0,0,1,.035-.482h0A.361.361,0,0,0,2256.444,381.7Z" fill="#fff"/>
        <path id="Trazado_3456" data-name="Trazado 3456" d="M2247.07,378.033q-1.74.216-3.486.381v0l3.426.156C2247.031,378.393,2247.05,378.214,2247.07,378.033Z" fill="#fff"/>
        <path id="Trazado_3457" data-name="Trazado 3457" d="M2308.163,352.686c-4.681,6.216-7.286,13.508-8.762,21.42a123.958,123.958,0,0,1,5.065-14.931A43.632,43.632,0,0,1,2308.163,352.686Z" fill="#fff"/>
        <path id="Trazado_3458" data-name="Trazado 3458" d="M2255.827,380.268l0,.012a.8.8,0,0,0,.009.324.8.8,0,0,1-.008-.321l0-.012c2.1-14.917,5.27-31.688,15.6-43.3h0C2261.1,348.584,2257.926,365.353,2255.827,380.268Z" fill="#fff"/>
        <path id="Trazado_3459" data-name="Trazado 3459" d="M2390.156,591.587l.027-.044h0c-.009.015-.017.029-.026.043Z" fill="#fff"/>
        <path id="Trazado_3460" data-name="Trazado 3460" d="M2167.391,531.648c-.04-.365-.068-.73-.1-1.1a49.753,49.753,0,0,1-.171-6.078v-.007c-.526,2.766-.819,4.7-.819,4.7Z" fill="#5ea3a3"/>
        <path id="Trazado_3461" data-name="Trazado 3461" d="M2256.8,470.673a1.679,1.679,0,0,1,.709-.275c-.3.033-.6.067-.885.111l.044.064.091.133C2256.775,470.693,2256.786,470.685,2256.8,470.673Z" fill="#5ea3a3"/>
        <path id="Trazado_3462" data-name="Trazado 3462" d="M2209.652,474.588c-.143.11-.287.232-.434.345l.008-.005c.141-.112.28-.23.426-.339l.013.052h0a.5.5,0,0,1-.013-.052Z" fill="#5ea3a3"/>
        <path id="Trazado_3463" data-name="Trazado 3463" d="M2407.835,564.516q-3.612-1.54-7.051-3.43c-.149-.081-.3-.156-.449-.239-.209-.116-.413-.24-.621-.358a80.662,80.662,0,0,1-10.912-7.412v0l0,0-.07-.058c-.146-.115-.292-.23-.426-.341-.109-.091-.231-.2-.349-.3l-.011-.008c-13.973-11.472-24.341-26.779-34.948-41.929l-.03-.041-.427-.571c-.518.066-.989.018-1.139-.184a.27.27,0,0,1-.042-.254c.073-.256.161-.524.253-.8l-15.053-20.071a131.293,131.293,0,0,0-10.1-10.771l0-.005,0,0a.372.372,0,0,1-.087-.475,14.778,14.778,0,0,1-6.638-5.349l-.425-.238-.575.117a3.078,3.078,0,0,1-.814.3c-7.775,1.774-14.8,5.922-21.507,10.1-5.47,3.409-8.989,8.135-13.123,12.927a44.428,44.428,0,0,1-3.56,3.715,2.379,2.379,0,0,1,.367.083,3.065,3.065,0,0,1,2.08-.225v0h0c.062.021-.254.23-.7.451l.579-.133c.715-.556,35.51,36.489,38.771,39.9,9.208,9.622,18.336,19.17,29.012,27.229q4.478,3.321,9.132,6.378a202.574,202.574,0,0,0,32.274,17.323C2396.626,581.306,2402.686,573.18,2407.835,564.516Z" fill="#5ea3a3"/>
        <path id="Trazado_3464" data-name="Trazado 3464" d="M2225.655,465.119l.242.138q1.607-.756,3.243-1.424-.832.273-1.693.589Q2226.567,464.746,2225.655,465.119Z" fill="#5ea3a3"/>
        <path id="Trazado_3465" data-name="Trazado 3465" d="M2390.156,591.587h0c.009-.014.017-.028.026-.043-.241-.1-.48-.208-.72-.312.255.135.488.255.692.358h0Z" fill="#5ea3a3"/>
        <path id="Trazado_3466" data-name="Trazado 3466" d="M2255.827,380.268c2.1-14.915,5.269-31.684,15.6-43.3q-2.052.365-4.1.77c-.027.02-.047.039-.078.06-8.639,5.791-12.471,16.759-14.705,26.458a170.016,170.016,0,0,0-3.72,27.336c-1.287,20.124-7.618,40.739-4.6,60.977q4.546,6.567,9.086,13.141l2.725,3.938a.258.258,0,0,0,.038-.01c6.3-1.3,14.539-.265,20.731,1.745,12.081-5.288,17.306-16.419,25.83-25.968a2.256,2.256,0,0,1,1.433-.508c-1.436-3.258-2.27-6.668-1.49-9.859.9-3.682,3.844-6.574,6.707-8.914a32.671,32.671,0,0,1,4.789-3.213c-12.249-3.313-8.412-26.281-6.894-34.9a142.017,142.017,0,0,1,7.049-26.149c1.866-4.869,3.967-10.927,8.1-14.4a1.66,1.66,0,0,1,1.158-.361l0-.011c-2.375-.866-4.775-1.671-7.182-2.462a39.512,39.512,0,0,0-8.093,7.969c-.019.024-.034.05-.053.075a43.632,43.632,0,0,0-3.7,6.489,123.958,123.958,0,0,0-5.065,14.931l0,.008v0c-.494,2.661-.868,5.39-1.15,8.171-.05.48-1.044.764-1.854.858-6.218,3.224-13.729,4.587-20.628,4.667-6.615.078-14.862-.517-19.322-6.107v0h0a.361.361,0,0,1,.034-.483.815.815,0,0,1-.654-.941Z" fill="#5ea3a3"/>
        <path id="Trazado_3467" data-name="Trazado 3467" d="M2250.479,481.767a13.268,13.268,0,0,1,3.986-4.451c-.178-.234-.343-.457-.473-.644q-3.892-5.639-7.8-11.266-1.275-1.842-2.55-3.684l-.006-.008c-.337-.023-.707-.039-1.093-.051l-.01.009a2.048,2.048,0,0,1-.92.36c-11.063,1.376-21.3,7.669-30.4,13.747-3.386,2.261-6.7,4.615-9.981,7.016a.359.359,0,0,1-.03.147,2.462,2.462,0,0,1-1.449.943c-3.16,2.333-6.3,4.7-9.432,7.069l-.079.06c-4.095,3.393-7.206,5.892-9.634,7.886-.02.021-.043.039-.063.06-8.614,9.02-11.624,21.086-10.162,33.032a52.85,52.85,0,0,0,7.219,20.689,176.8,176.8,0,0,0,33.406-5.546c-2.738-3.892-5.175-8.468-5.649-13.254a15.9,15.9,0,0,1,.24-4.847c1.172-5.6,4.616-10.214,8.951-13.847,8.535-7.15,19.065-11.557,29.636-15.176,4.222-1.716,7.6-3.052,8.96-3.589C2249.563,492.059,2247.949,486.537,2250.479,481.767Z" fill="#5ea3a3"/>
        <path id="Trazado_3468" data-name="Trazado 3468" d="M2403.464,546.512l0-.005a2.589,2.589,0,0,0-2.045.3,6.881,6.881,0,0,1-5.955.2,2.619,2.619,0,0,0-2.045.3c-.331.188-.934.781-.282,1.022a11.887,11.887,0,0,0,10.045-.8C2403.531,547.339,2404.095,546.768,2403.464,546.512Z" fill="#3d3d3d"/>
        <path id="Trazado_3469" data-name="Trazado 3469" d="M2491.629,597.194c-26.114-11.985-52.682-24.48-75.72-41.858a.947.947,0,0,0-.139-.079c.138-.3.284-.581.418-.881.7-1.561-2.225-1.65-2.789-.4-1.336,2.959-2.836,5.821-4.436,8.621-17.444-7.749-29.736-20.968-40.736-35.629a23.209,23.209,0,0,0,8.659-4.338c-.926,3.116-1.8,6.988-.053,9.463,2.257,3.2,6.813,4.114,10.32,5.191a46.886,46.886,0,0,0,6.69,1.463c-.146,7.507,10.619,6.208,13.374,1.157.163-.3-2.467-.159-2.85.541-2.258,4.139-6.774,2.431-7.515-1.334,11.087,1.04,24.184-1.107,22.538-12.892a47.529,47.529,0,0,1,9.108,6.877c-8.516,1.942-13.838,10.141-16.164,18.229-.378,1.322,2.4.554,2.822-.061a8.044,8.044,0,0,1,2.5-2.745c-.1,1.606-.073,3.206-.323,4.806-.209,1.339,2.422.677,2.822-.061a12.1,12.1,0,0,1,4.339-4.979c.123.924.259,1.842.347,2.778.1,1.1,2.529.391,2.814-.3,1.745-4.234,3.845-7.957,7.618-10.441,5.724,5.293,12.047,4.818,19.813,1.671,9.351-3.791,14.951-13.857,8.034-22.444-.664-.825-2.724-.161-2.824.732-9.736-8.17-5.972-19.964-1.708-30.764a2.309,2.309,0,0,0,.525.037c7.171-.265,13.548-3.846,20.393-5.574.6-.149,1.826-.944.926-1.549-6.311-4.256-11.524-11.974-19.686-12.156a.578.578,0,0,0-.088-.089c-.271-1.731-.631-3.457-1.04-5.169,6.209-4.913,11.156-11.573,15.222-18.3,3.838-6.352,7.866-14.9,5.4-22.432-.233-.711-2.567.316-2.875.658-7.669,8.556-15.532,16.73-27,19.785a18.62,18.62,0,0,0-5.971-3.708c-7.894-3.042-17.369-2.388-25.648-2.394a4.786,4.786,0,0,0-1.215.348,1.094,1.094,0,0,0-.348-.13c.055-.292-.156-.53-.846-.565-12.432-.63-15.608-19.85-24.9-25.85a.965.965,0,0,0-.188-.085.125.125,0,0,0,0-.06c-6.623-12.731-10.7-27.792-20.923-38.2-4.39-4.469-10.945-8.637-16.884-6.916h-.81l-.076.3c-.16.059-.32.128-.479.2a49.958,49.958,0,0,0-10.246-13.661c-11.422-10.519-29.557-11.407-42.9-18.607a1.358,1.358,0,0,0-.778-.1.91.91,0,0,0,.089-.533,27.389,27.389,0,0,1,2.933-17.453.958.958,0,0,0,.056-.128c5.468-.077,11.469-3.33,11.138-9.552a5.693,5.693,0,0,0-1.658-3.827.978.978,0,0,0,.193-.1c5.058-3.807,11.472-9.325,11.3-15.882a33.639,33.639,0,0,0,5.611,6.416,13.426,13.426,0,0,0,12.6,1.889c8.462-2.884,9.847-14.9,8.014-22.261-2.137-8.579-10.91-14.378-19.176-16.994-.344-1.787.381-5.886.366-6.8-.069-4.134-1.777-7.546-5.658-9.2-4.249-1.815-10.02-1.689-14.565-2.6-6.2-1.245-12.371-2.675-18.628-3.634-3.285-.5-6.935-1.043-10.218-.233-3.775.932-5.43,4.181-7.251,7.413-1.266,2.248-2.568,4.667-3.808,7.18-4.785-4.091-11.244-6.167-17.42-6.78-4.463-.444-10.973.18-12.432,5.28-2.049,7.175,8.589,14.541,13.688,17.075a49.472,49.472,0,0,0,9.9,3.555c-1.234,13.453-11.788,28.106-6.514,41.353,2.068,5.185,8.915,7.576,13.568,9.56a36.945,36.945,0,0,1,8.248,4.328c3.727,2.869-.458,10.625-1.69,13.969-.351.961,2.547.594,2.9-.367.245-.666.514-1.343.785-2.023a8.244,8.244,0,0,1,.331,4.436c-.041.23.139.359.423.413a9.291,9.291,0,0,0,.063,2.247c.14.953,3.053.284,2.9-.777-.938-6.511,6.006-8.06,10.762-10.986a33.96,33.96,0,0,0,.341,5.264c.07.49.507.7,1.022.7-.125.237-.073.48.289.674,5.776,3.116,11.971,5.185,18.177,7.225a1.41,1.41,0,0,0-.346.154c-12.944,9.112-17.389,22.743-19.037,37.818-9.423,5.17-28.8,7.916-36.3-1.484a.711.711,0,0,0-.508-.209,1.056,1.056,0,0,0,.126-.354c2.148-15.232,5.35-32.415,16.6-43.764.264-.04.528-.085.792-.124,1.559-.228,2.254-2.328.28-2.039-15.933,2.334-31.258,7.219-47.308,8.973-13.207,1.441-27.263,2.925-38.962,9.734-1.7.99-.139,2.443,1.26,1.625,11.684-6.8,25.708-8.043,38.884-9.481,10.913-1.192,21.482-3.934,32.152-6.247-10.016,8.737-13.557,23.833-15.216,37.712-15.341,1.923-30.876.393-46.25,1.911a2.013,2.013,0,0,0-1.356.716,8.9,8.9,0,0,0-2.712-5.688,9,9,0,0,0,.545-6.711c-.716-2.035-2.472-2.489-4.288-2.235,2.138-2.831,2.418-7.03-1.643-8.653a10.317,10.317,0,0,0-5.9-.223l-.009-.014a14.066,14.066,0,0,0-4.975-3.545c-.479-.72-.919-1.375-1.18-1.859-2.84-5.266-5.709-10.517-8.56-15.779-5.9-10.891-11.95-21.771-17.224-32.991-.822-1.739-6.45.169-5.8,1.553,5.274,11.22,11.324,22.091,17.225,32.991q4.1,7.542,8.188,15.092c.226.418.57.947.971,1.547-4.428,2.583-6.863,7.472-10.428,11.018-.6-.045-1.474-.105-2.553-.166.7-.311,1.2-.717.67-.875-11.719-3.443-24.552,6-32.084,14.018-12.166,12.953-15.177,31.484-16.292,48.489a56.775,56.775,0,0,0,4.464,26.8c2.259,5.254.068,8.866-2.822,13.477-4.548,7.255-10.289,15.512-7.474,23.312a7.5,7.5,0,0,0,2.609,6.187.3.3,0,0,0-.02.042c-.139.311.222.451.731.451a4.2,4.2,0,0,0,.711.347s.1-.165.295-.488a1.765,1.765,0,0,0,1.149-.714c.065-.147.133-.292.2-.438.574-.261.977-.619.712-.882-.072-.069-.131-.14-.2-.208,4.146-8.459,10.3-15.2,3.192-24.316-.213-.274-.761-.3-1.313-.174.548-.868,1.1-1.728,1.639-2.568,1.96-3.051,4.173-6.274,4.732-9.93.279-1.828-.5-3.255-1.249-4.873a53.03,53.03,0,0,1-3.918-12.592,62.3,62.3,0,0,1-.5-15.965c2.128,11.477,6.354,22.777,9.814,33.74,4.339,13.739,10.174,28.772,9.862,43.4-.142,6.637-4.264,12.092-4.269,18.837,0,4.644,2.216,9.1,4.248,13.149,2.593,5.163,5.116,10.451,8.036,15.434a99.875,99.875,0,0,0,12.092,16.792,12.306,12.306,0,0,0,4.611,3.072c-18.474-.391-36.967-.093-55.438-.543-.945-.022-3.135,1.373-1.187,1.422,23.343.567,46.721-.1,70.051,1.018,1.733.211,2.942.326,2.942.326l-.623-.969c.065-.04.125-.08.181-.121l.283.393c6.335,8.793,12.575,17.65,18.837,26.507q4.295,6.092,8.588,12.191c.669.951,4.315,4.836,2.948,5.936a54.2,54.2,0,0,1-10.11,6.068c-12.05,5.942-25.2,9.264-37.413,14.85-1.6.73.6.61,1.455.359.016.433.383.813,1.229.813h83a1.668,1.668,0,0,0,.911-.26c.727.844,3.2-.141,2.558-1.391-6.787-13.188-8.574-28.035-12.068-42.269-3.805-15.495-11.063-30.235-15.813-45.495a.8.8,0,0,0-.2-.321c.657-.656-.711-1.369-1.843-.956-1.747.638-3.507,1.22-5.277,1.768-3.715-5.2-6.415-10.977-5.415-17.5.933-6.06,5.689-10.81,10.343-14.351,9.914-7.548,22.457-11.6,34.183-15.348,1.733-.553,1.276-2.372-.485-1.809-2.771.885-5.577,1.792-8.377,2.752-10.571,3.619-21.1,8.026-29.636,15.176-4.335,3.633-7.779,8.247-8.951,13.847a15.845,15.845,0,0,0-.241,4.839c.474,4.786,2.911,9.362,5.649,13.254l0,.007a176.733,176.733,0,0,1-33.409,5.547,52.85,52.85,0,0,1-7.22-20.7c-1.462-11.946,1.548-24.012,10.162-33.032.02-.021.043-.039.063-.06a39.279,39.279,0,0,1,4.812-4.254q2.412-1.812,4.822-3.632l.079-.06c3.133-2.369,6.272-4.736,9.432-7.069a2.462,2.462,0,0,0,1.449-.943.363.363,0,0,0,.028-.145l0,0c3.283-2.4,6.595-4.755,9.981-7.016,9.1-6.078,19.338-12.371,30.4-13.747a2.048,2.048,0,0,0,.92-.36l.01-.009a1.4,1.4,0,0,0,.562-.715c.177.254.353.509.531.766l.006.008q1.273,1.842,2.55,3.684,3.911,5.627,7.8,11.266c.13.187.3.41.473.644l0,.005a13.28,13.28,0,0,0-3.99,4.446c-2.53,4.77-.916,10.292,2.665,14.655l.007.009c3.432,4.181,8.667,7.3,13.8,7.654a14.652,14.652,0,0,0,8.291-1.945,28.2,28.2,0,0,0,1.889,2.887c2.184,3.5,4.48,6.938,6.771,10.373,7.593,11.383,15.357,22.653,23.122,33.919q6.205,9,12.43,17.976c-22.077,14.923,1.744,58.036,15.686,71.973a20.73,20.73,0,0,0,1.543,1.436,14.381,14.381,0,0,1-2.084.793c-1.714.5-1.361,1.867.367,1.367a19.633,19.633,0,0,0,3.119-1.2,6.58,6.58,0,0,0,1.023.464,4.292,4.292,0,0,0,4.444-1.882c.05-.377.08-.746.1-1.113a1.714,1.714,0,0,0-.942-.793,12.331,12.331,0,0,0,.933-1.119,10.1,10.1,0,0,0,1.927-4.686,9.944,9.944,0,0,0-.027-2.756,61.207,61.207,0,0,0,9.079,4.076A2.3,2.3,0,0,0,2356,633.7c.106.62.215,1.242.334,1.865.252,1.312,3.157.569,2.9-.777-.3-1.6-.557-3.183-.866-4.739a37.159,37.159,0,0,0,4.3,3.95,1.937,1.937,0,0,0,2.584-.9l.2.281a31.332,31.332,0,0,1,2.448,3.576h.007a.411.411,0,0,0,.175.285l.008.006c1.071.791,6.053.028,5.607-1.838a.945.945,0,0,0,.527-.473,76.358,76.358,0,0,0,2.128-10.273c.254,2.641.511,5.284.99,7.9.1.535,1.878.244,2.6-.283-.208.687-.4,1.4-.586,2.13-.19.757,2.669.317,2.87-.471.672-2.666,1.35-5.361,3.015-7.433-.043,4.446,1.314,9,6.825,6.477a13.907,13.907,0,0,0,3.829-2.658c1.632-.362,3.195-1.661,2.632-3.2a23.046,23.046,0,0,0,1.979-3.729c.448,4.5,1.912,8.917,6.012,11.369,1.149.687,5.792.769,5.308,2.053-.949,2.525,1.234,5.285,1.517,7.74.078.668,3,.074,2.9-.777-.383-3.315-2.327-5.362-1.015-8.848.159-.422-.61-.42-.822-.406-8.675.533-11.019-7.652-11.163-14.746,0-.3-.755-.33-1.49-.166a22.108,22.108,0,0,0,.477-2.681c.094-.86-2.788-.28-2.87.471a21.778,21.778,0,0,1-2.109,7.2,190.887,190.887,0,0,0-29.113-42.1c-1.169-1.263-2.407-2.541-3.7-3.808a227.762,227.762,0,0,0,24.985,12.517l.042.018c.24.1.479.21.72.312h0l-.027.044v0h0q-2.04,3.308-3.874,6.739c-1.138.005-2.959,1.58-1.039,1.69l.142.01c-.668,1.454,2.2,1.543,2.811.343.025-.047.053-.1.077-.147,19.27,1.415,38.543,5.635,57.449,9.325q3.4.664,6.8,1.35c1.792.364,1.8-.737,1.769,1.889-.073,5.826-3.941,12.2-6.683,17.176-3.567,6.476-8.94,9.709-16.012,11.455-.961.238-1.935,1.537-.354,1.6,10.329.409,20.716,1.972,31,3a2.232,2.232,0,0,0,1.911-.8c9.114-15.565,18.1-31.241,27.7-46.517a1.161,1.161,0,0,0,.392-.674.371.371,0,0,0-.068-.363A1.073,1.073,0,0,0,2491.629,597.194ZM2326.934,258.663a1,1,0,0,0,.563.075c.6.174,1.212.357,1.813.564,12.392,4.258,20.125,16.2,15.492,28.973-3.431,9.465-12.993,7.018-18.293.818-2.492-2.916-4.473-5.637-6.947-8.092-4.543-5.855-13.595-8.793-20.072-10.893a3.975,3.975,0,0,0-2.156.579c-9.657-1.838-19.9-2-29.574-3.931,19.69-2.369,39.417-13.487,59.017-8.218A.759.759,0,0,0,2326.934,258.663Zm-53.3-12.254c1.741-3.836,4.272-11.169,9.051-11.181,4.725-.012,9.536,1.138,14.146,2.06,5.007,1,9.986,2.119,15.007,3.038,4.166.762,9.1.447,12.41,3.418,2.5,2.248,2.58,6.311,2.462,9.387-.021.553-.281,1.793-.372,2.971-.186-.043-.376-.1-.561-.135-20.154-4.3-39.589,7.131-59.5,8.943h0C2267.656,258.568,2270.981,252.247,2273.63,246.409Zm-12.255,18.739a46.038,46.038,0,0,1-6.847-2.709h0c-4.209-2.09-19.1-15.285-8.316-17.979,7.121-1.779,17.033,2.027,22.063,7.139a67.891,67.891,0,0,0-4.8,13.5Q2262.423,265.148,2261.375,265.148Zm33.752,62.816v0c-2.974,3.1-8.284,4.4-11.407,7.238a6.424,6.424,0,0,0-1.563-3.053.713.713,0,0,0-.475-.179c1.453-4.1,2.065-8.1-2.182-10.957-5.547-3.729-12.457-4.768-17.585-9.25-6.092-5.33-3.159-15.673-1.3-22.266,1.933-6.854,4.681-13.594,5.442-20.7,5.429,1.144,11.017,1.738,16.391,2.37,4.465.525,8.916,1.046,13.258,1.873-10.613,9.245-3.306,24.455,3.77,33.769.8,1.05,3.5-.058,2.673-1.244,1.612-.919,3.707-1.815,5.447-.861a4.229,4.229,0,0,1,1.869,3.74c.049,4.509-4.058,6.932-8.151,6.709a2.141,2.141,0,0,0-1.875,1.178,1.658,1.658,0,0,0-1.021.68A27.046,27.046,0,0,0,2295.127,327.964ZM2166.9,363.549c.452-.479.9-.966,1.323-1.466.08-.07.146-.151.229-.218.2-.17.29-.306.3-.417,1.188-1.442,2.324-2.931,3.528-4.36a17.168,17.168,0,0,1,3.05-2.906,9.486,9.486,0,0,1,1.586,3.574c-.352.045-.708.081-1.052.094-1.072.041-3.075,1.726-1.125,1.652,3.833-.146,7.531-1.536,11.292-2.168,2.352-.394,4.219-.274,5.407,2.057,1.281,2.514-.267,5.184-2.535,6.352-1.486.767.2,1.218,1.315,1.018a2.456,2.456,0,0,0,.955-.26c2.516-1.531,3.654.637,3.8,3.018a8.656,8.656,0,0,1-.749,3.953c-.313.216-.475.461-.333.675a9.983,9.983,0,0,1-1.923,2.562c-.515.491.441.692.74.684a2.909,2.909,0,0,0,1.926-.746,10.386,10.386,0,0,0,.716-.765c1.68,2.528,2.243,5.974.028,8.149-1.19.3-2.285.871-2.456,1.58v.027l-.02.01c-6,1.482-12.575,3.522-17.984,1.932-.864-.346-1.746-.725-2.616-1.131a12.8,12.8,0,0,1-4.518-4.7C2164.961,376.949,2163.366,368.505,2166.9,363.549Zm-49.086,48.536a1.208,1.208,0,0,0-.2-.017c.082-.6.176-1.2.266-1.809Zm50.349,143.069-1.058-.112c.172-.057.353-.124.529-.2a1.25,1.25,0,0,0,.761.2C2168.315,555.078,2168.24,555.116,2168.165,555.154Zm7.966,11.926a.446.446,0,0,0-.27-.145l-1.324-2.06c.532.729,1.063,1.466,1.594,2.2Zm.067.372-.059-.092a.3.3,0,0,0,.025-.24l.246.341Zm-.739-12.7c.412.653,2.086.28,2.623-.4,13.678-1.187,27.245-3.32,40.27-7.8v.01h0c4.926,15.827,12.268,31.061,16.218,47.139,3.281,13.343,5.116,26.975,11.1,39.443H2164.3c15.656-6.664,33.366-10.295,46.811-21.109a.286.286,0,0,0,.144-.254c-8.205-11.627-16.379-23.275-24.625-34.875-3.792-5.332-7.6-10.66-11.472-15.932-1.031-1.4-2.812-4.949-4.559-6.059q2.38-.154,4.76-.338C2175.391,554.634,2175.424,554.694,2175.459,554.751Zm6.307-59.7c-9.823,7.3-14.255,18.128-14.646,29.422h0v.007a49.949,49.949,0,0,0,.171,6.078c.033.365.061.73.1,1.1v0a53.374,53.374,0,0,0,.973,5.813A92.477,92.477,0,0,1,2162.5,521.4c-1.12-4.723-1.112-9.627.9-13.968.287-.411.574-.824.9-1.265q2.361-3.177,5.03-6.106c2.5-2.239,5.257-4.315,7.521-6.483,4.5-4.3,8.748-8.927,11.485-14.3,2.045,2.7,5.469,3.525,8.713,4.252h0C2191.93,487.339,2186.883,491.247,2181.766,495.046Zm60.922-34.711a2.014,2.014,0,0,0-.688-.028,50.12,50.12,0,0,0-12.79,3.495l-.07.031q-1.635.669-3.243,1.424l-.242-.138-.006,0c-3.589-2.024-7.774-3.977-11.924-4.293a5.657,5.657,0,0,0-3.409-.162,2.05,2.05,0,0,0-.7.455c-6.423,1.637-2.923,8.936-.576,13.1a.663.663,0,0,0,.6.241c.009.04.02.083.029.119,0,.02.009.038.013.056l-.012.008h0c-.146.1-.293.193-.439.287l-.008.005-.01.006c-3.429,2.272-6.786,4.639-10.1,7.072-3.219-.716-6.588-1.459-8.452-4.416-.217-.338-.816-.373-1.416-.228a26.807,26.807,0,0,0,2.149-9.039c.641-11.1-4.852-21.781-6.629-32.556-.228-1.362-3.132-.623-2.9.777,1.677,10.175,6.185,19.915,6.524,30.266-3.366-5.419-9.483-8.939-15.666-7.105-.3-.016-.6-.049-.91-.049a4.125,4.125,0,0,0-3.74,2.693c-2.442,2.457-3.008,5.976-3.041,9.611-.03,2.687.091,5.32-1.2,7.766a4.718,4.718,0,0,1-.578.837,11.5,11.5,0,0,1-1.447,1.093c-.076.049-.155.084-.232.131-2.243.957-5.278.389-7.478-.043-7.217-1.416-11.856-.618-12.407,7.776-.575,8.75,3.982,20.244,11.682,25.593,3.085,2.676,4.968,3.032,5.646,3.055.07.864.172,1.75.322,2.664,1.672,10.122,7.335,19.264,11.018,28.713.328.854,1.641.815,2.4.336.512,1.033,1.042,2.049,1.612,3.04q-2.7.2-5.388.362a1.767,1.767,0,0,0-1.426.82h-9.255l-6.145-.646a167.416,167.416,0,0,1-9.8-16.409c-4.462-8.53-9.2-16.279-6.515-26.188.807-2.978,2.448-5.563,3-8.617a30.749,30.749,0,0,0,.171-7.4c-1.824-27.584-17.843-52.516-20.561-79.916,15.4,5.848,30.039,6.131,45.039-1.7a83.908,83.908,0,0,0,11.035-6.937c2.71-2.008,4.506-4.066,8.483-3.786a12.588,12.588,0,0,0,4.582-.3c5.03-1.424,7.951-6.366,8.03-11.26,2.025,3.281,4.15,6.5,6.275,9.72,7.143,10.8,14.47,21.473,21.8,32.142q9.483,13.773,19,27.521Zm-1.978-12.85q-4.689-6.751-9.348-13.522c-7.523-10.928-15.026-21.871-22.385-32.91-2.519-3.778-5.025-7.568-7.435-11.419-.6-.961-2.958-4.494-2.857-4.894.1-.422-.156-.681-.6-.822h0a6.715,6.715,0,0,0,1.584-4.07,1.512,1.512,0,0,0,.946.123c8.59-.847,17.23-.744,25.858-.82l-.136.238a1.683,1.683,0,0,0-.956.529c-3.681,5.773-5,14.583-2.175,20.938,3.234,7.267,14.041,3.079,17.16,10.711.111.284.575.335,1.1.255a28.087,28.087,0,0,1,1.464,2.564C2241.316,425.429,2239.933,436.535,2240.71,447.485Zm132.621,76.152c.045-.046.087-.083.135-.13a12.089,12.089,0,0,1,1.644-1.439A11.949,11.949,0,0,1,2373.331,523.637Zm17.093,12.3c-5.8-1.436-12.31-2.856-11.333-10.006,1.013-7.425,4.748-18.911,12.972-20.611.1.235.2.483.286.746.286.86,3.164.023,2.9-.777-.023-.072-.052-.137-.077-.207a1.051,1.051,0,0,0,.108-.024,29.88,29.88,0,0,0,7.623,11.079c3.821,3.371,8.49,5.748,13.007,8.156v0C2420.5,540.011,2400.22,538.355,2390.424,535.935Zm-10.972-20.722.016-.04.011-.018C2379.471,515.173,2379.46,515.193,2379.452,515.213Zm4.814-13.8a14.044,14.044,0,0,1,3.016.2Zm49.674,37.545a20.4,20.4,0,0,0-6.763,7.1c-.333-.527-1.6-.221-1.969-.088a12.652,12.652,0,0,0-4.646,2.844,21.1,21.1,0,0,1,.2-2.287c.13-.837-1.183-.857-1.683-.69a12.527,12.527,0,0,0-2.355,1.065c2.491-5.863,6.828-11.539,13.308-12.293,1.125,1.164,2.221,2.389,3.313,3.689.2.236.4.443.6.664Zm21.527-18.692a1.361,1.361,0,0,0,1.3.271,22.212,22.212,0,0,0,2.673,2.111c.385.257,1.39-.059,2.077-.4,6.561,10.239-5.335,19.018-15.373,20.3h-.015a1.133,1.133,0,0,0-.458-.256c-4.247-1.409-8.191-3.73-9.406-8.3a10.517,10.517,0,0,1,1.937-8.453,1.945,1.945,0,0,0,.926-.446c1.062-1.331,2.033-2.265,3.75-1.421a10.647,10.647,0,0,1,2.571,2.012c.576.558,3.24-.516,2.722-1.016a8.576,8.576,0,0,0-4.807-2.68,20.487,20.487,0,0,1,5.487-1.908C2450.442,519.7,2454.238,518.721,2455.467,520.266Zm5.472-48.157,0,0c6.207.692,11.107,7.09,15.961,10.888-5.77,1.779-11.317,4.574-17.417,4.8a1.668,1.668,0,0,0-.2.021l.016-.041A31.561,31.561,0,0,0,2460.939,472.109Zm16.894-45.084c1.28,7-2.42,14.342-5.833,20.229a66.915,66.915,0,0,1-12.767,16.168c-.615-2.385-1.315-4.737-2.024-7.023a26.693,26.693,0,0,0-6.152-11.019l0,0C2462.175,442.29,2470.209,435.249,2477.833,427.025Zm-42.02,13.436a103.651,103.651,0,0,0-10.62-.781l-.005-.005A65.732,65.732,0,0,1,2435.813,440.461Zm-22.594-.648a.957.957,0,0,0-.088.068c-7.658,7.487-16.351,5.236-21.924-3.185-4.171-6.305-5.393-15.58-.815-21.88C2398.924,421.6,2401.69,437.541,2413.219,439.813ZM2378.1,391.44c.465,1.075.923,2.142,1.4,3.186l-.008-.005c2.831,6.207,5.706,12.387,8.838,18.461a.514.514,0,0,0,.432.223c-6.8,7.762-4.573,19.321,1.434,26.932,6.571,8.32,16.624,7.646,24,1.4-.9,5.463,5.072,12.236,7.865,15.863,3.053,3.956,6.361,7.71,9.6,11.51,2.553,2.992,5.759,6.154,7.228,9.865,2.069,5.225,3.7,15.983,11.638,13.7,7.285-2.1,5.407-11.785,7.664-18,.2,1.591.329,3.176.368,4.74.13,5.381-2.842,10.571-4.63,15.5-3,8.264-4.209,16.386.3,22.854a24.872,24.872,0,0,0-4.7.569c-3.43.639-7.271,1.757-9.916,4.148a1.009,1.009,0,0,0-.3.409,8.168,8.168,0,0,0-.86.552,2.267,2.267,0,0,0-1.845.505,13.188,13.188,0,0,0-3.382,10.265c.01.084.031.162.042.245a38.227,38.227,0,0,0-5.648-5.963,72.968,72.968,0,0,0-8.772-5.444c.607-.271,1.056-.623.806-.786-7.078-4.616-1.855-16.624-4.409-23.374-2.872-7.585-15.79-10.131-22.091-13.626a1.427,1.427,0,0,0-.9-.043c-.4-1.207-.831-2.409-1.3-3.6a26.981,26.981,0,0,0,6-1.928c1.8-.81.207-2.514-1.316-1.828a19.4,19.4,0,0,1-5.727,1.636,2.132,2.132,0,0,0-2.063.114c-9.51-.15-16.2-9.15-23.271-16.107,11.31-2.04,30.169-9.92,33.269,5.16.295,1.423,3.2.666,2.9-.777-3.756-18.253-27.22-7.1-38.837-6.232-.96.071-2.2,1.089-1.221,1.989,5.579,5.12,10.114,11.361,16.56,15.485a17.93,17.93,0,0,0,10.641,2.845c2.7,6.788,4.035,14.446,6.659,21.36h-.259c-1.554-2.436-4.071-3.208-7.355-3.236-3.985-.034-7.357.8-10.639.574l-3.6-.781a13.346,13.346,0,0,1-3.857-2.335c-6.377-5.395-12.781,1.784-15.9,8-6.881-9.751-14.017-19.274-22.418-27.5,9.158-.193,18.132-11.076,13.726-19.67a.568.568,0,0,0-.3-.256c8.507-5.964,16.532-13.155,21.507-22.264,3.114-5.7,3.069-11.351,2.213-17.612a127.147,127.147,0,0,0-4.125-18.1C2369.77,399.878,2374.519,396.4,2378.1,391.44Zm15.141,96.778c-.078-.257-.158-.515-.235-.772l.074.034C2393.133,487.7,2393.185,487.945,2393.245,488.218Zm-56.786-26c.514.7,3.13-.17,2.746-1,.009-.006.021-.01.03-.016.8-.511,1.591-1.037,2.384-1.568,4.27,9.726-8.192,21.885-17,13.751-5.495-5.07-8.245-13.654-12.275-19.9l-.01-.005c-3.682-5.71-10.056-15.217-5.538-21.993,1.4-2.1,5.809-6.59,9.521-8.252a1.944,1.944,0,0,0,.6-.246c2.259-.838,4.164-.458,4.815,2.4-.863.071-1.945.55-1.872,1.171C2321.378,439.267,2328.979,452.066,2336.459,462.216Zm-12.185-113.34c.657-.554.586-1.077.2-1.408a70.5,70.5,0,0,1,11.689,5.47c5.961,3.58,10.325,9.549,13.644,16.158-.275.216-.547.446-.815.7-.35.334.45.354,1.267.217a114.182,114.182,0,0,1,6.536,17.846c2.157,7.449,4.494,14.838,6.293,22.384,1.711,7.146,3.442,14.882,1.1,22.046-3.852,11.784-16.022,20.858-26.087,27.391-6.889-9.585-13.63-21.429-15.243-33.169a2.144,2.144,0,0,0,.5-.179c.685-.161,1.338-.511,1.386-.934,5.39-3.57,11.974-6.9,12.35-14.027.282-5.312-3-11.176-4.817-16.012-2.207-5.87-3.862-11.77-4.027-18.07-.019-.655-2.922-.157-2.9.777.281,10.9,5.6,20.119,8.38,30.414,2.1,7.755-3.677,11.716-9.3,15.4-1.057-3.233-3.867-3.449-6.867-2.488a1.211,1.211,0,0,0-.771-.306c-12.674-1.365-7.834-26.652-6.492-34.265a140.64,140.64,0,0,1,6.4-23.731C2318.38,358.493,2320.383,352.149,2324.274,348.876Zm-68.446,31.395,0,.012a.811.811,0,0,0,.653.938h0a.362.362,0,0,0-.035.482v0c4.46,5.59,12.707,6.185,19.322,6.107,6.9-.08,14.41-1.443,20.628-4.667.81-.094,1.8-.378,1.854-.858.282-2.781.656-5.51,1.15-8.171v0l0-.008c1.476-7.912,4.081-15.2,8.762-21.42.019-.025.034-.051.053-.075a39.512,39.512,0,0,1,8.093-7.969h0c2.408.792,4.809,1.6,7.184,2.463l.033.012h-.038a1.659,1.659,0,0,0-1.158.361c-4.133,3.473-6.234,9.531-8.1,14.4a142.111,142.111,0,0,0-7.048,26.149c-1.518,8.619-5.355,31.587,6.894,34.9a32.654,32.654,0,0,0-4.789,3.213c-2.863,2.34-5.808,5.232-6.707,8.914-.78,3.191.054,6.6,1.49,9.859a2.264,2.264,0,0,0-1.434.508c-8.521,9.55-13.748,20.68-25.831,25.97-6.192-2.01-14.431-3.045-20.732-1.745a.218.218,0,0,1-.037.01l-2.725-3.938q-4.539-6.574-9.086-13.142v0c-3.017-20.238,3.314-40.853,4.6-60.977a170.016,170.016,0,0,1,3.72-27.336c2.234-9.7,6.066-20.667,14.705-26.458.031-.021.051-.04.078-.06q2.045-.405,4.1-.77h0C2261.1,348.583,2257.927,365.354,2255.828,380.271Zm-12.244-1.857q1.746-.168,3.486-.381c-.02.181-.039.36-.06.541l-3.426-.156Zm45.745,134.847c-2.036-3.044-4.058-6.1-6.015-9.2,3.088,3.258,6.222,6.47,9.353,9.684,8.067,8.285,16.18,16.525,24.2,24.857,8.789,9.133,17.405,18.238,27.313,26.211a27.167,27.167,0,0,0-18.042-.692c-.555.177-1.088.367-1.609.567l0,0C2312.667,547.634,2300.862,530.54,2289.329,513.261Zm65.794,108.282c-.765-1.019-3.511.053-2.656,1.262,1.987,2.81,2.685,5.963,3.255,9.21-4.212-1.638-8.179-3.2-11.578-6.4-.535-.508-3.185.07-2.8.923a.026.026,0,0,1,.007.022,11.169,11.169,0,0,1,1.283,6.559,9.013,9.013,0,0,1-1.721,4.248c-2.8-2.02-5.413-6.433-7.125-8.855a115.5,115.5,0,0,1-11.392-20.338c-4.653-10.636-10.386-28.322-.286-37.064q18.211,26.188,36.452,52.352,2.979,4.271,5.948,8.55C2360.82,629.042,2357.958,625.313,2355.123,621.543Zm10.919-32.945a194.322,194.322,0,0,1,27.108,40.847,1.6,1.6,0,0,0,.457.534c-.088.1-.169.2-.258.3-5.071,5.415-5.444-2.824-5.1-6.5.061-.638-2.1.02-2.3.133a12.631,12.631,0,0,0-5.745,7.575c-.92-5.208-1-10.508-1.953-15.708-.135-.733-2.7.047-2.881.629-1.655,5.347-2.012,10.959-3.3,16.381-.376-.46-.738-.891-.989-1.254q-3.546-5.107-7.1-10.207-11.759-16.851-23.5-33.717-6.771-9.719-13.538-19.443C2341.51,562.273,2357.577,578.98,2366.042,588.6Zm-7.074-16.08q-4.647-3.065-9.132-6.378c-10.676-8.059-19.8-17.607-29.012-27.229-3.261-3.411-38.056-40.456-38.771-39.9l-.579.133-.02,0c.442-.22.757-.428.713-.457v0a3.065,3.065,0,0,0-2.08.225,2.379,2.379,0,0,0-.367-.083h0a44.847,44.847,0,0,0,3.564-3.719c4.133-4.792,7.652-9.518,13.121-12.927,6.707-4.178,13.734-8.326,21.507-10.1a3.048,3.048,0,0,0,.814-.3c.705-.391.291-.829-1.034-.529-9.052,2.067-17.133,6.932-24.933,11.793-6.418,4-9.967,10.975-15.368,15.97-1.2.3-2.3.872-2.469,1.583a1.38,1.38,0,0,0-.016.449c-.263.188-.521.381-.793.559-7.168,4.654-16.3-2.4-19.9-8.326-3.053-5.027-2.688-10.756,1.19-14.756a9.248,9.248,0,0,1,1.511,2.425.418.418,0,0,0,.175.281l.011.008c1.073.792,6.054.03,5.607-1.841-.3-1.238-1.857-2.786-2.557-3.8q-1.69-2.451-3.392-4.9l-.085-.126-.044-.064-.007-.01c.285-.044.586-.078.885-.111a43.346,43.346,0,0,1,16.97,2.127c-.441.6.853,1.16,1.9.766a37.835,37.835,0,0,0,15.275-10.2c4.757-5.275,8.343-11.49,13.037-16.836a86.293,86.293,0,0,0,4.747,8c3.192,5.025,5.709,10.346,8.792,15.425.466.769.963,1.518,1.494,2.232a14.785,14.785,0,0,0,6.645,5.352v0a.372.372,0,0,0,.087.475l0,0a131.41,131.41,0,0,1,10.1,10.769c5.355,6.346,10.264,13.135,15.087,19.994-.009.028-.018.057-.029.084h0c-.092.276-.18.544-.253.8a.27.27,0,0,0,.042.254c.156.2.622.242,1.133.177h.029l.4.578.03.041c10.607,15.15,20.975,30.457,34.948,41.929l.011.008c.26.214.514.434.775.645l.07.058,0,0a80.676,80.676,0,0,0,10.912,7.414c.208.118.412.242.621.358.148.083.3.158.449.239q3.438,1.881,7.051,3.43c-5.149,8.664-11.209,16.79-16.593,25.325h0l.005.005A202.264,202.264,0,0,1,2358.968,572.518Zm103.022,71.66c-8.447-.879-16.953-2.061-25.438-2.627a24.9,24.9,0,0,0,10.582-6.893c4.2-4.774,6.83-11.447,8.929-17.365.549-1.546,2.665-7.355-.451-7.98a4.106,4.106,0,0,0-1.372-.04l-1.1-.222c-21.025-4.225-42.509-9.008-63.963-10.538,6.448-11.994,15.063-22.68,21.927-34.406.045-.079.094-.157.139-.235,1.18-2.027,2.308-4.084,3.361-6.184,22.717,16.941,48.795,29.265,74.456,41.049l0,.005C2479.7,613.668,2470.9,628.968,2461.99,644.178Z" fill="#3d3d3d"/>
        <path id="Trazado_3470" data-name="Trazado 3470" d="M2266.876,284.451c-2.407,3.818-9.716,13.6-2.945,16.7.75.349,2.94-.858,2.74-.951-6.519-2.99.709-12.579,3.054-16.3C2269.867,283.668,2267.31,283.759,2266.876,284.451Z" fill="#3d3d3d"/>
        <path id="Trazado_3471" data-name="Trazado 3471" d="M2281.074,305.158v0c-.479.088-1.448.279-1.7.776a3.891,3.891,0,0,1-.451.751l-.011.01a3.726,3.726,0,0,0-1.216.451c-.449.273-.4.617.161.6a6.484,6.484,0,0,0,3.06-.8,3.51,3.51,0,0,0,1.312-1.538C2282.461,304.956,2281.2,305.134,2281.074,305.158Z" fill="#3d3d3d"/>
        <path id="Trazado_3472" data-name="Trazado 3472" d="M2263.084,286.908v0a2.127,2.127,0,0,0,1.661-.935,28.172,28.172,0,0,0,1.5-3.5c.3-.894-2.579-.507-2.889.4a27.671,27.671,0,0,1-1.5,3.5C2261.563,286.957,2262.865,286.939,2263.084,286.908Z" fill="#3d3d3d"/>
        <path id="Trazado_3473" data-name="Trazado 3473" d="M2279.84,285.812a6.367,6.367,0,0,1-.412,2.749c-.661,1.423,2.26,1.263,2.742.225a7.4,7.4,0,0,0,.59-3.251C2282.761,284.126,2279.841,284.652,2279.84,285.812Z" fill="#3d3d3d"/>
        <path id="Trazado_3474" data-name="Trazado 3474" d="M2400.646,401.373l0,0a12.525,12.525,0,0,1,5.2,5.688c.427,1.012,3.277.126,2.9-.777a13.79,13.79,0,0,0-5.8-6.312C2402.147,399.478,2399.469,400.65,2400.646,401.373Z" fill="#3d3d3d"/>
        <path id="Trazado_3475" data-name="Trazado 3475" d="M2242.343,568.047c-.576,0-3.292,1.131-1.894,1.133,24.311.036,48.6,1.518,72.907,1.555.574.006,3.289-1.126,1.89-1.128l0-.005C2290.939,569.565,2266.649,568.083,2242.343,568.047Z" fill="#3d3d3d"/>
        <path id="Trazado_3476" data-name="Trazado 3476" d="M2404.351,420.062v-.005c.535.826,3.24-.248,2.9-.777-1.951-3.01-3.331-6.326-5.594-9.139-.52-.645-3.291.336-2.712,1.055C2401.135,413.923,2402.46,417.144,2404.351,420.062Z" fill="#3d3d3d"/>
        <path id="Trazado_3477" data-name="Trazado 3477" d="M2442.154,529.141v-.005c-.59-.646-3.331.386-2.709,1.064.41.449.585,1.047,1,1.5.589.646,3.33-.386,2.709-1.064C2442.744,530.192,2442.569,529.594,2442.154,529.141Z" fill="#3d3d3d"/>
        <path id="Trazado_3478" data-name="Trazado 3478" d="M2405.65,550.623c-.468-.441-1.4-.145-1.9.027a9.656,9.656,0,0,1-2.865.766,2.6,2.6,0,0,0-1.92.763c-.422.543.349.754.753.746v-.005a17.026,17.026,0,0,0,5.134-1.234C2405.143,551.586,2406.1,551.049,2405.65,550.623Z" fill="#3d3d3d"/>
        <path id="Trazado_3479" data-name="Trazado 3479" d="M2427.76,495.535v-.005a1.516,1.516,0,0,1,.356-.945,3.632,3.632,0,0,1,.321-.334c.084-.066.17-.131.259-.191-.018.012.419-.242.218-.137.439-.229,1.179-.8.719-1.365a1.73,1.73,0,0,0-1.949-.143c-1.27.664-2.776,1.822-2.847,3.393C2424.776,497.21,2427.709,496.708,2427.76,495.535Z" fill="#3d3d3d"/>
      </g>
    </g>
    <rect id="Rectángulo_4543" data-name="Rectángulo 4543" width="600" height="600" transform="translate(1284 2899)" fill="none"/>
  </g>
</svg>
