<svg xmlns="http://www.w3.org/2000/svg" width="600" height="600" viewBox="0 0 600 600">
  <g id="Ilustración_-_Creación_de_Usuario_2" data-name="Ilustración - Creación de Usuario 2" transform="translate(-734 -2899)">
    <g id="Ilustración_-_Creación_de_Usuario_2-2" data-name="Ilustración - Creación de Usuario 2" transform="translate(-1410.424 2738.828)">
      <path id="Trazado_3480" data-name="Trazado 3480" d="M2359.834,288.708a8.661,8.661,0,0,0,3.646-2h0a109.861,109.861,0,0,0,2.559-16.266c-.926-.029-2-.127-3.126-.193A117.855,117.855,0,0,1,2359.834,288.708Z" fill="#fff"/>
      <path id="Trazado_3481" data-name="Trazado 3481" d="M2380.784,448.983q.522-8.945,1.08-17.885c.792-12.709,3.234-25.3,5.958-37.721,2.58-11.763,5.646-23.417,8.835-35.028,1.477-5.374,4.206-11.51,4.531-17.136a7.244,7.244,0,0,0,1.8-.371,7.82,7.82,0,0,0,1.991-1.017h0a7.826,7.826,0,0,1-1.992,1.017,7.244,7.244,0,0,1-1.8.371c-.325,5.626-3.053,11.762-4.531,17.136-3.189,11.611-6.255,23.264-8.835,35.028-2.724,12.421-5.166,25.012-5.958,37.721q-.565,8.94-1.08,17.885h0c-.053.915.037,2.047-.063,3.055l0,0C2380.819,451.029,2380.73,449.9,2380.784,448.983Z" fill="#fff"/>
      <path id="Trazado_3482" data-name="Trazado 3482" d="M2401.891,393.9q.511-7.106.989-14.214Q2402.4,386.8,2401.891,393.9Z" fill="#fff"/>
      <path id="Trazado_3483" data-name="Trazado 3483" d="M2397.618,321.887c.735.02,1.268.3.613.944-.018.019-.033.038-.052.056a15.5,15.5,0,0,1,1.676,6.855c1.777-.109,3.541-.392,5.313-.535,1.275-5.28,4.182-9.834,10.34-10.266,0-.119-.007-.238-.012-.357-.57-.037-.454-.385-.054-.713-.483-4.509-3.462-8.005-4.488-12.559-.4-1.786-1.817-5.344.32-6.644a18.3,18.3,0,0,0,8-9.067c.839-2.117,1.892-5,.739-7.209a5.922,5.922,0,0,0-6.932-3.129c.523.588-.12,1.7-1.32,1.688-.313,0-.624-.018-.937-.024a6.04,6.04,0,0,0-.495.749,1.718,1.718,0,0,1-1.046.566c.149.067.292.142.449.2,1.732.637-.421,2.428-1.669,1.969a12.183,12.183,0,0,1-5.391-3.818c-1.441-.068-2.884-.123-4.327-.137.2,3.977-.652,8.323-4.418,9.291-5.807,1.493-13.366.423-17.247-4.566a14.42,14.42,0,0,1-2.93-7.07,3.22,3.22,0,0,1-.914.145h-2.652a14.729,14.729,0,0,1-2.313,6.316.63.63,0,0,1,.4.984c-1.328,2.756-2.128,7.172,2.272,6.881,1.577-.106,1.458,1.138.55,1.707,5.1.185,10.364,1.7,13.134,3.633,5.44,3.8,1.349,9.279-4.4,8.908a33.787,33.787,0,0,1-5.592-1.022c-3.5-.829-5.608-.454-9.1.353a7.46,7.46,0,0,1-3.44-.043,20.671,20.671,0,0,0,2.388,4.012c4.221,5.49,10.2,6.27,16.7,6.079,4.163-.123,9.43-.678,13.1,1.788h0A12.8,12.8,0,0,1,2397.618,321.887Zm11.974-35.854c.454-.415,1.062-.6,1.5-1a3.378,3.378,0,0,1,1.938-.694c.253-.021,1.183.033.688.485-.454.415-1.062.6-1.5,1a3.4,3.4,0,0,1-1.938.694C2410.026,286.539,2409.1,286.485,2409.592,286.033Z" fill="#fff"/>
      <path id="Trazado_3484" data-name="Trazado 3484" d="M2404.562,338.023a.776.776,0,0,1-.231-.341.769.769,0,0,0,.229.342Z" fill="#fff"/>
      <path id="Trazado_3485" data-name="Trazado 3485" d="M2370.635,303.413a13.085,13.085,0,0,1,4.5.631c.818.181,10.841,3.2,9.056-1.919a6.889,6.889,0,0,0-3.738-3.911c-5.8-2.831-20.786-5.753-19.6,4.8a.668.668,0,0,1,.074.048h0C2363.884,305.763,2367.248,303.884,2370.635,303.413Z" fill="#fff"/>
      <path id="Trazado_3486" data-name="Trazado 3486" d="M2400.341,337.55c.034.116.089.222.133.333-.043-.11-.1-.215-.131-.329a17.155,17.155,0,0,1-1.145-6.236c1.932-.152,4-.5,5.647-.578v0c-1.65.078-3.716.426-5.65.578A17.2,17.2,0,0,0,2400.341,337.55Z" fill="#fff"/>
      <path id="Trazado_3487" data-name="Trazado 3487" d="M2359.755,270.237c-.008.044-.017.088-.026.131l2.04-.17A18.539,18.539,0,0,0,2359.755,270.237Z" fill="#fff"/>
      <path id="Trazado_3488" data-name="Trazado 3488" d="M2354.482,273.181a14.955,14.955,0,0,0-1.37,5.65c-.118,1.9-.55,8.754,2.03,9.891a81.321,81.321,0,0,1,1.833-17.852h0A4.72,4.72,0,0,0,2354.482,273.181Z" fill="#fff"/>
      <path id="Trazado_3489" data-name="Trazado 3489" d="M2381.3,452.537c1.436,1.431,2.671,4.188,3.516,5.486a71.653,71.653,0,0,0,4.177,6.526v0a71.215,71.215,0,0,1-4.173-6.518C2383.978,456.729,2382.74,453.966,2381.3,452.537Z" fill="#fff"/>
      <path id="Trazado_3490" data-name="Trazado 3490" d="M2263.743,310.712a1.44,1.44,0,0,1-1.35-.212c.946,1.115,1.559.837,1.9.37v0C2264.108,310.826,2263.926,310.765,2263.743,310.712Z" fill="#fff"/>
      <path id="Trazado_3491" data-name="Trazado 3491" d="M2253.58,335.123c1.782-.906,3.638-1.818,5.552-2.7a77.606,77.606,0,0,1,19.4-6.417.57.57,0,0,1-.251-.587c.919-6.667,5.414-14.734,3.594-21.5-1.365-5.069-6.59-5.961-10.637-3.261a16.7,16.7,0,0,0-4.76,4.452,14.737,14.737,0,0,0-1.033,1.67q-2.085,3.254,5.025,1.781c1.382-.562,3.065.65,1.2,1.4a12.243,12.243,0,0,1-7.377.906h0c-.04.138-.087.275-.12.417-.168.716-.315,1.435-.441,2.162-.307,1.771-.563,3.553-.817,5.334-.209,1.465-.053,5.383-1.609,6.252-.956.533-3.514.068-1.8-.887-.649.363-.366.411-.231-.256.067-.33.13-.658.185-.99.148-.9.282-1.811.412-2.717.327-2.289.619-4.59,1.054-6.861a9.2,9.2,0,0,1,.944-3.357.538.538,0,0,1-.251-.556,14.768,14.768,0,0,1,.773-1.982,22.611,22.611,0,0,1-6.756.413,9.225,9.225,0,0,1,2.115,3.529c1.328,4.565-4.835,6.444-8.305,6.354-.173,0-.348-.021-.523-.035,1.791,2.45,1.919,5.759-1.427,6.9h0c2.415,2.993,4.036,6.554,5.8,9.982C2253.39,334.756,2253.48,334.94,2253.58,335.123Zm5.552-2.7c-1.914.88-3.77,1.792-5.552,2.7-.1-.183-.186-.367-.286-.551h0C2254.944,333.948,2256.97,333.2,2259.132,332.42Z" fill="#fff"/>
      <path id="Trazado_3492" data-name="Trazado 3492" d="M2361.972,365.188c-.23.949-.448,1.9-.673,2.851.227-.951.445-1.9.677-2.854a.507.507,0,0,1,.178-.254A.511.511,0,0,0,2361.972,365.188Z" fill="#fff"/>
      <path id="Trazado_3493" data-name="Trazado 3493" d="M2371.207,483.163q-.825,15.006-1.348,30.006c-.132,3.69-.238,7.385-.232,11.078a35.349,35.349,0,0,0,.019,4.243c-.439.1-.946.214-1.5.335.522-.024,1.039-.053,1.551-.083-.014-.087-.033-.17-.044-.258a35.048,35.048,0,0,1-.022-4.24c-.006-3.693.1-7.388.232-11.078q.542-15.006,1.348-30.006c-.676.029-1.181-.123-.806-.552a2.82,2.82,0,0,1,.4-.36,2.912,2.912,0,0,0-.406.363C2370.026,483.04,2370.531,483.192,2371.207,483.163Z" fill="#fff"/>
      <path id="Trazado_3494" data-name="Trazado 3494" d="M2370.239,473.587c.491.14.985.265,1.479.39q-.228,3.992-.446,7.991l0,0q.212-3.993.446-7.992c-.494-.125-.988-.25-1.479-.39-1.2-.338-.584-1.3.331-1.767C2369.656,472.282,2369.039,473.247,2370.239,473.587Z" fill="#fff"/>
      <path id="Trazado_3495" data-name="Trazado 3495" d="M2251.667,315.461c1.4-.335,3.876-.928,3.3-2.907a8.454,8.454,0,0,0-2.343-3.534,32.405,32.405,0,0,0-8.006-5.6,1.1,1.1,0,0,1-.189-.125,1.327,1.327,0,0,1-1.1.938h0c-3.756.947-2.9,4.574-.95,6.986C2244.546,313.892,2248.056,316.328,2251.667,315.461Z" fill="#fff"/>
      <path id="Trazado_3496" data-name="Trazado 3496" d="M2242.937,316.976c-1.6.168-1.488-1.194-.539-1.811a13.416,13.416,0,0,1-1.723-1.523c-4.071,2.515,1.108,8.749,4.544,9.164h0C2249.684,323.344,2246.07,316.647,2242.937,316.976Z" fill="#fff"/>
      <path id="Trazado_3497" data-name="Trazado 3497" d="M2393.946,324.748c-3.325,4.9-4.647,11.886-6.047,17.186-2.906,11.032-4.973,22.3-6.938,33.525-2.187,12.5-3.65,24.939-4.75,37.58q-2.577,29.241-4.346,58.553h0q1.813-29.331,4.346-58.557c1.095-12.641,2.562-25.08,4.75-37.58,1.964-11.23,4.032-22.493,6.938-33.525,1.4-5.3,2.722-12.286,6.047-17.186a3.224,3.224,0,0,0-3.746.393A3.223,3.223,0,0,1,2393.946,324.748Z" fill="#fff"/>
      <path id="Trazado_3498" data-name="Trazado 3498" d="M2430.263,480.906c-1.995.46-4.735,1.058-7.839,1.643A49.689,49.689,0,0,0,2430.263,480.906Z" fill="#fff"/>
      <path id="Trazado_3499" data-name="Trazado 3499" d="M2387.186,357.4c-6.262,30.844-8.812,61.711-10.956,93.072q-.747,10.928-1.418,21.858a68.366,68.366,0,0,0,9.99,1.4c3.389.065,7.66.143,11.754.211,3.1-.068,6.172-.2,9.172-.331,6.908-.3,13.845-.714,20.73-1.484,2.689-.415,4.855-.775,5.8-.934q.2-14.209.158-28.417a480.3,480.3,0,0,0-16.473-121.9,1.985,1.985,0,0,1-.351.052c-7.511.31-8.321,9.916-8.39,15.81.379-.012.8.02.624.241q-.294.372-.6.729c.354.046.611.2.625.489.428,8.857-.557,17.913-1.109,26.743-.918,14.688-1.97,29.366-3.07,44.042q-1.305,17.475-2.687,34.946-.23,2.907-.463,5.808c-.138,1.722-2.446,4.355-3.286,5.789-2.2,3.75-4.422,7.483-6.811,11.115-.507.771-3.022,1.016-2.822.141a1.028,1.028,0,0,1-.578-.268c-1.761-1.812-3-4.427-4.37-6.527-.445-.676-1.045-1.9-1.745-3.133a15.776,15.776,0,0,0-1.906-2.807c-.06.013-.106.017-.16.028-.592.114-1.134.022-1.215-.5a2.043,2.043,0,0,1,.119-1.138.829.829,0,0,1,.071-.105c.144-1.235.028-2.642.093-3.77.355-6.123.651-12.257,1.119-18.373a264.641,264.641,0,0,1,6.185-37.884c2.624-11.629,5.634-23.163,8.806-34.653,1.407-5.093,3.985-10.91,4.261-16.238.013-.327.313-.609.713-.8-.038-.033-.082-.055-.119-.09-2.218-2.122-2.566-5.983-2.589-8.883,0-.239.3-.444.709-.6a.4.4,0,0,1,.063-.463c.014-.02.036-.029.051-.048a.648.648,0,0,1-.162-.444,16.9,16.9,0,0,0-.623-4.813v.005c-2.135,3.447-3.21,8.022-4.24,11.606C2390.15,343.643,2388.586,350.506,2387.186,357.4ZM2379,454.057a15.775,15.775,0,0,1,1.906,2.807l-2.066-2.778C2378.9,454.075,2378.951,454.071,2379,454.057Z" fill="#fff"/>
      <path id="Trazado_3500" data-name="Trazado 3500" d="M2256.623,306.369a15.883,15.883,0,0,0,5-.067.373.373,0,0,1,.007-.169c.259-1.012.514-2.025.773-3.037a14.9,14.9,0,0,0-1.668-1.516c-2.944-2.447-6.26-4.449-9.017-7.118-.151-.146-.112-.317.038-.486-1.727-.05-4.041-.038-4.427,2.093a5.993,5.993,0,0,0,.885,4A13.115,13.115,0,0,0,2256.623,306.369Z" fill="#fff"/>
      <path id="Trazado_3501" data-name="Trazado 3501" d="M2433.348,528.751a20.43,20.43,0,0,0,3.974,1.411l-3.85-1.776C2433.435,528.511,2433.4,528.635,2433.348,528.751Z" fill="#fff"/>
      <path id="Trazado_3502" data-name="Trazado 3502" d="M2546.693,381.641a29.2,29.2,0,0,1,7.084,6.466,63.633,63.633,0,0,1,3.74,5.414,75.5,75.5,0,0,1,4.106,10.8.571.571,0,0,0,.338.345l0,0a.571.571,0,0,1-.343-.348,75.324,75.324,0,0,0-4.106-10.8,29.6,29.6,0,0,0-10.266-12.224.879.879,0,0,1-.1-.083,1.523,1.523,0,0,1-.461.43,2.543,2.543,0,0,1-2.081.4h0l.008,0A2.54,2.54,0,0,0,2546.693,381.641Z" fill="#fff"/>
      <path id="Trazado_3503" data-name="Trazado 3503" d="M2447.12,376.782c.183.278.358.562.537.842.326,9.43,2.861,19.043,4.789,28.19,3.415,16.2,7.291,32.31,11.291,48.378q5.781,23.441,12.232,46.7c2.187,7.885,3.886,16.652,7.374,24.136h0c-3.491-7.486-5.19-16.255-7.377-24.143q-6.405-23.28-12.232-46.7c-4-16.068-7.876-32.178-11.291-48.378-1.928-9.147-4.464-18.759-4.79-28.19-.178-.28-.352-.565-.536-.842-.356-.539-.576-.714-.522-.8C2446.532,376.058,2446.757,376.231,2447.12,376.782Z" fill="#fff"/>
      <path id="Trazado_3504" data-name="Trazado 3504" d="M2360.055,289.874c-.441.117-.987.233-1.579.333a62.491,62.491,0,0,0,.842,7.78c1.71-2.25,4.775-3.383,8.242-3.736a3.807,3.807,0,0,1-3.08-2.477,6.755,6.755,0,0,1,.049-3.873A14.741,14.741,0,0,1,2360.055,289.874Z" fill="#fff"/>
      <path id="Trazado_3505" data-name="Trazado 3505" d="M2447.64,375.7c.063-.015.11-.024.18-.042-.825.214-1.289.125-1.341-.072C2446.518,375.774,2446.928,375.857,2447.64,375.7Z" fill="#fff"/>
      <path id="Trazado_3506" data-name="Trazado 3506" d="M2440.526,530.745a55.34,55.34,0,0,0,12.766-.177A111.878,111.878,0,0,1,2440.526,530.745Z" fill="#fff"/>
      <path id="Trazado_3507" data-name="Trazado 3507" d="M2506.9,404.247c.023.013.047.023.07.035C2506.949,404.27,2506.925,404.26,2506.9,404.247Z" fill="#fff"/>
      <path id="Trazado_3508" data-name="Trazado 3508" d="M2508.654,405.022c.186.063.376.11.565.161C2509.03,405.132,2508.84,405.085,2508.654,405.022Z" fill="#fff"/>
      <path id="Trazado_3509" data-name="Trazado 3509" d="M2566.014,400.681c6.476.19,14.413-5.885,19.126-9.824,2.159-1.8,9.864-8.776,3.723-9.631a58.048,58.048,0,0,1-8.547,5.31c-1.3.662-2.945-.329-1.158-1.238a51.506,51.506,0,0,0,9.008-5.86c1.353-1.1,5.182-4.248,2.662-5.137a39.464,39.464,0,0,1-9.769,5.191c-1.533.59-3.161-1.105-1.313-1.816a33.994,33.994,0,0,0,10.735-6.253c.8-.735,2.783-2.563,1.791-3.813-1.615-2.035-4.491,1.015-6.215,1.715a1.787,1.787,0,0,1-.906.117,49.086,49.086,0,0,0-4.92,3.382c-.69.651-3.555.681-2.324-.479a47.539,47.539,0,0,1,5.5-3.945c.23-.161.489-.336.763-.522a1.53,1.53,0,0,1,.446-.3c1.827-1.25,4.131-2.959,4.391-4.92a2.82,2.82,0,0,0-2.224-2.9c-1.481-.231-3.2.777-4.411,1.507a24.292,24.292,0,0,0-6.618,5.357,2.3,2.3,0,0,1-1.308.568c-2,6.606-6.025,13.612-8.248,15.506-.554.469-3.434.795-2.254-.211,3.529-3,5.52-8.523,6.8-12.83,1.031-3.473,2.9-9.17.8-12.6-3-4.884-9.555,5.705-11.221,8.043-4.109,5.759-5.124,11.365-5.135,18.441v0c0,.258-.227.481-.551.637,4.5,4.805,7.123,10.884,9.231,17.318A5.645,5.645,0,0,1,2566.014,400.681Z" fill="#fff"/>
      <path id="Trazado_3510" data-name="Trazado 3510" d="M2507.765,404.679c.1.045.207.078.31.12C2507.972,404.757,2507.867,404.724,2507.765,404.679Z" fill="#fff"/>
      <path id="Trazado_3511" data-name="Trazado 3511" d="M2492.793,429.266a44.266,44.266,0,0,0,18.577,3.487c-.865-.017-1.73-.063-2.594-.149A77.33,77.33,0,0,1,2492.793,429.266Z" fill="#fff"/>
      <path id="Trazado_3512" data-name="Trazado 3512" d="M2519.926,404c6.359-2.523,11.816-7.44,16.7-12.1,2.271-2.167,4.435-4.443,6.585-6.729.728-.777,1.458-1.558,2.2-2.326a6.051,6.051,0,0,1,.822-.752l-.012,0a6,6,0,0,0-.814.746c-.739.767-1.469,1.548-2.2,2.325-2.15,2.287-4.314,4.563-6.585,6.729-4.882,4.656-10.339,9.573-16.7,12.1-3.255,1.295-6.985,2.091-10.359,1.288C2512.938,406.084,2516.669,405.29,2519.926,404Z" fill="#fff"/>
      <path id="Trazado_3513" data-name="Trazado 3513" d="M2395.484,281.176c.012,1.481-.027,2.875-.076,3.975A19,19,0,0,0,2395.484,281.176Z" fill="#fff"/>
      <path id="Trazado_3514" data-name="Trazado 3514" d="M2393.039,288.942a2.294,2.294,0,0,0,1.118-.632A9.739,9.739,0,0,1,2393.039,288.942Z" fill="#fff"/>
      <path id="Trazado_3515" data-name="Trazado 3515" d="M2367.97,269.26c.5-.082.945-.047,1.058.209a16.339,16.339,0,0,1,1.3,7.131h3.324a12.788,12.788,0,0,1,1.633-6.487c.2-.36.96-.583,1.648-.669l.007-.011h.1c.173-.017.327-.028.473-.028a2.352,2.352,0,0,1,.591-.138c6.31-.084,17.179-2,19.458,6.17a22.742,22.742,0,0,1,.6,3.006,1.711,1.711,0,0,1,.378-.041c.923.008,1.844.039,2.765.072-5.164-10.1,2.348-27.832,13.4-30.385a1.461,1.461,0,0,1,.354-.381c-5.221-13.544-26.622-13.639-37.337-6.879-9.76,6.156-15.264,16.985-17.75,28.365A71.513,71.513,0,0,1,2367.97,269.26Z" fill="#fff"/>
      <path id="Trazado_3516" data-name="Trazado 3516" d="M2394.17,274.893c-.016-.031-.036-.055-.052-.086-2.995,4.332-5.879,8.761-8.433,13.361a15.14,15.14,0,0,0,3.137.8c1.972-3.489,4.129-6.881,6.377-10.207A15.5,15.5,0,0,0,2394.17,274.893Z" fill="#fff"/>
      <path id="Trazado_3517" data-name="Trazado 3517" d="M2418.74,319.7c.722,2.7,1.421,5.4,2.069,8.119-.648-2.715-1.346-5.42-2.065-8.115l.369-1.105a5.937,5.937,0,0,1,2.2,1.012,5.945,5.945,0,0,0-2.208-1.015,5.76,5.76,0,0,0-.7-.137c0,.06-.008.126-.01.186a.581.581,0,0,1,.121.223C2418.595,319.149,2418.666,319.427,2418.74,319.7Z" fill="#fff"/>
      <path id="Trazado_3518" data-name="Trazado 3518" d="M2427.108,329.528a44.3,44.3,0,0,1,26.414,8.6,44.31,44.31,0,0,0-26.418-8.607c-.615.5-2.249.764-2.58.358C2424.848,330.3,2426.5,330.026,2427.108,329.528Z" fill="#fff"/>
      <path id="Trazado_3519" data-name="Trazado 3519" d="M2408.392,280.868q-.761-.032-1.522-.073a9.52,9.52,0,0,0,1.04.741A7.923,7.923,0,0,1,2408.392,280.868Z" fill="#fff"/>
      <path id="Trazado_3520" data-name="Trazado 3520" d="M2387.824,270.5a18.856,18.856,0,0,0-2.721-.319,1.632,1.632,0,0,0-.339.509c-1.787,4.3-3.74,8.533-5.6,12.8a14.4,14.4,0,0,0,2.369,2.359c2.053-4.785,4.258-9.514,6.257-14.326A1.291,1.291,0,0,0,2387.824,270.5Z" fill="#fff"/>
      <path id="Trazado_3521" data-name="Trazado 3521" d="M2579.2,419.539c-.025-.047.068-.151.248-.3-.183.148-.277.253-.252.3a.589.589,0,0,1-.221.743A.592.592,0,0,0,2579.2,419.539Z" fill="#fff"/>
      <path id="Trazado_3522" data-name="Trazado 3522" d="M2588.525,420.2a17.24,17.24,0,0,1-1.236-5.371l0,0a17.226,17.226,0,0,0,1.236,5.372c.087.217-.024.435-.245.624C2588.5,420.642,2588.613,420.423,2588.525,420.2Z" fill="#fff"/>
      <path id="Trazado_3523" data-name="Trazado 3523" d="M2560.822,496.2c1.362-.121,2.657-.226,3.845-.28a405.024,405.024,0,0,1,48.729.28h6.773c.353-2.116-.047-7.57-.141-9.639a104.021,104.021,0,0,1-14.321.77c-2.1.014-8.393,1.03-10.1-.709-.809-.825,1.943-1.914,2.686-1.156.728.739,7.849.17,9.628.139a98.859,98.859,0,0,0,12.064-.643c-.029-1.28-.06-2.565-.113-3.853-8.842.852-17.828.836-26.687.885-4.693.027-9.4.05-14.093-.106-1.11-.039-3.792.313-4.7-.6-.814-.816,1.937-1.909,2.686-1.156-.417-.414,1.238-.025,1.894,0q2.125.079,4.255.111,6.675.093,13.351.02c7.719-.082,15.519-.089,23.219-.789a53.274,53.274,0,0,0-.715-6.422c-3.146-.307-6.293-.537-9.446-.723h-47.589c-5.4.357-10.863.843-16.242.313-.42-.041-.839-.1-1.257-.155a1.541,1.541,0,0,1-1.173.492c-8.879-.02-13.459,11.459-8.259,18.365a13.521,13.521,0,0,0,8.179,4.856Z" fill="#fff"/>
      <path id="Trazado_3524" data-name="Trazado 3524" d="M2589.047,444.2h7.318c2.811-.307,5.489-1.132,7.289-3.065l0-.006c-1.8,1.931-4.476,2.756-7.287,3.064h-7.318l-.467-.029c-4.241-.273-9.9-.856-13.166-3.873-2.759-2.543-3.062-6.974-2.777-10.443.154-1.872,1.076-7.126,3.254-8.622-2.181,1.492-3.1,6.752-3.258,8.625-.286,3.468.017,7.895,2.777,10.443,3.267,3.016,8.923,3.6,13.164,3.877Z" fill="#fff"/>
      <path id="Trazado_3525" data-name="Trazado 3525" d="M2560.822,470.2c1.362-.121,2.657-.226,3.845-.28a405.024,405.024,0,0,1,48.729.28h6.773c.353-2.116-.047-7.57-.141-9.639a104.021,104.021,0,0,1-14.321.77c-2.1.014-8.393,1.03-10.1-.709-.809-.825,1.943-1.914,2.686-1.156.728.739,7.849.17,9.628.139a98.859,98.859,0,0,0,12.064-.643c-.029-1.28-.06-2.565-.113-3.853-8.842.852-17.828.836-26.687.885-4.693.027-9.4.05-14.093-.106-1.11-.039-3.792.313-4.7-.6-.814-.816,1.937-1.909,2.686-1.156-.417-.414,1.238-.025,1.894,0q2.125.079,4.255.111,6.675.093,13.351.02c7.719-.082,15.519-.089,23.219-.789a51.356,51.356,0,0,0-.842-7.145h-74.287a1.5,1.5,0,0,1-1.293.65c-8.879-.02-13.459,11.459-8.259,18.365a13.521,13.521,0,0,0,8.179,4.856Z" fill="#fff"/>
      <path id="Trazado_3526" data-name="Trazado 3526" d="M2604.829,439.651c-.072.1-.159.194-.233.3C2604.67,439.845,2604.757,439.753,2604.829,439.651Z" fill="#fff"/>
      <path id="Trazado_3527" data-name="Trazado 3527" d="M2505.636,678.58c-1.5-.144-3-.214-4.489-.25,1.491.036,2.985.106,4.485.25,2.835.27,5.829.775,8.749.794C2511.462,679.354,2508.469,678.85,2505.636,678.58Z" fill="#fff"/>
      <path id="Trazado_3528" data-name="Trazado 3528" d="M2483.6,677.392a39.658,39.658,0,0,0,4.141.61,39.557,39.557,0,0,1-4.137-.61Z" fill="#fff"/>
      <path id="Trazado_3529" data-name="Trazado 3529" d="M2381.554,334.859c.04.009.081.016.122.021-.054.134-.1.27-.154.4-.257.674.155,1.039.738,1.138-.58-.1-.991-.466-.734-1.141l.154-.4a1.229,1.229,0,0,1-.122-.021,16.6,16.6,0,0,0-13.834,2.082A16.6,16.6,0,0,1,2381.554,334.859Z" fill="#fff"/>
      <path id="Trazado_3530" data-name="Trazado 3530" d="M2607.887,427.034c-.137,2.486-.4,5.126-.668,7.463A20.477,20.477,0,0,0,2607.887,427.034Z" fill="#fff"/>
      <path id="Trazado_3531" data-name="Trazado 3531" d="M2620.03,512.563a104.026,104.026,0,0,1-14.321.77c-2.1.014-8.393,1.03-10.1-.709-.809-.825,1.943-1.914,2.686-1.156.728.739,7.849.17,9.628.139a98.846,98.846,0,0,0,12.064-.643c-.029-1.28-.06-2.565-.113-3.853-8.842.852-17.828.836-26.687.885-4.693.027-9.4.05-14.093-.106-1.11-.039-3.792.313-4.7-.6-.814-.816,1.937-1.909,2.686-1.156-.417-.414,1.238-.025,1.894,0q2.125.08,4.255.111,6.675.093,13.351.02c7.719-.082,15.519-.089,23.219-.789a53.275,53.275,0,0,0-.715-6.422c-3.146-.307-6.293-.537-9.446-.723h-47.589c-5.4.357-10.863.843-16.242.313-.42-.041-.839-.1-1.257-.155a1.541,1.541,0,0,1-1.173.492c-8.879-.02-13.459,11.459-8.259,18.365,6.171,8.2,20.722,4.977,29.556,4.577,18.312-.828,37.013-1,55.344.869C2620.623,521.391,2620.13,514.87,2620.03,512.563Z" fill="#fff"/>
      <path id="Trazado_3532" data-name="Trazado 3532" d="M2469.153,660.946c.908.166,2.092.379,3.4.605-1.166-.232-2.305-.466-3.4-.69v.09c-.194,9.031,5.6,14.625,14.456,16.441C2474.747,675.575,2468.955,669.981,2469.153,660.946Z" fill="#fff"/>
      <path id="Trazado_3533" data-name="Trazado 3533" d="M2415.951,661.6h3.332a6.751,6.751,0,0,0,4.451-1.71l0-.008c-.037-.078-.074-.156-.111-.232v-.014a41.308,41.308,0,0,1-7.676,1.961,84.4,84.4,0,0,1-12.814.879.948.948,0,0,1-.261.232.967.967,0,0,0,.269-.229A84.4,84.4,0,0,0,2415.951,661.6Z" fill="#fff"/>
      <path id="Trazado_3534" data-name="Trazado 3534" d="M2378.887,683.248c-10.478-1.161-.157-8.34,4.189-10.682,6.455-3.479,13.68-5.774,19.8-9.852h0c-6.115,4.079-13.34,6.373-19.795,9.852-4.345,2.342-14.667,9.522-4.189,10.682a91.247,91.247,0,0,0,16.861.128A91.29,91.29,0,0,1,2378.887,683.248Z" fill="#fff"/>
      <path id="Trazado_3535" data-name="Trazado 3535" d="M2356.586,389.827c-.2,1.011-.405,2.021-.6,3.034q-.957.758-1.945,1.477.99-.722,1.949-1.48C2356.184,391.846,2356.389,390.837,2356.586,389.827Z" fill="#fff"/>
      <path id="Trazado_3536" data-name="Trazado 3536" d="M2425.988,676.579c-.1.2-.209.4-.326.585C2425.779,676.974,2425.886,676.779,2425.988,676.579Z" fill="#fff"/>
      <path id="Trazado_3537" data-name="Trazado 3537" d="M2426.441,675.519c-.085.244-.175.486-.282.721C2426.266,676.006,2426.356,675.765,2426.441,675.519Z" fill="#fff"/>
      <path id="Trazado_3538" data-name="Trazado 3538" d="M2493.417,661.184a14.116,14.116,0,0,0,1.647-.65l-.026.009A14.125,14.125,0,0,1,2493.417,661.184Z" fill="#fff"/>
      <path id="Trazado_3539" data-name="Trazado 3539" d="M2421.723,680.485a8.228,8.228,0,0,0,3.783-3.082A41.708,41.708,0,0,1,2421.723,680.485Z" fill="#fff"/>
      <path id="Trazado_3540" data-name="Trazado 3540" d="M2254.273,337.566a2.362,2.362,0,0,1-2.036.638v0A2.355,2.355,0,0,0,2254.273,337.566Z" fill="#fff"/>
      <path id="Trazado_3541" data-name="Trazado 3541" d="M2286.568,327.654a1.852,1.852,0,0,0,1.131-.324c4.112,17.786,10.6,55.029,35.5,52.6a23.834,23.834,0,0,0,5.86-1.348,8.575,8.575,0,0,0,4.087-1.916,29.415,29.415,0,0,0,2.563-1.683,29.328,29.328,0,0,1-2.559,1.68,25.392,25.392,0,0,1-4.087,1.916,23.832,23.832,0,0,1-5.86,1.348c-24.9,2.429-31.389-34.814-35.5-52.6a1.851,1.851,0,0,1-1.131.324c-10.468-.856-22.545,4.462-32.068,9.362h0C2264.026,332.114,2276.1,326.8,2286.568,327.654Z" fill="#fff"/>
      <path id="Trazado_3542" data-name="Trazado 3542" d="M2379,454.057c-.054.014-.106.018-.16.029l2.066,2.778A15.775,15.775,0,0,0,2379,454.057Z" fill="#5ea3a3"/>
      <path id="Trazado_3543" data-name="Trazado 3543" d="M2495.038,660.543l.026-.009h0Z" fill="#5ea3a3"/>
      <path id="Trazado_3544" data-name="Trazado 3544" d="M2425.662,677.164c.117-.19.225-.386.326-.585.058-.113.119-.223.171-.339.107-.235.2-.477.282-.721.03-.087.069-.169.1-.257h0c1.7-5.326-.492-10.583-2.8-15.368a6.751,6.751,0,0,1-4.451,1.71h-3.332a84.4,84.4,0,0,1-12.814.879.967.967,0,0,1-.269.229v0h0c-6.115,4.078-13.34,6.373-19.8,9.852-4.346,2.342-14.667,9.521-4.189,10.682a91.29,91.29,0,0,0,16.857.128c3.412-.249,6.833-.613,10.311-1,4.48-.5,11.058.145,15.658-1.889l.01-.005a41.708,41.708,0,0,0,3.783-3.082C2425.558,677.324,2425.612,677.245,2425.662,677.164Z" fill="#5ea3a3"/>
      <path id="Trazado_3545" data-name="Trazado 3545" d="M2414.344,683.219l3.427-.118s.266-.154.7-.424a23.445,23.445,0,0,1-2.7.41Z" fill="#5ea3a3"/>
      <path id="Trazado_3546" data-name="Trazado 3546" d="M2323.188,378.328c-2.223-.181-4.483-.423-6.366-.644A14.712,14.712,0,0,0,2323.188,378.328Z" fill="#5ea3a3"/>
      <path id="Trazado_3547" data-name="Trazado 3547" d="M2563.453,405.941c.519-.528.822-.84.822-.84h0s-.026-.049-.076-.139h0C2563.954,405.29,2563.707,405.617,2563.453,405.941Z" fill="#5ea3a3"/>
      <path id="Trazado_3548" data-name="Trazado 3548" d="M2451.006,382.99c.027.229.051.457.08.685L2458.407,395q-2.94-4.782-5.883-9.564C2452.02,384.621,2451.506,383.807,2451.006,382.99Z" fill="#5ea3a3"/>
      <path id="Trazado_3549" data-name="Trazado 3549" d="M2491.734,661.613a13.711,13.711,0,0,0,3.3-1.07C2494.212,660.831,2493.045,661.22,2491.734,661.613Z" fill="#5ea3a3"/>
      <path id="Trazado_3550" data-name="Trazado 3550" d="M2400.343,337.554c.033.114.088.219.131.329a4.252,4.252,0,0,0,1.732,2.091,1.3,1.3,0,0,0,.254.082,4.933,4.933,0,0,0,.516-.367,14.5,14.5,0,0,0,1.584-1.665.769.769,0,0,1-.229-.342.79.79,0,0,1-.058-.3,39.11,39.11,0,0,1,.572-6.641c-1.647.082-3.715.426-5.647.578A17.155,17.155,0,0,0,2400.343,337.554Z" fill="#5ea3a3"/>
      <path id="Trazado_3551" data-name="Trazado 3551" d="M2250.847,336.209c-.1-.2-.2-.4-.306-.6l-1.266.487s.052.19.142.513l.007-.005A2.357,2.357,0,0,1,2250.847,336.209Z" fill="#5ea3a3"/>
      <path id="Trazado_3552" data-name="Trazado 3552" d="M2253.58,335.12c1.782-.908,3.638-1.82,5.552-2.7-2.162.778-4.188,1.528-5.839,2.149h0C2253.394,334.753,2253.484,334.937,2253.58,335.12Z" fill="#5ea3a3"/>
      <path id="Trazado_3553" data-name="Trazado 3553" d="M2359.775,530.1h.019c-.152-.012-.3-.022-.455-.035A3.718,3.718,0,0,0,2359.775,530.1Z" fill="#5ea3a3"/>
      <path id="Trazado_3554" data-name="Trazado 3554" d="M2261.275,373.1h0a38.129,38.129,0,0,0,2.791,4.51,109.461,109.461,0,0,1-5.572-11.426A67.547,67.547,0,0,0,2261.275,373.1Z" fill="#5ea3a3"/>
      <path id="Trazado_3555" data-name="Trazado 3555" d="M2418.744,319.708c.719,2.7,1.417,5.4,2.065,8.115a515.621,515.621,0,0,1,14.512,120.838q-.057,27.5-.821,54.989c-.18,6.482-.357,12.97-.712,19.447-.061,1.113.187,3.605-.313,5.283l0,.006,3.85,1.776c.016,0,.031.011.048.015a27.813,27.813,0,0,0,2.981.555c.058.006.117.007.175.013a111.878,111.878,0,0,0,12.766-.177c.058-.008.116-.011.175-.018,2.755-.308,5.414-.7,7.82-1.033,7.276-1,15.056-2.012,22.056-4.489-3.488-7.484-5.187-16.251-7.374-24.136q-6.452-23.259-12.232-46.7c-4-16.068-7.876-32.175-11.291-48.378-1.928-9.147-4.463-18.76-4.789-28.19-.179-.28-.354-.564-.537-.842-.363-.551-.588-.724-.522-.813s.367-.1,1.042-.267c-.712.155-1.122.072-1.161-.114s.313-.507,1.153-.728l.024-.007c.282-.074,1.213-.355,1.476-.082.085.089.163.187.246.28.608-.029,1.14.163,1.144.7,0,.273.016.549.021.823.975,1.454,1.8,3.094,2.665,4.494q4.293,6.945,8.562,13.911c6.235,10.124,12.088,21.413,21.672,28.8a43.131,43.131,0,0,0,9.272,5.456l.079.031a77.33,77.33,0,0,0,15.983,3.338c.864.086,1.729.132,2.594.149.057,0,.114,0,.171,0,19.354-.511,39.02-12.376,50.42-28.085a.571.571,0,0,1-.338-.345,75.5,75.5,0,0,0-4.106-10.8,63.633,63.633,0,0,0-3.74-5.414,29.2,29.2,0,0,0-7.084-6.466,2.54,2.54,0,0,1-2.077.4,1.742,1.742,0,0,0,1.613.045l-.008.007.012,0a6.051,6.051,0,0,0-.822.752c-.742.768-1.472,1.549-2.2,2.326-2.15,2.286-4.314,4.562-6.585,6.729-4.884,4.66-10.341,9.577-16.7,12.1-3.257,1.294-6.988,2.088-10.363,1.285-.115-.027-.229-.066-.344-.1-.189-.051-.379-.1-.565-.161s-.387-.146-.579-.223c-.1-.042-.208-.075-.31-.12-.268-.118-.532-.253-.793-.4-.023-.012-.047-.022-.07-.035a10.08,10.08,0,0,1-1.641-1.154c-4.277-3.687-6.971-9.5-10.1-14.129-3.541-5.245-7.118-10.459-10.8-15.6-8.775-12.257-18.279-26.4-30.839-35.232a44.3,44.3,0,0,0-26.414-8.6c-.613.5-2.26.768-2.584.355a.264.264,0,0,1-.055-.22c.592-3.689-.383-8.006-3.152-10.048a5.937,5.937,0,0,0-2.2-1.012Z" fill="#5ea3a3"/>
      <path id="Trazado_3556" data-name="Trazado 3556" d="M2529.646,395.374c2.227-1.873,4.356-3.863,6.417-5.924Z" fill="#5ea3a3"/>
      <path id="Trazado_3557" data-name="Trazado 3557" d="M2572.643,429.852c-.285,3.469.018,7.9,2.777,10.443,3.27,3.017,8.925,3.6,13.166,3.873l.467.029h7.318c2.811-.308,5.488-1.133,7.287-3.064.336-.378.64-.781.938-1.187.074-.1.161-.193.233-.3a16.248,16.248,0,0,0,2.382-5.12c0-.012,0-.023.008-.034.272-2.337.531-4.977.668-7.463,0-.013,0-.026,0-.038a14.662,14.662,0,0,0-3.951-9.078,14.4,14.4,0,0,0-7.891-3.9c-.282-.046-.563-.089-.847-.12a17.743,17.743,0,0,0-7.907.936,17.24,17.24,0,0,0,1.236,5.371c.088.218-.024.437-.249.627-.669.574-2.355.889-2.655.153a17.7,17.7,0,0,1-1.2-4.786,51.835,51.835,0,0,0-4.978,3.043c-.18.146-.273.25-.248.3a.592.592,0,0,1-.225.746,2.627,2.627,0,0,1-1.845.519,2.019,2.019,0,0,1-.218.039,2.183,2.183,0,0,0-1.01.387C2573.719,422.726,2572.8,427.98,2572.643,429.852Z" fill="#5ea3a3"/>
      <path id="Trazado_3558" data-name="Trazado 3558" d="M2403.838,365.287c.521-8.4,1.462-17.024,1.141-25.462a7.82,7.82,0,0,1-1.991,1.017,7.244,7.244,0,0,1-1.8.371c-.325,5.626-3.054,11.762-4.531,17.136-3.189,11.611-6.255,23.265-8.835,35.028-2.724,12.418-5.166,25.012-5.958,37.721q-.558,8.94-1.08,17.885c-.054.914.035,2.046-.063,3.059a4.378,4.378,0,0,1,.579.495c1.44,1.429,2.678,4.192,3.521,5.491a71.215,71.215,0,0,0,4.173,6.518c2.127-3.331,4.147-6.726,6.126-10.145.631-1.092,2.442-3.6,2.508-4.422q.268-3.375.536-6.746,1.38-17.461,2.681-34.928.534-7.2,1.046-14.4.511-7.106.989-14.214C2403.207,374.888,2403.54,370.088,2403.838,365.287Z" fill="#5ea3a3"/>
      <path id="Trazado_3559" data-name="Trazado 3559" d="M2288.36,325.836a2.524,2.524,0,0,1,.558-.2l-.142-1.027s-1.682.324-4.187.847c1.006-.015,2,0,2.991.084A1.156,1.156,0,0,1,2288.36,325.836Z" fill="#5ea3a3"/>
      <path id="Trazado_3560" data-name="Trazado 3560" d="M2514.381,679.374a20.588,20.588,0,0,0,2.884-.169c5.5-.743,2.887-5.644.007-7.841-6.056-4.634-13.4-6.843-20.063-10.366-6.63,3.655-16.22,2.227-24.43.6l-.23-.047c-1.3-.226-2.488-.439-3.4-.605-.2,9.035,5.594,14.629,14.452,16.446h0a39.557,39.557,0,0,0,4.137.61c4.474.432,8.922.22,13.4.328,1.492.036,2.988.106,4.489.25C2508.469,678.85,2511.462,679.354,2514.381,679.374Z" fill="#5ea3a3"/>
      <path id="Trazado_3561" data-name="Trazado 3561" d="M2356.586,389.827q2.132-10.944,4.713-21.788c.225-.95.443-1.9.673-2.851a.511.511,0,0,1,.182-.257c.657-.557,2.815-.81,2.681-.256q-3.311,13.632-5.947,27.411c.439.287.561.788-.139,1.365-.045.037-.094.072-.139.109-3.771,19.976-6.534,40.154-8.534,60.368-2.212,22.358-3.879,44.96-3.225,67.444a1.4,1.4,0,0,1,.914.045c1.7.988,2.5,3.176,4.151,4.329,4.535,3.16,10.644,3.345,16.2,3.081l.027,0c.554-.121,1.061-.234,1.5-.335a35.349,35.349,0,0,1-.019-4.243c-.006-3.693.1-7.388.232-11.078q.522-15,1.348-30.006c-.676.029-1.181-.123-.806-.552a2.9,2.9,0,0,1,.871-.643q.219-4,.446-7.991c-.494-.125-.988-.25-1.479-.39-1.2-.34-.583-1.3.335-1.77a1.953,1.953,0,0,1,1.291-.225q1.768-29.312,4.346-58.553c1.1-12.641,2.563-25.079,4.75-37.58,1.965-11.23,4.032-22.493,6.938-33.525,1.4-5.3,2.722-12.291,6.047-17.186a3.223,3.223,0,0,0-3.742.39c-2.91,2.192-5.048,8.156-5.914,10.439a1.918,1.918,0,0,1-2.03.841c-.583-.1-1-.464-.738-1.138.05-.13.1-.266.154-.4-.041-.005-.082-.012-.122-.021a16.6,16.6,0,0,0-13.83,2.079c-7.61,4.743-13.153,14.605-17.807,21.557-4,5.974-8.433,12.258-14.208,16.488a29.415,29.415,0,0,1-2.563,1.683,8.575,8.575,0,0,1-4.087,1.916,23.834,23.834,0,0,1-5.86,1.348c-24.9,2.429-31.388-34.814-35.5-52.6a1.852,1.852,0,0,1-1.131.324c-10.468-.855-22.542,4.46-32.065,9.36a.809.809,0,0,1-.23.552,2.355,2.355,0,0,1-2.035.641c5.867,20.464,12.952,44.022,30.377,57.622,20.525,16.025,50.971,13.4,71.429-1.491q.988-.72,1.945-1.477C2356.181,391.848,2356.387,390.838,2356.586,389.827Z" fill="#5ea3a3"/>
      <path id="Trazado_3562" data-name="Trazado 3562" d="M2403.46,661.171h.667a4.1,4.1,0,0,0,2.049-.549c.46-.282.4-.6-.16-.6h-.667a4.07,4.07,0,0,0-2.049.549h0C2402.84,660.851,2402.9,661.169,2403.46,661.171Z" fill="#3d3d3d"/>
      <path id="Trazado_3563" data-name="Trazado 3563" d="M2586.05,650.307c.562-.431.776-1-.115-1.267-3.967-1.2-13.542,1.034-10.033,6.829,3.6,5.945,13.855,1.729,11.29-4.992A1.1,1.1,0,0,0,2586.05,650.307Zm-3,6.233h.005c-1.757,1.266-3.976-.809-4.729-2.3-1.7-3.377,3.848-4.031,5.886-3.413a1.187,1.187,0,0,0,.32.04.7.7,0,0,0-.243.789A4.011,4.011,0,0,1,2583.054,656.54Z" fill="#3d3d3d"/>
      <path id="Trazado_3564" data-name="Trazado 3564" d="M2264.292,310.868h0Z" fill="#3d3d3d"/>
      <path id="Trazado_3565" data-name="Trazado 3565" d="M2652.277,525.019h-20.444c.03-.4-.229-.763-.944-.871q-4.134-.624-8.3-1.091c1.216-2.118.378-7.332.365-9.275,0-.592-.007-1.187-.012-1.782.966-.4.848-1.206-.015-1.389-.016-1.313-.045-2.632-.1-3.952.9-.479,1.239-1.5-.069-1.472-.108-1.949-.286-3.892-.582-5.8,2.586.288,5.169.606,7.743.994,1.505.228,2.914-1.937.969-2.23-.6-.091-1.213-.171-1.819-.257.64-.622.524-1.691-.871-1.691h-5.26c.682-2.436.024-6.7.014-8.418,0-.592-.007-1.187-.012-1.782.966-.4.848-1.206-.015-1.389-.016-1.313-.045-2.632-.1-3.952.9-.479,1.238-1.5-.069-1.472-.109-1.949-.286-3.892-.582-5.8,2.586.288,5.169.606,7.743.994,1.505.228,2.915-1.937.969-2.23-.6-.091-1.213-.171-1.819-.257.641-.622.524-1.691-.871-1.691h-5.259c.681-2.436.022-6.7.013-8.418,0-.592-.007-1.187-.012-1.782.966-.4.848-1.206-.015-1.389-.016-1.313-.046-2.632-.1-3.952.9-.479,1.239-1.5-.069-1.472a56.578,56.578,0,0,0-.768-6.86h5.951c1.657,0,2.222-2.127.256-2.127h-25.767a15.311,15.311,0,0,0,2.583-1.537c9.47-7.063,7.053-24.058-2.953-29.055-4.634-2.315-9.958-2.041-14.8-.534a16.284,16.284,0,0,1,4.488-10.464c.823-.881-2.08-.679-2.689-.027a17.221,17.221,0,0,0-4.729,11.576c-.152.066-.308.128-.459.2-.8.355-5.831,2.889-7.271,4.766-8.322,1.609-8.246,16.32-4.477,21.668a9.991,9.991,0,0,0,4.826,3.412h-33.92a1.545,1.545,0,0,0-1.309.648c-6.687.857-11.086,6.344-11.587,13.2-.521,7.135,3.781,11.252,9.42,13.24-5.462,1.65-8.975,6.668-9.42,12.76-.521,7.135,3.781,11.252,9.42,13.24-5.462,1.65-8.975,6.668-9.42,12.76-.7,9.628,7.37,13.771,15.67,14.587,6.18.608,12.473-.123,18.646-.461,6.8-.372,13.639-.376,20.442-.418a333.864,333.864,0,0,1,33.916,1.258H2509.18c-.137-1.157-2.472-.8-2.85.13-1.083.412-2.115,1.688-.47,1.688h.4a98.435,98.435,0,0,1-.658,12.567.611.611,0,0,0,.275.631c-.873.527-1.436,1.469-.023,1.469h16.426c.29,48.507,12.5,96.051,12.658,144.578,0,.455.342.686.787.756-.176.389-.013.721.808.713a48.755,48.755,0,0,0,13.069-1.775v.307c0,1.34,2.915.77,2.912-.309-.019-5.671-.208-11.328-.517-16.975h59.844a2.676,2.676,0,0,0,1.67-.822c-.348,6.022-.557,12.057-.576,18.1,0,.487.387.721.878.77-.173.307.035.535,1,.369,4.065-.7,8.323-1.854,12.4-.683a1.352,1.352,0,0,0,.545-.007c.6.717,2.752.172,2.755-.758.159-48.428,12.314-95.871,12.653-144.27h8.018c1.02,0,2.5-1.314,1.709-1.706a.9.9,0,0,0,.3-.649q.012-6.333.01-12.668a.832.832,0,0,0-.241-.612C2653.278,525.435,2653.215,525.019,2652.277,525.019ZM2575.416,440.3c-2.76-2.548-3.063-6.975-2.777-10.443.154-1.873,1.077-7.133,3.258-8.625a2.183,2.183,0,0,1,1.01-.387,2.019,2.019,0,0,0,.218-.039,2.627,2.627,0,0,0,1.845-.519.589.589,0,0,0,.221-.743c-.025-.047.069-.152.252-.3a51.835,51.835,0,0,1,4.978-3.043,17.7,17.7,0,0,0,1.2,4.786c.3.736,1.986.421,2.655-.153.221-.189.332-.407.245-.624a17.226,17.226,0,0,1-1.236-5.372l0,0a17.743,17.743,0,0,1,7.907-.936c.284.031.565.074.847.12a14.4,14.4,0,0,1,7.891,3.9,14.662,14.662,0,0,1,3.951,9.078c0,.012,0,.025,0,.038a20.477,20.477,0,0,1-.668,7.463c0,.011,0,.022-.008.034a16.248,16.248,0,0,1-2.382,5.12c-.072.1-.159.194-.233.3-.3.406-.6.809-.938,1.187l0,.006c-1.8,1.933-4.478,2.758-7.289,3.065h-7.318l-.467-.029C2584.339,443.9,2578.683,443.314,2575.416,440.3Zm-40.3,25.045c-5.2-6.906-.62-18.385,8.259-18.365a1.5,1.5,0,0,0,1.293-.65h74.287a51.356,51.356,0,0,1,.842,7.145c-7.7.7-15.5.707-23.219.789q-6.675.074-13.351-.02-2.13-.031-4.255-.111c-.656-.025-2.311-.414-1.894,0-.749-.753-3.5.34-2.686,1.156.908.913,3.59.561,4.7.6,4.694.156,9.4.133,14.093.106,8.859-.049,17.845-.033,26.687-.885.053,1.288.084,2.573.113,3.853a98.859,98.859,0,0,1-12.064.643c-1.779.031-8.9.6-9.628-.139-.743-.758-3.495.331-2.686,1.156,1.707,1.739,8,.723,10.1.709a104.021,104.021,0,0,0,14.321-.77c.094,2.069.494,7.523.141,9.639H2613.4a405.024,405.024,0,0,0-48.729-.28c-1.188.054-2.483.159-3.845.28h-17.527A13.521,13.521,0,0,1,2535.116,465.343Zm0,26c-5.2-6.906-.62-18.385,8.259-18.365a1.541,1.541,0,0,0,1.173-.492c.418.059.837.114,1.257.155,5.379.53,10.845.044,16.242-.313h47.589c3.153.186,6.3.416,9.446.723a53.274,53.274,0,0,1,.715,6.422c-7.7.7-15.5.707-23.219.789q-6.675.074-13.351-.02-2.13-.031-4.255-.111c-.656-.025-2.311-.414-1.894,0-.749-.753-3.5.34-2.686,1.156.908.913,3.59.561,4.7.6,4.694.156,9.4.133,14.093.106,8.859-.049,17.845-.033,26.687-.885.053,1.288.084,2.573.113,3.853a98.859,98.859,0,0,1-12.064.643c-1.779.031-8.9.6-9.628-.139-.743-.758-3.495.331-2.686,1.156,1.707,1.739,8,.723,10.1.709a104.021,104.021,0,0,0,14.321-.77c.094,2.069.494,7.523.141,9.639H2613.4a405.024,405.024,0,0,0-48.729-.28c-1.188.054-2.483.159-3.845.28h-17.527A13.521,13.521,0,0,1,2535.116,491.343Zm29.558,30.58c-8.834.4-23.385,3.625-29.556-4.577-5.2-6.906-.62-18.385,8.259-18.365a1.541,1.541,0,0,0,1.173-.492c.418.059.837.114,1.257.155,5.379.53,10.845.044,16.242-.313h47.589c3.153.186,6.3.416,9.446.723a53.275,53.275,0,0,1,.715,6.422c-7.7.7-15.5.707-23.219.789q-6.675.073-13.351-.02-2.13-.031-4.255-.111c-.656-.025-2.311-.414-1.894,0-.749-.753-3.5.34-2.686,1.156.908.913,3.59.561,4.7.6,4.694.156,9.4.133,14.093.106,8.859-.049,17.845-.033,26.687-.885.053,1.288.084,2.573.113,3.853a98.846,98.846,0,0,1-12.064.643c-1.779.031-8.9.6-9.628-.139-.743-.758-3.495.331-2.686,1.156,1.707,1.739,8,.723,10.1.709a104.026,104.026,0,0,0,14.321-.77c.1,2.307.593,8.828-.012,10.229C2601.687,520.923,2582.986,521.095,2564.674,521.923Zm-39.469,19.582h11.752c.284,47.775,12.123,94.617,12.633,142.384a42.846,42.846,0,0,1-11.733,1.746m5.764-107.24a2.61,2.61,0,0,0-1.511.668c-1.267-12.478-2.149-24.986-2.238-37.559H2625.6c-.074,12.349-.919,24.635-2.143,36.891Zm79.665,1.739c-1.86,18.115-4.5,36.168-6.647,54.262h-65.684a2.384,2.384,0,0,0-1.932,1.264c-2.17-18.523-4.893-37-6.807-55.543a2.484,2.484,0,0,0,.3.018Zm-9.713,87.031h0a1.467,1.467,0,0,0-.618-.1h-60.667a1.456,1.456,0,0,0-.371.055c-.618-10.442-1.654-20.85-2.869-31.242.086.154.33.258.806.258h66.578C2615.224,646.456,2614.194,656.794,2613.573,667.165Zm14.054,17.739h0c-3.912-.582-7.9.286-11.785.975a.718.718,0,0,0,.018-.1c.117-35.791,6.786-71.043,10.4-106.541.221-.267.289-.529.07-.688,1.238-12.306,2.1-24.643,2.186-37.041h11.758C2639.984,589.616,2627.977,636.784,2627.627,684.9Zm14.783-145.218H2508.2a.931.931,0,0,0,.333-.564,96.609,96.609,0,0,0,.658-12.284H2650.27v12.54a.913.913,0,0,0,.054.309Z" fill="#3d3d3d"/>
      <path id="Trazado_3566" data-name="Trazado 3566" d="M2587.186,606.876v0a1.1,1.1,0,0,0-1.143-.569c.563-.431.778-1-.114-1.268-3.967-1.2-13.542,1.034-10.033,6.829C2579.5,617.813,2589.752,613.6,2587.186,606.876Zm-2.97-.053a1.187,1.187,0,0,0,.32.04.7.7,0,0,0-.243.789,4.015,4.015,0,0,1-1.233,4.889c-1.757,1.266-3.977-.809-4.729-2.3C2576.624,606.858,2582.173,606.2,2584.216,606.823Z" fill="#3d3d3d"/>
      <path id="Trazado_3567" data-name="Trazado 3567" d="M2512.982,665.839h0c-4.414-2.329-9.143-4.023-13.55-6.355q.45-.378.872-.8c.788.036,1.973-.324,2.218-.925.521-1.272-.765-3.8-1.147-4.952-1.418-4.291-3.044-8.516-4.633-12.744-4.635-12.341-9.352-24.65-13.688-37.1a269.968,269.968,0,0,1-9.682-35.09c-1.692-8.3-3.513-16.57-5.164-24.877-.227-1.139-2.571-10.717-1.564-11.272,1.361-.751.029-1.226-1.064-1.12a92.868,92.868,0,0,0,20.072-4.712c.283-.108,1.078-.58.868-1.015-3.569-7.369-5.235-16.1-7.422-23.934-4.3-15.416-8.313-30.915-12.193-46.441-3.954-15.822-7.752-31.689-11.172-47.637-1.608-7.5-3.669-15.373-4.647-23.187-.029-.229-.053-.458-.08-.688h0c.5.817,1.014,1.631,1.518,2.448q2.943,4.781,5.883,9.564l.077.125q2.067,3.357,4.144,6.711c7.486,12.05,15.145,23.324,28.647,29.147,24.706,10.652,56.459-5.014,72.171-25.034l.007-.01c.254-.324.5-.651.747-.978h0c.326-.432.654-.862.965-1.3.053-.073-.233-.111-.642-.1v-.018q-.268-.864-.547-1.723a1.513,1.513,0,0,0,.152.014c7.925.232,16.229-5.562,22.227-10.1,3.075-2.326,12.872-10.984,4-11.685.529-.433,1.072-.854,1.578-1.307,1.118-1,2.761-2.489,2.808-4.116.034-1.158-.964-1.688-2.032-1.95a14.577,14.577,0,0,0,2.2-2.724c1.151-1.885.35-3.781-1.384-4.893a3.628,3.628,0,0,0-2.538-.558c1.064-1.491,1.4-3.051.317-4.6-3.528-5.051-11.766.379-16.1,4.417,1.026-4.964.472-9.185-3.495-10.035-5.225-1.12-8.693,4.091-11.447,7.54a48.9,48.9,0,0,0-5.139,7.34c-2.213,4.165-2.691,8.318-2.791,12.809a27.892,27.892,0,0,0-2.758-2.069,2.52,2.52,0,0,0-2.5.712.962.962,0,0,0-.188-.121c-2.486-1.234-5.67,3.608-6.958,4.974-1.266,1.342-2.547,2.673-3.854,3.979-2.061,2.061-4.19,4.051-6.417,5.924a66.345,66.345,0,0,1-5.9,4.455c-3.115,2.072-6.786,3.939-10.61,3.938-4.39,0-6.97-3.438-9.144-6.749-6.963-10.606-14.121-21.093-21.645-31.31-13.906-18.883-28.96-38.263-54.838-38.042a10.92,10.92,0,0,0-2.157-7.942c-1.706-2.121-4.4-2.717-6.993-2.583a19.541,19.541,0,0,0-1.408-5.419c3.844,3.348,8.762,6.576,13.223,5.051,6.139-2.1,5.587-8.66,5.287-14.217,6.033,2.926,15.877,7.56,19.692.619,6.7-12.176-3.417-25.871-12.025-34.527,3.512.419,7.033,1.293,10.181-.852,4.149-2.827-1.121-9.1-3.069-11.367-7.7-8.938-20.956-9.592-32.154-9.16-4.536-12.863-20.961-13.667-32.411-11.261-10.516,2.21-17.729,9.078-22.5,17.714-8.507-.085-15.966,5.1-20.72,12.066-.874,1.281-3.269,5.646-.794,6.709,1.729.742,3.753.277,5.613-.461a65.108,65.108,0,0,0-6.317,19.907c-.84,6.126,2.073,8.159,6.753,6.579,1.21,3.332,1.384,7.006,3.042,10.157,1.721,3.271,5.9,3.188,9.032,2.875a4.327,4.327,0,0,0,1.481-.625,19.545,19.545,0,0,0,4.17,4.087c8.08,5.787,24.2-.548,29.651,7.583-6.031-2.3-10.241,4.833-12.571,10.216-25.425-6.377-32.8,30.85-49.614,41.707a22.841,22.841,0,0,1-9.711,3.807h-.008a14.712,14.712,0,0,1-6.366-.644l-.008,0c-16.089-5.338-23.141-37.939-26.291-51.477-.143-.609-.9-.741-1.6-.574h-.005a2.524,2.524,0,0,0-.558.2,1.156,1.156,0,0,0-.78-.3c-.988-.08-1.985-.1-2.991-.084-.012,0-.025,0-.037,0-1.229.017-2.47.087-3.721.226a.926.926,0,0,0,.37-.573c.924-6.708,9.258-24.144-1.254-27.427-5.129-1.6-10.574.967-14.285,4.948-.08-.124-.166-.245-.26-.366,5.787-22.676,11.225-45.451,15.119-68.539.17-1.008-2.735-.486-2.887.408-3.751,22.242-8.936,44.2-14.484,66.05-.574-.433-1.126-.815-1.541-1.134a79.4,79.4,0,0,1-7.177-5.655,1.1,1.1,0,0,0-.855-.177c.341-.328.331-.646-.574-.672-3.769-.111-9.288,1.057-8.568,5.936a8.245,8.245,0,0,0,1.274,3.242,2.287,2.287,0,0,0-1.433.929,1.313,1.313,0,0,0-1.458-.362c-4.077,1.027-6.188,4.121-4.354,8.131a10.982,10.982,0,0,0,.885,1.569c-6.336,3.622-1.262,11.808,4.666,12.854,2.841,3.129,4.608,7.02,6.531,10.769.1.2.205.4.309.6h-.008a2.357,2.357,0,0,0-1.423.4l-.007.005a.941.941,0,0,0-.456,1.027,251.1,251.1,0,0,0,9.538,28.535,109.463,109.463,0,0,0,5.572,11.426c4.875,8.6,11.066,16.293,19.339,22.1,20.935,14.705,51.8,10.69,72-3.717-3.493,18.906-6.094,37.98-8.066,57.1-2.365,22.929-4.067,46.156-3.385,69.223.007.212.538.25,1.144.161,2.152,1.286,3.206,3.89,5.56,5.2a21.652,21.652,0,0,0,8.68,2.387c.151.013.3.023.455.035.386.028.771.052,1.158.069-2.286,18.417,2.664,37.189,8.158,54.615,8.375,26.558,19.834,52.145,31.18,77.532a.588.588,0,0,0,.207.238c-8.2,5.428-18.186,7.676-26.036,13.779-2.017,1.566-4.309,4.01-2.838,6.652,1.062,1.906,6.655,1.729,8.347,1.863,11.479.922,22.98-.566,34.38-1.632.475-.044.948-.089,1.423-.132a23.453,23.453,0,0,0,2.7-.41c3.752-.8,7.729-2.6,9.752-5.736,3.724-5.773,1.021-12.439-1.7-18.064a.549.549,0,0,0-.386-.27,32.094,32.094,0,0,0,3.529-1.909c.006.021.012.041.017.062.307,1.2,3.206.431,2.9-.777-5.915-23.2-15.8-45.211-20.651-68.7a154.19,154.19,0,0,1-2.887-32.43q.048-6.189.616-12.362c.135-1.483-.015-4.956.938-6.218a1.694,1.694,0,0,0,.161-.258c4.514,5.121,8.51,10.17,11.668,16.6,8.625,17.56,14.156,36.936,20.93,55.268q6.72,18.192,14.1,36.146c.765,1.857,3.653,11.84,6.9,15.048-.629.319-1,.7-.2.834.678.109,1.391.237,2.131.378-1.628,23.189,27.207,18.975,42.261,20.449,4.526.443,17.969,1.326,14.378-7.17C2521.371,669.913,2516.226,667.552,2512.982,665.839Zm42.206-282.3v0c.011-7.076,1.026-12.682,5.135-18.441,1.666-2.338,8.223-12.927,11.221-8.043,2.1,3.43.231,9.127-.8,12.6-1.28,4.307-3.271,9.828-6.8,12.83-1.18,1.006,1.7.68,2.254.211,2.223-1.894,6.25-8.9,8.248-15.506a2.3,2.3,0,0,0,1.308-.568,24.292,24.292,0,0,1,6.618-5.357c1.215-.73,2.93-1.738,4.411-1.507a2.82,2.82,0,0,1,2.224,2.9c-.26,1.961-2.564,3.67-4.391,4.92a1.53,1.53,0,0,0-.446.3c-.274.186-.533.361-.763.522a47.539,47.539,0,0,0-5.5,3.945c-1.231,1.16,1.634,1.13,2.324.479a49.086,49.086,0,0,1,4.92-3.382,1.787,1.787,0,0,0,.906-.117c1.724-.7,4.6-3.75,6.215-1.715.992,1.25-.994,3.078-1.791,3.813a33.994,33.994,0,0,1-10.735,6.253c-1.848.711-.22,2.406,1.313,1.816a39.464,39.464,0,0,0,9.769-5.191c2.52.889-1.309,4.037-2.662,5.137a51.506,51.506,0,0,1-9.008,5.86c-1.787.909-.141,1.9,1.158,1.238a58.048,58.048,0,0,0,8.547-5.31c6.141.855-1.564,7.827-3.723,9.631-4.713,3.939-12.65,10.014-19.126,9.824a5.645,5.645,0,0,0-2.146.816c-2.108-6.434-4.727-12.513-9.231-17.318C2554.961,384.023,2555.187,383.8,2555.188,383.542Zm-136.779-65.079a5.76,5.76,0,0,1,.7.137,5.945,5.945,0,0,1,2.208,1.015c2.769,2.042,3.744,6.359,3.152,10.048a.264.264,0,0,0,.055.22c.331.406,1.965.139,2.58-.358a44.31,44.31,0,0,1,26.418,8.607c12.56,8.832,22.064,22.975,30.839,35.232,3.682,5.141,7.259,10.355,10.8,15.6,3.129,4.631,5.823,10.442,10.1,14.129a10.08,10.08,0,0,0,1.641,1.154c.023.013.047.023.07.035.261.144.525.279.793.4.1.045.207.078.31.12.192.077.383.158.579.223s.376.11.565.161c.115.032.229.071.344.1,3.374.8,7.1.007,10.359-1.288,6.361-2.527,11.818-7.444,16.7-12.1,2.271-2.166,4.435-4.442,6.585-6.729.731-.777,1.461-1.558,2.2-2.325a6,6,0,0,1,.814-.746l.008-.007a1.742,1.742,0,0,1-1.613-.045l-.008,0h0a2.543,2.543,0,0,0,2.081-.4,1.523,1.523,0,0,0,.461-.43.879.879,0,0,0,.1.083,29.6,29.6,0,0,1,10.266,12.224,75.324,75.324,0,0,1,4.106,10.8.571.571,0,0,0,.343.348l0,0c-11.4,15.709-31.066,27.574-50.42,28.085-.057,0-.114,0-.171,0a44.266,44.266,0,0,1-18.577-3.487l-.079-.031a43.131,43.131,0,0,1-9.272-5.456c-9.584-7.387-15.437-18.676-21.672-28.8q-4.284-6.953-8.562-13.911c-.866-1.4-1.69-3.04-2.665-4.494,0-.274-.018-.55-.021-.823,0-.537-.536-.729-1.144-.7-.083-.093-.161-.191-.246-.28-.263-.273-1.194.008-1.476.082l-.024.007c-.84.221-1.205.53-1.153.728s.516.286,1.341.072c-.07.018-.117.027-.18.042-.675.165-.99.182-1.042.267s.166.266.522.8c.184.277.358.562.536.842.326,9.431,2.862,19.043,4.79,28.19,3.415,16.2,7.293,32.31,11.291,48.378q5.828,23.421,12.232,46.7c2.187,7.888,3.886,16.657,7.377,24.143h0c-7,2.477-14.78,3.487-22.056,4.489-2.406.331-5.065.725-7.82,1.033-.059.007-.117.01-.175.018a55.34,55.34,0,0,1-12.766.177c-.058-.006-.117-.007-.175-.013a27.813,27.813,0,0,1-2.981-.555c-.017,0-.032-.011-.048-.015a20.43,20.43,0,0,1-3.974-1.411c.047-.116.087-.24.124-.365l0-.006c.5-1.678.252-4.17.313-5.283.355-6.477.532-12.965.712-19.447q.765-27.486.821-54.989a515.621,515.621,0,0,0-14.512-120.838c-.648-2.717-1.347-5.422-2.069-8.119-.074-.277-.145-.555-.22-.832a.581.581,0,0,0-.121-.223C2418.4,318.589,2418.408,318.523,2418.409,318.463Zm-1.532-69.013c9.155-.4,19.724-.158,27.5,5.1a20.761,20.761,0,0,1,7.322,9.68c1.434,4.533-9.454,1.984-11.668,2.131-.94.063-2.181,1.024-1.241,1.912,8.807,8.315,16.77,18.389,14.8,31.258-1.5,9.789-13.76,2.23-18.854-.083-.687-.313-2.32.146-2.3,1.091.078,4.158,1.3,9.7-1.248,13.336-3.285,4.69-13.126-4.779-15.457-7.084a1.377,1.377,0,0,0-1-.333,20.192,20.192,0,0,1-1.647-6.456c-.081-1.441,3.233-2.886,4.275-3.781,2.123-1.824,3.609-4.637,4.787-7.109,2.225-4.668,1.125-11.071-5.026-11.436a11.8,11.8,0,0,0-6.206,1.2c-2-.043-4-.137-5.994-.239-5.894-8.812.49-27.42,10.864-28.633A1.807,1.807,0,0,0,2416.877,249.45Zm-8.485,31.418a7.923,7.923,0,0,0-.482.668,9.52,9.52,0,0,1-1.04-.741Q2407.632,280.837,2408.392,280.868Zm-30.665-40.039c10.715-6.76,32.116-6.665,37.337,6.879a1.461,1.461,0,0,0-.354.381c-11.052,2.553-18.564,20.287-13.4,30.385-.921-.033-1.842-.064-2.765-.072a1.711,1.711,0,0,0-.378.041,22.742,22.742,0,0,0-.6-3.006c-2.279-8.17-13.148-6.254-19.458-6.17a2.352,2.352,0,0,0-.591.138c-.146,0-.3.011-.473.028h-.1l-.007.011c-.688.086-1.444.309-1.648.669a12.788,12.788,0,0,0-1.633,6.487h-3.324a16.339,16.339,0,0,0-1.3-7.131c-.113-.256-.554-.291-1.058-.209a71.513,71.513,0,0,0-7.993-.066C2362.463,257.814,2367.967,246.985,2377.727,240.829Zm17.757,40.347a19,19,0,0,1-.076,3.975C2395.457,284.051,2395.5,282.657,2395.484,281.176Zm-6.662,7.792a15.14,15.14,0,0,1-3.137-.8c2.554-4.6,5.438-9.029,8.433-13.361.016.031.036.055.052.086a15.5,15.5,0,0,1,1.029,3.868C2392.951,282.087,2390.794,285.479,2388.822,288.968Zm5.335-.658a2.294,2.294,0,0,1-1.118.632A9.739,9.739,0,0,0,2394.157,288.31Zm-12.624-2.465a14.4,14.4,0,0,1-2.369-2.359c1.86-4.267,3.813-8.5,5.6-12.8a1.632,1.632,0,0,1,.339-.509,18.856,18.856,0,0,1,2.721.319,1.291,1.291,0,0,1-.034,1.023C2385.791,276.331,2383.586,281.06,2381.533,285.845Zm-17.053,5.929a3.807,3.807,0,0,0,3.08,2.477c-3.467.353-6.532,1.486-8.242,3.736a62.491,62.491,0,0,1-.842-7.78c.592-.1,1.138-.216,1.579-.333a14.741,14.741,0,0,0,4.474-1.973A6.755,6.755,0,0,0,2364.48,291.774Zm-1-5.066h0a8.661,8.661,0,0,1-3.646,2,117.855,117.855,0,0,0,3.078-18.459c1.126.066,2.2.164,3.126.193A109.861,109.861,0,0,1,2363.479,286.708Zm-3.75-16.34c.009-.043.018-.087.026-.131a18.539,18.539,0,0,1,2.014-.039Zm-9.376,26.672h0c-.271-.648-1.91-.039-2.3.154-6.981,3.5-3.561-9.656-2.768-12.51a71.059,71.059,0,0,1,5.547-14.5c.377-.7-2.1-.081-2.279.008-6,2.943-5.388-1.33-3.233-4.891,3.465-5.726,10.406-10.613,17.154-10.268a63.7,63.7,0,0,0-5.23,14.625,9.039,9.039,0,0,0-5.625,4.03c-2.164,3.479-2.94,13.6,1,16.1a5.413,5.413,0,0,0,2.561.648c.293,7.3,1.853,14.535,5.636,19.883C2351.659,311.118,2352.963,303.284,2350.353,297.04Zm6.622-26.17a81.321,81.321,0,0,0-1.833,17.852c-2.58-1.137-2.148-7.994-2.03-9.891a14.955,14.955,0,0,1,1.37-5.65,4.72,4.72,0,0,1,2.492-2.311Zm3.951,32.192h0a.668.668,0,0,0-.074-.048c-1.186-10.553,13.8-7.631,19.6-4.8a6.889,6.889,0,0,1,3.738,3.911c1.785,5.122-8.238,2.1-9.056,1.919a13.085,13.085,0,0,0-4.5-.631C2367.248,303.884,2363.884,305.763,2360.926,303.062Zm32.956,14.79h0c-3.67-2.466-8.937-1.911-13.1-1.788-6.5.191-12.479-.589-16.7-6.079a20.671,20.671,0,0,1-2.388-4.012,7.46,7.46,0,0,0,3.44.043c3.492-.807,5.6-1.182,9.1-.353a33.787,33.787,0,0,0,5.592,1.022c5.749.371,9.84-5.108,4.4-8.908-2.77-1.936-8.033-3.448-13.134-3.633.908-.569,1.027-1.813-.55-1.707-4.4.291-3.6-4.125-2.272-6.881a.63.63,0,0,0-.4-.984,14.729,14.729,0,0,0,2.313-6.316h2.652a3.22,3.22,0,0,0,.914-.145,14.42,14.42,0,0,0,2.93,7.07c3.881,4.989,11.44,6.059,17.247,4.566,3.766-.968,4.615-5.314,4.418-9.291,1.443.014,2.886.069,4.327.137a12.183,12.183,0,0,0,5.391,3.818c1.248.459,3.4-1.332,1.669-1.969-.157-.058-.3-.133-.449-.2a1.718,1.718,0,0,0,1.046-.566,6.04,6.04,0,0,1,.495-.749c.313.006.624.022.937.024,1.2.01,1.843-1.1,1.32-1.688a5.922,5.922,0,0,1,6.932,3.129c1.153,2.209.1,5.092-.739,7.209a18.3,18.3,0,0,1-8,9.067c-2.137,1.3-.723,4.858-.32,6.644,1.026,4.554,4,8.05,4.488,12.559-.4.328-.516.676.054.713,0,.119.01.238.012.357-6.158.432-9.065,4.986-10.34,10.266-1.772.143-3.536.426-5.313.535a15.5,15.5,0,0,0-1.676-6.855c.019-.018.034-.037.052-.056.655-.643.122-.924-.613-.944A12.8,12.8,0,0,0,2393.882,317.852Zm6.963,90.453q-1.3,17.466-2.681,34.928-.267,3.372-.536,6.746c-.066.824-1.877,3.33-2.508,4.422-1.979,3.419-4,6.814-6.126,10.145v0a71.653,71.653,0,0,1-4.177-6.526c-.845-1.3-2.08-4.055-3.516-5.486a4.378,4.378,0,0,0-.579-.495l0,0c.1-1.008.01-2.14.063-3.055h0q.515-8.946,1.08-17.885c.792-12.709,3.234-25.3,5.958-37.721,2.58-11.764,5.646-23.417,8.835-35.028,1.478-5.374,4.206-11.51,4.531-17.136a7.244,7.244,0,0,0,1.8-.371,7.826,7.826,0,0,0,1.992-1.017h0c.321,8.438-.62,17.06-1.141,25.462-.3,4.8-.631,9.6-.958,14.4q-.484,7.107-.989,14.214Q2401.372,401.1,2400.845,408.3Zm4-77.565a39.11,39.11,0,0,0-.572,6.641.79.79,0,0,0,.058.3.776.776,0,0,0,.231.341h0a14.5,14.5,0,0,1-1.584,1.665,4.933,4.933,0,0,1-.516.367,1.3,1.3,0,0,1-.254-.082,4.252,4.252,0,0,1-1.732-2.091c-.044-.111-.1-.217-.133-.333a17.2,17.2,0,0,1-1.145-6.236c1.934-.152,4-.5,5.65-.578Zm-8.519-5.464v-.005a16.9,16.9,0,0,1,.623,4.813.648.648,0,0,0,.162.444c-.015.019-.037.028-.051.048a.4.4,0,0,0-.063.463c-.408.156-.711.361-.709.6.023,2.9.371,6.761,2.589,8.883.037.035.081.057.119.09-.4.191-.7.473-.713.8-.276,5.328-2.854,11.145-4.261,16.238-3.172,11.49-6.182,23.024-8.806,34.653a264.641,264.641,0,0,0-6.185,37.884c-.468,6.116-.764,12.25-1.119,18.373-.065,1.128.051,2.535-.093,3.77a.829.829,0,0,0-.071.105,2.043,2.043,0,0,0-.119,1.138c.081.522.623.614,1.215.5.054-.011.1-.015.16-.028a15.776,15.776,0,0,1,1.906,2.807c.7,1.23,1.3,2.457,1.745,3.133,1.37,2.1,2.609,4.715,4.37,6.527a1.028,1.028,0,0,0,.578.268c-.2.875,2.315.63,2.822-.141,2.389-3.632,4.615-7.365,6.811-11.115.84-1.434,3.148-4.067,3.286-5.789q.234-2.9.463-5.808,1.383-17.472,2.687-34.946c1.1-14.676,2.152-29.354,3.07-44.042.552-8.83,1.537-17.886,1.109-26.743-.014-.292-.271-.443-.625-.489q.306-.357.6-.729c.175-.221-.245-.253-.624-.241.069-5.894.879-15.5,8.39-15.81a1.985,1.985,0,0,0,.351-.052,480.3,480.3,0,0,1,16.473,121.9q.042,14.208-.158,28.417c-.945.159-3.111.519-5.8.934-6.885.77-13.822,1.188-20.73,1.484-3,.129-6.073.263-9.172.331-4.094-.068-8.365-.146-11.754-.211a68.366,68.366,0,0,1-9.99-1.4q.671-10.931,1.418-21.858c2.144-31.361,4.694-62.228,10.956-93.072,1.4-6.892,2.964-13.755,4.9-20.516C2393.116,333.3,2394.191,328.723,2396.326,325.276Zm33.937,155.63a49.689,49.689,0,0,1-7.839,1.643C2425.528,481.964,2428.268,481.366,2430.263,480.906ZM2247.329,296.069c.386-2.131,2.7-2.143,4.427-2.093-.15.169-.189.34-.038.486,2.757,2.669,6.073,4.671,9.017,7.118a14.9,14.9,0,0,1,1.668,1.516c-.259,1.012-.514,2.025-.773,3.037a.373.373,0,0,0-.007.169,15.883,15.883,0,0,1-5,.067,13.115,13.115,0,0,1-8.409-6.3A5.993,5.993,0,0,1,2247.329,296.069Zm-4,8.164h0a1.327,1.327,0,0,0,1.1-.938,1.1,1.1,0,0,0,.189.125,32.405,32.405,0,0,1,8.006,5.6,8.454,8.454,0,0,1,2.343,3.534c.576,1.979-1.9,2.572-3.3,2.907-3.611.867-7.121-1.569-9.285-4.242C2240.429,308.807,2239.576,305.18,2243.332,304.233Zm1.89,18.573h0c-3.436-.415-8.615-6.649-4.544-9.164a13.416,13.416,0,0,0,1.723,1.523c-.949.617-1.06,1.979.539,1.811C2246.07,316.647,2249.684,323.344,2245.222,322.806Zm2.271,1.784h0c3.346-1.141,3.218-4.45,1.427-6.9.175.014.35.031.523.035,3.47.09,9.633-1.789,8.305-6.354a9.225,9.225,0,0,0-2.115-3.529,22.611,22.611,0,0,0,6.756-.413,14.768,14.768,0,0,0-.773,1.982.538.538,0,0,0,.251.556,9.2,9.2,0,0,0-.944,3.357c-.435,2.271-.727,4.572-1.054,6.861-.13.906-.264,1.813-.412,2.717-.055.332-.118.66-.185.99-.135.667-.418.619.231.256-1.709.955.849,1.42,1.8.887,1.556-.869,1.4-4.787,1.609-6.252.254-1.781.51-3.563.817-5.334.126-.727.273-1.446.441-2.162.033-.142.08-.279.12-.417-.34.467-.953.745-1.9-.37a1.44,1.44,0,0,0,1.35.212c.183.053.365.114.549.156h0a12.243,12.243,0,0,0,7.377-.906c1.865-.75.182-1.962-1.2-1.4q-7.11,1.473-5.025-1.781a14.737,14.737,0,0,1,1.033-1.67,16.7,16.7,0,0,1,4.76-4.452c4.047-2.7,9.272-1.808,10.637,3.261,1.82,6.766-2.675,14.833-3.594,21.5a.57.57,0,0,0,.251.587,77.606,77.606,0,0,0-19.4,6.417c-1.914.882-3.77,1.794-5.552,2.7-.1-.183-.19-.367-.286-.551C2251.529,331.144,2249.908,327.583,2247.493,324.59Zm106.551,69.748c-20.458,14.9-50.9,17.516-71.429,1.491-17.425-13.6-24.51-37.158-30.377-57.622v0a2.362,2.362,0,0,0,2.036-.638.809.809,0,0,0,.23-.552h0c9.523-4.9,21.6-10.218,32.068-9.362a1.851,1.851,0,0,0,1.131-.324c4.111,17.786,10.6,55.029,35.5,52.6a23.832,23.832,0,0,0,5.86-1.348,25.392,25.392,0,0,0,4.087-1.916,29.328,29.328,0,0,0,2.559-1.68c5.775-4.23,10.207-10.514,14.208-16.488,4.654-6.952,10.2-16.814,17.807-21.557a16.6,16.6,0,0,1,13.834-2.082,1.229,1.229,0,0,0,.122.021l-.154.4c-.257.675.154,1.041.734,1.141a1.918,1.918,0,0,0,2.03-.841c.866-2.283,3-8.247,5.914-10.439a3.224,3.224,0,0,1,3.746-.393c-3.325,4.9-4.65,11.883-6.047,17.186-2.906,11.032-4.974,22.3-6.938,33.525-2.188,12.5-3.655,24.939-4.75,37.58q-2.532,29.226-4.346,58.557h0a1.953,1.953,0,0,0-1.291.225c-.915.467-1.53,1.429-.331,1.767.491.14.985.265,1.479.39q-.234,4-.446,7.992l0,0a2.913,2.913,0,0,0-.465.28,2.82,2.82,0,0,0-.4.36c-.375.429.13.581.806.552q-.807,15-1.348,30.006c-.128,3.69-.238,7.385-.232,11.078a35.048,35.048,0,0,0,.022,4.24c.011.088.03.171.044.258-.512.03-1.029.059-1.551.083l-.027,0c-5.559.264-11.668.079-16.2-3.081-1.656-1.153-2.45-3.341-4.151-4.329a1.4,1.4,0,0,0-.914-.045c-.654-22.484,1.013-45.086,3.225-67.444,2-20.214,4.763-40.392,8.534-60.368.045-.037.094-.072.139-.109.7-.577.578-1.078.139-1.365q2.637-13.779,5.947-27.411c.134-.554-2.024-.3-2.681.256a.507.507,0,0,0-.178.254c-.232.95-.45,1.9-.677,2.854q-2.582,10.845-4.713,21.788c-.2,1.01-.4,2.019-.593,3.031Q2355.035,393.617,2354.044,394.338Zm67.679,286.147-.01.005c-4.6,2.034-11.178,1.394-15.658,1.889-3.478.384-6.9.748-10.311,1a91.247,91.247,0,0,1-16.861-.128c-10.478-1.16-.156-8.34,4.189-10.682,6.455-3.479,13.68-5.773,19.795-9.852v0a.948.948,0,0,0,.261-.232,84.4,84.4,0,0,0,12.814-.879,41.308,41.308,0,0,0,7.676-1.961v.014c.037.076.074.154.111.232l0,.008c2.311,4.785,4.5,10.042,2.8,15.368h0c-.027.088-.066.17-.1.257-.085.246-.175.487-.282.721-.052.116-.113.226-.171.339-.1.2-.209.4-.326.585-.05.081-.1.16-.156.239A8.228,8.228,0,0,1,2421.723,680.485Zm46.534-21.451h0l-.5-.1a1.479,1.479,0,0,0-1.668-.419c1.313-.468,1.489.382.791-.733-.38-.6-.688-1.259-1.006-1.9-.879-1.764-1.668-3.573-2.459-5.377-2.27-5.18-4.381-10.432-6.48-15.682-4.274-10.688-8-21.629-12.424-32.248-7.429-17.815-11.927-36.742-20.811-53.965-3.063-5.938-7.3-10.881-11.893-15.668a44.1,44.1,0,0,1-10.952-19.4c-.3-1.087-3.2-.3-2.9.777a43.683,43.683,0,0,0,9.727,18.26q1.116,1.233,2.2,2.443a2.018,2.018,0,0,0-1.667.564c-2.628,3.479-1.832,11.336-1.992,15.365a161.543,161.543,0,0,0,1.851,31.995c4.025,25.06,14.965,48.346,21.338,72.8a2.978,2.978,0,0,0-.978.313c-7.5,5.244-16.318,5.3-25.08,5.309a1.234,1.234,0,0,0-.227.033c-10.937-24.473-21.791-49.1-30.206-74.57-5.919-17.916-11.365-37.571-9.115-56.618,2.139-.024,4.244-.155,6.217-.283.55.831,3.165.018,2.832-.892-.9-2.434-.338-5.93-.3-8.439.09-6.11.356-12.219.634-18.322q.435-9.585.991-19.164c2.5.086,16.188.581,26.6,1.486a53.068,53.068,0,0,0,9.236-.209c7.479.043,15.076-.438,22.074-2.68q-.147,8.13-.337,16.259c-.175,7.271-.379,14.541-.692,21.808-.093,2.172-.2,4.346-.351,6.515q-.069.993-.173,1.986c-.119,1.113-.416.872.306.475-.366.208-.513.431-.509.632-.115.212-.067.424.26.594,8.079,4.189,19.3,2.51,27.928,1.513,2.226-.257,4.5-.532,6.781-.851a1.649,1.649,0,0,0-.469.161c-1.817,1-.992,4.212-.783,5.8.9,6.813,2.565,13.559,3.979,20.275,2.943,13.985,5.7,27.658,10.215,41.234,4.354,13.1,9.289,25.994,14.163,38.9,1.78,4.712,3.567,9.423,5.249,14.171.442,1.249,2.134,4.493,2.08,6.294a2.59,2.59,0,0,0-1.316.52,9.874,9.874,0,0,1-3.351,2.536h-.007a13.888,13.888,0,0,1-3.33,1.079l-.036.01c-6.959,1.367-16.313-1.115-22.886-2.478A1.414,1.414,0,0,0,2468.257,659.034Zm37.375,19.546c-1.5-.144-2.994-.214-4.485-.25-4.479-.108-8.927.1-13.4-.328a39.658,39.658,0,0,1-4.141-.61c-8.858-1.816-14.65-7.41-14.456-16.441v-.09c1.095.224,2.234.458,3.4.69l.23.047c8.21,1.627,17.8,3.055,24.43-.6,6.662,3.523,14.007,5.732,20.063,10.366,2.88,2.2,5.49,7.1-.007,7.841a20.588,20.588,0,0,1-2.884.169C2511.461,679.355,2508.467,678.85,2505.632,678.58Z" fill="#3d3d3d"/>
      <path id="Trazado_3568" data-name="Trazado 3568" d="M2586.044,556.307v0c.563-.431.778-1-.114-1.268-3.967-1.2-13.542,1.034-10.033,6.829,3.6,5.945,13.855,1.729,11.29-4.992A1.1,1.1,0,0,0,2586.044,556.307Zm-2.99,6.233v0c-1.757,1.266-3.976-.809-4.729-2.3-1.7-3.377,3.848-4.031,5.886-3.413a1.189,1.189,0,0,0,.32.04.7.7,0,0,0-.243.789A4.012,4.012,0,0,1,2583.054,562.54Z" fill="#3d3d3d"/>
      <path id="Trazado_3569" data-name="Trazado 3569" d="M2410.28,286.518a3.4,3.4,0,0,0,1.938-.694c.438-.4,1.046-.585,1.5-1,.495-.452-.435-.506-.688-.485a3.378,3.378,0,0,0-1.938.694c-.438.4-1.046.585-1.5,1C2409.1,286.485,2410.026,286.539,2410.28,286.518Z" fill="#3d3d3d"/>
    </g>
    <rect id="Rectángulo_4542" data-name="Rectángulo 4542" width="600" height="600" transform="translate(734 2899)" fill="none"/>
  </g>
</svg>
