<svg xmlns="http://www.w3.org/2000/svg" width="600" height="600" viewBox="0 0 600 600">
  <g id="Ilustración_-_Creación_de_Usuario_1" data-name="Ilustración - Creación de Usuario 1" transform="translate(-134 -2899)">
    <g id="Ilustración_-_Creación_de_Usuario_1-2" data-name="Ilustración - Creación de Usuario 1" transform="translate(-1904.545 2607.051)">
      <path id="Trazado_3570" data-name="Trazado 3570" d="M2283.95,634.651h0a25.005,25.005,0,0,1-1.914,1.955A25.194,25.194,0,0,0,2283.95,634.651Z" fill="#fff"/>
      <path id="Trazado_3571" data-name="Trazado 3571" d="M2209.352,771.261c1.288-3.071,2.49-6.147,3.5-9.047,1.369-3.938,3.531-12.677,5.987-23.477q.589-2.139,1.2-4.253c7.262-25.185,10.257-51.358,16.415-76.8a.261.261,0,0,0-.007-.141l-.009,0a.258.258,0,0,1,.007.146c-6.158,25.442-9.153,51.615-16.415,76.8q-.61,2.115-1.2,4.253c-3,10.756-5.785,21.846-9.483,32.523a122.891,122.891,0,0,1-10.9,23.922h0A123,123,0,0,0,2209.352,771.261Z" fill="#fff"/>
      <path id="Trazado_3572" data-name="Trazado 3572" d="M2310.112,662.51c.525,1.857,1.061,3.767,1.6,5.713Q2310.938,665.36,2310.112,662.51Z" fill="#fff"/>
      <path id="Trazado_3573" data-name="Trazado 3573" d="M2498.023,510.4h0c12.058,2.506,13.986-16.586,12.86-26.04-2.69,2.447-5.576,4.765-7.654,7.751-.675.973-2.846.733-2.66-.364a.656.656,0,0,1-.4-.259,18.161,18.161,0,0,1-2.508-8.494c-2.264,2.979-3.27,6.738-4.436,10.283-.3.922-2.376,1.327-2.852.761a.48.48,0,0,1-.306-.228c-1.854-3.767-5.56-6.488-9.26-8.824,2.409,9.575,4.485,26,15.311,26.572A1.7,1.7,0,0,1,2498.023,510.4Z" fill="#fff"/>
      <path id="Trazado_3574" data-name="Trazado 3574" d="M2259.238,573.562a.88.88,0,0,0,.723.383.876.876,0,0,1-.715-.382.77.77,0,0,1-.171-.255c-6.939-18.043-14.145-36.044-27.707-50.091l0,.007c13.56,14.046,20.759,32.044,27.7,50.083A.77.77,0,0,0,2259.238,573.562Z" fill="#fff"/>
      <path id="Trazado_3575" data-name="Trazado 3575" d="M2287.186,612.95h0a.374.374,0,0,1-.088-.144,4.741,4.741,0,0,0-3.124-2.093c.069,7.6.7,15.026,2.99,22.317v.021l1.085-.074a2.2,2.2,0,0,1,1.417-.932C2289.356,626.985,2290.1,617.37,2287.186,612.95Z" fill="#fff"/>
      <path id="Trazado_3576" data-name="Trazado 3576" d="M2331.046,583.114c.029.356.051.713.084,1.068.065.7.133,1.407.215,2.109.009.084.011.2.018.324a2.5,2.5,0,0,1,.7-.185,15.832,15.832,0,0,1,2.256-.691,17.833,17.833,0,0,1,3.377-.7,2.876,2.876,0,0,1,.6.03c6.983-4,13.168-9.932,18.206-16.114,3.638-4.465,8.82-10.9,8.828-17.216-10.227,10.9-19.706,22.6-32.2,31.007A4.879,4.879,0,0,1,2331.046,583.114Z" fill="#fff"/>
      <path id="Trazado_3577" data-name="Trazado 3577" d="M2232.5,517.509c-.153.829-.307,1.658-.474,2.485a79.306,79.306,0,0,1,5.789,6.23l.006.008,1.018.647,1.112,1.991.008.009c9.737,12.6,15.775,27.5,21.543,42.469.058.153.118.307.177.459h0c-.06-.152-.119-.3-.176-.457,1.909-.17,4.93-.4,7.934-.457l.015,0c3.718-.754,7.207-2.18,8.927-5.2-2.627-16.134-7.25-37.062-21.009-47.415C2253.535,527.92,2239.842,521.031,2232.5,517.509Z" fill="#fff"/>
      <path id="Trazado_3578" data-name="Trazado 3578" d="M2290.784,607.741c1.188-1.644,2.36-3.335,3.572-4.991,9.042-14.354,5.63-33.073-.28-48.213a203.257,203.257,0,0,0-14.51-29.019c-4.924-8.383-12.635-10.292-21.538-9.894l-.257.009a.6.6,0,0,1,.087.074c.189.119.379.249.563.373-.136-.155-.271-.307-.4-.452,8.9-.4,16.614,1.511,21.538,9.894a203.309,203.309,0,0,1,14.51,29.019c5.91,15.14,9.323,33.859.281,48.213-1.214,1.656-2.385,3.347-3.573,4.991-1.3,1.061-2.338,1.819-2.874,2.2l0,0a5.982,5.982,0,0,1,.782.59c.709-.9,1.4-1.838,2.092-2.793Z" fill="#fff"/>
      <path id="Trazado_3579" data-name="Trazado 3579" d="M2281.01,609.77l0,0a2.223,2.223,0,0,1,1.2-.664,7.3,7.3,0,0,1,.727-.142c-.246.036-.492.083-.735.143A2.218,2.218,0,0,0,2281.01,609.77Z" fill="#fff"/>
      <path id="Trazado_3580" data-name="Trazado 3580" d="M2279.222,519.067l.827,1.88.009.013c6.676,8.9,11.783,20.057,15.918,30.29,4.651,11.51,8.206,25.059,6.284,37.493l0,.029c-.01.7-.033,1.4-.077,2.107a13.833,13.833,0,0,1-1.128,4.464c-.171.137-.344.27-.511.413v0c.168-.144.342-.278.514-.416a17.7,17.7,0,0,1,7.1-3.532c4.353-4.3,9.648-8.979,16.039-9.275h.012a12.633,12.633,0,0,1,3.187-2.162c-4.478-10.255-4.022-21.974-.167-32.4a.941.941,0,0,1-.551-.23c-13.058-12.983-28.556-26.542-47.45-28.675Z" fill="#fff"/>
      <path id="Trazado_3581" data-name="Trazado 3581" d="M2339.768,561.838a1.73,1.73,0,0,1-.379-.122c-.3-.148-.6-.307-.885-.475q.048,1.716.064,3.43A25.587,25.587,0,0,1,2339.768,561.838Z" fill="#fff"/>
      <path id="Trazado_3582" data-name="Trazado 3582" d="M2412.314,408.331c-3.038,2.674-6.283,5.239-8.585,8.529-.774,1.107-3.493.64-2.431-.879.067-.1.144-.183.212-.276a18.454,18.454,0,0,1-2.359-8.319,29.366,29.366,0,0,0-4.988,9.6c.1.182.207.361.3.549.229.466-1.737,1.253-2.573,1.01-.576-.01-1-.23-.835-.727.03-.09.063-.179.094-.268-1.956-3.376-5.4-5.888-8.844-8.063,2.47,9.817,4.588,26.838,16.149,26.589a1.62,1.62,0,0,1,1.07-.177C2411.875,438.459,2413.577,417.638,2412.314,408.331Z" fill="#fff"/>
      <path id="Trazado_3583" data-name="Trazado 3583" d="M2487.75,695.584c.66.035.922.3.933.639h6.459a1.158,1.158,0,0,1,.208-.279c3.046-3.156,7.287-4.608,10.563-7.449a9.15,9.15,0,0,0,3.568-6.168c.157-2.429-.257-6.354-2.434-7.92-3.7-2.66-4.235,5.344-4.774,6.779a8.691,8.691,0,0,1-2.662,4.115c-2.361,1.814-4.457.622-4.987-1.914-.041-.021-.067-.045-.063-.076.006-.052.012-.1.019-.155-.005-.032-.014-.063-.019-.1a.587.587,0,0,1,.075-.382,52.216,52.216,0,0,0,.506-7.951c-.038-1.189-.788-9.657-3.9-6.482-4.845,4.95,2.941,14.3-3.631,18.208a3.269,3.269,0,0,1-.878.247,1.863,1.863,0,0,1-.346.071c-.047,0-.094,0-.142,0-.75.088-1.427.058-1.009-.27-3.05-1.638-5.763-10.06-7.779-8.443-6.532,5.242,4.118,17.193,10.294,17.528Z" fill="#fff"/>
      <path id="Trazado_3584" data-name="Trazado 3584" d="M2200.682,404.952q1.2.105,2.384.312Q2201.883,405.057,2200.682,404.952Z" fill="#fff"/>
      <path id="Trazado_3585" data-name="Trazado 3585" d="M2464.1,636.545a.482.482,0,0,1,.021.178c20.048-.021,40.089-.694,60.137-.743,4.718-15.414,7.418-31.527,10.073-47.393,1.711-10.225,4.136-20.831,4.711-31.214-10.916.017-21.832.225-32.747.236-.407,0-.624-.063-.716-.159-18.834.068-37.667.156-56.5.159h-.039c.23,3.578.653,7.18,1.2,10.783.272.094.371.272.116.558l-.022.024c.666,4.293,1.469,8.58,2.248,12.825.384.113.538.366.145.791.333,1.818.66,3.632.963,5.429,2.748,16.251,5.477,32.765,10.415,48.524Zm6.584-13.269c0,1.132-2.917,1.673-2.917.289v-6.5c0-1.132,2.917-1.673,2.917-.289Zm4.224.256c0,.862-2.9,1.294-2.9.777v-7.5c0-.862,2.9-1.294,2.9-.777Zm-4.1-26.5c-.58,0-.625-.381-.181-.671a3.8,3.8,0,0,1,2.05-.55h4.233c.577,0,.625.382.18.672a3.8,3.8,0,0,1-2.049.55Zm7.476,13.5c0,.862-2.9,1.294-2.9.777v-7.5c0-.862,2.9-1.294,2.9-.777Zm.941-18.51a2.128,2.128,0,0,1-1.9.842h-4.7c-.554,0-1.17-.454-.837-1.045a2.121,2.121,0,0,1,1.9-.842h4.7C2478.942,590.977,2479.559,591.431,2479.225,592.022Zm-3.652-6.991c0,.863-2.9,1.294-2.9.779v-7.5c0-.862,2.9-1.294,2.9-.777v7.5Zm1.323.036v-6.5c0-1.132,2.917-1.673,2.917-.289v6.5C2479.813,585.91,2476.9,586.451,2476.9,585.067Zm2.711,25.5v-6.5c0-1.132,2.917-1.673,2.917-.289v6.5h0C2482.523,611.409,2479.606,611.948,2479.607,610.565Zm.73,11.293a3.8,3.8,0,0,1,2.049-.55h4.233c.58,0,.625.381.18.671a3.8,3.8,0,0,1-2.049.55h-4.233C2479.937,622.529,2479.892,622.148,2480.337,621.858Zm2.84,10.418c0,1.132-2.917,1.673-2.917.289v-6.5h0c0-1.132,2.917-1.673,2.912-.289Zm4.225.256c0,.862-2.9,1.294-2.9.777v-7.5h.006c0-.862,2.9-1.294,2.9-.777Zm1.532-15.011a2.127,2.127,0,0,1-1.9.842h-4.7c-.553,0-1.169-.454-.836-1.045a2.12,2.12,0,0,1,1.9-.842h4.7C2488.651,616.477,2489.268,616.931,2488.934,617.521Zm.659-14.044h4.7c.555,0,1.171.454.838,1.045a2.128,2.128,0,0,1-1.9.842h-4.7c-.554,0-1.17-.454-.837-1.045A2.123,2.123,0,0,1,2489.593,603.477Zm-.959-4.669v-7.5c0-.862,2.9-1.294,2.9-.777v7.5C2491.534,598.894,2488.637,599.325,2488.634,598.808Zm4.945-15.326a3.8,3.8,0,0,1-2.049.55H2487.3c-.58,0-.625-.381-.18-.671a3.8,3.8,0,0,1,2.049-.55h4.232l0,0C2493.978,582.809,2494.023,583.191,2493.579,583.482Zm-1.157-4.459a2.129,2.129,0,0,1-1.9.842h-4.7c-.554,0-1.17-.454-.837-1.045a2.121,2.121,0,0,1,1.9-.842h4.7C2492.142,577.977,2492.758,578.431,2492.422,579.023Zm-5.11,12.253v6.5c0,1.132-2.918,1.673-2.918.289v-6.5C2484.394,590.433,2487.312,589.892,2487.312,591.276Zm2.519,17.584a3.79,3.79,0,0,1,2.049-.55h4.233c.58,0,.625.381.179.671h0a3.82,3.82,0,0,1-2.046.55h-4.234C2489.431,609.531,2489.385,609.15,2489.831,608.86Zm5.846,6.916v6.5c0,1.132-2.917,1.673-2.917.289v-6.5h0C2492.765,614.933,2495.682,614.392,2495.677,615.776Zm3.448,15.205a3.8,3.8,0,0,1-2.048.55h-4.233c-.58,0-.625-.381-.18-.671a3.79,3.79,0,0,1,2.049-.55h4.236C2499.523,630.309,2499.573,630.691,2499.125,630.981Zm2.135-4.459a2.125,2.125,0,0,1-1.9.842h-4.7c-.555,0-1.171-.454-.838-1.045a2.124,2.124,0,0,1,1.9-.842h4.7C2500.979,625.477,2501.6,625.931,2501.26,626.522Zm-1.355-3.991c0,.863-2.9,1.294-2.9.777v-7.5c0-.862,2.9-1.294,2.9-.777v7.5Zm-2.759-25.5c-.579,0-.625-.381-.179-.671a3.788,3.788,0,0,1,2.049-.55h4.233c.575,0,.624.382.18.672a3.8,3.8,0,0,1-2.049.55Zm4.765-12c0,.863-2.9,1.294-2.9.778v-7.5c0-.862,2.9-1.294,2.9-.777v7.5Zm-1.888,5.946h4.7c.554,0,1.17.454.837,1.045a2.128,2.128,0,0,1-1.9.842h-4.7c-.554,0-1.169-.454-.836-1.045A2.12,2.12,0,0,1,2500.023,590.977Zm6.129-6.2c0,1.132-2.918,1.673-2.918.289v-6.5h0c0-1.132,2.918-1.673,2.916-.288Zm2.712,19v6.5c0,1.132-2.918,1.673-2.918.289v-6.5C2505.946,602.933,2508.864,602.392,2508.864,603.776Zm-4.24,6.756c0,.862-2.9,1.294-2.9.777v-7.5c0-.862,2.9-1.294,2.9-.777Zm4.053,22.244c0,1.132-2.917,1.673-2.917.289v-6.5h0c0-1.132,2.917-1.673,2.912-.289Zm-3.16-11.245c-.58,0-.625-.381-.181-.671a3.8,3.8,0,0,1,2.049-.55h4.234c.577,0,.625.382.18.672a3.8,3.8,0,0,1-2.049.55Zm7.385,11.5c0,.862-2.9,1.294-2.9.777v-7.5h.006c0-.862,2.9-1.294,2.9-.777Zm1.032-16.51a2.128,2.128,0,0,1-1.9.842h-4.7c-.553,0-1.169-.454-.836-1.045a2.12,2.12,0,0,1,1.9-.842h4.7C2513.651,615.477,2514.268,615.931,2513.934,616.522Zm1.041-25.213c0-.862,2.9-1.294,2.9-.776v7.5c0,.862-2.9,1.294-2.9.777v-7.5Zm2.894-7.277h-4.234c-.579,0-.625-.381-.179-.671a3.8,3.8,0,0,1,2.049-.55h4.233l0,0c.575,0,.624.382.177.673A3.8,3.8,0,0,1,2517.869,584.032Zm.891-5.009a2.128,2.128,0,0,1-1.9.842h-4.7c-.555,0-1.17-.454-.837-1.045a2.121,2.121,0,0,1,1.9-.842h4.7C2518.479,577.977,2519.1,578.431,2518.76,579.023Zm-5.108,12.254v6.5c0,1.132-2.917,1.673-2.917.289v-6.5h0C2510.731,590.433,2513.648,589.892,2513.652,591.277Zm1.157,14.042a2.12,2.12,0,0,1,1.9-.842h4.7c.554,0,1.17.454.837,1.045h0a2.133,2.133,0,0,1-1.9.842h-4.7C2515.092,606.364,2514.476,605.91,2514.809,605.319Zm5.093,18.213c0,.862-2.9,1.294-2.9.777v-7.5h.006c0-.862,2.9-1.294,2.9-.777Zm-2.781-13c-.58,0-.625-.381-.181-.671a3.8,3.8,0,0,1,2.05-.55h4.234c.573,0,.621.382.179.672a3.8,3.8,0,0,1-2.049.55Zm7.281,13c0,.862-2.9,1.294-2.9.777v-7.5h.006c0-.862,2.9-1.294,2.9-.777Zm5.365-27.051a3.8,3.8,0,0,1-2.049.55h-4.233c-.58,0-.625-.381-.18-.671a3.788,3.788,0,0,1,2.049-.55h4.233C2530.164,595.809,2530.212,596.191,2529.767,596.481Zm2.138-4.459a2.128,2.128,0,0,1-1.9.842h-4.7c-.555,0-1.17-.454-.837-1.045a2.121,2.121,0,0,1,1.9-.842h4.7C2531.619,590.977,2532.235,591.431,2531.905,592.022Zm-3.656-6.991c0,.863-2.9,1.294-2.9.778v-7.5c0-.862,2.9-1.294,2.9-.777v7.5Zm4.241-.254c0,1.132-2.917,1.673-2.917.289v-6.5h0c0-1.132,2.917-1.673,2.915-.288Zm-76.366-16.995h75.5v0c1.937,0-.375,1.281-1.224,1.283h-75.5C2452.966,569.063,2455.277,567.782,2456.124,567.782Zm9.067,16.251h-4.233c-.58,0-.625-.381-.179-.671a3.79,3.79,0,0,1,2.049-.55h4.233l0,0c.577,0,.624.382.177.674A3.8,3.8,0,0,1,2465.191,584.033Zm.007,6.5v7.5c0,.862-2.9,1.294-2.9.777v-7.5h0C2462.3,590.447,2465.2,590.015,2465.2,590.533Zm.886-11.511a2.129,2.129,0,0,1-1.9.844h-4.7c-.554,0-1.169-.454-.836-1.045a2.121,2.121,0,0,1,1.9-.842h4.7c.554,0,1.17.454.837,1.045Zm-5.111,18.755c0,1.132-2.917,1.673-2.917.289v-6.5h0c0-1.132,2.917-1.673,2.917-.288Zm.383,6.542a2.124,2.124,0,0,1,1.9-.842h4.7c.554,0,1.169.454.836,1.045a2.13,2.13,0,0,1-1.9.842h-4.7C2461.64,605.364,2461.023,604.91,2461.356,604.319Zm2.313,5.212c-.579,0-.625-.381-.179-.671a3.8,3.8,0,0,1,2.049-.55h4.232c.581,0,.625.381.181.671a3.821,3.821,0,0,1-2.049.55Z" fill="#fff"/>
      <path id="Trazado_3586" data-name="Trazado 3586" d="M2211.465,433.05c.029-.079.063-.155.093-.234a3.693,3.693,0,0,1-.48.206h0C2211.229,433.032,2211.356,433.042,2211.465,433.05Z" fill="#fff"/>
      <path id="Trazado_3587" data-name="Trazado 3587" d="M2254.017,650.041q2.794-1.146,5.551-2.381h0Q2256.811,648.894,2254.017,650.041Z" fill="#fff"/>
      <path id="Trazado_3588" data-name="Trazado 3588" d="M2225.677,420.506a.961.961,0,0,0,.792.328l.233.448c.025.445.054.89.1,1.337h0c-.046-.448-.076-.894-.1-1.34-.01-.148-.026-.3-.036-.446h-.2a.961.961,0,0,1-.793-.328c-5.267-7.7-13.538-13.659-22.611-15.241C2212.139,406.846,2220.41,412.806,2225.677,420.506Z" fill="#fff"/>
      <path id="Trazado_3589" data-name="Trazado 3589" d="M2234.721,418.739a35.5,35.5,0,0,0-4.894,4.159,43.72,43.72,0,0,1-.345-6.135h0a43.874,43.874,0,0,0,.346,6.138A35.538,35.538,0,0,1,2234.721,418.739Z" fill="#fff"/>
      <path id="Trazado_3590" data-name="Trazado 3590" d="M2226.265,541.093l0,0a54.816,54.816,0,0,1,3.481,4.9A54.705,54.705,0,0,0,2226.265,541.093Z" fill="#fff"/>
      <path id="Trazado_3591" data-name="Trazado 3591" d="M2233.49,415.263a5.3,5.3,0,0,0-3.818,1.376c-.009.007-.02.012-.03.019l.031-.019A5.306,5.306,0,0,1,2233.49,415.263Z" fill="#fff"/>
      <path id="Trazado_3592" data-name="Trazado 3592" d="M2509.413,697.621h-21.907a1.719,1.719,0,0,1-.735.139,8.969,8.969,0,0,1-1.107-.139h-15.6a175.924,175.924,0,0,0,6.812,35.609c5.967.019,11.935.1,17.9.168a2.206,2.206,0,0,1,.758-.176c2.579.028,5.153.144,7.728.207a176.122,176.122,0,0,0,6.763-35.935A1.987,1.987,0,0,1,2509.413,697.621Zm-33.1,11.454c-.016-2.336-.232-4.664-.25-7-.008-1.08,2.9-1.651,2.911-.309.019,2.336.235,4.664.25,7h.005C2479.224,709.846,2476.317,710.416,2476.308,709.075Zm2.255,17.233c-.466-2.5-.564-5.045-1.25-7.5-.288-1.039,2.608-1.824,2.9-.777h0c.685,2.457.784,5,1.25,7.5C2481.663,726.624,2478.755,727.337,2478.563,726.308Z" fill="#fff"/>
      <path id="Trazado_3593" data-name="Trazado 3593" d="M2409.938,639.1c-.076,4.553-.409,9.1-.463,13.648h159.41a85.811,85.811,0,0,1-.824-13.648Z" fill="#fff"/>
      <path id="Trazado_3594" data-name="Trazado 3594" d="M2223.63,424.217c.762.03,1.532.037,2.315.006a2.464,2.464,0,0,0,1.008-.345c.041.311.065.619.111.931.035.226.35.314.76.307-7.558,9.062-10.713,21.414-11.789,33.407v0l0,0c1.076-11.994,4.231-24.347,11.789-33.41-.411.008-.725-.081-.759-.307-.048-.312-.072-.62-.112-.931a2.482,2.482,0,0,1-1.008.345c-.783.031-1.553.024-2.315-.006a14.157,14.157,0,0,0-5.711,2.525A14.143,14.143,0,0,1,2223.63,424.217Z" fill="#fff"/>
      <path id="Trazado_3595" data-name="Trazado 3595" d="M2460.816,483.373c-2.1,2.82-4.466,5.5-5.916,8.721a1.249,1.249,0,0,1-.525.547c-.593.545-2.088.911-2.571.393a17.909,17.909,0,0,1-3.969-7.671,26.733,26.733,0,0,0-3.752,10.493c-.145.983-2.3,1.459-2.814.755a.754.754,0,0,1-.617-.183c-2.26-3.005-5.631-4.733-9.1-6.138,4.076,8.684,9.417,25.465,20.092,23.552-.015-.611,1.016-1.525,1.926-1.51h0C2466.008,512.551,2463.716,491.958,2460.816,483.373Z" fill="#fff"/>
      <path id="Trazado_3596" data-name="Trazado 3596" d="M2341.884,607.56c-.082-1.22-.153-2.673-.293-4.2a.341.341,0,0,1-.025-.237c-.42-4.358-1.441-9.271-4.94-11.215-.364-.2-.394-.452-.239-.693a.751.751,0,0,1-.314-.4,12.53,12.53,0,0,1-.5-3.671c-.116.03-.229.06-.35.089-.532.131-1.063.265-1.588.426l-.148.045v3.09c0,.612-.77,1.041-1.52,1.122-2.773,3.809-2.661,9.767-2.548,14.175.14,5.366.833,10.693,1.022,16.054.2,5.577-1.758,16.543,8.04,13.462,3.8-1.194,2.72-6.009,3.335-9.031a.6.6,0,0,1,.028-.074.537.537,0,0,1-.033-.168h0C2341.856,620.075,2342.3,613.817,2341.884,607.56Z" fill="#fff"/>
      <path id="Trazado_3597" data-name="Trazado 3597" d="M2238.563,414.869a25.468,25.468,0,0,0,1.121-3.142,25.468,25.468,0,0,1-1.121,3.142Z" fill="#fff"/>
      <path id="Trazado_3598" data-name="Trazado 3598" d="M2402.6,529.39c-.3-.04-.512-.126-.508-.266-5.67-3.006-11.821-5.637-16.869-9.664-9.155,7.693-18.231,15.6-26.882,23.853-6.964,6.639-16.372,14.9-17.875,24.936-.091.6-1.12,1.02-1.93,1.031-.062,2.619-.2,5.237-.447,7.855,9.865-8.286,18.045-18.438,26.992-27.731-.007-.031-.008-.063-.016-.1-.169-.732.665-1.293,1.484-1.418.874-.889,1.753-1.77,2.646-2.636.521-.506,3.3-.815,2.636-.17-1.29,1.252-2.553,2.533-3.806,3.827,1.474,7.5-4.617,15.5-9.12,20.843-5.715,6.777-12.415,13.224-20.262,17.478-.048.026-.1.043-.145.064a10.629,10.629,0,0,0,.463,2.734.678.678,0,0,1-.006.436c3.883,2.2,5.063,7.37,5.523,12.008,14.091,14.436,38.01,1.184,43.674-15.484,3.194-9.4,5.019-19.144,7.653-28.7,2.559-9.279,5.625-18.521,6.26-28.185.019-.258.273-.492.619-.672l-.034-.013Z" fill="#fff"/>
      <path id="Trazado_3599" data-name="Trazado 3599" d="M2240.358,416.664a53.927,53.927,0,0,1,5.837-2.878,32.854,32.854,0,0,0-5.707,2.652C2240.449,416.513,2240.4,416.587,2240.358,416.664Z" fill="#fff"/>
      <path id="Trazado_3600" data-name="Trazado 3600" d="M2539.542,511.74c10.725,5.833,17.935-11.773,19.581-21.028-3.63,1.5-7.6,2.505-10.714,4.883-1.156.883-3.495-.155-1.93-1.352.065-.05.136-.089.2-.138a19.142,19.142,0,0,1,.349-9.112c-3.223,1.992-5.476,5.22-7.649,8.28,0,.007-.013.014-.019.021-.09.754-2.782,1.336-2.892.686-.721-4.271-3.517-7.985-6.426-11.35-.562,10.058-3.053,26.009,7.282,29.549A2.355,2.355,0,0,1,2539.542,511.74Z" fill="#fff"/>
      <path id="Trazado_3601" data-name="Trazado 3601" d="M2240.585,395.541c-.153-2.215-.332-4.453-.436-6.716h0C2240.253,391.088,2240.432,393.326,2240.585,395.541Z" fill="#fff"/>
      <path id="Trazado_3602" data-name="Trazado 3602" d="M2281.086,611.9l-.3-.213h0c.1-.033.2-.063.3-.1h0a2.57,2.57,0,0,1-.291.1,1.776,1.776,0,0,1-1.408,0c-8.33-5.3-18.163-7.767-28.057-8.738a120.976,120.976,0,0,0-12.568-.535c-.511,0-1.023.026-1.535.034a141.581,141.581,0,0,0-38.977,5.824c-1.754.534-2.188-1.167-.454-1.7,2.656-.809,5.355-1.509,8.071-2.154,2.061-9.028,7.111-16.984,12.726-24.246.529-.685,3.068-.773,2.86-.5-5.58,7.217-10.6,15.117-12.688,24.073a144.767,144.767,0,0,1,28-3.164,24.155,24.155,0,0,0,5.234-11.738,35.451,35.451,0,0,0,.5-6.043,49.889,49.889,0,0,0-3.421-17.527,114.572,114.572,0,0,0-8.6-18.151l-.007-.011c-1.8-2.354-3.365-4.264-4.39-5.471-5.707,16.5-13.1,34.991-27.491,45.676-8.915,6.62-19.965,10.651-31.12,10.316a.433.433,0,0,1-.008.079c-7.225,22.221-6.232,53.4,20.4,61.677a50.446,50.446,0,0,0,5,1.251c.593-.112,1.188-.22,1.79-.3.935-.131,1.285.306,1.229.822,13.163,1.883,27.065-.9,39.644-4.632v-.307l24.053-8.554.02-.008h0c.476-.215.953-.425,1.428-.645,7.4-3.428,16.86-7.214,21.666-14.057a1.873,1.873,0,0,1,.992-.513,77.322,77.322,0,0,1-2.591-20.543Zm-38.595-29.1h0l0,.018a35.043,35.043,0,0,1-.5,6.025c.181-1.844.355-3.877.5-6.025Zm-5.647,20.082.374-.436v0c.506-.008,1.023-.035,1.535-.036a120.961,120.961,0,0,1,12.568.535C2243.772,602.678,2236.844,602.878,2236.844,602.878Z" fill="#fff"/>
      <path id="Trazado_3603" data-name="Trazado 3603" d="M2229.558,414.793c.068-.039.14-.065.209-.1-.069.036-.141.062-.209.1Z" fill="#fff"/>
      <path id="Trazado_3604" data-name="Trazado 3604" d="M2240.085,410.145c1.058-4.758.844-9.621.5-14.6C2240.929,400.524,2241.143,405.387,2240.085,410.145Z" fill="#fff"/>
      <path id="Trazado_3605" data-name="Trazado 3605" d="M2330.824,580.789h0c.217-.159.086-.045.092.253s.02.568.037.853c.013.209.034.418.049.627,1.517-1.025,2.982-2.108,4.415-3.225a.738.738,0,0,1-.367-.762c1.364-13.014.1-26.023-.925-39.012-7.258,12.048-9.554,27.465-3.658,40.508a.557.557,0,0,1,.038.353C2330.824,580.415,2331.2,580.516,2330.824,580.789Z" fill="#fff"/>
      <path id="Trazado_3606" data-name="Trazado 3606" d="M2328.414,586.715q-.134-1.236-.24-2.477a11.252,11.252,0,0,1-.2-2.686c-.109.076-.224.145-.331.225a14.856,14.856,0,0,0-1.553,1.317,2.392,2.392,0,0,1-.9.519,1.775,1.775,0,0,1-1.352.69c-5.281.245-9.687,4.486-13.285,8.056.984,3.543-1.516,5.827-2.414,9.091-1.5,5.464,7.777.064,9.333-.638a18.8,18.8,0,0,1,3.26-1.151c.028-.039.048-.076.083-.118,2.387-2.859,5.545-6.226,5.25-10.235-.079-1.066,1.789-1.709,2.566-1.281l.071-.066a.376.376,0,0,1-.142-.1A3.272,3.272,0,0,1,2328.414,586.715Z" fill="#fff"/>
      <path id="Trazado_3607" data-name="Trazado 3607" d="M2294.349,602.754c9.042-14.354,5.629-33.073-.281-48.213a203.309,203.309,0,0,0-14.51-29.019c-4.924-8.383-12.635-10.292-21.538-9.894.13.145.265.3.4.452l.031.021c15.076,9.9,20.045,31.763,22.8,48.575a.637.637,0,0,1,.152.89v0a.011.011,0,0,1-.006.009c.025.15.051.3.075.454.05.318-.317.607-.806.81-4.083,6.009-13.773,6.558-20.28,7.106a2.216,2.216,0,0,1-.425,0,.88.88,0,0,1-.723-.383.77.77,0,0,1-.171-.255c-6.942-18.039-14.141-36.037-27.7-50.083a154.453,154.453,0,0,1-4.1,14.893,62.132,62.132,0,0,1,6.872,10.254,96.111,96.111,0,0,1,8.665,18.458c3.418,10.784,4.378,24.668-3.5,33.74.659,0,1.32-.018,1.979-.008,13.557.2,27.958,1.98,39.726,9.209a2.218,2.218,0,0,1,1.2-.66c.243-.06.489-.107.735-.143a7.633,7.633,0,0,1,4.961.975c.536-.378,1.578-1.136,2.874-2.2C2291.964,606.1,2293.135,604.41,2294.349,602.754Z" fill="#5ea3a3"/>
      <path id="Trazado_3608" data-name="Trazado 3608" d="M2278.352,518.968a14.61,14.61,0,0,1,1.375,1.532c.11.144.212.3.322.447l-.827-1.88C2278.932,519.036,2278.643,519,2278.352,518.968Z" fill="#5ea3a3"/>
      <path id="Trazado_3609" data-name="Trazado 3609" d="M2302.179,590.879c.044-.708.067-1.41.077-2.107a39.037,39.037,0,0,1-1.716,6.984c.167-.143.34-.276.511-.413A13.833,13.833,0,0,0,2302.179,590.879Z" fill="#5ea3a3"/>
      <path id="Trazado_3610" data-name="Trazado 3610" d="M2237.218,602.444v0l-.374.436s6.928-.2,14.477.065a120.961,120.961,0,0,0-12.568-.535C2238.241,602.409,2237.724,602.436,2237.218,602.444Z" fill="#5ea3a3"/>
      <path id="Trazado_3611" data-name="Trazado 3611" d="M2237.826,526.232c.728.868,1.441,1.746,2.13,2.638l-1.112-1.991Z" fill="#5ea3a3"/>
      <path id="Trazado_3612" data-name="Trazado 3612" d="M2261.684,571.807a64.2,64.2,0,0,0,7.758-.914c-3,.059-6.025.287-7.934.457C2261.565,571.5,2261.624,571.655,2261.684,571.807Z" fill="#5ea3a3"/>
      <path id="Trazado_3613" data-name="Trazado 3613" d="M2220.729,423.952a8.558,8.558,0,0,0-1.22.559c.428-.193.864-.375,1.328-.541C2220.8,423.966,2220.766,423.956,2220.729,423.952Z" fill="#5ea3a3"/>
      <path id="Trazado_3614" data-name="Trazado 3614" d="M2221.844,411.879s-.167-.1-.459-.258q.3.25.588.507Z" fill="#5ea3a3"/>
      <path id="Trazado_3615" data-name="Trazado 3615" d="M2320.515,713.734a303.784,303.784,0,0,0-8.184-43.246c-.2-.757-.412-1.51-.617-2.265-.541-1.946-1.077-3.856-1.6-5.713-.218-.751-.428-1.5-.651-2.253q-3.531-11.844-7.9-23.439a.476.476,0,0,1,.178-.506,32.391,32.391,0,0,1-11.543-1.742,8.848,8.848,0,0,1-6.072.154,1.489,1.489,0,0,1-.174-.073,25.194,25.194,0,0,1-1.915,1.955c-4.74,4.353-11.23,7.256-16.8,9.9a193.59,193.59,0,0,1-24.847,9.843c-1.3.406-2.614.807-3.941,1.2a.261.261,0,0,1,.007.141c-6.158,25.442-9.153,51.615-16.415,76.8q-.61,2.115-1.2,4.253c-2.456,10.8-4.618,19.539-5.987,23.477-1.01,2.9-2.212,5.976-3.5,9.047a123,123,0,0,1-10.9,23.928h0l0,.006a1.247,1.247,0,0,1-.59.421c-.638,1.232-1.01,1.93-1.01,1.93l120.265,1.329a.392.392,0,0,1-.046-.242C2320.779,770.377,2323.742,742.2,2320.515,713.734Z" fill="#5ea3a3"/>
      <path id="Trazado_3616" data-name="Trazado 3616" d="M2229.744,545.993a54.816,54.816,0,0,0-3.481-4.9c-.061.177-.124.355-.185.532l0,0c1.025,1.207,2.594,3.117,4.39,5.471C2230.237,546.725,2229.981,546.365,2229.744,545.993Z" fill="#5ea3a3"/>
      <path id="Trazado_3617" data-name="Trazado 3617" d="M2226.8,422.619c-.045-.447-.074-.892-.1-1.337l-.233-.448a.961.961,0,0,1-.792-.328c-5.267-7.7-13.538-13.66-22.611-15.242q-1.183-.207-2.384-.312a26.486,26.486,0,0,0-8.5.622C2202.781,412.836,2213.107,423.024,2226.8,422.619Z" fill="#5ea3a3"/>
      <path id="Trazado_3618" data-name="Trazado 3618" d="M2242.491,582.8v.018l0-.018Z" fill="#5ea3a3"/>
      <path id="Trazado_3619" data-name="Trazado 3619" d="M2227.064,424.809c-.046-.312-.07-.62-.111-.931a2.464,2.464,0,0,1-1.008.345c-.783.031-1.553.024-2.315-.006a14.143,14.143,0,0,0-5.707,2.522c-8.08,6.207-5,20.682-1.888,31.784,1.076-11.993,4.231-24.345,11.789-33.407C2227.414,425.123,2227.1,425.035,2227.064,424.809Z" fill="#5ea3a3"/>
      <path id="Trazado_3620" data-name="Trazado 3620" d="M2259.588,647.652h0Z" fill="#5ea3a3"/>
      <path id="Trazado_3621" data-name="Trazado 3621" d="M2259.568,647.66l.02-.008-.02.008Z" fill="#5ea3a3"/>
      <path id="Trazado_3622" data-name="Trazado 3622" d="M2234.721,418.739c.277-.2.55-.4.834-.587.562-.373,1.138-.737,1.722-1.1a.6.6,0,0,1-.11-.074,5.32,5.32,0,0,0-7.494-.339l-.031.019c-.051.038-.107.071-.16.105a43.72,43.72,0,0,0,.345,6.135A35.5,35.5,0,0,1,2234.721,418.739Z" fill="#5ea3a3"/>
      <path id="Trazado_3623" data-name="Trazado 3623" d="M2280.787,611.682l.3.213c0-.105,0-.211,0-.316-.1.04-.2.07-.3.1Z" fill="#5ea3a3"/>
      <path id="Trazado_3624" data-name="Trazado 3624" d="M2235.515,656.214v.307h0c.458-.136.917-.27,1.371-.407q8.708-2.622,17.128-6.073,2.794-1.146,5.551-2.381Z" fill="#5ea3a3"/>
      <path id="Trazado_3625" data-name="Trazado 3625" d="M2242.49,582.814c-.143,2.148-.317,4.181-.5,6.025A35.043,35.043,0,0,0,2242.49,582.814Z" fill="#5ea3a3"/>
      <path id="Trazado_3626" data-name="Trazado 3626" d="M2229.558,414.793c.068-.039.14-.065.209-.1a8.978,8.978,0,0,1,8.8.177,25.468,25.468,0,0,0,1.121-3.142q.226-.789.4-1.582c1.058-4.758.844-9.621.5-14.6-.153-2.215-.332-4.453-.437-6.716A44.441,44.441,0,0,0,2229.558,414.793Z" fill="#5ea3a3"/>
      <line id="Línea_3" data-name="Línea 3" x2="0.003" transform="translate(2531.064 590.977)" fill="none" stroke="#3d3d3d" stroke-linecap="round" stroke-linejoin="round"/>
      <path id="Trazado_3627" data-name="Trazado 3627" d="M2462.3,591.309h0v7.5c0,.517,2.9.085,2.9-.777v-7.5C2465.2,590.015,2462.3,590.447,2462.3,591.309Z" fill="#3d3d3d"/>
      <path id="Trazado_3628" data-name="Trazado 3628" d="M2467.063,582.809l0,0h-4.233a3.79,3.79,0,0,0-2.049.55c-.446.29-.4.671.179.671h4.233a3.8,3.8,0,0,0,2.049-.55C2467.687,583.191,2467.64,582.809,2467.063,582.809Z" fill="#3d3d3d"/>
      <path id="Trazado_3629" data-name="Trazado 3629" d="M2570.962,638.037c0-.244-.447-.319-.989-.265a2.825,2.825,0,0,0-.355-.022h-75.929q4.928-.087,9.855-.167a2,2,0,0,0,.522.054c6.622-.018,13.241-.229,19.862-.258.243.668,2.62.258,2.9-.623,4.938-15.759,7.667-32.273,10.409-48.527.206-1.219.423-2.445.643-3.674,3.812,3.224,10.537,7.539,13.882,2.881,5.108-7.116-6.47-14.645-10.415-19.074a.886.886,0,0,0-.592-.246c.569-3.806,1.014-7.611,1.214-11.383.024-.394-.282-.591-.7-.647a1.377,1.377,0,0,0-.649-.108q-6.3.009-12.6.021a.577.577,0,0,0,.037-.09c.392-1.629.808-3.252,1.208-4.878a1.906,1.906,0,0,0,1.113-.667c9.951,1.869,23.392-5.749,25.273-15.91.234-1.268-2.708-.813-2.914.3-1.587,8.574-13.046,15.789-21.487,13.689a.13.13,0,0,0-.055-.008,21.024,21.024,0,0,1,18.824-11.547c1.019.017,3.111-1.505,1.154-1.539a26.159,26.159,0,0,0-20.359,9.449q3.92-15.355,8.5-30.529c13.177,4.817,22.019-15.3,23.04-25.835.12-1.226-1.952-1.11-2.681-.288-3.294,1.645-6.982,2.617-10.273,4.3a20.758,20.758,0,0,1,.937-9.293c.19-.645-.894-.722-1.793-.445a1.839,1.839,0,0,0-1.367.083c-3.627,1.691-6.236,4.525-8.585,7.625-1.787-4.64-5.739-8.678-8.87-12.264-.509-.584-3.236.43-2.723,1.016.088.1.18.207.27.307a.65.65,0,0,0-.025.2c.3,10.343-4.785,30.623,9.056,34.358a1.123,1.123,0,0,0,.294.026.6.6,0,0,0-.052.109q-4.29,14.257-8.021,28.667c-1.164-8.547-6.192-15.879-12.631-21.9a1.188,1.188,0,0,0-.96-.076c-.808.036-1.944.369-2.051.817a25.735,25.735,0,0,0-.588,8.293,32.264,32.264,0,0,0-12.588,13.95q-.7-15.6-.729-31.215c14.092,1.016,16.576-20.907,14.5-31.172-.2-.991-1.937-.789-2.628-.048a2.3,2.3,0,0,0-.788.5c-2.516,2.48-5.408,4.687-7.747,7.36a20.915,20.915,0,0,1-1.837-9.31c-.008-.712-1.8-.516-2.56.147a2,2,0,0,0-1.078.4c-2.893,2.652-4.311,6.232-5.511,9.872-3.052-3.872-7.924-6.537-11.939-9.042-.734-.457-3.2.716-2.723,1.016l.393.242a.434.434,0,0,0,.02.139c3.325,9.886,4.4,30.918,18.89,30.456.041,0,.081-.008.122-.015a.284.284,0,0,0-.012.059q.047,14.688.653,29.362a37.094,37.094,0,0,0-17.591-17.728c-.749-.373-3.036.822-2.735.973s.592.315.893.471c-.824.132-1.76.491-1.725.932.006.059.017.113.023.172a2.2,2.2,0,0,0-1.983.862,24.745,24.745,0,0,0-12.4,16q-3.525-14.883-6.412-29.907c-.015-.084-.1-.138-.229-.169,14.117-1.6,12.768-22.975,8.669-33-.261-.637-1.124-.738-1.851-.528a1.873,1.873,0,0,0-2.081.487c-2.037,2.936-4.494,5.647-6.266,8.763a22.152,22.152,0,0,1-2.854-7.761c-.164-.822-2.167-.475-2.748.262a1.492,1.492,0,0,0-.779.467,27.367,27.367,0,0,0-4.979,10.6c-3.325-3.04-7.991-4.536-12.108-6.121-.68-.261-3.307.816-2.366,1.178l.292.111a.359.359,0,0,0,.026.085c5.333,9.483,10.09,29.225,24.406,26.559q2.83,14.612,6.23,29.1c-4.678-6.318-11.594-10.215-19.566-12.391a2.688,2.688,0,0,0-1.228.2c-.026-.087-.061-.166-.084-.254-.18-.639-3.074.149-2.9.777,3.075,11.066,14.009,16.53,24.49,18.813.151.188.563.206,1.036.122.362,1.482.712,2.968,1.083,4.448q-5.357.018-10.711.019a3.014,3.014,0,0,0-1.3.445c0-.045-.01-.09-.01-.135-.051-.937-2.959-.342-2.9.777.205,3.953.684,7.941,1.294,11.928-3.873,4.084-15.049,11.857-10.411,18.317,3.03,4.221,9.232.535,13.171-2.636q.351,1.95.676,3.886c2.721,16.254,5.473,32.773,10.409,48.528a.678.678,0,0,0,.538.424h-52.625a2.38,2.38,0,0,0-.813.2c-.647.162-1.24.467-1.24.862-.032,5.087-.466,10.162-.5,15.25,0,.308,1,.286,1.829.037h16.094c-.52.187-.933.532-.933.966.491,47.634.483,95.274-.548,142.9-.03,1.391,2.894.868,2.919-.283,1.031-47.628,1.039-95.266.548-142.9a.74.74,0,0,0-.426-.683h10.694c-.794.122-1.681.578-1.675,1.213.27,26.762.125,53.525,0,80.288a.593.593,0,0,0,.107.35c-.4.329-.454.649.49.649,35.917.008,71.833.49,107.75.5a3.384,3.384,0,0,0,1.546-.592c.661-.155,1.273-.43,1.273-.787.132-27.211-.217-54.412-.509-81.621h9.764c-.52.187-.933.532-.933.966.491,47.634.484,95.274-.548,142.9-.03,1.391,2.894.868,2.919-.283,1.031-47.628,1.039-95.266.548-142.9a.74.74,0,0,0-.426-.683h11.367a2.233,2.233,0,0,0,.711-.164c.436.532,2.986-.117,2.841-.9h0A82.188,82.188,0,0,1,2570.962,638.037Zm-40.92-155.407c2.909,3.365,5.705,7.079,6.426,11.35.11.65,2.8.068,2.892-.686.006-.007.014-.014.019-.021,2.173-3.06,4.426-6.288,7.649-8.28a19.142,19.142,0,0,0-.349,9.112c-.064.049-.135.088-.2.138-1.565,1.2.774,2.235,1.93,1.352,3.113-2.378,7.084-3.383,10.714-4.883-1.646,9.255-8.856,26.861-19.581,21.028a2.355,2.355,0,0,0-2.218.439C2526.989,508.639,2529.48,492.688,2530.042,482.63Zm-78.4,31.212c-10.675,1.913-16.016-14.868-20.092-23.552,3.469,1.4,6.84,3.133,9.1,6.138a.754.754,0,0,0,.617.183c.509.7,2.669.228,2.814-.755a26.733,26.733,0,0,1,3.752-10.493,17.909,17.909,0,0,0,3.969,7.671c.483.518,1.978.152,2.571-.393a1.249,1.249,0,0,0,.525-.547c1.45-3.221,3.816-5.9,5.916-8.721,2.9,8.585,5.192,29.178-7.248,28.959h0C2452.66,512.317,2451.629,513.231,2451.644,513.842Zm-13.838,19.81c8.781,2.719,16.06,7.723,20.16,16.038C2449.3,547.217,2441,542.343,2437.806,533.652Zm102.461,37.511c3.638,3.546,8.138,6.837,9.608,11.781a5.508,5.508,0,0,1-.515,4.007c-.8,1.542-3.187.13-4.218-.378a25.37,25.37,0,0,1-6.309-4.717.825.825,0,0,0-.437-.2c.639-3.476,1.286-6.981,1.864-10.493Zm-19.774-40.678a30.015,30.015,0,0,1,5.3,18.574,33.325,33.325,0,0,1-7.606-9.661.933.933,0,0,0-.838-.4,19.119,19.119,0,0,0,3.133-8.513Zm-5.246-6.5q1.516,1.569,2.867,3.245a25.447,25.447,0,0,0-2.99,1.194m-1.226,2.335c.631-.156,1.225-.432,1.312-.756a21.529,21.529,0,0,1,2.4-1.131c.57,8.419-8.006,18.3-16.367,19.091C2502.5,541.3,2507.824,534.53,2513.9,530.761Zm-13.852,20.256c.5-.182.894-.47.909-.8,0-.144.034-.3.045-.444,5.413-.493,11-3.965,14.813-8.665A34.2,34.2,0,0,0,2524,550.95c.536.441,1.987.034,2.576-.466-.456,1.838-.923,3.673-1.365,5.514q-12.61.027-25.219.076a.591.591,0,0,0,.3-.474C2500.2,554.072,2500.13,552.545,2500.046,551.017Zm-3.929-39.459c-10.826-.572-12.9-17-15.311-26.572,3.7,2.336,7.406,5.057,9.26,8.824a.48.48,0,0,0,.306.228c.476.566,2.552.161,2.852-.761,1.166-3.545,2.172-7.3,4.436-10.283a18.161,18.161,0,0,0,2.508,8.494.656.656,0,0,0,.4.259c-.186,1.1,1.985,1.337,2.66.364,2.078-2.986,4.964-5.3,7.654-7.751,1.126,9.454-.8,28.546-12.86,26.04h0A1.7,1.7,0,0,0,2496.117,511.558Zm-.416,37.258c-8.678-4.389-16.133-11.722-17.178-21.763C2486.911,531.843,2493.283,539.383,2495.7,548.816Zm-21.838-18.833c1.7,7.507-2.755,16.27-10.265,18.57l.005,0m-.6,3.258c.476-.221.829-.541.778-.907-.028-.187-.035-.373-.056-.561a18.778,18.778,0,0,0,13.42-16.375c3.224,8.018,10.741,13.835,18.747,17.2a1.982,1.982,0,0,0,1.214-.113c.088,1.679.162,3.357.262,5.035q-17.156.066-34.311.1c.511-.193.9-.447.841-.681-.306-1.231-.6-2.467-.9-3.7Zm-18.315,34.728c-1.262.741-3.035,1.639-4.4.653-1.184-.856-1.409-2.879-1.29-4.188.293-3.239,3.43-6.2,5.566-8.346,1.035-1.041,2.116-2.036,3.178-3.048.613,3.735,1.307,7.459,1.983,11.159l0,0A28.86,28.86,0,0,1,2444.687,586.537Zm9,1.482c-.3-1.8-.63-3.611-.963-5.429.393-.425.239-.678-.145-.791-.779-4.245-1.582-8.532-2.248-12.825l.022-.024c.255-.286.156-.464-.116-.558-.547-3.6-.97-7.205-1.2-10.783h.039c18.833,0,37.666-.091,56.5-.159.092.1.309.159.716.159,10.915-.011,21.831-.219,32.747-.236-.575,10.383-3,20.989-4.711,31.214-2.655,15.866-5.355,31.979-10.073,47.393-20.048.049-40.089.722-60.137.743a.482.482,0,0,0-.021-.178l.005,0C2459.165,620.784,2456.436,604.27,2453.688,588.019Zm89.645,147.72c-35.125-.019-70.246-.473-105.37-.493.127-26.9.271-53.812,0-80.712,0-.236-.189-.376-.467-.436h105.315l0,0C2543.106,681.309,2543.456,708.522,2543.333,735.739Zm-133.858-82.993c.054-4.548.387-9.095.463-13.648h158.123a85.811,85.811,0,0,0,.824,13.648Z" fill="#3d3d3d"/>
      <path id="Trazado_3630" data-name="Trazado 3630" d="M2521.507,616.809h-.006v7.5c0,.517,2.9.085,2.9-.777v-7.5C2524.405,615.515,2521.507,615.947,2521.507,616.809Z" fill="#3d3d3d"/>
      <path id="Trazado_3631" data-name="Trazado 3631" d="M2468.793,604.522c.333-.591-.282-1.045-.836-1.045h-4.7a2.124,2.124,0,0,0-1.9.842c-.333.591.284,1.045.838,1.045h4.7A2.13,2.13,0,0,0,2468.793,604.522Z" fill="#3d3d3d"/>
      <path id="Trazado_3632" data-name="Trazado 3632" d="M2465.246,577.979h-4.7a2.121,2.121,0,0,0-1.9.842c-.333.591.282,1.045.836,1.045h4.7a2.129,2.129,0,0,0,1.9-.844v0C2466.416,578.433,2465.8,577.979,2465.246,577.979Z" fill="#3d3d3d"/>
      <path id="Trazado_3633" data-name="Trazado 3633" d="M2479.224,708.766h-.005c-.015-2.336-.231-4.664-.25-7-.01-1.342-2.919-.771-2.911.309.018,2.336.234,4.664.25,7C2476.317,710.416,2479.224,709.846,2479.224,708.766Z" fill="#3d3d3d"/>
      <path id="Trazado_3634" data-name="Trazado 3634" d="M2469.952,608.981c.444-.29.4-.671-.181-.671h-4.232a3.8,3.8,0,0,0-2.049.55c-.446.29-.4.671.179.671h4.234A3.821,3.821,0,0,0,2469.952,608.981Z" fill="#3d3d3d"/>
      <path id="Trazado_3635" data-name="Trazado 3635" d="M2458.056,591.565h0v6.5c0,1.384,2.917.843,2.917-.289v-6.5C2460.973,589.892,2458.056,590.433,2458.056,591.565Z" fill="#3d3d3d"/>
      <path id="Trazado_3636" data-name="Trazado 3636" d="M2511.015,696.263a2.347,2.347,0,0,0-.41-.033h-12.746c3.169-3.171,7.529-4.806,10.911-7.738,3.94-3.419,4.464-8.494,2.464-13.148-1.48-3.45-5.123-3.75-8.043-2.026a7.183,7.183,0,0,0-3.014,4.354c-.449,1.6-.539,3.2-1.132,4.777a6.519,6.519,0,0,1-1.322,2.072c.3-.323-.144-1.664-.244-2.136.535-4.17,2.686-16.4-4.081-15.951-3.2.213-6.322,2.574-6.629,5.867-.3,3.175,1.75,8.932.235,12.275a1.984,1.984,0,0,0-.377,0c-.974.1-4.117-6.962-5.18-7.862-2.969-2.508-6.141-.286-8.158,2.256-2.621,3.3.355,8.318,2.314,11.118a21.278,21.278,0,0,0,6.385,6.139H2470.1a1.456,1.456,0,0,0-.286.037c-.589-.523-2.836.072-2.758,1.051a175.927,175.927,0,0,0,6.884,36.6c-.415.333-.493.669.353.7a2.039,2.039,0,0,0,1.586.015c9.26.032,18.519.228,27.78.241a2.606,2.606,0,0,0,.95-.262c.621-.144,1.217-.454,1.345-.869a175.97,175.97,0,0,0,7-37l0,0C2513.023,695.993,2511.887,695.945,2511.015,696.263Zm-33.553-18.209c2.016-1.617,4.729,6.8,7.779,8.443-.418.328.259.358,1.009.27.048,0,.095,0,.142,0a1.863,1.863,0,0,0,.346-.071,3.269,3.269,0,0,0,.878-.247c6.572-3.908-1.214-13.258,3.631-18.208,3.107-3.175,3.857,5.293,3.9,6.482a52.216,52.216,0,0,1-.506,7.951.587.587,0,0,0-.075.382c0,.037.014.068.019.1-.007.055-.013.1-.019.155,0,.031.022.055.063.076.53,2.536,2.626,3.728,4.987,1.914a8.691,8.691,0,0,0,2.662-4.115c.539-1.435,1.074-9.439,4.774-6.779,2.177,1.566,2.591,5.491,2.434,7.92a9.15,9.15,0,0,1-3.568,6.168c-3.276,2.841-7.517,4.293-10.563,7.449a1.158,1.158,0,0,0-.208.279h-6.459c-.011-.339-.273-.6-.933-.639l.006,0C2481.58,695.247,2470.93,683.3,2477.462,678.054Zm25.8,55.375c-2.575-.063-5.149-.179-7.728-.207a2.206,2.206,0,0,0-.758.176c-5.964-.068-11.932-.149-17.9-.168a175.924,175.924,0,0,1-6.812-35.609h15.6a8.969,8.969,0,0,0,1.107.139,1.719,1.719,0,0,0,.735-.139h21.907a1.987,1.987,0,0,0,.61-.127A176.122,176.122,0,0,1,2503.26,733.429Z" fill="#3d3d3d"/>
      <path id="Trazado_3637" data-name="Trazado 3637" d="M2525.347,578.309v7.5c.005.516,2.9.085,2.9-.778h0v-7.5C2528.247,577.015,2525.347,577.447,2525.347,578.309Z" fill="#3d3d3d"/>
      <path id="Trazado_3638" data-name="Trazado 3638" d="M2531.624,567.78v0h-75.5c-.847,0-3.158,1.281-1.224,1.281h75.5C2531.249,569.061,2533.561,567.78,2531.624,567.78Z" fill="#3d3d3d"/>
      <path id="Trazado_3639" data-name="Trazado 3639" d="M2480.213,718.031h0c-.292-1.047-3.188-.262-2.9.777.686,2.455.784,5,1.25,7.5.192,1.029,3.1.316,2.9-.777C2481,723.034,2480.9,720.488,2480.213,718.031Z" fill="#3d3d3d"/>
      <path id="Trazado_3640" data-name="Trazado 3640" d="M2531.064,590.977h-4.7a2.121,2.121,0,0,0-1.9.842c-.333.591.282,1.045.837,1.045h4.7a2.128,2.128,0,0,0,1.9-.842C2532.235,591.431,2531.619,590.977,2531.064,590.977Z" fill="#3d3d3d"/>
      <path id="Trazado_3641" data-name="Trazado 3641" d="M2529.587,595.809h-4.233a3.788,3.788,0,0,0-2.049.55c-.445.29-.4.671.18.671h4.233a3.8,3.8,0,0,0,2.049-.55C2530.212,596.191,2530.164,595.809,2529.587,595.809Z" fill="#3d3d3d"/>
      <path id="Trazado_3642" data-name="Trazado 3642" d="M2529.575,578.565h0v6.5c0,1.384,2.917.843,2.917-.289v-6.5C2532.492,576.892,2529.575,577.433,2529.575,578.565Z" fill="#3d3d3d"/>
      <path id="Trazado_3643" data-name="Trazado 3643" d="M2513.1,615.477h-4.7a2.12,2.12,0,0,0-1.9.842c-.333.591.283,1.045.836,1.045h4.7a2.128,2.128,0,0,0,1.9-.842C2514.268,615.931,2513.651,615.477,2513.1,615.477Z" fill="#3d3d3d"/>
      <path id="Trazado_3644" data-name="Trazado 3644" d="M2478.388,590.977h-4.7a2.121,2.121,0,0,0-1.9.842c-.333.591.283,1.045.837,1.045h4.7a2.128,2.128,0,0,0,1.9-.842C2479.559,591.431,2478.942,590.977,2478.388,590.977Z" fill="#3d3d3d"/>
      <path id="Trazado_3645" data-name="Trazado 3645" d="M2482.523,610.276h0v-6.5c0-1.384-2.917-.843-2.917.289v6.5C2479.606,611.948,2482.523,611.409,2482.523,610.276Z" fill="#3d3d3d"/>
      <path id="Trazado_3646" data-name="Trazado 3646" d="M2484.75,622.529a3.8,3.8,0,0,0,2.049-.55c.445-.29.4-.671-.18-.671h-4.233a3.8,3.8,0,0,0-2.049.55c-.445.29-.4.671.18.671Z" fill="#3d3d3d"/>
      <path id="Trazado_3647" data-name="Trazado 3647" d="M2479.813,578.278c0-1.384-2.917-.843-2.917.289v6.5c0,1.384,2.917.843,2.917-.289Z" fill="#3d3d3d"/>
      <path id="Trazado_3648" data-name="Trazado 3648" d="M2472.671,578.31v7.5c0,.515,2.9.084,2.9-.779l0,0v-7.5C2475.571,577.016,2472.671,577.448,2472.671,578.31Z" fill="#3d3d3d"/>
      <path id="Trazado_3649" data-name="Trazado 3649" d="M2491.587,577.977h-4.7a2.121,2.121,0,0,0-1.9.842c-.333.591.283,1.045.837,1.045h4.7a2.129,2.129,0,0,0,1.9-.842C2492.758,578.431,2492.142,577.977,2491.587,577.977Z" fill="#3d3d3d"/>
      <path id="Trazado_3650" data-name="Trazado 3650" d="M2491.534,598.031v-7.5c0-.517-2.9-.085-2.9.777v7.5C2488.637,599.325,2491.534,598.894,2491.534,598.031Z" fill="#3d3d3d"/>
      <path id="Trazado_3651" data-name="Trazado 3651" d="M2493.4,582.809l0,0h-4.232a3.8,3.8,0,0,0-2.049.55c-.445.29-.4.671.18.671h4.233a3.8,3.8,0,0,0,2.049-.55C2494.023,583.191,2493.978,582.809,2493.4,582.809Z" fill="#3d3d3d"/>
      <path id="Trazado_3652" data-name="Trazado 3652" d="M2484.507,625.809h-.006v7.5c0,.517,2.9.085,2.9-.777v-7.5C2487.405,624.515,2484.507,624.947,2484.507,625.809Z" fill="#3d3d3d"/>
      <path id="Trazado_3653" data-name="Trazado 3653" d="M2487.693,604.319c-.333.591.283,1.045.837,1.045h4.7a2.128,2.128,0,0,0,1.9-.842c.333-.591-.283-1.045-.838-1.045h-4.7A2.123,2.123,0,0,0,2487.693,604.319Z" fill="#3d3d3d"/>
      <path id="Trazado_3654" data-name="Trazado 3654" d="M2488.1,616.477h-4.7a2.12,2.12,0,0,0-1.9.842c-.333.591.283,1.045.836,1.045h4.7a2.127,2.127,0,0,0,1.9-.842C2489.268,616.931,2488.651,616.477,2488.1,616.477Z" fill="#3d3d3d"/>
      <path id="Trazado_3655" data-name="Trazado 3655" d="M2480.265,626.065h0v6.5c0,1.384,2.917.843,2.917-.289v-6.5C2483.182,624.392,2480.265,624.933,2480.265,626.065Z" fill="#3d3d3d"/>
      <path id="Trazado_3656" data-name="Trazado 3656" d="M2247.273,448.642a.8.8,0,0,0,.4.229l0,0a2.076,2.076,0,0,0,2.05-.549c.788-.773,1.751-1.708,2.95-1.451a2.1,2.1,0,0,0,2.05-.549.793.793,0,0,0,.041-1.121.785.785,0,0,0-.4-.233c-2.839-.607-5.058.6-7.048,2.549A.794.794,0,0,0,2247.273,448.642Z" fill="#3d3d3d"/>
      <path id="Trazado_3657" data-name="Trazado 3657" d="M2467.765,617.065v6.5c0,1.384,2.917.843,2.917-.289v-6.5C2470.682,615.392,2467.765,615.933,2467.765,617.065Z" fill="#3d3d3d"/>
      <path id="Trazado_3658" data-name="Trazado 3658" d="M2253.562,458.092h0c0,1.319.009,2.814,1.3,3.549a2.249,2.249,0,0,0,2.056-.257c.429-.27.838-.846.24-1.185-.75-.425-.7-1.71-.7-2.451,0-.656-.739-.729-1.263-.668C2254.76,457.133,2253.562,457.465,2253.562,458.092Z" fill="#3d3d3d"/>
      <path id="Trazado_3659" data-name="Trazado 3659" d="M2404.443,529.162c6.208-3.1,11.967-6.227,15.5-12.462.3-.534-2.431-.319-2.872.459-2.973,5.247-7.682,8.071-12.82,10.689-5.93-3.1-12.308-5.886-17.382-10.3a.514.514,0,0,0,.087-.256,68.252,68.252,0,0,1,6.708-27.426c.45-.922,2.542-4.883,3.256-3.289a11.662,11.662,0,0,1,.455,4.371c.056,3.344-.653,7.629,1.184,10.621a.7.7,0,0,0,.555.275,3.42,3.42,0,0,0,.119,2.838c.657,1.374,2.082,1.993,3.783,2.193-1.634.826-2.738,1.9-1.824,3.17.945,1.316,2.945,1.736,4.534,2.045a.653.653,0,0,0-.167.479c.966,9.957,21.712,3.66,17.9-6.027a.867.867,0,0,0-.852-.434c.656-1.575.213-3.344-2.115-5.2a3.7,3.7,0,0,0,.717-3.621.572.572,0,0,0-.334-.335c.3-.244.442-.542.234-.836a4.326,4.326,0,0,0-2.646-1.636.4.4,0,0,0-.106-.122c-2.481-2.011-4.371-5-6.441-7.411-1.379-1.612-4-5.483-6.5-5.4A4.07,4.07,0,0,0,2402,483.4q-.36-3.909-.615-7.831c.569-.174,1.053-.488,1.069-.847.006-.144.033-.3.043-.444,10.023-.912,20.661-12.038,19.461-22.246a.584.584,0,0,0-.412-.48c-.083-.336-.6-.547-1.464-.3-7.722,2.248-15.836,9.412-19.072,17.5-.463-10.191-.524-20.41-.535-30.56,14.234.958,16.547-21.968,14.484-32.168a.718.718,0,0,0-.049-.137c.791-1.117-1.739-1.527-2.616-.664-2.783,2.739-6.065,5.159-8.765,8.039a21.747,21.747,0,0,1-1.571-8.738c-.006-.715-1.813-.515-2.568.154a2.008,2.008,0,0,0-1.07.4,24.321,24.321,0,0,0-6,9.276c-3.067-3.552-7.639-6.072-11.445-8.446-.733-.457-3.2.716-2.723,1.016l.392.242a.5.5,0,0,0,.02.139c3.326,9.886,4.4,30.918,18.892,30.456.03,0,.063-.011.094-.011.008,9.655.052,19.38.435,29.085-3.568-7.25-9.866-12.717-17.354-16.4-.476-.234-1.565.163-2.224.52-.7.167-1.372.481-1.343.855.934,11.481,10.342,19.172,20.333,23.352a1.718,1.718,0,0,0,1.006-.05q.313,5.205.821,10.387c-.859-1.456-2.265-1.8-4.66.044-4.3,3.31-5.878,9.429-7.323,14.4a73.192,73.192,0,0,0-3.122,16.866c-.67.254-1.2.636-.971.854.2.184.407.345.607.525-10.111,8.48-20.125,17.218-29.62,26.38-4.463,4.306-9.787,9.392-13.224,15.173a3.632,3.632,0,0,1-1.567-1.441.983.983,0,0,0-.967-.383c-.3-6.635-.9-13.267-1.417-19.889-.049-.649-.8-.8-1.522-.619.576-1.12-2.193-.988-2.793-.1a50.751,50.751,0,0,0-4.42,8.157,170.844,170.844,0,0,0-14.849-13.259.224.224,0,0,0,.021-.29,63.448,63.448,0,0,1-13.792-30.882,43.954,43.954,0,0,1,.1-13.076c.74-4.727,2.852-9.164,3.9-13.837,2.058-9.172,1.006-19.553-5.466-26.815-3.587-4.024-7.8-6.723-12.369-9.493a30.2,30.2,0,0,1-11.854-13.3c-4-8.124-9.046-13.507-18.566-13.424a32.756,32.756,0,0,0-14.1,3.75c4.148-9.327,1.915-18.8,1.726-29.111.126-.126.242-.258.369-.383.7-.691-2.108-.4-2.646.131-.044.044-.085.091-.129.134a1.087,1.087,0,0,0-.445.464,45.74,45.74,0,0,0-13.541,30.865,38.653,38.653,0,0,0-4.6-4.811l-.011-.01q-.292-.256-.588-.507l-.02-.017c-8.518-7.185-20-10.56-31.06-7.232-1.071.322-1.319,1.056-.938,1.444-.325.233-.461.485-.2.662,9.93,6.742,19.477,15.76,31.562,17.471.039.005.074.015.112.02h0c-.464.166-.9.348-1.328.541l-.038.016a14.256,14.256,0,0,0-7.476,7.208,2.088,2.088,0,0,0-.393-.044c-8.121-.25-14.323,4.42-18.448,11.13-5.2,8.453-5.05,17.129-5.724,26.579-1.514,21.23-21.325,30.686-37.33,40.448-8.021,4.892-16.287,10.395-21.57,18.331-6.326,9.5-6.522,21.717-4,32.471,4.426,18.875,18.961,33.89,38.392,36.6.807.114,1.618.2,2.428.265a1.255,1.255,0,0,0-.775.619c-4.266,13.12-6.041,27.564-1.479,40.854,4.1,11.947,14,19.509,25.833,22.6-9.129,2.705-17.184,8.472-24.375,14.621a162.116,162.116,0,0,0-26.008,28.97c-18.319,25.592-32.72,56.909-33,88.841-.014,1.558,2.928,1.146,2.94-.2.266-30.611,13.632-59.492,30.3-84.547a168.755,168.755,0,0,1,22.5-26.913c8.84-8.655,19.93-17.748,32.53-19.739,13.024,2.052,26.942-.6,39.705-4.221-5.973,24.756-9.155,50.1-15.84,74.7-5.689,20.949-10.7,43.861-22.1,62.561-.23.378,1.345.346,2.279-.043h0a1.247,1.247,0,0,0,.59-.421l0-.006a122.891,122.891,0,0,0,10.9-23.922c3.7-10.677,6.488-21.767,9.483-32.523q.589-2.139,1.2-4.253c7.262-25.185,10.257-51.358,16.415-76.8a.258.258,0,0,0-.007-.146l.009,0c1.327-.39,2.644-.791,3.941-1.2a193.59,193.59,0,0,0,24.847-9.843c5.57-2.641,12.06-5.544,16.8-9.9a25.005,25.005,0,0,0,1.914-1.955h0a1.489,1.489,0,0,0,.174.073,8.848,8.848,0,0,0,6.072-.154,32.391,32.391,0,0,0,11.543,1.742.476.476,0,0,0-.178.506q4.368,11.595,7.9,23.439c.223.749.433,1.5.651,2.253q.827,2.85,1.6,5.713c.2.755.417,1.508.617,2.265a303.784,303.784,0,0,1,8.184,43.246c3.227,28.468.264,56.643-3.449,84.9a.392.392,0,0,0,.046.242l0,.007c.359.659,2.737.139,2.837-.661,3.573-27.189,6.374-54.168,3.84-81.589-2.545-27.543-9.582-54.6-19.281-80.45,9.652-.768,19.239-4.958,18.963-13.876a.955.955,0,0,0-.03-.185,13.534,13.534,0,0,0,1.041-7.842c1.563-3.108.933-6.7.473-10.241a.45.45,0,0,0-.131-.262c.856-2.57.29-3.819-1-4.219,2.091-2.5,4.264-5.208,4.937-8.365a2.275,2.275,0,0,0,.451-.349c.408-.416.774-.868,1.147-1.316.057-.07.122-.133.181-.2v.8c-4.5,4.356-4.241,11.993-4.017,17.756.155,3.973.5,7.934.808,11.9.282,3.638-.193,7.263.069,10.882.473,6.547,6.789,9.024,12.713,6.247,4.68-2.192,3.726-6.344,4.6-10.638a.655.655,0,0,0,0-.272c.041-6.418.4-12.8.057-19.218-.01-.2-.022-.411-.032-.619,12.36,9.061,29.62,2.3,39.36-8.539,7.566-8.419,9.566-19.208,12.149-29.937,3.018-12.533,7.857-25.021,8.708-37.956l0,0C2404.981,529.409,2404.769,529.232,2404.443,529.162Zm-1.7-56.7c1.5-8.079,8.783-16.518,16.343-19.408.813,8.489-7.876,18.611-16.345,19.411Zm18.122,35.878c1.324,6.725-10.838,10.817-12.289,4.137a14.439,14.439,0,0,0,2.9-.134l0,0A21,21,0,0,0,2420.862,508.343Zm-1.852-.992c-1.634,1.616-4.269,2.354-6.433,2.854a13.231,13.231,0,0,1-7.565-.645c-.868-.3-1.512-.671-.524-1.217a17.786,17.786,0,0,1,4.77-1.5,1.341,1.341,0,0,0,1.06-.768c.8-.2,1.5-.408,2.03-.57a24.214,24.214,0,0,0,6.145-2.792l0,0C2420.014,504.042,2420.724,505.657,2419.01,507.351Zm-.6-10.119a.563.563,0,0,0,.2.159c-.248.2-.381.43-.3.67,1.05,3.074-3.874,5.971-8.628,6.966a1.755,1.755,0,0,0-.921-.024c-.25.056-.8.179-1.5.362-2.484.155-4.6-.356-5.3-1.831l0,0C2399.6,498.593,2415.7,493.384,2418.408,497.232Zm-14.226-12.911a2.362,2.362,0,0,1,.465-.862,8.442,8.442,0,0,1,.955.774c3.363,2.93,5.637,7.039,8.817,10.13a33.03,33.03,0,0,0-5.968,1.392.479.479,0,0,0-.094-.4,27.758,27.758,0,0,1-3.684-6.655l0,0A7.574,7.574,0,0,1,2404.182,484.321Zm-3.416,12.636c.692.68,2.867-.013,2.694-1.173q-.246-1.7-.468-3.408a36.111,36.111,0,0,0,2.675,4.114.619.619,0,0,0,.237.18,19.382,19.382,0,0,0-4.877,2.749,21.809,21.809,0,0,1-.263-2.459Zm-20.6-44.345c8.025,4.5,14.382,11.2,16.9,20.15C2388.815,468.626,2381.6,461.987,2380.164,452.612Zm18.289-16.536c-11.561.249-13.679-16.772-16.149-26.589,3.445,2.175,6.888,4.687,8.844,8.063-.031.089-.064.178-.094.268-.165.5.259.717.835.727.836.243,2.8-.544,2.573-1.01-.092-.188-.2-.367-.3-.549a29.366,29.366,0,0,1,4.988-9.6,18.454,18.454,0,0,0,2.359,8.319c-.068.093-.145.176-.212.276-1.062,1.519,1.657,1.986,2.431.879,2.3-3.29,5.547-5.855,8.585-8.529,1.263,9.307-.439,30.128-12.791,27.568A1.62,1.62,0,0,0,2398.453,436.076Zm-59.064,125.64a1.73,1.73,0,0,0,.379.122,25.587,25.587,0,0,0-1.2,2.833q-.015-1.715-.064-3.43C2338.793,561.409,2339.091,561.568,2339.389,561.716Zm25.941-9.977c-.008,6.316-5.19,12.751-8.828,17.216-5.038,6.182-11.223,12.114-18.206,16.114a2.876,2.876,0,0,0-.6-.03,17.833,17.833,0,0,0-3.377.7,15.832,15.832,0,0,0-2.256.691,2.5,2.5,0,0,0-.7.185c-.007-.124-.009-.24-.018-.324-.082-.7-.15-1.409-.215-2.109-.033-.355-.055-.712-.084-1.068a4.879,4.879,0,0,0,2.087-.368C2345.624,574.341,2355.1,562.638,2365.33,551.739Zm-38.656-4a.941.941,0,0,0,.551.23c-3.855,10.426-4.311,22.145.167,32.4a12.633,12.633,0,0,0-3.187,2.162h-.012c-6.391.3-11.686,4.975-16.039,9.275a17.7,17.7,0,0,0-7.1,3.532c-.172.138-.346.272-.514.416v0a39.037,39.037,0,0,0,1.716-6.984l0-.029c1.922-12.434-1.633-25.983-6.284-37.493-4.135-10.233-9.242-21.39-15.918-30.29l-.009-.013c-.11-.145-.212-.3-.322-.447a14.61,14.61,0,0,0-1.375-1.532c.291.029.58.068.87.1h0C2298.118,521.2,2313.616,534.76,2326.674,547.743Zm-37.205,84.3a2.2,2.2,0,0,0-1.417.932l-1.085.074v-.021c-2.29-7.291-2.921-14.717-2.99-22.317a4.741,4.741,0,0,1,3.124,2.093.374.374,0,0,0,.088.144h0C2290.1,617.37,2289.356,626.985,2289.469,632.045Zm-.781-21.511a5.982,5.982,0,0,0-.782-.59l0,0a7.633,7.633,0,0,0-4.961-.975,7.3,7.3,0,0,0-.727.142,2.223,2.223,0,0,0-1.2.664l0,0c-11.768-7.229-26.169-9.009-39.726-9.209-.659-.01-1.32.008-1.979.008,7.878-9.072,6.918-22.956,3.5-33.74a96.111,96.111,0,0,0-8.665-18.458,62.132,62.132,0,0,0-6.872-10.254,154.453,154.453,0,0,0,4.1-14.893l0-.007c13.562,14.047,20.768,32.048,27.707,50.091a.77.77,0,0,0,.171.255.876.876,0,0,0,.715.382,2.216,2.216,0,0,0,.425,0c6.507-.548,16.2-1.1,20.28-7.106.489-.2.856-.492.806-.81-.024-.154-.05-.3-.075-.454a.011.011,0,0,0,.006-.009v0a.637.637,0,0,0-.152-.89c-2.754-16.812-7.723-38.675-22.8-48.575l-.031-.021c-.184-.124-.374-.254-.563-.373a.6.6,0,0,0-.087-.074l.257-.009c8.9-.4,16.614,1.511,21.538,9.894a203.257,203.257,0,0,1,14.51,29.019c5.91,15.14,9.322,33.859.28,48.213-1.212,1.656-2.384,3.347-3.572,4.991h0C2290.091,608.7,2289.4,609.636,2288.688,610.534Zm-10.3-44.843c-1.72,3.02-5.209,4.446-8.927,5.2l-.015,0a64.2,64.2,0,0,1-7.758.914h0c-.059-.152-.119-.306-.177-.459-5.768-14.969-11.806-29.869-21.543-42.469l-.008-.009c-.689-.892-1.4-1.77-2.13-2.638l-.006-.008a79.306,79.306,0,0,0-5.789-6.23c.167-.827.321-1.656.474-2.485,7.337,3.522,21.03,10.411,24.87.767C2271.134,528.629,2275.757,549.557,2278.384,565.691ZM2263.9,428.425a80.212,80.212,0,0,1,7.5,10.608,2.223,2.223,0,0,0-.59.1,12.783,12.783,0,0,0-4.963,2.505.6.6,0,0,0,.3,1.108,2.383,2.383,0,0,0,2.048-.55,7.833,7.833,0,0,1,3.038-1.5,3.283,3.283,0,0,0,.9-.441c2.6,4.444,4.923,9.057,7.223,13.613,4.756,9.439,9.352,23.089,2.147,32.459-5.257,6.836-17.044,7.7-24.493,11.469a3.863,3.863,0,0,0-2.233,3.614,126.418,126.418,0,0,0-.264,13.174c-.4.41-.486.93.02,1.13q.02,1.158.037,2.319c-3.284,7.445-16.428-.6-21.6-3.031q.7-4.178,1.189-8.377c1.223-10.55.782-21.151.889-31.744.113-11.15,1.53-20.875,9.564-29.068C2250.7,439.608,2258.324,435.179,2263.9,428.425Zm-17.7-14.639a53.927,53.927,0,0,0-5.837,2.878c.04-.077.091-.151.13-.226A32.854,32.854,0,0,1,2246.2,413.786Zm-5.61-18.245c.344,4.983.558,9.846-.5,14.6q-.175.794-.4,1.582a25.468,25.468,0,0,1-1.121,3.142h0a8.978,8.978,0,0,0-8.8-.177c-.069.036-.141.062-.209.1h0a44.441,44.441,0,0,1,10.59-25.968h0C2240.253,391.088,2240.432,393.326,2240.585,395.541Zm-11.1,21.222c.053-.034.109-.067.16-.105.01-.007.021-.012.03-.019a5.321,5.321,0,0,1,7.495.339.6.6,0,0,0,.11.074c-.584.363-1.16.727-1.722,1.1-.284.188-.557.39-.834.587a35.538,35.538,0,0,0-4.9,4.163,43.874,43.874,0,0,1-.346-6.138Zm-28.8-11.811q1.2.105,2.384.312c9.073,1.582,17.344,7.541,22.611,15.241a.961.961,0,0,0,.793.328h.2c.01.146.026.3.036.446.024.446.054.892.1,1.34h0c-13.694.4-24.02-9.783-34.618-17.045A26.486,26.486,0,0,1,2200.682,404.952Zm22.952,19.262c.762.03,1.532.037,2.315.006a2.482,2.482,0,0,0,1.008-.345c.04.311.064.619.112.931.034.226.348.315.759.307-7.558,9.063-10.713,21.416-11.789,33.41l0,0v0c-3.107-11.1-6.192-25.577,1.888-31.784A14.157,14.157,0,0,1,2223.634,424.214Zm-12.076,8.6c-.03.079-.064.155-.093.234-.109-.008-.236-.018-.384-.027h0A3.693,3.693,0,0,0,2211.558,432.816Zm71.127,200.135c-4.806,6.843-14.267,10.629-21.666,14.057-.475.22-.952.43-1.428.645h0l-.02.008q-2.757,1.234-5.551,2.381-8.411,3.447-17.128,6.073c-.454.137-.913.271-1.371.407h0c-12.579,3.732-26.481,6.515-39.644,4.632.056-.516-.294-.953-1.229-.822-.6.08-1.2.188-1.79.3a50.446,50.446,0,0,1-5-1.251c-26.631-8.277-27.624-39.456-20.4-61.677a.433.433,0,0,0,.008-.079c11.155.335,22.2-3.7,31.12-10.316,14.392-10.685,21.784-29.177,27.491-45.676l0,0c.061-.177.124-.355.185-.532l0,0a54.705,54.705,0,0,1,3.479,4.9c.237.372.493.732.722,1.11l.007.011a114.572,114.572,0,0,1,8.6,18.151,49.889,49.889,0,0,1,3.421,17.527,35.451,35.451,0,0,1-.5,6.043,24.155,24.155,0,0,1-5.234,11.738,144.767,144.767,0,0,0-28,3.164c2.088-8.956,7.108-16.856,12.688-24.073.208-.273-2.331-.185-2.86.5-5.615,7.262-10.665,15.218-12.726,24.246-2.716.645-5.415,1.345-8.071,2.154-1.734.533-1.3,2.234.454,1.7a141.581,141.581,0,0,1,38.977-5.824c.512-.008,1.024-.034,1.535-.034a120.976,120.976,0,0,1,12.568.535c9.894.971,19.727,3.438,28.057,8.738a1.776,1.776,0,0,0,1.408,0,2.57,2.57,0,0,0,.291-.1h0c0,.105,0,.211,0,.316h0a77.322,77.322,0,0,0,2.591,20.543A1.873,1.873,0,0,0,2282.685,632.951Zm39.336-19.14a1.119,1.119,0,0,0-.448.866,6.426,6.426,0,0,1-.719.978c-.692.767.04,1.069.884,1.03a9.733,9.733,0,0,1-1.429,5.8c-.433.619-.233,1.058.2,1.291-1.02,10.42-19.269,12.345-28.052,9.137-.544-5.121.739-15.377-2.384-20.667a72.2,72.2,0,0,0,4.249-5.882,1.418,1.418,0,0,0,.558-.373,34.846,34.846,0,0,0,3.51-5.34c2.628-3.323,5.61-6.127,9.353-7.136.939,5.4-7.122,11.377,2.226,12.27,1.859.177,4.037-1.353,5.583-2.146,1.516-.778,3.041-1.539,4.615-2.2,3.457-1.449,2.16,1.844,1.4,3.651-.154.368.154.553.622.587h0C2322.565,608.361,2323.051,611.333,2322.021,613.811Zm6.615-25.784c-.777-.428-2.645.215-2.566,1.281.295,4.009-2.863,7.376-5.25,10.235-.035.042-.055.079-.083.118a18.8,18.8,0,0,0-3.26,1.151c-1.556.7-10.833,6.1-9.333.638.9-3.264,3.4-5.548,2.414-9.091,3.6-3.57,8-7.811,13.285-8.056a1.775,1.775,0,0,0,1.352-.69,2.392,2.392,0,0,0,.9-.519,14.856,14.856,0,0,1,1.553-1.317c.107-.08.222-.149.331-.225a11.252,11.252,0,0,0,.2,2.686q.107,1.241.24,2.477a3.272,3.272,0,0,0,.151,1.146.376.376,0,0,0,.142.1Zm1.871-7.642a.557.557,0,0,0-.038-.353c-5.9-13.043-3.6-28.46,3.658-40.508,1.026,12.989,2.289,26,.925,39.012a.738.738,0,0,0,.367.762c-1.433,1.117-2.9,2.2-4.415,3.225-.015-.209-.036-.418-.049-.627-.017-.285-.029-.555-.037-.853s.125-.412-.092-.253h0C2331.2,580.516,2330.824,580.415,2330.507,580.385Zm11.337,46.117a.6.6,0,0,0-.028.074c-.615,3.022.465,7.837-3.335,9.031-9.8,3.081-7.839-7.885-8.04-13.462-.189-5.361-.882-10.688-1.022-16.054-.113-4.408-.225-10.366,2.548-14.175.75-.081,1.52-.51,1.52-1.122V587.7l.148-.045c.525-.161,1.056-.295,1.588-.426.121-.029.234-.059.35-.089a12.53,12.53,0,0,0,.5,3.671.751.751,0,0,0,.314.4c-.155.241-.125.493.239.693,3.5,1.944,4.52,6.857,4.94,11.215a.341.341,0,0,0,.025.237c.14,1.527.211,2.98.293,4.2.416,6.257-.028,12.515-.068,18.775h0A.537.537,0,0,0,2341.844,626.5Zm60.221-96.4c-.635,9.664-3.7,18.906-6.26,28.185-2.634,9.556-4.459,19.3-7.653,28.7-5.664,16.668-29.583,29.92-43.674,15.484-.46-4.638-1.64-9.808-5.523-12.008a.678.678,0,0,0,.006-.436,10.629,10.629,0,0,1-.463-2.734c.045-.021.1-.038.145-.064,7.847-4.254,14.547-10.7,20.262-17.478,4.5-5.343,10.594-13.343,9.12-20.843,1.253-1.294,2.516-2.575,3.806-3.827.664-.645-2.115-.336-2.636.17-.893.866-1.772,1.747-2.646,2.636-.819.125-1.653.686-1.484,1.418.008.037.009.069.016.1-8.947,9.293-17.127,19.445-26.992,27.731.247-2.618.385-5.236.447-7.855.81-.011,1.839-.431,1.93-1.031,1.5-10.036,10.911-18.3,17.875-24.936,8.651-8.253,17.727-16.16,26.882-23.853,5.048,4.027,11.2,6.658,16.869,9.664,0,.14.208.226.508.266l.05.026.034.013C2402.338,529.609,2402.084,529.843,2402.065,530.1Z" fill="#3d3d3d"/>
      <path id="Trazado_3660" data-name="Trazado 3660" d="M2545.367,749.994h-.213a2.078,2.078,0,0,0-1.277,0h-106.01c-.65,0-2.019.718-1.963,1.106-.391.161-.676.376-.678.632q-.215,23.238-.709,46.475c-.009.427,2.879.047,2.9-.777q.5-23.04.7-46.084H2542.8c-.115,15.532.025,31.066-.3,46.6-.03,1.462,2.9.986,2.928-.25.324-15.631.179-31.265.3-46.9,0-.019-.006-.033-.006-.051C2546.238,750.383,2546.409,749.994,2545.367,749.994Z" fill="#3d3d3d"/>
      <path id="Trazado_3661" data-name="Trazado 3661" d="M2273.9,454.78h0a1.892,1.892,0,0,0,2.083-.158c.44-.341.8-1.206.138-1.561a1.985,1.985,0,0,1-1.138-1.738c-.017-.736-.68-1.053-1.354-1.008-.581.039-1.6.474-1.588,1.2A3.656,3.656,0,0,0,2273.9,454.78Z" fill="#3d3d3d"/>
      <path id="Trazado_3662" data-name="Trazado 3662" d="M2472.007,616.809v7.5c0,.517,2.9.085,2.9-.777v-7.5C2474.905,615.515,2472.007,615.947,2472.007,616.809Z" fill="#3d3d3d"/>
      <path id="Trazado_3663" data-name="Trazado 3663" d="M2476.91,595.809h-4.233a3.8,3.8,0,0,0-2.05.55c-.444.29-.4.671.181.671h4.233a3.8,3.8,0,0,0,2.049-.55C2477.535,596.191,2477.487,595.809,2476.91,595.809Z" fill="#3d3d3d"/>
      <path id="Trazado_3664" data-name="Trazado 3664" d="M2256.023,480.409a6.482,6.482,0,0,1-5.063-3.875c-.526-1.246-3.4-.406-2.9.777,1.277,3.021,3.785,4.55,6.937,5.125C2256.375,482.684,2257.962,480.76,2256.023,480.409Z" fill="#3d3d3d"/>
      <path id="Trazado_3665" data-name="Trazado 3665" d="M2270.184,468.737c-1.692.9,1,.724,1.666.367,2.583-1.379,5.281-3.233,3.618-6.4s-4.935-5.1-6-8.672c-.2-.655-3.084.16-2.9.777.781,2.617,2.708,4.577,4.455,6.593C2273.5,464.265,2274,466.7,2270.184,468.737Z" fill="#3d3d3d"/>
      <path id="Trazado_3666" data-name="Trazado 3666" d="M2475.384,603.809v7.5c0,.517,2.9.085,2.9-.777v-7.5C2478.281,602.515,2475.384,602.947,2475.384,603.809Z" fill="#3d3d3d"/>
      <path id="Trazado_3667" data-name="Trazado 3667" d="M2503.236,578.565h0v6.5c0,1.384,2.918.843,2.918-.289v-6.5C2506.154,576.892,2503.236,577.433,2503.236,578.565Z" fill="#3d3d3d"/>
      <path id="Trazado_3668" data-name="Trazado 3668" d="M2511.619,620.309h-4.234a3.8,3.8,0,0,0-2.049.55c-.444.29-.4.671.181.671h4.233a3.8,3.8,0,0,0,2.049-.55C2512.244,620.691,2512.2,620.309,2511.619,620.309Z" fill="#3d3d3d"/>
      <path id="Trazado_3669" data-name="Trazado 3669" d="M2510.007,626.309H2510v7.5c0,.517,2.9.085,2.9-.777v-7.5C2512.905,625.015,2510.007,625.447,2510.007,626.309Z" fill="#3d3d3d"/>
      <path id="Trazado_3670" data-name="Trazado 3670" d="M2505.765,626.565h0v6.5c0,1.384,2.917.843,2.917-.289v-6.5C2508.682,624.892,2505.765,625.433,2505.765,626.565Z" fill="#3d3d3d"/>
      <path id="Trazado_3671" data-name="Trazado 3671" d="M2501.724,603.809v7.5c0,.517,2.9.085,2.9-.777v-7.5C2504.624,602.515,2501.724,602.947,2501.724,603.809Z" fill="#3d3d3d"/>
      <path id="Trazado_3672" data-name="Trazado 3672" d="M2484.394,591.565v6.5c0,1.384,2.918.843,2.918-.289v-6.5C2487.312,589.892,2484.394,590.433,2484.394,591.565Z" fill="#3d3d3d"/>
      <path id="Trazado_3673" data-name="Trazado 3673" d="M2517.007,616.809H2517v7.5c0,.517,2.9.085,2.9-.777v-7.5C2519.905,615.515,2517.007,615.947,2517.007,616.809Z" fill="#3d3d3d"/>
      <path id="Trazado_3674" data-name="Trazado 3674" d="M2519.74,582.809l0,0H2515.5a3.8,3.8,0,0,0-2.049.55c-.446.29-.4.671.179.671h4.234a3.8,3.8,0,0,0,2.048-.55C2520.364,583.191,2520.315,582.809,2519.74,582.809Z" fill="#3d3d3d"/>
      <path id="Trazado_3675" data-name="Trazado 3675" d="M2505.946,610.565c0,1.384,2.918.843,2.918-.289v-6.5c0-1.384-2.918-.843-2.918.289Z" fill="#3d3d3d"/>
      <path id="Trazado_3676" data-name="Trazado 3676" d="M2522.243,605.522h0c.333-.591-.283-1.045-.837-1.045h-4.7a2.12,2.12,0,0,0-1.9.842c-.333.591.283,1.045.837,1.045h4.7A2.133,2.133,0,0,0,2522.243,605.522Z" fill="#3d3d3d"/>
      <path id="Trazado_3677" data-name="Trazado 3677" d="M2517.924,577.977h-4.7a2.121,2.121,0,0,0-1.9.842c-.333.591.282,1.045.837,1.045h4.7a2.128,2.128,0,0,0,1.9-.842C2519.1,578.431,2518.479,577.977,2517.924,577.977Z" fill="#3d3d3d"/>
      <path id="Trazado_3678" data-name="Trazado 3678" d="M2510.731,591.565h0v6.5c0,1.384,2.917.843,2.917-.289v-6.5C2513.648,589.892,2510.731,590.433,2510.731,591.565Z" fill="#3d3d3d"/>
      <path id="Trazado_3679" data-name="Trazado 3679" d="M2517.877,598.033v-7.5c0-.518-2.9-.086-2.9.776h0v7.5C2514.978,599.327,2517.877,598.9,2517.877,598.033Z" fill="#3d3d3d"/>
      <path id="Trazado_3680" data-name="Trazado 3680" d="M2497,615.808v7.5c.006.517,2.9.086,2.9-.777h0v-7.5C2499.9,614.514,2497,614.946,2497,615.808Z" fill="#3d3d3d"/>
      <path id="Trazado_3681" data-name="Trazado 3681" d="M2498.949,630.309h-4.236a3.79,3.79,0,0,0-2.049.55c-.445.29-.4.671.18.671h4.233a3.8,3.8,0,0,0,2.048-.55C2499.573,630.691,2499.523,630.309,2498.949,630.309Z" fill="#3d3d3d"/>
      <path id="Trazado_3682" data-name="Trazado 3682" d="M2500.424,625.477h-4.7a2.124,2.124,0,0,0-1.9.842c-.333.591.283,1.045.838,1.045h4.7a2.125,2.125,0,0,0,1.9-.842C2501.6,625.931,2500.979,625.477,2500.424,625.477Z" fill="#3d3d3d"/>
      <path id="Trazado_3683" data-name="Trazado 3683" d="M2496.29,608.981h0c.446-.29.4-.671-.179-.671h-4.233a3.79,3.79,0,0,0-2.049.55c-.446.29-.4.671.179.671h4.234A3.82,3.82,0,0,0,2496.29,608.981Z" fill="#3d3d3d"/>
      <path id="Trazado_3684" data-name="Trazado 3684" d="M2492.765,616.065h0v6.5c0,1.384,2.917.843,2.917-.289v-6.5C2495.682,614.392,2492.765,614.933,2492.765,616.065Z" fill="#3d3d3d"/>
      <path id="Trazado_3685" data-name="Trazado 3685" d="M2503.249,595.809h-4.233a3.788,3.788,0,0,0-2.049.55c-.446.29-.4.671.179.671h4.234a3.8,3.8,0,0,0,2.049-.55C2503.873,596.191,2503.824,595.809,2503.249,595.809Z" fill="#3d3d3d"/>
      <path id="Trazado_3686" data-name="Trazado 3686" d="M2498.124,591.819c-.333.591.282,1.045.836,1.045h4.7a2.128,2.128,0,0,0,1.9-.842c.333-.591-.283-1.045-.837-1.045h-4.7A2.12,2.12,0,0,0,2498.124,591.819Z" fill="#3d3d3d"/>
      <path id="Trazado_3687" data-name="Trazado 3687" d="M2499.009,578.309v7.5c0,.516,2.9.085,2.9-.778h0v-7.5C2501.909,577.015,2499.009,577.447,2499.009,578.309Z" fill="#3d3d3d"/>
      <path id="Trazado_3688" data-name="Trazado 3688" d="M2523.224,609.309h-4.234a3.8,3.8,0,0,0-2.05.55c-.444.29-.4.671.181.671h4.233a3.8,3.8,0,0,0,2.049-.55C2523.845,609.691,2523.8,609.309,2523.224,609.309Z" fill="#3d3d3d"/>
    </g>
    <rect id="Rectángulo_4541" data-name="Rectángulo 4541" width="600" height="600" transform="translate(134 2899)" fill="none"/>
  </g>
</svg>
