<svg xmlns="http://www.w3.org/2000/svg" width="400" height="400" viewBox="0 0 400 400">
  <g id="Ilustración_-_Home" data-name="Ilustración - Home" transform="translate(-3472 -1268)">
    <g id="_107-Market-Data-Analysis" data-name="107-Market-Data-Analysis" transform="translate(3443.1 1238.302)">
      <path id="Trazado_3230" data-name="Trazado 3230" d="M313.638,383.427c-.279.838-.559,1.745-.838,2.583h0c.279-.838.559-1.745.838-2.583,3.561-10.682,9.425-20.6,12.218-31.557a.068.068,0,0,1,.07-.07l-.07.07C323.063,362.831,317.2,372.745,313.638,383.427Z" transform="translate(-74.825 -84.243)" fill="#f4f4f4"/>
      <path id="Trazado_3231" data-name="Trazado 3231" d="M396.909,421.7l-.209.209C396.7,421.84,396.84,421.77,396.909,421.7Z" transform="translate(-100.149 -105.341)" fill="#f4f4f4"/>
      <path id="Trazado_3232" data-name="Trazado 3232" d="M331.5,417.479l.279-.279A.545.545,0,0,0,331.5,417.479Z" transform="translate(-80.469 -103.983)" fill="#f4f4f4"/>
      <path id="Trazado_3233" data-name="Trazado 3233" d="M264.759,403c-.209.349-.349.768-.559,1.117.209-.419.419-.768.559-1.117a.664.664,0,0,1-.279-.7A.713.713,0,0,0,264.759,403Z" transform="translate(-60.156 -99.485)" fill="#f4f4f4"/>
      <path id="Trazado_3234" data-name="Trazado 3234" d="M271.206,353.649c-.908,8.1-1.955,17.384-5.306,25.2h0c3.351-7.819,4.4-17.105,5.306-25.2a264.352,264.352,0,0,0,1.606-26.81v0A264.352,264.352,0,0,1,271.206,353.649Z" transform="translate(-60.669 -76.667)" fill="#f4f4f4"/>
      <path id="Trazado_3235" data-name="Trazado 3235" d="M505.755,438.9c-18.082-4.329-36.793-1.885-55.155-1.676h0c18.292-.209,37.073-2.653,55.155,1.676a.855.855,0,0,1,.628.419A1.017,1.017,0,0,0,505.755,438.9Z" transform="translate(-116.418 -109.762)" fill="#f4f4f4"/>
      <path id="Trazado_3236" data-name="Trazado 3236" d="M451.373,381.285c-.419,8.378-1.466,16.686-2.444,24.994-.419,3.491-.838,6.912-1.187,10.4-.07.628-.628,2.932-.209,3.63-.419-.768.14-3.072.209-3.63.349-3.491.768-6.912,1.187-10.4.977-8.238,2.025-16.616,2.444-24.994,0-.628,1.815-1.047,2.025-.419C453.188,380.237,451.373,380.656,451.373,381.285Z" transform="translate(-115.446 -92.922)" fill="#f4f4f4"/>
      <path id="Trazado_3237" data-name="Trazado 3237" d="M334.267,424.791c-1.257-.908-3.98-2.932-4.4-4.468a2.9,2.9,0,0,1,1.117-2.723,3.069,3.069,0,0,0-1.117,2.723c.349,1.466,3.142,3.561,4.4,4.468,1.676,1.187,4.538,2.025,6.493.908.14-.07.209-.14.349-.209a1.525,1.525,0,0,1-.349.209C338.805,426.816,335.943,425.978,334.267,424.791Z" transform="translate(-79.955 -104.103)" fill="#f4f4f4"/>
      <path id="Trazado_3238" data-name="Trazado 3238" d="M376.308,325.684c4.678-.279,8.1-3.281,11.52-6.214a37.658,37.658,0,0,0,7.331,10.752c.489.489,2.3-.419,2.793-.559a142.223,142.223,0,0,0,16.477-7.819c5.306-2.793,11.24-5.655,15.779-9.774a.551.551,0,0,0,.419.349c5.865,2.513,11.939,4.817,17.873,7.4,4.119,2.3,9.565,5.376,16.686,9.355l.419.209a48.87,48.87,0,0,1,8.238,7.889c9.565,11.729,10.054,28.345,10.472,42.8.14,3.98.14,7.959.14,11.939,0-3.98,0-7.959-.14-11.939-.419-14.452-.838-31.068-10.472-42.8a46.267,46.267,0,0,0-8.238-7.889A82.28,82.28,0,0,0,448.5,319.75c-5.934-2.583-12.008-4.887-17.873-7.4a.715.715,0,0,1-.419-.349c-4.538,4.119-10.4,6.982-15.779,9.774a161.432,161.432,0,0,1-16.477,7.819c-.489.209-2.3,1.047-2.793.559a37.658,37.658,0,0,1-7.331-10.752c-3.421,2.932-6.842,5.934-11.52,6.283-.489,0-.908-.209-.908-.7C375.4,325.4,375.819,325.684,376.308,325.684Z" transform="translate(-93.72 -72.23)" fill="#f4f4f4"/>
      <path id="Trazado_3239" data-name="Trazado 3239" d="M507.306,459c-.838.14-2.095.349-3.561.489a280.008,280.008,0,0,1-33.372.279c-3.91-.209-7.75-.419-10.891-.628-.559-.07-1.117-.07-1.676-.14-1.327-.14-2.653-.279-3.98-.489a2.133,2.133,0,0,1-1.327-.559,2.615,2.615,0,0,0,1.327.559c1.327.209,2.653.349,3.98.489.559.07,1.117.07,1.676.14,2.862.279,5.725.419,8.587.559.768,0,1.536.07,2.3.07a295.806,295.806,0,0,0,33.372-.279c.7-.07,1.327-.07,2.025-.14a17.306,17.306,0,0,0,1.885-.209c-.209,0-.279,0-.349-.14-.279-.489-.07-2.234-.07-2.932.07-1.466.07-2.932.14-4.468-.07,1.466-.07,2.932-.14,4.468A8.146,8.146,0,0,0,507.306,459Z" transform="translate(-116.991 -114.366)" fill="#f4f4f4"/>
      <path id="Trazado_3240" data-name="Trazado 3240" d="M272.242,320.918c.279,0,1.257-.07,2.653-.14,24.366,2.3,47.545-8.238,71.771-8.378h0c-24.226.209-47.405,10.752-71.771,8.378l-1.885-.209c-.349-.07-.419-.14-.349-.279l-.419.628c-2.3,3.281-6.074,6.563-10.263,6H261.7v.07h.279C266.168,327.48,269.938,324.2,272.242,320.918Z" transform="translate(-59.401 -72.35)" fill="#f4f4f4"/>
      <path id="Trazado_3241" data-name="Trazado 3241" d="M377.2,424.576a10.286,10.286,0,0,1,3-1.606.068.068,0,0,0,.07-.07l-.07.07A10.286,10.286,0,0,0,377.2,424.576Z" transform="translate(-94.263 -105.703)" fill="#f4f4f4"/>
      <path id="Trazado_3242" data-name="Trazado 3242" d="M347.1,427.54l.14-.14C347.17,427.47,347.17,427.54,347.1,427.54Z" transform="translate(-85.178 -107.061)" fill="#f4f4f4"/>
      <path id="Trazado_3243" data-name="Trazado 3243" d="M397.887,392.436A2.814,2.814,0,0,1,396.7,390.9h0A2.766,2.766,0,0,0,397.887,392.436Z" transform="translate(-100.149 -96.044)" fill="#f4f4f4"/>
      <path id="Trazado_3244" data-name="Trazado 3244" d="M398.333,375.919a3.308,3.308,0,0,1-.908,2.513l-.7.7a3.97,3.97,0,0,0-1.4,3v.14a9.034,9.034,0,0,1-.14,1.745,8.478,8.478,0,0,0,.14-1.745c.349-.977.977-2.094,1.4-3.142l.7-.7a3.308,3.308,0,0,0,.908-2.513c-.419-2.513-3.561-6.283-6.633-7.819C394.772,369.636,397.914,373.406,398.333,375.919Z" transform="translate(-98.64 -89.163)" fill="#f4f4f4"/>
      <path id="Trazado_3245" data-name="Trazado 3245" d="M344.912,369.962l1.257,1.466h0l-1.257-1.466A11.859,11.859,0,0,0,341.7,367.1,13.137,13.137,0,0,1,344.912,369.962Z" transform="translate(-83.548 -88.861)" fill="#f4f4f4"/>
      <path id="Trazado_3246" data-name="Trazado 3246" d="M371.093,366.229c.209,1.606-.489,2.723.908,3.281h0c-1.326-.559-.7-1.745-.908-3.281A5.24,5.24,0,0,0,368.3,361.9,5.14,5.14,0,0,1,371.093,366.229Z" transform="translate(-91.577 -87.291)" fill="#f4f4f4"/>
      <path id="Trazado_3247" data-name="Trazado 3247" d="M405.208,402.5c1.606-2.444,1.815-7.75-.908-8.8C407.023,394.747,406.813,400.053,405.208,402.5Z" transform="translate(-102.443 -96.89)" fill="#f4f4f4"/>
      <path id="Trazado_3248" data-name="Trazado 3248" d="M354.242,432.285c0-2.164,1.187-4.4-2.164-5.027a29.128,29.128,0,0,0-3.561-.559,1.585,1.585,0,0,0-1.117.419,1.474,1.474,0,0,1,1.117-.419,31.418,31.418,0,0,1,3.561.559c3.351.559,2.164,2.862,2.164,5.027,0,.628.768.628,1.187.489,2.793-.7,9.425.349,12.218-1.885-2.723,2.3-9.355,1.187-12.218,1.885C355.01,432.844,354.242,432.844,354.242,432.285Z" transform="translate(-85.268 -106.85)" fill="#f4f4f4"/>
      <path id="Trazado_3249" data-name="Trazado 3249" d="M394.145,413.636c-.279-.279-.489-.559-.768-.838a4.024,4.024,0,0,1-.559-.7c-.14.209-.279.489-.419.7C392.47,412.659,393.238,413.077,394.145,413.636Z" transform="translate(-98.851 -102.443)" fill="#f4f4f4"/>
      <path id="Trazado_3250" data-name="Trazado 3250" d="M446.882,438.747a.867.867,0,0,1,.559-1.047h0A.867.867,0,0,0,446.882,438.747Z" transform="translate(-115.283 -110.17)" fill="#f4f4f4"/>
      <path id="Trazado_3251" data-name="Trazado 3251" d="M385.959,426.67c-.908-.209-1.815-1.327-2.374-1.885l-1.327-1.327-.559-.559h0c0,.07.14.209.559.559.489.419.908.908,1.327,1.327.559.559,1.466,1.676,2.374,1.885a2.736,2.736,0,0,0,2.583-.977A2.86,2.86,0,0,1,385.959,426.67Z" transform="translate(-95.621 -105.703)" fill="#f4f4f4"/>
      <path id="Trazado_3252" data-name="Trazado 3252" d="M393.2,424.155c.489-.489,1.4-1.187,2.234-1.955-.838.768-1.745,1.466-2.234,1.955Z" transform="translate(-99.092 -105.492)" fill="#f4f4f4"/>
      <path id="Trazado_3253" data-name="Trazado 3253" d="M145.9,263.2c3.491-3.63,4.4-9.355,1.327-13.544-3.91-5.306-10.333-5.725-16.058-3.351h-.07c-5.376,3.91-7.051,10.822-2.3,16.128C133.4,267.736,140.873,268.5,145.9,263.2Z" transform="translate(-18.444 -51.983)" fill="#f4f4f4"/>
      <path id="Trazado_3254" data-name="Trazado 3254" d="M121.37,287.957c-.07.07-.14.07-.209.14a26.083,26.083,0,0,0-7.261,6.563c6.074,5.585,14.243,9.216,22.481,8.169a34.052,34.052,0,0,0,15.988-6.7C145.946,284.954,132.611,283.349,121.37,287.957Z" transform="translate(-14.79 -64.244)" fill="#f4f4f4"/>
      <path id="Trazado_3255" data-name="Trazado 3255" d="M198.867,156.671c3.98.977,8.518,1.676,12.5.419.977-.349.559-2.094.489-3.072-.279-4.817-.977-9.7-1.606-14.452-1.117-8.238-3.072-16.616-3.491-24.924,0-.628,1.257-.768,1.676-.768,3.142.419,6.493,2.234,9.425,3.281,9.774,3.561,19.549,7.261,29.393,10.612.7.209,1.4.489,2.164.7,1.536.419-.07-.07-.07-.14a28.563,28.563,0,0,0,2.793-6.563,31.483,31.483,0,0,0,0-15.5,41.338,41.338,0,0,0-21.364-26.181c-14.731-7.261-31.138-5.376-45.8,1.047a2.039,2.039,0,0,1-.628.14,65.714,65.714,0,0,0-5.655,4.189c-11.45,9.984-17.175,24.785-12.5,39.656C170.8,139.846,183.717,152.831,198.867,156.671Z" transform="translate(-30.08 -0.82)" fill="#f4f4f4"/>
      <path id="Trazado_3256" data-name="Trazado 3256" d="M400.7,395.4Z" transform="translate(-101.356 -97.403)" fill="#f4f4f4"/>
      <path id="Trazado_3257" data-name="Trazado 3257" d="M108.518,277.023a28.887,28.887,0,0,1,7.121-6.214,1.915,1.915,0,0,1,1.4-.07c11.659-4.468,25.553-3.77,32.744,7.61a28.148,28.148,0,0,0,5.795-6.772,26.292,26.292,0,0,0-2.793-31.557c-10.263-11.24-26.042-11.1-39.167-5.376-.14.07-.349.07-.489.14-.279.209-.628.419-.908.628-6.633,4.817-12.078,11.729-12.427,20.247A28.459,28.459,0,0,0,106.633,275C107.261,275.7,107.89,276.4,108.518,277.023Zm13.824-35.746a1.407,1.407,0,0,1,.768-.209c6.074-2.3,14.1-2.513,18.082,3.561,3.63,5.585,1.955,12.5-3.491,16.2-5.934,4.049-13.963,4.119-18.711-1.815C113.894,252.727,115.919,245.536,122.342,241.277Z" transform="translate(-10.525 -47.726)" fill="#f4f4f4"/>
      <path id="Trazado_3258" data-name="Trazado 3258" d="M116.017,401.1a4.373,4.373,0,0,0-4.538,4.957c.349,2.025,1.815,4.189,4.049,4.329,2.723.14,4.4-1.955,4.538-4.468C119.926,403.681,118.46,401.237,116.017,401.1Z" transform="translate(-14.044 -99.121)" fill="#f4f4f4"/>
      <path id="Trazado_3259" data-name="Trazado 3259" d="M147.235,475.3a4.307,4.307,0,0,0-4.538,4.468c.14,2.164,1.676,4.538,4.119,4.678,2.723.14,4.4-1.955,4.538-4.468C151.215,477.811,149.609,475.437,147.235,475.3Z" transform="translate(-23.48 -121.517)" fill="#f4f4f4"/>
      <path id="Trazado_3260" data-name="Trazado 3260" d="M438.908,123.944c1.955-.279,5.655-3.212,4.887-5.655A5.73,5.73,0,0,0,441,115.217a14,14,0,0,0-3-1.117v9.914A3.689,3.689,0,0,0,438.908,123.944Z" transform="translate(-112.615 -12.496)" fill="#f4f4f4"/>
      <path id="Trazado_3261" data-name="Trazado 3261" d="M245.761,149.376c-.838-.349-2.3-1.257-3.561-1.676.349,1.117.419,2.444.628,3.421.628,3.491,1.187,6.982,1.745,10.4,1.327,8.029,2.583,16.128,4.608,24.087,5.795-1.466,11.24-5.306,15.709-9.076,4.608-3.84,9.565-8.518,11.729-14.243a185.853,185.853,0,0,1-21.573-8.727C251.9,152.168,248.833,150.7,245.761,149.376Z" transform="translate(-53.515 -22.638)" fill="#f4f4f4"/>
      <path id="Trazado_3262" data-name="Trazado 3262" d="M431.481,106.469c.489.14,1.047.349,1.606.489V98.3a5.851,5.851,0,0,0-3.072,1.327C427.292,102.07,428.269,105.351,431.481,106.469Z" transform="translate(-109.726 -7.727)" fill="#f4f4f4"/>
      <path id="Trazado_3263" data-name="Trazado 3263" d="M422.562,130.259c10.123.07,20.736-6.214,26.111-14.871a26.462,26.462,0,0,0-2.3-31.348c-10.123-11.59-26.042-12.008-39.446-6.144a4.449,4.449,0,0,1-.489.14c-.349.209-.628.419-.977.628-6.7,4.817-12.218,11.869-12.567,20.456a28.726,28.726,0,0,0,5.934,18.432C404.41,124.743,413.206,130.259,422.562,130.259ZM397.5,98.353c1.187-7.121,5.934-12.358,11.8-16.2a2.15,2.15,0,0,1,.908-.209c.628-.279,1.257-.489,1.885-.768,10.682-4.049,24.3-3,31.627,6.7a21.672,21.672,0,0,1-1.676,28.345c-5.027,5.166-12.358,9.286-19.688,9.146a25.928,25.928,0,0,1-19.968-10.123C398.824,110.5,396.451,104.357,397.5,98.353Z" transform="translate(-98.992 -0.45)" fill="#f4f4f4"/>
      <path id="Trazado_3264" data-name="Trazado 3264" d="M427.919,126.64a26.2,26.2,0,0,0,17.943-11.45,20.7,20.7,0,0,0-1.955-24.785c-8.1-8.937-20.456-8.937-30.859-4.4a.759.759,0,0,1-.349.07c-5.306,3.63-9.774,8.8-10.333,15.429a21.829,21.829,0,0,0,4.887,15.569C412,123.219,419.89,127.757,427.919,126.64Zm-6.563-33.093a9.086,9.086,0,0,1,3.84-1.4V88.52c0-.559,2.025-.838,2.025-.559v4.049a26.583,26.583,0,0,1,4.119.349c1.327.279.349,1.676-.7,1.536a16.644,16.644,0,0,0-3.421-.349v9.286c2.513.7,5.1,1.466,6.772,3.561,2.513,3.142.07,7.261-3.212,8.867a7.477,7.477,0,0,1-3.561.768v5.1c0,.559-2.025.838-2.025.559v-5.934a41.477,41.477,0,0,0-5.446-1.257c-1.4-.14-.349-1.606.7-1.536a35.011,35.011,0,0,1,4.747,1.327V104.229a11.548,11.548,0,0,1-5.376-2.444C417.237,99.2,418.773,95.432,421.356,93.547Z" transform="translate(-101.835 -3.114)" fill="#f4f4f4"/>
      <path id="Trazado_3265" data-name="Trazado 3265" d="M328.332,451.236h0a1.938,1.938,0,0,1,0-1.536A1.948,1.948,0,0,0,328.332,451.236Z" transform="translate(-79.466 -113.792)" fill="#f4f4f4"/>
      <path id="Trazado_3266" data-name="Trazado 3266" d="M331.1,447.319a.992.992,0,0,1,.14-.419c-.07.14-.07.279-.14.419Z" transform="translate(-80.349 -112.947)" fill="#f4f4f4"/>
      <path id="Trazado_3267" data-name="Trazado 3267" d="M415.946,450.166c.908.209,1.885.419,2.793.7a77.643,77.643,0,0,1,23.249,10.822c.838.628-.977,1.466-1.606,1.047a73.61,73.61,0,0,0-22.9-10.612c-7.261-1.955-14.941-2.513-22.132-4.817-5.166-1.606-12.148-4.468-11.1-11.031a34.238,34.238,0,0,1,2.862-9.425c1.047-2.374,2.653-4.608,3.561-6.982a5.8,5.8,0,0,0,.419-1.466l-3.561.209a12.939,12.939,0,0,0-2.025,2.3c-.838,1.257-1.676,2.583-2.513,3.91a25.487,25.487,0,0,1-5.306,6.563c-4.957,4.049-13.056,2.793-18.99,3.561-4.329.559-8.657,1.117-13.056,1.257-1.257.07-2.583-.07-3.98-.07h0c-2.583.209-5.306.419-6.563.489h0c-1.4,2.932-.977,4.189,1.257,3.63.279,0,.559-.07.838-.07h1.047c1.955,0,3.91-.209,5.865-.14,3.91.14,7.54,1.606,11.38,2.094,1.4.14.14,1.4-.768,1.257-5.1-.628-9.5-2.164-14.731-1.955-2.513.07-6.074.908-8.308-.628a2.667,2.667,0,0,1-.628-.628h0l-.07.07h0c-1.047,2.583,6.353,2.723,7.959,2.793,4.817,0,9.076,2.583,13.754,3.561,1.327.279.349,1.745-.7,1.536-4.049-.838-7.819-3.072-11.939-3.421-2.164-.209-4.329-.14-6.493-.489a11.108,11.108,0,0,1-2.862-.838c1.257,1.327,3.98,1.955,5.236,2.444,3.142,1.047,6.423,1.885,9.635,2.723,3.91.977,9.984,1.606,13.4,4.259a.763.763,0,0,1,.7.14,3.99,3.99,0,0,1,.559.489c.977.768,1.885,1.536,2.793,2.374,7.889,6.633,15.709,13.4,24.156,19.339,9.635,6.772,20.875,13.963,32.953,14.871,10.752.838,22.621-3,31.208-9.565,9.286-7.121,14.522-17.314,14.382-29.044,0-.14.07-.209.14-.349-1.815.07-3.7.07-5.446.14-13.4.489-27.019.628-40.354-.768-1.047-.14-2.862-.07-4.329-.349h0l.209.07Zm-55.5,3.212a2.231,2.231,0,0,0,.489.07s.908.908,2.374,2.3C362.327,454.914,361.419,454.146,360.442,453.378Z" transform="translate(-80.228 -104.345)" fill="#f4f4f4"/>
      <path id="Trazado_3268" data-name="Trazado 3268" d="M253.043,431.53c2.932.489,4.678-1.885,4.817-4.468-.14-2.164-1.466-4.538-3.77-4.887a4.3,4.3,0,0,0-4.817,5.027A4.9,4.9,0,0,0,253.043,431.53Z" transform="translate(-55.631 -105.467)" fill="#f4f4f4"/>
      <path id="Trazado_3269" data-name="Trazado 3269" d="M447.447,450.561a16.062,16.062,0,0,0,.7,3.561,16.058,16.058,0,0,1-.7-3.561c-.349-3.281-.908-7.47-.349-10.961h0C446.609,443.091,447.167,447.28,447.447,450.561Z" transform="translate(-115.289 -110.744)" fill="#f4f4f4"/>
      <path id="Trazado_3270" data-name="Trazado 3270" d="M417.919,420.1a15.587,15.587,0,0,1-1.047,2.164c-1.117,2.025-2.164,4.049-3.072,6.144.908-2.094,1.955-4.119,3.072-6.144A15.594,15.594,0,0,0,417.919,420.1Z" transform="translate(-105.31 -104.858)" fill="#f4f4f4"/>
      <path id="Trazado_3271" data-name="Trazado 3271" d="M411.1,438.491c.279-.977.628-2.234,1.047-3.491A28.822,28.822,0,0,0,411.1,438.491Z" transform="translate(-104.495 -109.355)" fill="#f4f4f4"/>
      <path id="Trazado_3272" data-name="Trazado 3272" d="M187.079,435.207c3.212,1.676,5.934-.838,6.074-3.98a5.273,5.273,0,0,0-2.583-4.538,4.155,4.155,0,0,0-6.074,3.98A5.049,5.049,0,0,0,187.079,435.207Z" transform="translate(-36.095 -106.7)" fill="#f4f4f4"/>
      <path id="Trazado_3273" data-name="Trazado 3273" d="M450.3,437.2a.244.244,0,0,1,.07.14c0-.07,0-.07-.07-.14Z" transform="translate(-116.327 -110.019)" fill="#f4f4f4"/>
      <path id="Trazado_3274" data-name="Trazado 3274" d="M220.674,474.53c2.932.489,4.678-1.815,4.887-4.468-.14-2.164-1.466-4.468-3.77-4.887a4.3,4.3,0,0,0-4.817,4.957A4.76,4.76,0,0,0,220.674,474.53Z" transform="translate(-45.883 -118.446)" fill="#f4f4f4"/>
      <path id="Trazado_3275" data-name="Trazado 3275" d="M452.219,460.459a3.872,3.872,0,0,1-.419-.559A3.874,3.874,0,0,0,452.219,460.459Z" transform="translate(-116.78 -116.871)" fill="#f4f4f4"/>
      <path id="Trazado_3276" data-name="Trazado 3276" d="M89.48,468.789a3.9,3.9,0,0,0,3.91-3.91,3.945,3.945,0,1,0-3.91,3.91Z" transform="translate(-6.218 -117.173)" fill="#f4f4f4"/>
      <path id="Trazado_3277" data-name="Trazado 3277" d="M450.3,436.4c0,.07.07.07.07.14.07.07.07.07.07.14,0-.07-.07-.07-.07-.14C450.3,436.54,450.3,436.47,450.3,436.4Z" transform="translate(-116.327 -109.778)" fill="#f4f4f4"/>
      <path id="Trazado_3278" data-name="Trazado 3278" d="M237.988,304.011c0-.07.07-.07.14-.14h0c-10.054-4.4,4.608-23.249,9.146-27.228.419-.349,2.444-.559,1.606.209-.07.07-.14.14-.209.14,5.585,0,12.078.838,17.384-1.187,5.934-2.3,9.006-8.169,10.193-14.1.838-4.189,2.3-10.752-1.466-14.033-3.63-3.212-9.5-2.723-14.033-2.444-1.327.07.07-1.047.768-1.117.838-.07,1.745-.07,2.723-.14.07-.07.07-.14.14-.209,1.815-1.676,5.865-6.563,1.117-6.074a19.434,19.434,0,0,0-7.819,2.513c-4.259,2.583-7.819,6.423-7.959,11.59v.838a.8.8,0,0,1-.559.7,56.463,56.463,0,0,1-8.238,13.056c-3.142,3.84-7.121,6.772-10.891,9.914-10.4,8.657-20.945,17.314-29.6,27.787-4.468,5.446-9.355,11.659-10.961,18.641a26.694,26.694,0,0,0,2.583,19.479c3.142,5.306,7.889,9.844,14.1,11.24,5.236,1.187,10.682.768,15.988.7-1.745-6,.419-13.893,2.3-19.409C228.214,324.048,234.148,314.414,237.988,304.011Z" transform="translate(-37.365 -49.789)" fill="#f4f4f4"/>
      <path id="Trazado_3279" data-name="Trazado 3279" d="M441.317,260.478c.07,1.4.419,4.329,2.094,4.468a2.613,2.613,0,0,1,1.257-.349c2.374-1.187,4.259-3.561,5.655-5.725,1.4-2.095,3.142-4.957,2.932-7.61a2.591,2.591,0,0,0-1.745-2.583,21.694,21.694,0,0,0-2.234-.279,9.2,9.2,0,0,1-2.932.489c-3.072,3.072-4.678,7.191-6.144,11.31C440.828,260.129,441.317,260.129,441.317,260.478Z" transform="translate(-113.279 -53.033)" fill="#f4f4f4"/>
      <path id="Trazado_3280" data-name="Trazado 3280" d="M300,220.008a25.482,25.482,0,0,1,5.655.559,85.086,85.086,0,0,1,6.7-13.335,17.391,17.391,0,0,1-2.583-.628c-1.257-.349.209-1.676,1.187-1.4a23.336,23.336,0,0,0,7.889.977c13.614-.7,25.832-11.45,31.068-23.6,2.164-5.166,3.63-11.31,1.676-16.826a15.132,15.132,0,0,0-5.725-7.261,14.4,14.4,0,0,1,1.676,4.4c2.3,11.24-4.887,23.179-13.056,30.37-6.982,6.214-16.058,10.472-25.413,9.984a3.036,3.036,0,0,1,.419.489c.838.838-.838,1.885-1.536,1.187h0a6.492,6.492,0,0,1-.349.7c-.419,1.047-.908,2.025-1.327,3.072-.559,1.187-1.047,2.444-1.606,3.63-.14.349-.7,1.606-.7,1.606a.432.432,0,0,1-.14.489C303.421,216.378,301.606,218.4,300,220.008Z" transform="translate(-70.961 -25.898)" fill="#f4f4f4"/>
      <path id="Trazado_3281" data-name="Trazado 3281" d="M276.812,295.919a.545.545,0,0,1,.279-.279c-2.932.07-5.865-.14-8.727-.14h-.14a46.31,46.31,0,0,0-7.331,10.333c-1.676,3.142-5.376,9.844-2.3,13.2,5.446,5.934,11.24-3.77,13.125-8.029C273.809,306.112,275.136,301.016,276.812,295.919Z" transform="translate(-58.106 -67.249)" fill="#f4f4f4"/>
      <path id="Trazado_3282" data-name="Trazado 3282" d="M316.453,201.253c13.684-1.536,25.9-13.475,30.161-26.251,1.676-5.1,2.513-11.1-.07-16.128a14.98,14.98,0,0,0-2.444-3.491,21.983,21.983,0,0,0-2.932-.628c-11.659-1.257-22.132,9.216-27.578,18.432-4.538,7.68-9.216,19.9-3.142,27.857A21.658,21.658,0,0,0,316.453,201.253Z" transform="translate(-73.241 -24.737)" fill="#f4f4f4"/>
      <path id="Trazado_3283" data-name="Trazado 3283" d="M331.061,406.192c1.4,1.466.349,3.77.768,5.516h0c-.419-1.745.628-3.98-.768-5.516-2.164-2.3-4.538-.419-6.982-.908a.363.363,0,0,1-.279-.14.529.529,0,0,0,.279.14C326.523,405.774,328.9,403.888,331.061,406.192Z" transform="translate(-78.145 -100.306)" fill="#f4f4f4"/>
      <path id="Trazado_3284" data-name="Trazado 3284" d="M340.249,368.5s-.14.209-.349.489a9.287,9.287,0,0,1,1.327.977,9.287,9.287,0,0,0-1.327-.977A2.764,2.764,0,0,1,340.249,368.5Z" transform="translate(-83.005 -89.283)" fill="#f4f4f4"/>
      <path id="Trazado_3285" data-name="Trazado 3285" d="M308.39,172.934c4.957-8.937,13.056-18.013,23.249-20.805a21.221,21.221,0,0,1,8.1-.559,14.588,14.588,0,0,0-8.518-3.072c-11.8-.279-21.573,11.869-26.321,21.5-4.119,8.308-7.68,20.805-.559,28.485h.279l.838.209C301.129,190.946,304.27,180.334,308.39,172.934Z" transform="translate(-71.043 -22.878)" fill="#f4f4f4"/>
      <path id="Trazado_3286" data-name="Trazado 3286" d="M398.993,327.266A36.9,36.9,0,0,1,396.2,322.1h0a36.9,36.9,0,0,0,2.793,5.166c.977,1.4,2.513,4.329,4.119,5.166h0C401.506,331.525,399.9,328.663,398.993,327.266Z" transform="translate(-99.998 -75.278)" fill="#f4f4f4"/>
      <path id="Trazado_3287" data-name="Trazado 3287" d="M453.97,308.9c0,.07-.07.14-.07.279A.528.528,0,0,0,453.97,308.9Z" transform="translate(-117.414 -71.294)" fill="#f4f4f4"/>
      <path id="Trazado_3288" data-name="Trazado 3288" d="M394.669,272.408a6.058,6.058,0,0,0,4.538-2.094A34.063,34.063,0,0,1,392.3,267.8C392.225,269.615,392.435,272.268,394.669,272.408Z" transform="translate(-98.816 -58.889)" fill="#f4f4f4"/>
      <path id="Trazado_3289" data-name="Trazado 3289" d="M378.7,326.806h0c3.351-.7,6-3.072,8.587-5.306h0C384.7,323.734,382.051,326.108,378.7,326.806Z" transform="translate(-94.716 -75.097)" fill="#f4f4f4"/>
      <path id="Trazado_3290" data-name="Trazado 3290" d="M400.989,245.3c11.031,1.536,14.173-11.659,16.686-20.037h0a40.269,40.269,0,0,1,.419-12.148,4.57,4.57,0,0,1,.349-1.257v-.628c-.14-.279-.489-.419-1.326-.559a27.613,27.613,0,0,0-4.119-.489c-1.047-.07-2.234-.07-3.421-.209a41.759,41.759,0,0,1-6.563-.628,5.912,5.912,0,0,1-1.187-.279c-.908-.14-1.745-.349-2.653-.489-7.61-1.676-7.959-10.542-7.889-12.078a53.886,53.886,0,0,0-8.518,6.493c-7.331,6.912-12.357,14.452-15.08,24.156-.419,1.4-.838,2.932-1.187,4.538h.209c6-.07,11.45,2.234,16.616,5.027C388.771,239.856,394.636,244.394,400.989,245.3ZM399.8,218.073a11.049,11.049,0,0,1,8.8,5.236c.558.908-1.327,1.676-1.815.908a9.342,9.342,0,0,0-7.61-4.608C397.778,219.47,398.825,218,399.8,218.073Zm-3.421,12.288a10.111,10.111,0,0,0,1.536-2.653,1.6,1.6,0,0,1,1.187-.559c.14,0,.977-.14.838.279a12.1,12.1,0,0,1-1.745,2.862,1.959,1.959,0,0,1-1.327.489C396.661,230.78,396.032,230.71,396.381,230.361Zm-14.243-21.992a14.459,14.459,0,0,0,6.353,3.212.641.641,0,0,1,.279,1.047,1.307,1.307,0,0,1-1.4.349,14.88,14.88,0,0,1-6.772-3.421C379.765,208.718,381.511,207.671,382.139,208.369Zm-7.4,8.518a1.762,1.762,0,0,1,1.466-.209c1.117.559,2.164,1.117,3.281,1.676.419.209.07.628-.209.768a1.762,1.762,0,0,1-1.466.209c-1.117-.559-2.164-1.117-3.281-1.676C374.11,217.445,374.459,217.026,374.738,216.886ZM379,231.478c.489.908-1.4,1.676-1.885.908-3.491-6.493,6.633-9.914,10.891-12.008,1.047-.489,2.164.628.908,1.187C385.56,223.24,376.135,226.242,379,231.478Z" transform="translate(-91.033 -37.368)" fill="#f4f4f4"/>
      <path id="Trazado_3291" data-name="Trazado 3291" d="M389.34,306.8c-.07.07-.07.209-.14.279l.419,4.4A34.359,34.359,0,0,0,389.34,306.8Z" transform="translate(-97.885 -70.66)" fill="#f4f4f4"/>
      <path id="Trazado_3292" data-name="Trazado 3292" d="M427.477,287.869a.528.528,0,0,1,.07-.279c1.466-2.932.838-6.423,2.513-9.355l-.419-.977c-.419.07-.838.07-.977-.209a7.84,7.84,0,0,1-1.327-4.957c-2.094,0-3.072-1.466-3.491-3.491-2.164,6.423-4.468,12.707-11.38,15.569-1.047.419-2.164.838-3.351,1.187a28.858,28.858,0,0,1-4.259,1.117,26.363,26.363,0,0,1-3.281.419,32.106,32.106,0,0,1-13.475-1.187c.209.279.419.628.628.908,3,5.1,2.793,12.078,2.723,17.873a1.253,1.253,0,0,1,1.257.279c.349-.07.559,0,.628.14,0,.07,0,.07.07.14,6.842-.908,13.544-4.329,19.479-7.61A131.041,131.041,0,0,0,427.477,287.869Z" transform="translate(-97.553 -59.13)" fill="#f4f4f4"/>
      <path id="Trazado_3293" data-name="Trazado 3293" d="M437.61,300.038c2.095-1.466,4.189-2.932,6.214-4.538h0c-2.025,1.606-4.119,3.072-6.214,4.538-1.257.908-2.583,1.745-3.91,2.583.977-.489,1.606-.768,1.606-.768Z" transform="translate(-111.317 -67.249)" fill="#f4f4f4"/>
      <path id="Trazado_3294" data-name="Trazado 3294" d="M453.87,309.4c0,.07-.07.07-.07.14C453.8,309.47,453.8,309.47,453.87,309.4Z" transform="translate(-117.384 -71.445)" fill="#f4f4f4"/>
      <path id="Trazado_3295" data-name="Trazado 3295" d="M338.248,369.355c-1.047-.628-1.955-1.536-3.142-1.745a24.826,24.826,0,0,0-3.98,4.608c-.977,1.606,3,3.91,4.4,4.468.279.14.559.349.349.7-1.117,1.745-1.745,5.446-4.049,6.074a16.192,16.192,0,0,1-4.119.419h0a.992.992,0,0,1-.419.14.849.849,0,0,0-1.047.419h-.07a35.922,35.922,0,0,1-.07,4.748,2.748,2.748,0,0,0,.977,1.815,15.178,15.178,0,0,1,2.513-.14,7.834,7.834,0,0,1,2.793.7,3.052,3.052,0,0,1,1.606,1.745,5.947,5.947,0,0,1,.279,1.606,4.329,4.329,0,0,0-.279-1.606,3.052,3.052,0,0,0-1.606-1.745c1.676.07,2.164,2.374,2.164,3.77a3.873,3.873,0,0,1-.209,1.187h0a7.844,7.844,0,0,0,.279,2.234c.14.349-.349.628-.559.768a8.961,8.961,0,0,0-2.164,1.536h0a5.691,5.691,0,0,0-.768,2.234,2.158,2.158,0,0,1-.14-.559.752.752,0,0,0,.14.559c.07.07.07.209.14.279a13.556,13.556,0,0,0,1.815,2.164,11.667,11.667,0,0,0,3.63,2.374h0a4.9,4.9,0,0,0,1.745-.07,1.489,1.489,0,0,1-.838.209,1.859,1.859,0,0,0,.838-.209,1.631,1.631,0,0,0,.489-.489,2.74,2.74,0,0,1,1.257-1.257c2.3-.838,5.236-.14,7.54.559a2.868,2.868,0,0,1,2.234,3h0c.349.489.628.908.908,1.327a2.125,2.125,0,0,0,.559.559h0l2.932-.209a32.6,32.6,0,0,0,4.329-.559c.908-.209,1.606-.489,1.466-.908a1.525,1.525,0,0,0-.209-.349,7.2,7.2,0,0,1-.977-2.095c-.349-2.025,2.444-3.351,3.98-3.7,1.606-.349,2.444-1.257,3.91.07.908.838,1.745,1.745,2.653,2.583h.07a2.619,2.619,0,0,0,.7.07l-.07.07a.638.638,0,0,0-.209.349h0a.638.638,0,0,1,.209-.349l.07-.07,1.606-1.606c.419-.489,3.7-3.072,2.932-3.77a12.866,12.866,0,0,0-3.351-2.095c-1.676-.908-1.117-1.676-.07-3.212,1.606-2.374,3.212-2.862,6-2.793a8.361,8.361,0,0,0,1.327,0,7.618,7.618,0,0,0,.768-.419l.279-.279a1.174,1.174,0,0,1-1.047.7h0a1.143,1.143,0,0,0,1.047-.7,4.8,4.8,0,0,0,.209-.559,12.224,12.224,0,0,0,.419-2.3c.14-1.187.279-3-.628-3.77a1.8,1.8,0,0,0-1.117-.419,1.8,1.8,0,0,1,1.117.419c-.628-.14-1.4-.209-2.094-.349-2.095.209-3.421-.14-4.259-2.3a6.941,6.941,0,0,1,.559-5.027c.7-.977,2.444-1.815,2.444-3.072a4.419,4.419,0,0,0-.7-2.234,10.492,10.492,0,0,0-1.257-1.676c-.628-.628-1.257-1.257-1.955-1.885a13.2,13.2,0,0,0-1.885-1.4c-.14-.07-.349-.209-.489-.279a2.37,2.37,0,0,0-1.745-.279,2.37,2.37,0,0,1,1.745.279,3.662,3.662,0,0,0-2.583.209h0a6.417,6.417,0,0,0-1.257,1.606c-1.047,1.745-2.374,3.072-4.538,2.723-.908-.14-5.166-1.187-5.446-2.164-.419-1.536.07-3.281-.628-4.887-1.4-3.142-4.678-2.723-7.54-2.164-2.025.419-2.3,4.329-1.745,6.074.14.489-.489.838-1.047.908h0a2.535,2.535,0,0,1-1.745.768h0c-1.327.559-2.862,1.117-3.77.559-.628-.419-1.117-1.466-1.676-1.955.14.14.07.14.07.07a9.529,9.529,0,0,0-1.187-1.187C337.48,368.517,337.829,368.936,338.248,369.355Zm36.3,1.885a10.494,10.494,0,0,1,1.257,1.676,7.964,7.964,0,0,1-.768-.768c-.768-.768-1.536-1.815-2.444-2.723A24.059,24.059,0,0,1,374.553,371.24Zm-14.592,38.469a1.527,1.527,0,0,0,.209.349c.14.349-.489.7-1.466.908A4.31,4.31,0,0,0,359.961,409.709Zm-16.826-25.623h0a11.317,11.317,0,0,1,2.164-3.212,1.013,1.013,0,0,1,.07.419,14.616,14.616,0,0,1,1.955-1.536,1.407,1.407,0,0,1,.768-.209c5.166-1.955,12.008-2.3,15.639,2.723a10.053,10.053,0,0,1-1.466,13.824c-5.306,4.468-13.4,5.236-18.013-.768C341.25,391.487,341.18,387.437,343.135,384.086Z" transform="translate(-78.839 -87.485)" fill="#f4f4f4"/>
      <path id="Trazado_3296" data-name="Trazado 3296" d="M362.12,405.617a11.062,11.062,0,0,1-8.936-4.4,8.548,8.548,0,0,1-1.4-8.029,11.132,11.132,0,0,1,3.7-5.027.964.964,0,0,1,.279-.209h.07a15.706,15.706,0,0,1,6-1.257,14.28,14.28,0,0,0-6,1.257h-.07c-.07.07-.209.14-.279.209a10.444,10.444,0,0,0-3.7,5.027,8.19,8.19,0,0,0,1.4,8.029A11.474,11.474,0,0,0,362.12,405.617Z" transform="translate(-86.444 -94.774)" fill="#f4f4f4"/>
      <path id="Trazado_3297" data-name="Trazado 3297" d="M325.993,403c0,.279.14.279.628.279C326.063,403.349,325.923,403.279,325.993,403Z" transform="translate(-78.802 -99.697)" fill="#f4f4f4"/>
      <path id="Trazado_3298" data-name="Trazado 3298" d="M435,319.782c3.491-1.955,8.1-4.049,11.24-6.982C443.029,315.732,438.421,317.9,435,319.782Z" transform="translate(-111.709 -72.471)" fill="#f4f4f4"/>
      <path id="Trazado_3299" data-name="Trazado 3299" d="M389.9,320.8Z" transform="translate(-98.096 -74.886)" fill="#f4f4f4"/>
      <path id="Trazado_3300" data-name="Trazado 3300" d="M389.068,425.77a2.376,2.376,0,0,1-.7-.07h-.07a1.04,1.04,0,0,1,.419.489.638.638,0,0,1,.209-.349A.216.216,0,0,1,389.068,425.77Z" transform="translate(-97.613 -106.548)" fill="#5ea3a3"/>
      <path id="Trazado_3301" data-name="Trazado 3301" d="M352.734,389.219a1.013,1.013,0,0,0-.07-.419,10.425,10.425,0,0,0-2.164,3.212,13.528,13.528,0,0,1,2.234-2.793Z" transform="translate(-86.204 -95.411)" fill="#5ea3a3"/>
      <path id="Trazado_3302" data-name="Trazado 3302" d="M373.3,468.5c.977.768,1.885,1.536,2.793,2.374-1.466-1.4-2.374-2.3-2.374-2.3A1.953,1.953,0,0,1,373.3,468.5Z" transform="translate(-93.086 -119.467)" fill="#5ea3a3"/>
      <path id="Trazado_3303" data-name="Trazado 3303" d="M337.17,444.178a.068.068,0,0,1-.07.07c1.327-.14,3.98-.349,6.563-.489A18.342,18.342,0,0,0,337.17,444.178Z" transform="translate(-82.16 -111.971)" fill="#5ea3a3"/>
      <path id="Trazado_3304" data-name="Trazado 3304" d="M355.766,387.927c-.07.07-.209.14-.279.209a10.444,10.444,0,0,0-3.7,5.027,8.19,8.19,0,0,0,1.4,8.029,11.062,11.062,0,0,0,8.936,4.4,9.015,9.015,0,0,0,5.516-1.955,10.077,10.077,0,0,0,2.723-3.351,9.223,9.223,0,0,0-1.4-10.472,10.573,10.573,0,0,0-3.7-2.513,11.482,11.482,0,0,0-3.421-.7,16.46,16.46,0,0,0-6.074,1.327Z" transform="translate(-86.444 -94.747)" fill="#5ea3a3"/>
      <path id="Trazado_3305" data-name="Trazado 3305" d="M352.936,373.4c-.419.209-.908.489-1.536.768a2.535,2.535,0,0,0,1.745-.768Z" transform="translate(-86.476 -90.762)" fill="#5ea3a3"/>
      <path id="Trazado_3306" data-name="Trazado 3306" d="M331.37,449.6c0,.07-.07.07-.07.14l.07-.14Z" transform="translate(-80.409 -113.762)" fill="#5ea3a3"/>
      <path id="Trazado_3307" data-name="Trazado 3307" d="M388.183,369.85a2.37,2.37,0,0,0-1.745-.279,2.615,2.615,0,0,0-.838.489A3.691,3.691,0,0,1,388.183,369.85Z" transform="translate(-96.799 -89.586)" fill="#5ea3a3"/>
      <path id="Trazado_3308" data-name="Trazado 3308" d="M326.07,400.7v.489c0,.559-.07.908-.07,1.117,0,.279.14.279.628.279a1.363,1.363,0,0,0,.489-.07h0A2.822,2.822,0,0,1,326.07,400.7Z" transform="translate(-78.809 -99.002)" fill="#5ea3a3"/>
      <path id="Trazado_3309" data-name="Trazado 3309" d="M374.266,430.549a1.527,1.527,0,0,0-.209-.349,5.37,5.37,0,0,1-1.257,1.257C373.708,431.177,374.406,430.9,374.266,430.549Z" transform="translate(-92.935 -107.907)" fill="#5ea3a3"/>
      <path id="Trazado_3310" data-name="Trazado 3310" d="M327.317,393.24a.992.992,0,0,1,.419-.14,11.31,11.31,0,0,0-1.536.07c0,.209.07.349.07.559h.07A.728.728,0,0,1,327.317,393.24Z" transform="translate(-78.87 -96.709)" fill="#5ea3a3"/>
      <path id="Trazado_3311" data-name="Trazado 3311" d="M395.912,375.761a10.5,10.5,0,0,0-1.257-1.676c-.628-.628-1.257-1.257-1.955-1.885.838.908,1.606,1.955,2.444,2.723A2.975,2.975,0,0,0,395.912,375.761Z" transform="translate(-98.942 -90.4)" fill="#5ea3a3"/>
      <path id="Trazado_3312" data-name="Trazado 3312" d="M405.743,336.9c-.14,0-.209.07,0,0Z" transform="translate(-102.838 -79.745)" fill="#5ea3a3"/>
      <path id="Trazado_3313" data-name="Trazado 3313" d="M335.2,404.1a3.052,3.052,0,0,1,1.606,1.745,5.947,5.947,0,0,1,.279,1.606v1.606a3.546,3.546,0,0,0,.209-1.187C337.364,406.474,336.876,404.17,335.2,404.1Z" transform="translate(-81.586 -100.029)" fill="#5ea3a3"/>
      <path id="Trazado_3314" data-name="Trazado 3314" d="M361.177,431.727a14.955,14.955,0,0,0-.908-1.327c0,.628-.07,1.327-.07,2.025a11.42,11.42,0,0,1,1.536-.14A2.124,2.124,0,0,1,361.177,431.727Z" transform="translate(-89.132 -107.967)" fill="#5ea3a3"/>
      <path id="Trazado_3315" data-name="Trazado 3315" d="M341.4,427.77a2.376,2.376,0,0,0,.977.14,1.86,1.86,0,0,0,.838-.209A5.413,5.413,0,0,1,341.4,427.77Z" transform="translate(-83.457 -107.152)" fill="#5ea3a3"/>
      <path id="Trazado_3316" data-name="Trazado 3316" d="M436.275,305.523c.07-.07.07-.14.14-.209,0-.07.07-.07.07-.14s0-.07.07-.14c0-.07.07-.14.07-.279.279-1.885-1.745-4.957-2.444-6.214-.559-.977-1.117-2.095-1.676-3.142-2.025,1.606-4.049,3.072-6.214,4.538l-2.3,1.815s-.628.279-1.606.768h0c-3.072,1.955-6.214,3.7-9.425,5.376-5.306,2.653-10.891,5.166-16.756,6.074a36.9,36.9,0,0,0,2.793,5.166c.977,1.4,2.513,4.329,4.119,5.166.07,0,.14-.07.209-.07l1.047-.419c.908-.349,1.745-.768,2.653-1.117,5.516-2.513,11.031-5.166,16.337-8.169,3.491-1.955,8.1-4.049,11.24-6.982A23.438,23.438,0,0,0,436.275,305.523Z" transform="translate(-99.998 -67.219)" fill="#5ea3a3"/>
      <path id="Trazado_3317" data-name="Trazado 3317" d="M402.647,405.5c-.07.14-.209.209-.279.279a7.608,7.608,0,0,1-.768.419h0A1.314,1.314,0,0,0,402.647,405.5Z" transform="translate(-101.628 -100.451)" fill="#5ea3a3"/>
      <path id="Trazado_3318" data-name="Trazado 3318" d="M388.509,302.2l-.209.628c.07-.07.209-.14.279-.209a2.468,2.468,0,0,1-.07-.419Z" transform="translate(-97.613 -69.272)" fill="#5ea3a3"/>
      <path id="Trazado_3319" data-name="Trazado 3319" d="M400.977,395.4h-.559a.885.885,0,0,0-.419.07h0c.7.14,1.4.209,2.094.349A1.374,1.374,0,0,0,400.977,395.4Z" transform="translate(-101.145 -97.403)" fill="#5ea3a3"/>
      <path id="Trazado_3320" data-name="Trazado 3320" d="M386.55,316.665h0V311.5h0l-.419-4.4h0c-2.583,5.027-5.516,9.914-7.331,15.29,3.351-.7,6-3.072,8.587-5.306C386.9,317.154,386.55,317.014,386.55,316.665Z" transform="translate(-94.746 -70.751)" fill="#5ea3a3"/>
      <path id="Trazado_3321" data-name="Trazado 3321" d="M339.977,368.5a1.55,1.55,0,0,0-.349.279l-.628.628h0c1.187.209,2.094,1.117,3.142,1.745a9.529,9.529,0,0,0-1.187-1.187,9.287,9.287,0,0,0-1.327-.977A2.765,2.765,0,0,1,339.977,368.5Z" transform="translate(-82.733 -89.283)" fill="#5ea3a3"/>
      <path id="Trazado_3322" data-name="Trazado 3322" d="M334.008,417.8a2.528,2.528,0,0,0-.908,1.676.752.752,0,0,0,.14.559A6.539,6.539,0,0,1,334.008,417.8Z" transform="translate(-80.952 -104.164)" fill="#5ea3a3"/>
      <path id="Trazado_3323" data-name="Trazado 3323" d="M301.3,409.824a1.938,1.938,0,0,1,0-1.536,6.24,6.24,0,0,1,.628-1.117,1.211,1.211,0,0,1,1.257-.349.992.992,0,0,1,.14-.419,4.264,4.264,0,0,1,2.094-2.3c2.723-1.257,5.865-1.117,8.867-1.047A99.078,99.078,0,0,0,330,401.935a67.728,67.728,0,0,1,7.47-.768c2.653-.07,5.585,0,8.1-.838,7.47-2.444,7.889-11.869,14.382-15.36,1.047-.559,4.119-1.676,5.027-.209a3.325,3.325,0,0,1,.07,2.932A15.583,15.583,0,0,1,364,389.857c-1.117,2.025-2.164,4.049-3.072,6.144l-.838,2.094h0c-.349,1.327-.7,2.513-1.047,3.491h0v.07c-.419,1.745-1.117,4.189-.419,5.934.908,2.234,3.421,3.77,5.516,4.817,7.4,3.63,15.988,4.049,24.017,5.934v-.07a4.17,4.17,0,0,1-1.955-.838,5.379,5.379,0,0,1-.977-1.466,11.1,11.1,0,0,1-.7-3.561c-.349-3.281-.908-7.47-.349-10.961-.14-.07-.209-.209-.279-.279a.867.867,0,0,1,.559-1.047h0c-.07-.07-.07-.07-.07-.14-.419-.768.14-3.072.209-3.63.349-3.491.768-6.912,1.187-10.4.977-8.308,2.025-16.616,2.444-24.994,0-.628,1.815-1.047,2.025-.419v.14c-.349,7.819-1.326,15.569-2.234,23.319-.419,3.491-.838,6.912-1.187,10.4-.07.628-.768,4.049-.559,4.747,0,.07.07.07.07.14.07.07.07.07.07.14.07.14,0,.209-.07.349a.244.244,0,0,1,.07.14c0,.07,0,.07.07.14,18.362-.209,37.142-2.653,55.155,1.676a.855.855,0,0,1,.628.419c.209.558-.489,1.326-1.257,1.117-17.943-4.329-36.514-1.815-54.736-1.676-.07,1.257,0,2.583,0,3.77a37.683,37.683,0,0,0,.628,8.867,11.655,11.655,0,0,0,.419,1.4,3.873,3.873,0,0,0,.419.559.068.068,0,0,0,.07.07,2.615,2.615,0,0,0,1.327.559c1.326.209,2.653.349,3.98.489.559.07,1.117.07,1.676.14,3.072.209,6.912.419,10.891.628a295.805,295.805,0,0,0,33.372-.279c1.536-.209,2.723-.419,3.561-.489-.279-.489-.07-2.234-.07-2.932.07-1.466.07-2.932.14-4.468.07-1.815.07-3.63.14-5.516.07-3.98.209-7.959.209-11.939s0-7.959-.14-11.939c-.419-14.452-.838-31.068-10.472-42.8a46.261,46.261,0,0,0-8.238-7.889l-.419-.209c-7.121-3.98-12.637-7.051-16.686-9.355-5.934-2.583-12.008-4.887-17.873-7.4a.715.715,0,0,1-.419-.349c-4.538,4.119-10.4,6.982-15.779,9.774a161.42,161.42,0,0,1-16.477,7.819c-.489.209-2.3,1.047-2.793.559A37.659,37.659,0,0,1,346.4,319.9c-3.421,2.932-6.842,5.934-11.52,6.214-.489,0-.908-.209-.908-.7a.256.256,0,0,1,.07-.209,69.306,69.306,0,0,1,5.655-12.5h-.14c-24.226.209-47.405,10.752-71.771,8.378-1.4.07-2.374.14-2.653.14-2.3,3.281-6.074,6.563-10.263,6h-.279c-.977,2.444-2.094,4.887-3.281,7.261-5.166,10.891-11.8,22.76-12.637,35.048-.279,4.678.419,10.054,4.678,12.846,4.329,2.723,8.169,2.374,11.1-1.885a29.714,29.714,0,0,0,1.885-3.212c.209-.349.349-.768.559-1.117a.664.664,0,0,1-.279-.7,1.076,1.076,0,0,1,.489-.489c.14-.07.209-.14.349-.14,3.351-7.819,4.4-17.105,5.306-25.2a245.507,245.507,0,0,0,1.536-26.81v-.14c.209-.559,2.025-.768,2.025-.419,0,7.331-.419,14.661-1.047,21.992-.489,5.516-1.606,20.107-5.725,30.3h1.326c3.072-.07,6.074-.14,9.146-.14,6.772-.07,13.475,0,20.247,0,.279-.838.489-1.745.838-2.583,3.561-10.682,9.425-20.6,12.218-31.557a.068.068,0,0,1,.07-.07c.349-.419,2.025-.628,1.955-.279-2.723,10.961-8.727,20.805-12.218,31.557a158.135,158.135,0,0,0-6.074,30.58c-1.047,8.867-2.025,17.8-2.374,26.74q-.209,4.189-.209,8.378c0,.977,0,1.955.07,2.932a58.683,58.683,0,0,0,1.676,13.056v.07c-.07.209-.628.419-1.117.559.07.628.07.908.07.908h88.876l.838-.14a100.6,100.6,0,0,1-13.4-7.819c-.419-.279-.908-.628-1.326-.908a39.734,39.734,0,0,1-5.166-3.212c-.558-.489-1.676-1.466-3-2.793-7.191-5.516-14.033-11.45-21.015-17.245a.824.824,0,0,1-.838-.209,10.373,10.373,0,0,0-4.329-2.025,19.824,19.824,0,0,1-2.374-.558c-3.7-.908-17.245-4.189-17.245-4.189l-.559-.559c-2.583-.908-4.887-2.234-5.166-4.119a.629.629,0,0,1,.07-.349A.825.825,0,0,1,301.3,409.824Zm-2.932-32.465a.363.363,0,0,1-.279-.14c-1.327-1.047-.14-7.191-.489-8.657-.14-.559.7-.838,1.117-.908,2.932-.489,5.934.628,7.331-2.723.628-1.536,1.536-1.955.279-2.793a23.747,23.747,0,0,1-2.094-1.606c-2.234-2.094-2.444-2.513-.349-5.027,1.327-1.606,3.281-4.608,5.516-5.027a2.521,2.521,0,0,1,1.187.209,13.139,13.139,0,0,1,3.212,2.862l1.257,1.466a1.735,1.735,0,0,0,.559-.07,9.8,9.8,0,0,0,2.374-.908c-.489-2.3.07-6.423,2.444-7.051,2.793-.768,6.283-1.187,8.727,0a5.24,5.24,0,0,1,2.793,4.329c.209,1.606-.489,2.723.908,3.281,1.815.768,3.91,2.025,5.236-.279,1.047-1.745,2.164-3.491,4.329-3.7a6.251,6.251,0,0,1,3,.7c3.142,1.536,6.214,5.306,6.633,7.819a3.308,3.308,0,0,1-.908,2.513l-.7.7c-.419,1.047-1.047,2.164-1.4,3.142a8.478,8.478,0,0,1-.14,1.745h0a2.572,2.572,0,0,0,1.187,1.536,5.814,5.814,0,0,0,3,.209,2.9,2.9,0,0,1,1.117.209c2.723,1.047,2.513,6.423.908,8.8a4.43,4.43,0,0,1-.7.838,4.939,4.939,0,0,1-3.142.628c-2.653,0-3.84.628-4.887,2.513h0a4.892,4.892,0,0,0,.559.7,8.374,8.374,0,0,0,.768.838h0c1.257.768,2.723,1.815,2.862,2.3.209.908-.489,1.955-1.466,2.862l-.209.209-.14.14c-.838.768-1.745,1.466-2.234,1.955-.419.419-.838.908-1.257,1.326a2.736,2.736,0,0,1-2.583.977c-.908-.209-1.815-1.327-2.374-1.885L339,390.066l-.559-.559v.07l-.07.07a12.26,12.26,0,0,0-3,1.606c-.559.559-.7,1.257-.07,2.3.279.489.7,1.047.419,1.606a3.165,3.165,0,0,1-.908,1.187c-2.723,2.3-9.355,1.187-12.218,1.885-.419.14-1.187.07-1.187-.489,0-2.164,1.187-4.4-2.164-5.027a29.129,29.129,0,0,0-3.561-.558,1.585,1.585,0,0,0-1.117.419l-.14.14-.14.14a4.759,4.759,0,0,1-.838.838,1.527,1.527,0,0,1-.349.209c-1.955,1.117-4.817.279-6.493-.908-1.257-.908-3.98-2.932-4.4-4.468a2.9,2.9,0,0,1,1.117-2.723.068.068,0,0,0,.07-.07l.279-.279a15.75,15.75,0,0,1,2.374-1.745c-.419-1.745.628-4.049-.768-5.515C303.187,375.963,300.813,377.848,298.37,377.359Z" transform="translate(-52.436 -72.381)" fill="#5ea3a3"/>
      <path id="Trazado_3324" data-name="Trazado 3324" d="M271.354,461.5h-22.2c-1.117,0-1.536,1.466-.209,1.466h22.2C272.331,462.9,272.75,461.5,271.354,461.5Z" transform="translate(-55.301 -117.354)" fill="#3d3d3d"/>
      <path id="Trazado_3325" data-name="Trazado 3325" d="M124.961,381.1c1.117,0,1.606-1.4.209-1.4H110.44c-1.117,0-1.606,1.4-.209,1.4Z" transform="translate(-13.424 -92.664)" fill="#3d3d3d"/>
      <path id="Trazado_3326" data-name="Trazado 3326" d="M249.806,485.4c-.419,0-2.3.838-1.327.838h22.2c.419,0,2.3-.838,1.327-.838Z" transform="translate(-55.327 -124.568)" fill="#3d3d3d"/>
      <path id="Trazado_3327" data-name="Trazado 3327" d="M271.708,473.5h-22.2c-.7,0-2.164,1.047-.838,1.047h22.2C271.568,474.547,273.034,473.5,271.708,473.5Z" transform="translate(-55.306 -120.976)" fill="#3d3d3d"/>
      <path id="Trazado_3328" data-name="Trazado 3328" d="M129.051,371.8H122a2.952,2.952,0,0,0-1.4.349c-.349.209-.279.419.14.419h7.051a2.952,2.952,0,0,0,1.4-.349C129.47,372.079,129.4,371.8,129.051,371.8Z" transform="translate(-16.746 -90.279)" fill="#3d3d3d"/>
      <path id="Trazado_3329" data-name="Trazado 3329" d="M393.288,231.821c1.257-.628.14-1.745-.908-1.187-4.259,2.094-14.382,5.516-10.891,12.008.419.838,2.374.07,1.885-.908C380.442,236.5,389.867,233.5,393.288,231.821Z" transform="translate(-95.341 -47.625)" fill="#3d3d3d"/>
      <path id="Trazado_3330" data-name="Trazado 3330" d="M81.5,451.055a6.737,6.737,0,0,0,13.475,0,6.821,6.821,0,0,0-3-5.655h.07l12.707-29.183-2.583-1.117L89.459,444.353l.419.209a5.95,5.95,0,0,0-1.606-.209A6.719,6.719,0,0,0,81.5,451.055Zm6.772-3.98a3.945,3.945,0,0,1,0,7.889,3.963,3.963,0,0,1-3.98-3.91A4.023,4.023,0,0,1,88.272,447.076Z" transform="translate(-5.01 -103.349)" fill="#3d3d3d"/>
      <path id="Trazado_3331" data-name="Trazado 3331" d="M409.744,244.028a1.843,1.843,0,0,0,1.326-.489,12.1,12.1,0,0,0,1.745-2.862c.209-.349-.7-.279-.838-.279-.349.07-.977.209-1.187.559a10.109,10.109,0,0,1-1.536,2.653C408.906,243.958,409.534,244.028,409.744,244.028Z" transform="translate(-103.907 -50.616)" fill="#3d3d3d"/>
      <path id="Trazado_3332" data-name="Trazado 3332" d="M412.928,228.836a9.509,9.509,0,0,1,7.61,4.608c.489.768,2.444,0,1.815-.908a11.049,11.049,0,0,0-8.8-5.236C412.649,227.3,411.6,228.766,412.928,228.836Z" transform="translate(-104.857 -46.664)" fill="#3d3d3d"/>
      <path id="Trazado_3333" data-name="Trazado 3333" d="M393.362,217.921a1.307,1.307,0,0,0,1.4-.349.641.641,0,0,0-.279-1.047,14.459,14.459,0,0,1-6.353-3.212c-.7-.628-2.444.349-1.536,1.187A14.88,14.88,0,0,0,393.362,217.921Z" transform="translate(-97.02 -42.382)" fill="#3d3d3d"/>
      <path id="Trazado_3334" data-name="Trazado 3334" d="M140.013,451.788a6.85,6.85,0,0,0-4.4-.628c-5.725-13.684-11.38-27.438-17.105-41.122a6.069,6.069,0,0,0,2.793-4.957v-.209c-.419-7.889-12.288-7.191-12.707.349-.209,3.351,3,6.074,6.283,5.934a7.02,7.02,0,0,0,1.745-.279c5.655,13.614,11.38,27.3,17.035,40.912a6.055,6.055,0,0,0-3.281,5.236c-.209,3.351,3,6.214,6.283,6a6.524,6.524,0,0,0,6.423-6v-.349a6.1,6.1,0,0,0-2.094-4.259,1.176,1.176,0,0,0,.768-.419c6.423-8.448,12.846-16.826,19.269-25.274a6.22,6.22,0,0,0,5.306,1.745A7.73,7.73,0,0,0,169.895,427l13.4,19.688a6.146,6.146,0,0,0-1.117,3.281c-.419,7.889,12.288,7.261,12.707-.279v-.14a5.333,5.333,0,0,0-1.676-3.84c4.817-6.912,9.565-13.824,14.382-20.736,3.63,1.745,9.635-.209,9.914-5.236v-.14c-.419-7.819-12.288-6.982-12.707.419a4.953,4.953,0,0,0,1.536,4.119c-.07.07-.209.14-.209.209-4.748,6.842-9.425,13.614-14.173,20.456a7.061,7.061,0,0,0-7.121.559c-4.4-6.493-8.867-13.056-13.265-19.549-.07-.07-.14-.14-.209-.14a6.227,6.227,0,0,0,1.047-3.142c-.419-7.819-12.288-6.772-12.707.559a4.826,4.826,0,0,0,.628,2.653,1.35,1.35,0,0,0-.628.349C153.069,434.683,146.576,443.2,140.013,451.788Zm-25.274-41.96c-2.3-.14-3.77-2.3-4.049-4.329a4.373,4.373,0,0,1,4.538-4.957c2.513.14,3.91,2.583,4.119,4.817C119.068,407.873,117.462,409.968,114.74,409.828Zm26.321,47.2c-.14,2.513-1.815,4.678-4.538,4.468-2.374-.14-3.98-2.444-4.119-4.678a4.269,4.269,0,0,1,4.538-4.468C139.315,452.486,140.921,454.86,141.06,457.024Zm70.584-41.75c2.374.349,3.63,2.723,3.77,4.887-.14,2.653-1.885,4.957-4.817,4.468-2.164-.349-3.421-2.374-3.77-4.4A4.3,4.3,0,0,1,211.645,415.274Zm-22.621,30.021c2.374.349,3.63,2.723,3.77,4.887-.14,2.653-1.955,4.957-4.887,4.468-2.164-.349-3.421-2.374-3.77-4.329A4.43,4.43,0,0,1,189.024,445.295Zm-21.364-26.67a5.273,5.273,0,0,1,2.583,4.538c-.14,3.142-2.862,5.655-6.074,3.98a5.273,5.273,0,0,1-2.583-4.538A4.135,4.135,0,0,1,167.661,418.625Z" transform="translate(-13.186 -98.566)" fill="#3d3d3d"/>
      <path id="Trazado_3335" data-name="Trazado 3335" d="M127.493,363.1h-9.146c-1.187,0-1.536,1.536-.14,1.536h9.146C128.541,364.636,128.89,363.1,127.493,363.1Z" transform="translate(-15.816 -87.653)" fill="#3d3d3d"/>
      <path id="Trazado_3336" data-name="Trazado 3336" d="M368.953,402.878a10.053,10.053,0,0,0,1.466-13.824c-3.63-4.957-10.472-4.678-15.639-2.723a1.408,1.408,0,0,0-.768.209,21.026,21.026,0,0,0-1.955,1.536h0a10.642,10.642,0,0,0-2.234,2.793h0c-1.955,3.351-1.885,7.4,1.047,11.24C355.479,408.115,363.647,407.277,368.953,402.878Zm-18.013-10.263a11.131,11.131,0,0,1,3.7-5.027.965.965,0,0,1,.279-.209h.07a15.705,15.705,0,0,1,6-1.257,9.351,9.351,0,0,1,3.421.7,9.711,9.711,0,0,1,3.7,2.513,9.543,9.543,0,0,1-1.327,13.824,9.471,9.471,0,0,1-5.516,1.955,11.062,11.062,0,0,1-8.936-4.4A8.712,8.712,0,0,1,350.941,392.615Z" transform="translate(-85.598 -94.269)" fill="#3d3d3d"/>
      <path id="Trazado_3337" data-name="Trazado 3337" d="M330.8,392.875c1.4,1.466.349,3.77.768,5.516h0a12.882,12.882,0,0,0-2.374,1.745c-.07.07-.209.14-.279.279a.068.068,0,0,0-.07.07,3.069,3.069,0,0,0-1.117,2.723c.419,1.466,3.212,3.561,4.4,4.468,1.676,1.187,4.538,2.025,6.493.908.14-.07.209-.14.349-.209l.838-.838.14-.14.14-.14a1.474,1.474,0,0,1,1.117-.419,31.418,31.418,0,0,1,3.561.559c3.351.628,2.164,2.862,2.164,5.027,0,.628.768.628,1.187.489,2.793-.7,9.425.349,12.218-1.885a3.009,3.009,0,0,0,.908-1.187c.279-.559-.14-1.117-.419-1.606-.628-1.047-.489-1.745.07-2.3a10.285,10.285,0,0,1,3-1.606.068.068,0,0,0,.07-.07v-.07h0c0,.07.14.209.559.559.489.419.908.908,1.326,1.327.559.559,1.466,1.745,2.374,1.885a2.736,2.736,0,0,0,2.583-.977c.419-.419.838-.908,1.257-1.327h0c.489-.489,1.4-1.187,2.234-1.955l.14-.14.209-.209c.908-.908,1.676-1.955,1.466-2.862-.14-.489-1.606-1.536-2.862-2.3h0a5.21,5.21,0,0,0-1.745-.838,6.141,6.141,0,0,1,.419-.7h0c1.117-1.885,2.234-2.583,4.887-2.513a4.762,4.762,0,0,0,3.142-.628,2.794,2.794,0,0,0,.7-.838c1.606-2.444,1.815-7.75-.908-8.8a2.894,2.894,0,0,0-1.117-.209c-1.257,0-2.234.209-3-.209a2.814,2.814,0,0,1-1.187-1.536h0a8.478,8.478,0,0,0,.14-1.745v-.14a3.971,3.971,0,0,1,1.4-3l.7-.7a3.308,3.308,0,0,0,.908-2.513c-.419-2.513-3.561-6.284-6.633-7.819a5.541,5.541,0,0,0-3-.7c-2.164.209-3.351,1.955-4.329,3.7-1.4,2.3-3.421,1.047-5.236.279h0c-1.4-.559-.7-1.745-.908-3.281a5.24,5.24,0,0,0-2.793-4.329c-2.444-1.257-6-.768-8.727,0-2.374.628-2.932,4.748-2.444,7.051a7.585,7.585,0,0,1-2.374.908,1.361,1.361,0,0,0-.559.07h0l-1.257-1.466a13.137,13.137,0,0,0-3.212-2.862,1.882,1.882,0,0,0-1.187-.209c-2.234.419-4.189,3.421-5.516,5.027-2.094,2.513-1.885,2.932.349,5.027a11.9,11.9,0,0,0,2.095,1.606c1.326.908.419,1.257-.279,2.793-1.466,3.421-4.4,2.234-7.331,2.723-.419.07-1.257.349-1.117.908.349,1.466-.908,7.54.489,8.657a.529.529,0,0,0,.279.14C326.261,392.456,328.634,390.571,330.8,392.875Zm6.493-24.017.14.14c.489.559.977,1.606,1.676,1.955.908.559,2.444,0,3.77-.559h0l1.536-.768h.209c.628-.07,1.257-.489,1.047-.908-.628-1.745-.349-5.725,1.745-6.074,2.862-.559,6.144-.977,7.54,2.164.7,1.606.14,3.281.628,4.887.279.977,4.538,2.025,5.446,2.164,2.164.279,3.491-.977,4.538-2.723a8.034,8.034,0,0,1,1.257-1.606h0a2.615,2.615,0,0,1,.838-.489,2.37,2.37,0,0,1,1.745.279,1.751,1.751,0,0,1,.489.279,19.534,19.534,0,0,1,3.84,3.281,10.494,10.494,0,0,1,1.257,1.676,4.419,4.419,0,0,1,.7,2.234c-.07,1.257-1.745,2.164-2.444,3.072a6.941,6.941,0,0,0-.559,5.027c.838,2.234,2.164,2.513,4.259,2.3h0a.885.885,0,0,0,.419-.07h.559a1.8,1.8,0,0,1,1.117.419c.908.838.768,2.583.628,3.77a13.328,13.328,0,0,1-.419,2.3,4.809,4.809,0,0,1-.209.559,1.174,1.174,0,0,1-1.047.7h0a8.361,8.361,0,0,1-1.326,0c-2.862,0-4.4.419-6,2.793-1.047,1.536-1.606,2.234.07,3.212a14.136,14.136,0,0,1,3.351,2.094c.768.768-2.513,3.351-2.932,3.77l-1.606,1.606-.07.07a.638.638,0,0,0-.209.349h0a1.88,1.88,0,0,0-.419-.489h0c-.908-.838-1.745-1.745-2.653-2.583-1.466-1.327-2.3-.419-3.91-.07-1.536.349-4.329,1.676-3.98,3.7a7.2,7.2,0,0,0,.977,2.094,1.526,1.526,0,0,0,.209.349c.14.349-.489.7-1.466.908a32.6,32.6,0,0,1-4.329.559l-2.932.209h0c-.489.07-1.047.07-1.536.14,0-.7.07-1.4.07-2.025h0a2.8,2.8,0,0,0-2.234-3c-2.3-.7-5.166-1.4-7.54-.559a2.74,2.74,0,0,0-1.257,1.257,1.1,1.1,0,0,1-.489.489,1.489,1.489,0,0,1-.838.209,5.476,5.476,0,0,1-.977-.14h0a11.668,11.668,0,0,1-3.63-2.374,13.559,13.559,0,0,1-1.815-2.164.529.529,0,0,1-.14-.279,2.159,2.159,0,0,1-.14-.559,2.532,2.532,0,0,1,.908-1.676h0a8.963,8.963,0,0,1,2.164-1.536c.209-.14.7-.419.559-.768a5.966,5.966,0,0,1-.279-2.234h0V394.62a4.329,4.329,0,0,0-.279-1.606,3.052,3.052,0,0,0-1.606-1.745,7.835,7.835,0,0,0-2.793-.7,15.174,15.174,0,0,0-2.513.14h0c-.209,0-.349.07-.489.07-.489.07-.628,0-.628-.279,0-.209.07-.559.07-1.117V388.9a35.743,35.743,0,0,0,.07-4.747h0a1.537,1.537,0,0,0-.07-.559,11.311,11.311,0,0,1,1.536-.07h0a20.621,20.621,0,0,0,4.119-.419c2.3-.628,2.932-4.329,4.049-6.074.209-.349-.07-.559-.349-.7-1.4-.489-5.376-2.862-4.4-4.468a24.826,24.826,0,0,1,3.98-4.608h0l.628-.628c.209-.209.349-.349.349-.279,0,0-.14.209-.349.489a9.29,9.29,0,0,1,1.327.977A14.593,14.593,0,0,1,337.292,368.858Z" transform="translate(-77.883 -86.989)" fill="#3d3d3d"/>
      <path id="Trazado_3338" data-name="Trazado 3338" d="M230.44,510.4H67.209c-.349,0-2.3.768-1.327.768H229.114C229.463,511.168,231.348,510.4,230.44,510.4Z" transform="translate(-0.215 -132.114)" fill="#3d3d3d"/>
      <path id="Trazado_3339" data-name="Trazado 3339" d="M424.247,127.431c7.4.14,14.661-3.98,19.688-9.146a21.677,21.677,0,0,0,1.676-28.345c-7.331-9.7-20.945-10.752-31.627-6.7-.628.209-1.257.489-1.885.768a1.267,1.267,0,0,0-.908.209c-5.934,3.84-10.612,9.076-11.8,16.2-1.047,6.074,1.326,12.218,4.957,16.965A25.615,25.615,0,0,0,424.247,127.431Zm-22.97-26.46c.559-6.633,5.1-11.8,10.333-15.429a3.024,3.024,0,0,0,.349-.07c10.472-4.538,22.83-4.538,30.859,4.4a20.682,20.682,0,0,1,1.955,24.785A26.2,26.2,0,0,1,426.83,126.1c-8.029,1.117-15.918-3.421-20.805-9.5A23.382,23.382,0,0,1,401.277,100.971Z" transform="translate(-100.886 -2.509)" fill="#3d3d3d"/>
      <path id="Trazado_3340" data-name="Trazado 3340" d="M429.882,129.321c12.078-3.561,22.69-13.963,23.877-26.81,1.047-10.891-5.376-21.154-14.8-26.251-10.263-5.585-22.481-3.91-32.884.279a3.043,3.043,0,0,0-1.257.279c-6.353,4.049-11.59,9.425-13.963,16.756-1.955,6.144-.977,12.776,1.676,18.571C398.953,126.109,415.221,133.649,429.882,129.321ZM391.972,98.6c.349-8.518,5.865-15.639,12.567-20.456.349-.209.628-.419.977-.628a1.009,1.009,0,0,0,.489-.14c13.4-5.795,29.323-5.376,39.446,6.144a26.47,26.47,0,0,1,2.3,31.348c-5.376,8.657-15.988,14.941-26.111,14.871-9.355-.07-18.152-5.585-23.738-12.846A27.709,27.709,0,0,1,391.972,98.6Z" transform="translate(-98.074)" fill="#3d3d3d"/>
      <path id="Trazado_3341" data-name="Trazado 3341" d="M109.608,364.794a1.047,1.047,0,1,0,0-2.094h-7.261a1.047,1.047,0,0,0,0,2.094Z" transform="translate(-10.987 -87.533)" fill="#3d3d3d"/>
      <path id="Trazado_3342" data-name="Trazado 3342" d="M254.25,150.99c-3.212-1.466-6.353-2.862-9.565-4.259-1.327-.559-3.142-1.676-4.608-1.536a1.126,1.126,0,0,0-1.047.908c-.279.14-.489.419-.349.559.838,1.117.838,3.491,1.117,4.817.628,3.561,1.187,7.121,1.815,10.752,1.327,7.959,2.583,15.918,4.608,23.738a.323.323,0,0,0,.349.209,1.572,1.572,0,0,0,.838.07c6.423-1.327,12.358-5.376,17.314-9.425,5.1-4.119,10.4-9.146,12.776-15.429.419-.349.489-.838-.14-1.047C269.4,157.9,261.79,154.411,254.25,150.99Zm9.565,24.715c-4.468,3.77-9.914,7.61-15.709,9.076-2.025-7.889-3.281-15.988-4.608-24.087-.559-3.491-1.117-6.982-1.745-10.4a22.311,22.311,0,0,0-.628-3.421c1.187.419,2.723,1.327,3.561,1.676l9.216,4.189a199.08,199.08,0,0,0,21.573,8.727C273.31,167.257,268.353,171.865,263.815,175.7Z" transform="translate(-52.44 -21.878)" fill="#3d3d3d"/>
      <path id="Trazado_3343" data-name="Trazado 3343" d="M374.117,279.056c-10.542-8.448-23.877-12.358-36.025-17.594a1.361,1.361,0,0,0-.559-.07c1.676-1.745.908-3.281,0-5.376a33.819,33.819,0,0,0-4.468-7.889c-.07-.07-.14-.07-.209-.14a33.641,33.641,0,0,1,.838-4.748,9.945,9.945,0,0,1,.838-1.745c.419-.559.977-1.187,1.536-1.885,1.606-1.676,3.561-3.212,4.887-4.608a68.078,68.078,0,0,0,11.729-17.733,31.071,31.071,0,0,0,2.723-14.8c11.45.07,16.826-11.52,10.752-21.085-5.865-9.216-17.384-11.38-25.134-4.4A3.9,3.9,0,0,0,339.7,178.1a2.9,2.9,0,0,1-.977,1.117c-24.087-13.614-53.828,5.236-62.765,29.672-3.77,10.263-6.772,23.877,1.815,32.465,3.84,3.84,9.774,5.655,12.078,10.891a17.17,17.17,0,0,1,1.117,3.351h0c.07.14.07.349.14.489h0a.964.964,0,0,0-.279.209c-.07.07-.209.14-.209.279-.768,1.745-1.676,3.421-2.583,5.1-24.645.209-48.313,11.31-73.1,8.238a2.115,2.115,0,0,0-1.536.7c0-.07.07-.07.07-.14,3.7-5.865,5.166-12.846,7.331-19.409v-.07a28.559,28.559,0,0,0,8.1-1.4c6.283-2.164,9.565-7.261,11.59-13.335,1.536-4.678,2.793-12.078-.768-16.2a7.938,7.938,0,0,0-3.212-2.164h0a91.574,91.574,0,0,1,6.772-13.614c10.333,1.187,20.526-3.491,27.927-10.822,7.68-7.54,14.522-19.13,11.8-30.3A15.507,15.507,0,0,0,272.534,152.2c-4.329-4.189-11.171-5.585-17.314-3.98-9.914,2.653-17.454,11.38-22.341,19.968-4.957,8.8-9.286,22.9-.977,31.068.209.209.7.07,1.187-.07a13.332,13.332,0,0,0,2.3.419,7.421,7.421,0,0,0,.628.768,1.137,1.137,0,0,0-.419.209h0c-.419.279-.489.489-.349.628h0c0,.07-.559,1.327-.7,1.676-.559,1.257-1.047,2.444-1.606,3.7-.419.908-.768,1.815-1.187,2.723-9.216-.977-20.805,5.725-21.154,15.5a54.271,54.271,0,0,1-9.844,15.429c-4.329,4.957-10.333,8.867-15.36,13.125-10.612,8.937-21.434,18.5-29.113,30.161-1.117,1.676-2.094,3.351-3,5.027H67.134a.528.528,0,0,0-.279.07c-.349-.628-1.955-.279-1.955.419V400.257c0,.977,2.025.559,2.025-.209V289.319h84.9a4.651,4.651,0,0,0,1.327-.419,29.918,29.918,0,0,0-3.561,13.125c-.209,6.423,2.374,12.567,6.214,17.664,7.261,9.7,19.269,8.657,29.951,8.657a10.583,10.583,0,0,0,5.795,5.725c7.47,3.351,12.288-1.117,15.5-8.169,1.117-.07,2.653,0,3.421,0,3-.07,6.074-.07,9.076-.07h18.292a154.348,154.348,0,0,0-4.747,25.832c-1.047,8.867-1.955,17.733-2.444,26.6-.419,8.378-.7,17.245,1.4,25.413.07.209.419.209.908.14s1.047-.349,1.117-.559v-.07a58.683,58.683,0,0,1-1.676-13.056c0-.977-.07-1.955-.07-2.932,0-2.793.14-5.655.209-8.378.419-8.937,1.4-17.873,2.374-26.74a158.136,158.136,0,0,1,6.074-30.58c3.491-10.752,9.425-20.6,12.218-31.557.07-.419-1.606-.14-1.955.279l-.07.07c-2.723,10.961-8.657,20.875-12.218,31.557-.279.838-.559,1.745-.838,2.583H217.868c-3.072,0-6.074.07-9.146.14H207.4c4.119-10.193,5.166-24.855,5.725-30.3.7-7.261,1.047-14.661,1.047-21.992,0-.349-1.745-.07-2.025.419v.14a245.5,245.5,0,0,1-1.536,26.81c-.908,8.1-1.955,17.384-5.306,25.2h0c-.14.07-.209.07-.349.14a.835.835,0,0,0-.489.489.51.51,0,0,0,.279.7c-.209.349-.349.768-.559,1.117a29.705,29.705,0,0,1-1.885,3.212c-2.932,4.329-6.772,4.608-11.1,1.885s-5.027-8.169-4.678-12.846c.838-12.218,7.47-24.156,12.637-35.048,1.117-2.374,2.3-4.747,3.281-7.261h0v-.07h.279c4.119.559,7.959-2.723,10.263-6l.419-.628c-.07.14,0,.279.349.279l1.885.209c24.366,2.3,47.545-8.238,71.771-8.378h.14a69.305,69.305,0,0,0-5.655,12.5.256.256,0,0,1-.07.209c0,.489.419.7.908.7,4.678-.279,8.1-3.281,11.52-6.214a37.659,37.659,0,0,0,7.331,10.752c.489.489,2.3-.419,2.793-.559a142.219,142.219,0,0,0,16.477-7.819c5.306-2.793,11.24-5.655,15.779-9.774a.551.551,0,0,0,.419.349c5.865,2.513,11.939,4.817,17.873,7.4a80.531,80.531,0,0,1,17.105,9.635,48.867,48.867,0,0,1,8.238,7.889c9.565,11.729,10.054,28.345,10.472,42.8.14,3.98.14,7.959.14,11.939s-.14,7.959-.209,11.939c-.07,1.815-.07,3.63-.14,5.516-.07,1.466-.07,2.932-.14,4.468a10.192,10.192,0,0,0,.07,2.932c.07.14.14.14.279.14a17.3,17.3,0,0,1-1.885.209c-.7.07-1.327.07-2.025.14a280.008,280.008,0,0,1-33.372.279c-.768,0-1.536-.07-2.3-.07-2.862-.14-5.725-.279-8.587-.559-.559-.07-1.117-.07-1.676-.14-1.327-.14-2.653-.279-3.98-.489a2.133,2.133,0,0,1-1.327-.559.068.068,0,0,0-.07-.07,3.874,3.874,0,0,1-.419-.559,5.553,5.553,0,0,1-.419-1.4,37.685,37.685,0,0,1-.628-8.867,33.927,33.927,0,0,1,0-3.77c18.222-.209,36.793-2.653,54.736,1.676.768.209,1.536-.628,1.257-1.117q-.1-.314-.628-.419c-18.082-4.329-36.793-1.885-55.155-1.676h0c0-.07,0-.07-.07-.14s-.07-.07-.07-.14h0c.07-.14.14-.209.07-.349,0-.07-.07-.07-.07-.14a.244.244,0,0,1-.07-.14c-.279-.768.489-4.119.559-4.747.419-3.491.838-6.912,1.187-10.4.908-7.75,1.885-15.5,2.234-23.319v-.14c-.209-.628-1.955-.279-2.025.419-.419,8.378-1.466,16.686-2.444,24.994-.419,3.491-.838,6.912-1.187,10.4-.07.628-.628,2.932-.209,3.63,0,.07.07.07.07.14h0a.839.839,0,0,0-.559,1.047.545.545,0,0,0,.279.279h0c-.559,3.421,0,7.68.349,10.961a16.063,16.063,0,0,0,.7,3.561,4.159,4.159,0,0,0,.977,1.466,3.622,3.622,0,0,0,1.955.838h0c1.466.279,3.281.209,4.329.349,13.335,1.4,26.949,1.187,40.354.768,1.745-.07,3.63-.07,5.446-.14a.533.533,0,0,0-.14.349,35.248,35.248,0,0,1-14.382,29.044c-8.587,6.493-20.456,10.333-31.208,9.565-12.078-.908-23.319-8.1-32.953-14.871-8.448-5.934-16.267-12.707-24.157-19.339-.908-.768-1.885-1.606-2.793-2.374a3.991,3.991,0,0,1-.559-.489,1.046,1.046,0,0,0-.7-.14c-3.421-2.723-9.5-3.281-13.4-4.259-3.212-.838-6.493-1.676-9.635-2.723-1.257-.419-3.98-1.117-5.236-2.444a9.708,9.708,0,0,0,2.862.838c2.164.419,4.329.279,6.493.489,4.119.349,7.889,2.583,11.939,3.421,1.047.209,2.025-1.257.7-1.536-4.608-.977-8.937-3.561-13.754-3.561-1.606,0-9.006-.209-7.959-2.793h0c0-.07,0-.07.07-.14h0a2.666,2.666,0,0,0,.628.628c2.234,1.536,5.795.7,8.308.628,5.236-.209,9.635,1.4,14.731,1.955.838.14,2.094-1.117.768-1.257-3.84-.489-7.47-1.955-11.38-2.094-1.955-.07-3.91.14-5.865.14h-1.047c-.279,0-.559.07-.838.07-2.234.559-2.653-.7-1.257-3.63h0a.068.068,0,0,1,.07-.07,20.3,20.3,0,0,1,6.563-.419h0a38.181,38.181,0,0,0,3.98.07c4.4-.14,8.727-.7,13.056-1.257,5.934-.768,14.033.489,18.99-3.561a25.486,25.486,0,0,0,5.306-6.563c.838-1.327,1.606-2.653,2.513-3.91a12.939,12.939,0,0,1,2.025-2.3l3.561-.209a5.8,5.8,0,0,1-.419,1.466c-.908,2.374-2.444,4.608-3.561,6.982a36.8,36.8,0,0,0-2.862,9.425c-1.047,6.493,5.865,9.355,11.1,11.031,7.191,2.234,14.871,2.793,22.132,4.817a75.226,75.226,0,0,1,22.9,10.612c.628.419,2.444-.419,1.606-1.047A77.641,77.641,0,0,0,339,368.979c-.908-.279-1.885-.489-2.793-.7h0c-8.029-1.815-16.616-2.3-24.017-5.934-2.095-.977-4.608-2.583-5.516-4.817-.7-1.745,0-4.189.419-5.934v-.07h0a28.811,28.811,0,0,1,1.047-3.491h0l.838-2.094c.908-2.095,1.955-4.119,3.072-6.144a15.59,15.59,0,0,0,1.047-2.164,3.325,3.325,0,0,0-.07-2.932c-.908-1.466-3.98-.349-5.027.209-6.493,3.491-6.912,12.916-14.382,15.36-2.583.838-5.446.7-8.1.838-2.513.07-5.027.489-7.47.768a98.5,98.5,0,0,1-15.709,1.117c-2.932-.07-6.074-.209-8.867,1.047a4.263,4.263,0,0,0-2.094,2.3c-.07.14-.07.279-.14.419h0a1.368,1.368,0,0,0-1.257.349,6.241,6.241,0,0,0-.628,1.117,1.948,1.948,0,0,0,0,1.536h0a1.58,1.58,0,0,0-.838.628.523.523,0,0,0-.07.349c.279,1.885,2.583,3.212,5.166,4.119a69.654,69.654,0,0,0,6.842,1.815c3.491.977,7.051,1.815,10.542,2.723.768.209,1.745.419,2.723.7a9.585,9.585,0,0,1,4.329,2.025.918.918,0,0,0,.838.209c6.982,5.795,13.824,11.729,21.015,17.245,2.653,2.025,5.376,4.049,8.169,5.934.419.279.908.628,1.327.908a100.6,100.6,0,0,0,13.4,7.819c6.563,3.142,13.544,5.236,20.6,5.027,22.341-.768,44.962-16.2,44.683-40.214a.528.528,0,0,0-.07-.279,27.962,27.962,0,0,0,3.351-.559c1.466-.349,1.117-1.676,1.187-3,.07-3.491.209-7.051.279-10.542.419-15.429.768-31.138-1.676-46.5C388.988,296.58,383.752,286.805,374.117,279.056ZM233.646,198.139h-.279c-7.191-7.68-3.561-20.177.559-28.485,4.748-9.565,14.452-21.783,26.321-21.5a15.08,15.08,0,0,1,8.518,3.072,19.753,19.753,0,0,0-8.1.559c-10.193,2.793-18.222,11.869-23.249,20.805-4.119,7.4-7.331,18.013-2.862,25.762A1.933,1.933,0,0,1,233.646,198.139Zm6.7-27.019c5.516-9.216,15.918-19.688,27.577-18.432a21.984,21.984,0,0,1,2.932.628,14.98,14.98,0,0,1,2.444,3.491c2.513,4.957,1.745,11.031.07,16.128-4.259,12.776-16.547,24.715-30.161,26.251a24.131,24.131,0,0,1-5.934-.14C231.133,191.017,235.811,178.8,240.349,171.12Zm-7.47,40a.463.463,0,0,0,.14-.489s.559-1.257.7-1.606c.559-1.257,1.047-2.444,1.606-3.63.419-1.047.908-2.025,1.327-3.072a6.456,6.456,0,0,1,.349-.7h0c.7.7,2.374-.349,1.536-1.187a3.036,3.036,0,0,1-.419-.489c9.286.489,18.362-3.7,25.413-9.984,8.1-7.191,15.36-19.13,13.056-30.37a15.132,15.132,0,0,0-1.676-4.4,15.463,15.463,0,0,1,5.725,7.261c2.025,5.446.559,11.659-1.676,16.826-5.236,12.218-17.454,22.9-31.068,23.6a24.982,24.982,0,0,1-7.889-.977c-.908-.279-2.374,1.047-1.187,1.4.838.279,1.745.419,2.583.628a82.15,82.15,0,0,0-6.7,13.335,25.482,25.482,0,0,0-5.655-.559C230.644,215.1,232.46,213.079,232.878,211.124ZM184.915,326.88c-5.306.07-10.822.559-15.988-.7-6.214-1.4-10.961-5.865-14.1-11.24a26.649,26.649,0,0,1-2.583-19.479c1.606-6.982,6.563-13.2,10.961-18.641,8.587-10.472,19.2-19.2,29.6-27.787,3.77-3.142,7.75-6.074,10.891-9.914a56.462,56.462,0,0,0,8.238-13.056.928.928,0,0,0,.559-.7v-.838c.14-5.1,3.7-9.006,7.959-11.59a19.434,19.434,0,0,1,7.819-2.513c4.748-.489.628,4.4-1.117,6.074-.07.07-.14.14-.14.209-.977.07-1.885.07-2.723.14-.7.07-2.164,1.187-.768,1.117,4.538-.209,10.333-.7,14.033,2.444,3.77,3.281,2.3,9.844,1.466,14.033-1.257,5.934-4.329,11.8-10.193,14.1-5.306,2.025-11.8,1.187-17.384,1.187.07-.07.14-.14.209-.14.838-.7-1.187-.559-1.606-.209-4.608,3.98-19.2,22.83-9.146,27.228h0l-.14.14c-3.84,10.472-9.7,20.037-13.335,30.58C185.333,312.917,183.169,320.806,184.915,326.88Zm15.569-52.432c-3.072-3.351.628-10.123,2.3-13.2a42.21,42.21,0,0,1,7.331-10.333h.14c2.793,0,5.795.14,8.727.14-.14.07-.209.209-.279.279-1.676,5.027-3,10.193-5.1,15.08C211.724,270.608,205.859,280.382,200.484,274.448Zm135.584-56.482a7.845,7.845,0,0,1,2.234.279,2.678,2.678,0,0,1,1.745,2.583c.14,2.653-1.536,5.516-2.932,7.61a17.058,17.058,0,0,1-5.655,5.725,2.613,2.613,0,0,0-1.257.349c-1.676-.14-2.025-3-2.094-4.468,0-.349-.559-.419-1.047-.279,1.466-4.189,3.072-8.238,6.144-11.31A9.117,9.117,0,0,0,336.067,217.966Zm-60.391-.977h-.209c.349-1.606.768-3.072,1.187-4.538,2.723-9.7,7.75-17.314,15.08-24.157a50,50,0,0,1,8.518-6.493c0,1.536.279,10.4,7.889,12.078.838.209,1.745.349,2.653.489.419.07.768.209,1.187.279a50.945,50.945,0,0,0,6.563.628c1.257.07,2.374.14,3.421.209,1.4.14,2.793.279,4.119.489.838.14,1.257.279,1.327.559v.628c-.07.279-.209.7-.349,1.257a40.168,40.168,0,0,0-.419,12.148h0c-2.583,8.378-5.725,21.573-16.686,20.037-6.353-.908-12.218-5.446-17.733-8.448C287.056,219.223,281.61,216.919,275.676,216.989Zm24.715,17.035c-1.257,1.187-2.793,2.234-4.538,2.094-2.234-.14-2.513-2.793-2.374-4.608A35.657,35.657,0,0,0,300.391,234.024Zm-16.407,40.284h0c1.815-5.376,4.748-10.263,7.331-15.29h0c.07-.07.07-.209.14-.279.209,1.536.279,3.072.349,4.678h0c.07,1.745,0,3.491,0,5.166h0c0,.349.349.489.768.489h0C289.988,271.236,287.335,273.61,283.984,274.308Zm11.729-5.934c-.07-.14-.349-.209-.628-.14a1.253,1.253,0,0,0-1.257-.279c0-5.795.279-12.776-2.723-17.873a10.212,10.212,0,0,0-.628-.908,32.314,32.314,0,0,0,13.475,1.187,26.36,26.36,0,0,0,3.281-.419,28.861,28.861,0,0,0,4.259-1.117c1.187-.349,2.3-.768,3.351-1.187,6.912-2.862,9.216-9.076,11.38-15.569.419,2.025,1.4,3.561,3.491,3.491a7.84,7.84,0,0,0,1.327,4.957,1.044,1.044,0,0,0,.977.209l.419.977c-1.676,2.932-.977,6.423-2.513,9.355a.42.42,0,0,0-.07.279,124.314,124.314,0,0,1-14.592,9.5c-5.934,3.351-12.637,6.772-19.479,7.61C295.783,268.513,295.783,268.444,295.713,268.374Zm7.191,11.38c-.209.07-.14,0,0,0Zm4.049-1.676c-.838.419-1.745.768-2.653,1.117l-1.047.419c-.07,0-.14.07-.209.07h0c-1.606-.838-3.142-3.77-4.119-5.166a36.9,36.9,0,0,1-2.793-5.166h0c5.865-.977,11.45-3.421,16.756-6.074a105.451,105.451,0,0,0,9.425-5.376h0c1.327-.838,2.583-1.676,3.91-2.583,2.094-1.466,4.189-2.932,6.214-4.538h0c.628,1.047,1.117,2.094,1.676,3.142.7,1.257,2.723,4.329,2.444,6.214,0,.07-.07.14-.07.279,0,.07,0,.07-.07.14,0,.07-.07.07-.07.14-.07.07-.07.14-.14.209a12.2,12.2,0,0,1-1.815,2.025c-3.142,2.932-7.75,5.1-11.24,6.982C317.985,272.912,312.469,275.565,306.954,278.078Z" transform="translate(0 -22.599)" fill="#3d3d3d"/>
      <path id="Trazado_3344" data-name="Trazado 3344" d="M432.185,106.32v10.054a27.147,27.147,0,0,0-4.747-1.327c-1.047-.14-2.025,1.4-.7,1.536a41.477,41.477,0,0,1,5.446,1.257v5.934c0,.279,2.025,0,2.025-.559v-5.1a6.873,6.873,0,0,0,3.561-.768c3.281-1.606,5.725-5.725,3.212-8.867-1.676-2.094-4.189-2.862-6.772-3.561V95.638a24.6,24.6,0,0,1,3.421.349c1.047.209,2.025-1.257.7-1.536a19.282,19.282,0,0,0-4.119-.349V90.053c0-.279-2.025,0-2.025.559v3.63a9.086,9.086,0,0,0-3.84,1.4c-2.653,1.815-4.119,5.655-1.606,8.169A11.528,11.528,0,0,0,432.185,106.32Zm2.025,10.193v-9.7a12.738,12.738,0,0,1,3,1.117A5.477,5.477,0,0,1,440,111c.768,2.444-2.932,5.376-4.887,5.655a3.981,3.981,0,0,1-.908.07Zm-5.1-19.479a5.851,5.851,0,0,1,3.072-1.327v8.657a14.074,14.074,0,0,1-1.606-.489C427.367,102.829,426.39,99.548,429.113,97.034Z" transform="translate(-108.824 -5.205)" fill="#3d3d3d"/>
      <path id="Trazado_3345" data-name="Trazado 3345" d="M382.664,227.8c.279-.14.628-.559.209-.768-1.117-.559-2.164-1.117-3.281-1.676a1.6,1.6,0,0,0-1.466.209c-.279.14-.628.559-.209.768,1.117.559,2.164,1.117,3.281,1.676A2.066,2.066,0,0,0,382.664,227.8Z" transform="translate(-94.421 -46.047)" fill="#3d3d3d"/>
      <path id="Trazado_3346" data-name="Trazado 3346" d="M180.45,149.049a43.83,43.83,0,0,0,21.364,9.006c1.955.209,10.542.768,11.31-1.955.768-2.862-.279-6.842-.628-9.774-.628-5.655-1.4-11.24-2.234-16.9-.7-4.887-1.815-9.844-2.164-14.731,2.025.628,4.4,1.745,6.214,2.444,5.236,1.885,10.4,3.77,15.639,5.655,4.678,1.676,9.355,3.421,14.033,5.027,1.466.489,4.189,2.025,5.655.908,1.4-1.047,2.3-3.98,2.932-5.585a27.96,27.96,0,0,0,1.606-7.54,34.014,34.014,0,0,0-2.234-14.661c-3.91-10.472-12.358-18.711-22.411-23.249-14.312-6.493-30.719-4.259-44.822,1.606a3.669,3.669,0,0,0-1.4.209C170.955,87.4,161.6,99.2,161.6,114.35,161.53,128.174,169.768,140.741,180.45,149.049ZM177.8,84.887a47.361,47.361,0,0,1,5.655-4.189,2.039,2.039,0,0,0,.628-.14c14.661-6.423,31.138-8.308,45.8-1.047a41.338,41.338,0,0,1,21.364,26.181,30.68,30.68,0,0,1,0,15.5,27.32,27.32,0,0,1-2.793,6.563c-.07.07,1.536.628.07.14-.7-.209-1.466-.489-2.164-.7-9.844-3.351-19.618-7.051-29.393-10.612-2.932-1.047-6.283-2.862-9.425-3.281-.419-.07-1.676.14-1.676.768.489,8.308,2.444,16.686,3.491,24.924.628,4.817,1.257,9.635,1.606,14.452.07.977.489,2.793-.489,3.072-3.98,1.257-8.518.628-12.5-.419-15.15-3.84-28.066-16.826-32.744-31.627C160.622,109.672,166.347,94.871,177.8,84.887Z" transform="translate(-29.187 -0.319)" fill="#3d3d3d"/>
      <path id="Trazado_3347" data-name="Trazado 3347" d="M87.247,381.294h9.914a1.047,1.047,0,1,0,0-2.094H87.247a1.074,1.074,0,0,0-1.047,1.047A1.028,1.028,0,0,0,87.247,381.294Z" transform="translate(-6.429 -92.513)" fill="#3d3d3d"/>
      <path id="Trazado_3348" data-name="Trazado 3348" d="M87.247,364.794h6.144a1.047,1.047,0,0,0,0-2.094H87.247a1.074,1.074,0,0,0-1.047,1.047A1.028,1.028,0,0,0,87.247,364.794Z" transform="translate(-6.429 -87.533)" fill="#3d3d3d"/>
      <path id="Trazado_3349" data-name="Trazado 3349" d="M98.3,371.947a1.074,1.074,0,0,0,1.047,1.047h11.31a1.047,1.047,0,1,0,0-2.094H99.347A1.074,1.074,0,0,0,98.3,371.947Z" transform="translate(-10.081 -90.008)" fill="#3d3d3d"/>
      <path id="Trazado_3350" data-name="Trazado 3350" d="M135.921,286.193c12.5-3.142,23.668-14.173,24.924-27.228.977-10.542-4.887-20.6-13.754-25.9-10.4-6.284-23.249-4.887-34.07-.419a1.464,1.464,0,0,0-.977.14C99.9,240.6,93.4,253.728,99.337,267.692S121.12,289.893,135.921,286.193Zm-4.538-.419c-8.308.977-16.477-2.653-22.481-8.169a26.084,26.084,0,0,1,7.261-6.563c.07-.07.14-.07.209-.14,11.24-4.608,24.575-3,31.068,8.169A34.3,34.3,0,0,1,131.383,285.774ZM98.988,255.055c.349-8.518,5.725-15.429,12.427-20.247.279-.209.628-.419.908-.628a1.294,1.294,0,0,0,.489-.14c13.2-5.725,28.9-5.865,39.167,5.376a26.387,26.387,0,0,1,2.793,31.557,29.548,29.548,0,0,1-5.795,6.772c-7.191-11.38-21.154-12.008-32.744-7.61a1.645,1.645,0,0,0-1.4.07,30.409,30.409,0,0,0-7.121,6.214c-.628-.628-1.257-1.327-1.885-2.025A28.338,28.338,0,0,1,98.988,255.055Z" transform="translate(-9.722 -47.121)" fill="#3d3d3d"/>
      <path id="Trazado_3351" data-name="Trazado 3351" d="M144.768,264.7c5.446-3.7,7.121-10.682,3.491-16.2-3.98-6.074-12.008-5.934-18.082-3.561a1.408,1.408,0,0,0-.768.209c-6.423,4.259-8.448,11.52-3.351,17.8C130.8,268.819,138.833,268.68,144.768,264.7Zm-14.522-18.781h.07c5.725-2.444,12.148-1.955,16.058,3.351,3.072,4.189,2.164,9.914-1.327,13.544-5.1,5.306-12.5,4.468-17.175-.7C123.194,256.741,124.87,249.829,130.246,245.919Z" transform="translate(-17.591 -51.53)" fill="#3d3d3d"/>
      <path id="Trazado_3352" data-name="Trazado 3352" d="M87.247,372.994h3.98a1.047,1.047,0,0,0,0-2.094h-3.98a1.074,1.074,0,0,0-1.047,1.047A.989.989,0,0,0,87.247,372.994Z" transform="translate(-6.429 -90.008)" fill="#3d3d3d"/>
    </g>
    <rect id="Rectángulo_4517" data-name="Rectángulo 4517" width="400" height="400" transform="translate(3472 1268)" fill="none"/>
  </g>
</svg>
