<svg xmlns="http://www.w3.org/2000/svg" xmlns:xlink="http://www.w3.org/1999/xlink" width="139.779" height="37.505" viewBox="0 0 139.779 37.505">
  <defs>
    <linearGradient id="linear-gradient" y1="0.5" x2="1" y2="0.5" gradientUnits="objectBoundingBox">
      <stop offset="0" stop-color="#7dc9c9"/>
      <stop offset="1" stop-color="#378ccd"/>
    </linearGradient>
    <linearGradient id="linear-gradient-3" x1="0" y1="0.5" x2="1" y2="0.5" xlink:href="#linear-gradient"/>
    <linearGradient id="linear-gradient-4" y1="0.5" x2="1" y2="0.5" gradientUnits="objectBoundingBox">
      <stop offset="0" stop-color="#296897"/>
      <stop offset="1" stop-color="#378ccd"/>
    </linearGradient>
  </defs>
  <g id="Logo_Smart_-_Lite" data-name="Logo Smart - Lite" transform="translate(-0.001 4.101)">
    <path id="Trazado_3229" data-name="Trazado 3229" d="M8.071-11.8c4.616,0,6.8-2.308,6.8-5,0-6.179-9.978-3.847-9.978-7.429,0-1.274,1.058-2.284,3.655-2.284a9.353,9.353,0,0,1,4.64,1.322l.986-2.428a10.64,10.64,0,0,0-5.6-1.491C3.96-29.11,1.8-26.8,1.8-24.085c0,6.251,10,3.871,10,7.5,0,1.25-1.106,2.188-3.727,2.188a9.325,9.325,0,0,1-5.554-1.851L1.435-13.818A10.844,10.844,0,0,0,8.071-11.8ZM33.893-25.023a5.993,5.993,0,0,0-4.809,2.14,4.81,4.81,0,0,0-4.328-2.14,5.318,5.318,0,0,0-4.208,1.779v-1.635H17.688v12.839h3.005v-6.516c0-2.549,1.346-3.847,3.342-3.847,1.827,0,2.885,1.106,2.885,3.39v6.973h3.005v-6.516c0-2.549,1.37-3.847,3.342-3.847,1.827,0,2.885,1.106,2.885,3.39v6.973h3.005V-19.4C39.159-23.267,36.995-25.023,33.893-25.023Zm14.017,0a9.027,9.027,0,0,0-5.434,1.587l1.178,2.188a6.356,6.356,0,0,1,3.9-1.274c2.14,0,3.2,1.034,3.2,2.789v.192H47.43c-3.9,0-5.338,1.683-5.338,3.823,0,2.236,1.851,3.847,4.785,3.847,1.923,0,3.318-.625,4.039-1.731v1.563h2.837v-7.526C53.753-23.267,51.613-25.023,47.911-25.023ZM47.5-14.059c-1.539,0-2.452-.7-2.452-1.779,0-.938.553-1.707,2.6-1.707h3.1v1.491A3.273,3.273,0,0,1,47.5-14.059ZM60.461-23v-1.875H57.6v12.839h3.005v-6.227c0-2.621,1.443-3.967,3.727-3.967a3.815,3.815,0,0,1,.7.072v-2.861C62.89-25.023,61.327-24.349,60.461-23Zm14.474,8.127a2.7,2.7,0,0,1-1.683.529c-1.154,0-1.779-.673-1.779-1.923v-6.107h3.438v-2.4H71.473v-2.933H68.468v2.933H66.352v2.4h2.116V-16.2c0,2.837,1.611,4.328,4.424,4.328a4.723,4.723,0,0,0,2.885-.866Z" transform="translate(64.004 28.959)" fill="#232b59"/>
    <path id="Trazado_3228" data-name="Trazado 3228" d="M2.946-6.189V-8.574H6.651v-.9H2.946v-2.269H7.1v-.918H1.89v7.389H7.252v-.918ZM14.219-12.66,11.538-6.59l-2.66-6.07H7.738l3.251,7.389h1.045l3.241-7.389Zm5.046,7.473a3.744,3.744,0,0,0,3.916-3.779,3.744,3.744,0,0,0-3.916-3.779,3.756,3.756,0,0,0-3.937,3.779A3.756,3.756,0,0,0,19.264-5.186Zm0-.939a2.779,2.779,0,0,1-2.882-2.839A2.779,2.779,0,0,1,19.264-11.8a2.774,2.774,0,0,1,2.861,2.839A2.774,2.774,0,0,1,19.264-6.126Zm5.531.855h5.056v-.918h-4V-12.66H24.8Zm9.1.084c1.953,0,3.124-1.129,3.124-3.272v-4.2H36V-8.5c0,1.636-.76,2.375-2.09,2.375S31.826-6.864,31.826-8.5V-12.66H30.77v4.2C30.77-6.316,31.952-5.186,33.895-5.186Zm6.513-.084h1.045v-6.471h2.533v-.918H37.874v.918h2.533Zm4.729,0h1.056V-12.66H45.136Zm6.608.084A3.744,3.744,0,0,0,55.66-8.965a3.744,3.744,0,0,0-3.916-3.779,3.756,3.756,0,0,0-3.937,3.779A3.756,3.756,0,0,0,51.744-5.186Zm0-.939a2.779,2.779,0,0,1-2.882-2.839A2.779,2.779,0,0,1,51.744-11.8,2.774,2.774,0,0,1,54.6-8.965,2.774,2.774,0,0,1,51.744-6.126Zm10.83-6.534v5.51l-4.433-5.51h-.866v7.389h1.056v-5.51l4.433,5.51h.866V-12.66Z" transform="translate(69.68 34.642)" fill="#5ea3a3"/>
    <g id="Grupo_1505" data-name="Grupo 1505" transform="translate(0.001 -4.101)">
      <path id="Trazado_3221" data-name="Trazado 3221" d="M172.08,7.693V38.461h15.355V1.93Z" transform="translate(-128.721 -1.443)" fill="url(#linear-gradient)"/>
      <path id="Trazado_3222" data-name="Trazado 3222" d="M87.01,64.044h13.831V36.13L87.01,41.318Z" transform="translate(-65.086 -27.025)" fill="url(#linear-gradient)"/>
      <path id="Trazado_3223" data-name="Trazado 3223" d="M1.93,88.347H15.38V68.62L1.93,73.667Z" transform="translate(-1.444 -51.329)" fill="url(#linear-gradient-3)"/>
      <path id="Trazado_3224" data-name="Trazado 3224" d="M63.3,88.279,55.31,81.345V68.62l7.988,8.3Z" transform="translate(-41.374 -51.329)" fill="url(#linear-gradient-4)"/>
      <path id="Trazado_3225" data-name="Trazado 3225" d="M149.5,63.976,141.9,54.7V36.13l7.6,8.693Z" transform="translate(-106.145 -27.025)" fill="url(#linear-gradient-4)"/>
      <path id="Trazado_3226" data-name="Trazado 3226" d="M.49,37.5a.487.487,0,0,1-.209-.927l19.087-9.056a.5.5,0,0,1,.209-.048H35.529L58.343.171A.487.487,0,0,1,59.089.8L36.129,28.269a.486.486,0,0,1-.373.174H19.688L.7,37.453a.478.478,0,0,1-.209.048Z" transform="translate(-0.001 0.004)" fill="#fff"/>
    </g>
  </g>
</svg>
