<svg xmlns="http://www.w3.org/2000/svg" width="112" height="34" viewBox="0 0 112 34">
  <g id="Tooltip" transform="translate(24466 15022)">
    <g id="Trazado_3357" data-name="Trazado 3357" transform="translate(-24466 -15014)" fill="#63595c">
      <path d="M 106.8028259277344 25.5 L 5.197171211242676 25.5 C 3.909242868423462 25.5 2.704828500747681 25.15904235839844 1.805799961090088 24.53995704650879 C 0.9637428522109985 23.96008491516113 0.5 23.20758628845215 0.5 22.42105674743652 L 0.5 2.73684287071228 C 0.5 1.950314283370972 0.9637428522109985 1.197814226150513 1.805799961090088 0.6179428696632385 C 2.704828500747681 -0.001142857130616903 3.909242868423462 -0.3420999944210052 5.197171211242676 -0.3420999944210052 L 5.414385795593262 -0.3420999944210052 L 5.562628746032715 -0.5008714199066162 L 11.87729740142822 -7.26381778717041 L 18.07587051391602 -0.5041714310646057 L 18.22448539733887 -0.3420999944210052 L 18.44438552856445 -0.3420999944210052 L 106.8028259277344 -0.3420999944210052 C 108.0907745361328 -0.3420999944210052 109.2951889038086 -0.001142857130616903 110.1941986083984 0.6179428696632385 C 111.0362548828125 1.197814226150513 111.5 1.950314283370972 111.5 2.73684287071228 L 111.5 22.42105674743652 C 111.5 23.20758628845215 111.0362548828125 23.96008491516113 110.1941986083984 24.53995704650879 C 109.2951889038086 25.15904235839844 108.0907745361328 25.5 106.8028259277344 25.5 Z" stroke="none"/>
      <path d="M 11.87397766113281 -6.52763557434082 L 5.631599426269531 0.1578922271728516 L 5.197166442871094 0.1578922271728516 C 4.026725769042969 0.1578922271728516 2.89398193359375 0.475677490234375 2.089385986328125 1.029754638671875 C 1.682525634765625 1.30992317199707 1 1.904245376586914 1 2.736845970153809 L 1 22.42104721069336 C 1 23.25364685058594 1.682525634765625 23.84796905517578 2.089385986328125 24.12813949584961 C 2.89398193359375 24.68221473693848 4.026725769042969 25 5.197166442871094 25 L 106.8028335571289 25 C 107.973274230957 25 109.1060180664062 24.68221473693848 109.9106140136719 24.12813949584961 C 110.3174743652344 23.84796905517578 111 23.25364685058594 111 22.42104721069336 L 111 2.736845970153809 C 111 1.904245376586914 110.3174743652344 1.30992317199707 109.9106140136719 1.029754638671875 C 109.1060180664062 0.475677490234375 107.973274230957 0.1578922271728516 106.8028335571289 0.1578922271728516 L 18.00458526611328 0.1578922271728516 L 11.87397766113281 -6.52763557434082 M 11.880615234375 -8 L 18.44438171386719 -0.8421077728271484 L 106.8028335571289 -0.8421077728271484 C 109.6731567382812 -0.8421077728271484 112 0.7602462768554688 112 2.736845970153809 L 112 22.42104721069336 C 112 24.39764595031738 109.6731567382812 26 106.8028335571289 26 L 5.197166442871094 26 C 2.32684326171875 26 0 24.39764595031738 0 22.42104721069336 L 0 2.736845970153809 C 0 0.7602462768554688 2.32684326171875 -0.8421077728271484 5.197166442871094 -0.8421077728271484 L 11.880615234375 -8 Z" stroke="none" fill="#8c7e82"/>
    </g>
    <text id="Lorem_ipsum" data-name="Lorem ipsum" transform="translate(-24458 -14996)" fill="#fff" font-size="14" font-family="Montserrat-SemiBold, Montserrat" font-weight="600"><tspan x="0" y="0">Lorem ipsum</tspan></text>
  </g>
</svg>
